<svg xmlns="http://www.w3.org/2000/svg" width="1920" height="1080" viewBox="0 0 1920 1080" preserveAspectRatio="xMidYMid meet" style="width: 100%; height: 100%;"><defs><clipPath id="animationMask_WDEQN9O6E5"><rect width="1920" height="1080" x="0" y="0"></rect></clipPath><clipPath id="enJKxCJkul"><path fill="#ffffff" clip-rule="nonzero" d=" M1864,1209 C1864,1209 2179,935.512 2179,935.512 C2179,935.512 1709,795 1709,795 C1709,795 1780,510 1780,510 C1780,510 1310,866 1310,866 C1310,866 1864,1209 1864,1209" fill-opacity="1"></path></clipPath><clipPath id="vAiIlHrXoM"><path fill="#ffffff" clip-rule="nonzero" d=" M-10,148 C-10,148 101,186 101,186 C101,186 63,344 63,344 C63,344 512,156 512,156 C512,156 -20,-115 -20,-115 C-20,-115 -10,148 -10,148" fill-opacity="1"></path></clipPath></defs><g clip-path="url(#animationMask_WDEQN9O6E5)"><g transform="matrix(1,0,0,1,0,0)" opacity="1"><rect width="1920" height="1080" fill="#ffffff"></rect></g><g clip-path="url(#vAiIlHrXoM)" transform="matrix(1,0,0,1,0,0)" opacity="1"><rect width="1920" height="1080" fill="#5e94e5"></rect></g><g clip-path="url(#enJKxCJkul)" transform="matrix(1,0,0,1,0,0)" opacity="1"><rect width="1920" height="1080" fill="#5e94e5"></rect></g><g fill="rgb(255,255,255)" font-size="72" font-family="Lobster 1.4" font-style="normal" font-weight="400" transform="matrix(1,0,0,1,166.5,177)" opacity="1"><path stroke-linecap="butt" stroke-linejoin="round" stroke-miterlimit="4" d=" M39.44519999999999,-45.68112 C39.44519999999999,-53.65728 31.17888,-54.38232 27.771119999999996,-54.38232 C18.417599999999997,-54.38232 11.021759999999999,-48.94416 11.021759999999999,-41.402879999999996 C11.021759999999999,-30.744 25.88616,-26.32104 25.88616,-13.921919999999998 C25.88616,-7.831440000000001 22.33296,-4.27824 17.47512,-4.27824 C12.834719999999999,-4.27824 10.514159999999999,-7.613999999999999 10.514159999999999,-11.239199999999999 C10.514159999999999,-16.24248 15.08184,-18.05472 18.9972,-18.05472 C18.77976,-21.82536 15.154559999999998,-22.84056 12.61656,-22.84056 C7.54056,-22.84056 1.9576799999999999,-18.77976 1.9576799999999999,-10.94904 C1.9576799999999999,-2.1031199999999997 9.06336,1.5228000000000002 17.32968,1.5228000000000002 C27.843839999999997,1.5228000000000002 37.70496,-4.42296 37.70496,-16.60464 C37.70496,-32.266799999999996 21.39048,-33.716879999999996 21.39048,-44.37576 C21.39048,-48.726 24.0732,-50.97456 28.061279999999996,-50.97456 C32.04936,-50.97456 33.42672,-48.654 33.42672,-46.116 C33.42672,-43.72344 32.12208,-41.04 30.1644,-39.88008 C31.10688,-38.792159999999996 32.19408,-38.358 33.49944,-38.358 C37.12464,-38.358 39.44519999999999,-41.47559999999999 39.44519999999999,-45.68112z M58.390559999999994,-25.813439999999996 C59.26031999999999,-25.23312 60.13007999999999,-24.943679999999997 60.927839999999996,-24.943679999999997 C63.03095999999999,-24.943679999999997 64.7712,-26.6832 64.7712,-30.236399999999996 C64.7712,-33.57216 63.17568,-36.907199999999996 56.722319999999996,-36.907199999999996 C42.00264,-36.907199999999996 37.21751999999999,-19.5048 37.21751999999999,-11.09376 C37.21751999999999,-2.9001599999999996 41.71248,0.43488 48.52871999999999,0.43488 C58.172399999999996,0.43488 64.33632,-6.3086400000000005 68.46911999999999,-12.97944 C68.46911999999999,-12.97944 66.00384,-12.97944 66.00384,-12.97944 C62.37864,-8.84664 58.89816,-5.6556 53.16983999999999,-5.6556 C49.68935999999999,-5.6556 47.94911999999999,-6.8162400000000005 47.94911999999999,-11.7468 C47.94911999999999,-19.79568 52.661519999999996,-33.06456 57.22991999999999,-33.06456 C58.607279999999996,-33.06456 59.26031999999999,-31.904639999999997 59.26031999999999,-30.091679999999997 C59.26031999999999,-28.85904 58.970879999999994,-27.408959999999997 58.390559999999994,-25.813439999999996z M67.85855999999998,-36.25488 C67.85855999999998,-36.25488 60.17255999999999,0 60.17255999999999,0 C60.17255999999999,0 70.61399999999999,0 70.61399999999999,0 C70.61399999999999,0 76.41503999999999,-27.553679999999996 76.41503999999999,-27.553679999999996 C78.228,-29.2212 79.53263999999999,-30.309119999999997 81.70776,-30.309119999999997 C83.88287999999999,-30.309119999999997 81.85247999999999,-25.523279999999996 85.91327999999999,-25.523279999999996 C89.46647999999999,-25.523279999999996 91.13399999999999,-28.27872 91.13399999999999,-30.81672 C91.13399999999999,-33.57216 89.39447999999999,-36.25488 86.13143999999998,-36.25488 C82.65096,-36.25488 79.89551999999999,-33.93432 77.35752,-31.7592 C77.35752,-31.7592 78.29999999999998,-36.25488 78.29999999999998,-36.25488 C78.29999999999998,-36.25488 67.85855999999998,-36.25488 67.85855999999998,-36.25488z M93.50064,-45.898559999999996 C93.50064,-42.708239999999996 96.03864,-40.17024 99.22896,-40.17024 C102.41928,-40.17024 105.03,-42.708239999999996 105.03,-45.898559999999996 C105.03,-49.08888 102.41928,-51.699600000000004 99.22896,-51.699600000000004 C96.03864,-51.699600000000004 93.50064,-49.08888 93.50064,-45.898559999999996z M92.05056,-36.25488 C92.05056,-36.25488 87.12,-12.97944 87.12,-12.97944 C86.75712,-11.239199999999999 86.53968,-9.64368 86.53968,-8.26632 C86.53968,-2.1758399999999996 89.94816,0.43488 94.2984,0.43488 C98.21376000000001,0.43488 105.39288,-1.1606400000000001 109.52568000000001,-12.97944 C109.52568000000001,-12.97944 106.48008,-12.97944 106.48008,-12.97944 C105.39216,-9.35424 102.78216,-6.5980799999999995 99.95400000000001,-6.5980799999999995 C97.92360000000001,-6.5980799999999995 96.98112,-7.251119999999999 96.98112,-9.28152 C96.98112,-9.93384 97.05384000000001,-10.65888 97.27128,-11.60136 C97.27128,-11.60136 102.492,-36.25488 102.492,-36.25488 C102.492,-36.25488 92.05056,-36.25488 92.05056,-36.25488z M103.46400000000001,-12.97944 C103.10112000000001,-11.45664 102.95640000000002,-10.07856 102.95640000000002,-8.84592 C102.95640000000002,-3.04488 106.43688000000002,0.43488 113.10768000000002,0.43488 C128.47968,0.43488 132.97536000000002,-15.58944 132.97536000000002,-24.0732 C132.97536000000002,-33.282 129.49560000000002,-36.472319999999996 124.41960000000002,-36.472319999999996 C122.96952000000002,-36.472319999999996 121.44672000000001,-36.25488 118.47384000000001,-34.441919999999996 C118.47384000000001,-34.441919999999996 121.95432000000001,-50.75711999999999 121.95432000000001,-50.75711999999999 C121.95432000000001,-50.75711999999999 111.22272000000001,-49.30631999999999 111.22272000000001,-49.30631999999999 C111.22272000000001,-49.30631999999999 103.46400000000001,-12.97944 103.46400000000001,-12.97944z M125.65224,-24.36336 C125.65224,-16.75008 121.8816,-6.5980799999999995 117.16848000000002,-6.5980799999999995 C114.55848000000002,-6.5980799999999995 113.32512000000001,-7.8307199999999995 113.32512000000001,-9.93384 C113.32512000000001,-10.44144 113.39784000000002,-11.02104 113.54256000000001,-11.60136 C113.54256000000001,-11.60136 117.53064,-30.018959999999996 117.53064,-30.018959999999996 C118.32840000000002,-30.96144 120.79368000000001,-31.32432 121.80888000000002,-31.32432 C124.41888000000002,-31.32432 125.65224,-27.91656 125.65224,-24.36336z M132.55200000000002,-12.97944 C132.18912000000003,-11.45664 132.04440000000002,-10.07856 132.04440000000002,-8.84592 C132.04440000000002,-3.04488 135.52488000000002,0.43488 142.19568,0.43488 C157.56768000000002,0.43488 162.06336000000002,-15.58944 162.06336000000002,-24.0732 C162.06336000000002,-33.282 158.58360000000002,-36.472319999999996 153.50760000000002,-36.472319999999996 C152.05752,-36.472319999999996 150.53472000000002,-36.25488 147.56184000000002,-34.441919999999996 C147.56184000000002,-34.441919999999996 151.04232000000002,-50.75711999999999 151.04232000000002,-50.75711999999999 C151.04232000000002,-50.75711999999999 140.31072000000003,-49.30631999999999 140.31072000000003,-49.30631999999999 C140.31072000000003,-49.30631999999999 132.55200000000002,-12.97944 132.55200000000002,-12.97944z M154.74024000000003,-24.36336 C154.74024000000003,-16.75008 150.9696,-6.5980799999999995 146.25648,-6.5980799999999995 C143.64648000000003,-6.5980799999999995 142.41312000000002,-7.8307199999999995 142.41312000000002,-9.93384 C142.41312000000002,-10.44144 142.48584000000002,-11.02104 142.63056000000003,-11.60136 C142.63056000000003,-11.60136 146.61864000000003,-30.018959999999996 146.61864000000003,-30.018959999999996 C147.4164,-30.96144 149.88168000000002,-31.32432 150.89688,-31.32432 C153.50688000000002,-31.32432 154.74024000000003,-27.91656 154.74024000000003,-24.36336z M169.39872000000003,-49.30631999999999 C169.39872000000003,-49.30631999999999 161.64000000000001,-12.97944 161.64000000000001,-12.97944 C161.27712000000002,-11.239199999999999 161.05968000000001,-9.64368 161.05968000000001,-8.26632 C161.05968000000001,-2.1758399999999996 164.46816,0.43488 168.81840000000003,0.43488 C172.73376000000002,0.43488 179.91288000000003,-1.1606400000000001 184.04568,-12.97944 C184.04568,-12.97944 181.00008000000003,-12.97944 181.00008000000003,-12.97944 C179.91216000000003,-9.35424 177.30216000000001,-6.5980799999999995 174.47400000000002,-6.5980799999999995 C172.4436,-6.5980799999999995 171.50112000000001,-7.251119999999999 171.50112000000001,-9.28152 C171.50112000000001,-9.93384 171.57384000000002,-10.65888 171.79128000000003,-11.60136 C171.79128000000003,-11.60136 180.13032,-50.75711999999999 180.13032,-50.75711999999999 C180.13032,-50.75711999999999 169.39872000000003,-49.30631999999999 169.39872000000003,-49.30631999999999z M182.91456,-36.25488 C182.91456,-36.25488 175.22856000000002,0 175.22856000000002,0 C175.22856000000002,0 185.67000000000002,0 185.67000000000002,0 C185.67000000000002,0 191.47104000000002,-27.553679999999996 191.47104000000002,-27.553679999999996 C193.28400000000002,-29.2212 194.58864,-30.309119999999997 196.76376000000002,-30.309119999999997 C198.93888,-30.309119999999997 196.90848,-25.523279999999996 200.96928,-25.523279999999996 C204.52248,-25.523279999999996 206.19,-28.27872 206.19,-30.81672 C206.19,-33.57216 204.45048,-36.25488 201.18744,-36.25488 C197.70696,-36.25488 194.95152000000002,-33.93432 192.41352,-31.7592 C192.41352,-31.7592 193.356,-36.25488 193.356,-36.25488 C193.356,-36.25488 182.91456,-36.25488 182.91456,-36.25488z" style="display: inherit;"></path></g></g></svg>