<svg id="Layer_1" data-name="Layer 1" xmlns="http://www.w3.org/2000/svg" viewBox="0 0 1000 1000"><defs><style>.cls-1{fill:#aad7f2;}.cls-2{fill:#fff;}.cls-3{fill:none;}</style></defs><title>covers</title><rect class="cls-1" x="2" y="1" width="1000" height="1000"/><path class="cls-2" d="M434.88,324.13c4.8.36,10.29.94,15.57.94,11.17,0,19.25,6.77,28.58,10.76,8.87,3.79,15.24,10.62,21,18.14a23,23,0,0,0,8.12,6.78c5,2.39,8.79,6.27,13.13,9.45a13.1,13.1,0,0,1,5.2,10.9c0,6.5,1.14,12.88,1.7,19.3,2.16,24.51,1.79,23.38-2.61,43.42a6.19,6.19,0,0,0-.23,1.23c-.15,12.94-8.14,20.76-17.82,27.56-3.54,2.49-6,6.42-10.56,7.59-6.46,1.64-12.46,4.75-18.71,6.71-5.66,1.77-11.53,3.27-17.31,4.88-2.12.59-4.92,1-6.72.06-4.68-2.33-9.47-.54-14.15-1-2.55-.25-5.26,0-8-.33a129.44,129.44,0,0,1-33.65-8.74c-9.54-3.95-17.09-10.07-23.59-17.74a107.92,107.92,0,0,1-20.56-38.11c-3.92-12.65-7.61-25.52-6.46-39.21,1.64-19.54,9.82-35.11,26.4-45.9C392.49,328.94,412.76,324.22,434.88,324.13Zm7.34,33.14a22.33,22.33,0,0,0-6.1-.1c-8.31.89-16,4.48-24.18,5.71a14.14,14.14,0,0,0-8.62,4.39c-1.26,1.37-3.17,1.94-4.83,2.82-5.89,3.11-12.29,5.24-17.55,9.55-8.06,6.62-13.36,14.6-11.5,25.43a121.57,121.57,0,0,0,6.36,24.19,44.25,44.25,0,0,0,8.76,13.59c5.95,6.54,13.72,10.11,21.49,13.69,3.78,1.74,7.53,3.76,11.73,4.27a99.24,99.24,0,0,0,39.58-3.1,43,43,0,0,1,7.26-1.84c9-.91,16.55-5.33,24.19-9.68a11.8,11.8,0,0,0,6.25-9.46c.26-2.07,1-4.22.65-6.21-.93-5.93,1.87-10.71,4.89-15.07,5.72-8.25,4.56-15.92-.47-23.78a29.61,29.61,0,0,0-9.48-9c-9.36-5.9-18.66-11.88-27.46-18.62C457,359.37,450.23,356.59,442.22,357.27Z"/><path class="cls-2" d="M527.22,726.4c2.94.22,6.29.57,9.51.58,6.83,0,11.77,4.14,17.47,6.58,5.42,2.32,9.31,6.49,12.83,11.09a14,14,0,0,0,5,4.15c3,1.46,5.37,3.83,8,5.78a8,8,0,0,1,3.18,6.66c0,4,.69,7.87,1,11.8,1.32,15,1.1,14.29-1.59,26.54a3.81,3.81,0,0,0-.14.75c-.09,7.91-5,12.69-10.89,16.84-2.16,1.52-3.66,3.93-6.45,4.64-3.95,1-7.62,2.9-11.44,4.1-3.46,1.08-7,2-10.58,3a6.36,6.36,0,0,1-4.11,0c-2.86-1.43-5.79-.33-8.65-.61-1.56-.15-3.22,0-4.86-.2A79.1,79.1,0,0,1,505,822.76a37.52,37.52,0,0,1-14.42-10.84A66,66,0,0,1,478,788.62c-2.4-7.73-4.65-15.6-3.95-24,1-11.94,6-21.46,16.14-28.05C501.31,729.35,513.7,726.46,527.22,726.4Zm4.48,20.26a13.64,13.64,0,0,0-3.73-.06c-5.08.54-9.76,2.74-14.78,3.49a8.64,8.64,0,0,0-5.27,2.68,10.18,10.18,0,0,1-3,1.72c-3.6,1.9-7.51,3.2-10.73,5.84-4.93,4-8.16,8.92-7,15.54a74.29,74.29,0,0,0,3.89,14.78,27,27,0,0,0,5.36,8.31c3.64,4,8.39,6.18,13.14,8.37,2.31,1.06,4.61,2.3,7.17,2.61A60.65,60.65,0,0,0,541,808a26.29,26.29,0,0,1,4.44-1.13c5.52-.56,10.12-3.26,14.79-5.91a7.21,7.21,0,0,0,3.82-5.78,14.34,14.34,0,0,0,.4-3.79c-.57-3.62,1.14-6.54,3-9.21,3.5-5,2.79-9.73-.29-14.53a18.1,18.1,0,0,0-5.79-5.48c-5.72-3.61-11.41-7.26-16.78-11.38C540.76,747.94,536.6,746.24,531.71,746.66Z"/><path class="cls-3" d="M891.25,951.76a98.68,98.68,0,0,0,10.54-24.43c1.54-5.72,3.86-11.44.27-15.85-1-1.28-.32-3.75-.12-5.77a64.24,64.24,0,0,0-5.74-34.37c-2.37-5.12-4.65-10.54-7.08-15.67-2.87-6.08-5.88-12.37-10.15-17.53-12.56-15.21-30.6-19.69-48.32-25.5-12.79-4.19-26.93-3.14-40.88-3.24-1.15,0-2.37-.25-3.06,1.11-2.73,5.37-7.38,5.2-11.14,7.62s-8,2-11.24,5.44c-5.55,5.83-12.1,9.59-17.69,15.54-10.76,11.44-19,23.77-21.83,40.47-2.71,8.45-2.22,16.78.44,25,10.91,33.65,28.28,58.75,55.32,72.47,11.11,5.64,22.21,10.36,35.84,9.3,10.91-.85,22-3.44,32.57-3a9.89,9.89,0,0,0,5-1.44c6.57-3.81,13.29-6.29,20-8.78a20,20,0,0,0,11.72-11.39A93.89,93.89,0,0,1,891.25,951.76Z"/><path class="cls-2" d="M895.14,995.08a21.58,21.58,0,0,0,7.3-6.63c12.18-18.48,19.15-38.56,23.75-59.72C928.9,916.27,928,904,932.52,891c2.95-8.51,1.51-16.84-2.11-21.54-4.11-5.34-4.24-12.1-5.34-18.88-.73-4.5-1-9.32-2.95-13.11-9.81-19-22.42-35.5-38.21-49-1.34-1.14-2.48-3.75-4.53-2.22-4.22,3.15-5.5.58-7.37-2.78-3.05-5.48-5.73-4.73-9.43,1.67-2.2-7.62-8.23-9.93-13.53-13.63.94,4.11.75,8.87,3.84,11,1.25.86,3.4.81,2,3.86-1.23,2.75-3.22,4.51-5.55,4.55a5.19,5.19,0,0,1-3.54-1.54c-4.8-4.75-11.19-5.9-16.9-8.76-14.8-7.41-31.2-6.1-47.91-2.13-12.41,2.94-24.48,7.32-36,17-10.59,8.94-20,18.46-27.44,30.78-4.27,7-6.53,15-9.23,22.59-7.12,20.07-7.8,40.23-6.9,59.47.59,12.58,4.42,24.31,9.41,34.9,3.25,6.9,6.56,13.45,11.37,19.08a359.56,359.56,0,0,0,34.78,35.08c1.4,1.24,2.82,2.45,4.26,3.62H886C889,998.92,892,996.92,895.14,995.08ZM874,973.13c-6.73,2.49-13.45,5-20,8.78a9.89,9.89,0,0,1-5,1.44c-10.58-.46-21.66,2.12-32.57,3-13.63,1.06-24.73-3.66-35.84-9.3-27-13.73-44.41-38.82-55.32-72.47-2.66-8.21-3.15-16.54-.44-25,2.81-16.7,11.07-29,21.83-40.47,5.59-5.95,12.14-9.71,17.69-15.54,3.23-3.39,7.56-3.08,11.24-5.44s8.41-2.24,11.14-7.62c.69-1.36,1.91-1.11,3.06-1.11,14,.09,28.09-1,40.88,3.24,17.72,5.81,35.75,10.29,48.32,25.5,4.27,5.17,7.28,11.46,10.15,17.53,2.43,5.13,4.71,10.55,7.08,15.67a64.24,64.24,0,0,1,5.74,34.37c-.2,2-.92,4.49.12,5.77,3.59,4.41,1.27,10.14-.27,15.85a98.68,98.68,0,0,1-10.54,24.43,93.89,93.89,0,0,0-5.52,10A20,20,0,0,1,874,973.13Z"/><path class="cls-2" d="M812.58,22.52a60.64,60.64,0,0,0,23.81-1.28c8.55-2.26,17.08-5,25.57-7.65,5.62-1.79,11.32-3.35,16.64-7.29Q882.28,3.58,886,1H761.32c8.66,7.1,18,12.87,28.66,16.1A145.13,145.13,0,0,0,812.58,22.52Z"/><path class="cls-2" d="M774.55,770.07a35.43,35.43,0,0,1,9.87-4.37c7.36-1.93,13.87.27,20.56,1.49,3.44.62,6.79,2,10.16-1.88h0c.29-3,.28-6.22,3.76-8.67a50.16,50.16,0,0,0-25.58,0,70.81,70.81,0,0,0-20,8.41c-1.56,1-3.66,2.07-3,4.64C771,772.48,773,771,774.55,770.07Z"/><path class="cls-2" d="M829.45,763.27c4.72-2.6,7,.53,9.53,3.85,2,2.63,4.61,4.52,7,6.7.22-2.67.45-5.36.66-8,.19-2.31-.36-4-2.21-4.44-4.69-1.11-9.39-2.26-14.16-3.23-1.43-.29-3,.5-3.26,2.69S827.86,764.14,829.45,763.27Z"/><path class="cls-2" d="M846.12,774l-.17-.15,0,.25Z"/><path class="cls-2" d="M827.7,774.07c1.39.7,3.45-.54,4.27-2.79s-.76-3.13-1.9-3.55c-4.67-1.69-9.21-4.17-14.69-2.49C817.69,771.58,823.28,771.84,827.7,774.07Z"/><path class="cls-2" d="M815.15,765.31l.24-.06s0-.08-.06-.12l-.21.19.2-.17C815.25,765.21,815.2,765.25,815.15,765.31Z"/><path class="cls-2" d="M815.31,765.14l-.2.17h0C815.2,765.25,815.25,765.21,815.31,765.14Z"/><path class="cls-2" d="M839.29,773c-2,.3-2,3.1-2.51,4.93a2,2,0,0,0,1.57,2.6c1.8-.38,2.1-2.08,2.26-3.78S841,772.77,839.29,773Z"/><path class="cls-2" d="M846.09,774l-.17.08s0,.05,0,.08Z"/><path class="cls-2" d="M843,780c0,.35.9.78,1.14.59,2.19-1.75,1.79-4.15,1.77-6.45C844.28,775.68,842.76,777.31,843,780Z"/><path class="cls-2" d="M762.55,775.94a2.07,2.07,0,0,0,1.77-1.88c0-.36-.62-1.06-1-1.05a2,2,0,0,0-1.77,1.86C761.49,775.19,762.19,775.58,762.55,775.94Z"/><path class="cls-2" d="M169.75,175.87c.69-5.88.06-11.86,4.81-16.6-6.13-.71-7.72-2.69-4.86-7.35,1.75-2.85,3.15-4.9-.8-7.29-1.91-1.15-.44-3.1-.11-4.67a145.55,145.55,0,0,1,21.28-50.84c2-3.09,5.47-5.13,8.5-7.45,4.56-3.49,9.48-6.16,11.82-11.65,2.06-4.84,7.63-9.2,15-9.93,11.34-1.11,20-6.52,30.21-8.94,17.33-4.11,34.78-5.81,53.06-2.49a18.14,18.14,0,0,1,7.69,3.66A174.7,174.7,0,0,0,331,62.09c4.94,3,8.29,7.24,11.77,11.32,5.26,6.17,10.52,12.37,15.48,18.74a62.86,62.86,0,0,1,10.11,19.66A153.59,153.59,0,0,1,373.11,133c2,11.94.82,23.65-1.82,35.3A341.21,341.21,0,0,1,358.9,211c-2.28,6.2-5.82,11.48-9.64,16.83-5.86,8.22-13,15.91-22,21.16-13.8,8-28.89,15.08-46.39,16.65-6.65.6-13.34,1.68-20.16.73-11.95-1.67-22.56-6-33.21-11.57-11.55-6-19.42-14.6-26.37-24-9.35-12.64-16.64-26-16.89-41.34-.1-5.91-1.71-11.75-.07-17.61a5.38,5.38,0,0,0-.23-3.57c-.92-2-3-3-5.48-3-2.77,0-1.9,1.8-2.05,3.18C176,171.89,172.42,173.53,169.75,175.87ZM297.1,240.13c7.25-.91,13.19-4.47,18.2-9.82,20.54-22,32.3-46.14,32-74.2-.13-11.54-.94-22.71-7-33.84-4.83-8.91-11-17.3-14.74-26.43a9.75,9.75,0,0,0-3-3.7c-5.34-4.11-9.75-8.86-14.17-13.61a16.64,16.64,0,0,0-12.89-5.6A70.87,70.87,0,0,1,286,72a73,73,0,0,0-22,.32c-4.8.86-9.9,1.06-11.76,5.77-.54,1.36-2.64,1.69-4.2,2.29A49.26,49.26,0,0,0,225,98.23c-2.85,3.94-6,7.92-8.79,11.91-3.36,4.73-6.82,9.65-9,15.22-6.34,16.38-2.69,33.33-.13,50.52,1.85,12.41,8.06,24,13.37,35.81.44,1,.73,2.1,2,2.17,5,.28,6.67,4.28,9.89,6.55s4.59,6,8.33,7.45c6.43,2.49,11.71,6.61,18.24,9.09C271.49,241.74,283.74,244.06,297.1,240.13Z"/><path class="cls-2" d="M178.09,206.83c4.35,1.34,4.6,4.76,5.48,8,1.68,6.12,2.57,12.47,6.83,18a33.48,33.48,0,0,0,7,6.7c1.3.94,3.15,2.12,1.38,3.76s-3.24.16-4.57-.79a67.35,67.35,0,0,1-13.9-13.76A52.29,52.29,0,0,1,170.47,207c3.14,2,5.47.81,7.82-.1Z"/><path class="cls-2" d="M172.7,177.43c-.73,2.87-1.11,5.86-2.29,8.63-1.46,3.41-2.88,6.51.85,9.52,1.26,1,.82,2.46-.87,3a2.36,2.36,0,0,1-3.24-1.74c-1.12-4.4-2.09-8.82-3.08-13.2-.39-1.73.64-2.83,2.41-3.55l6.36-2.56Z"/><path class="cls-2" d="M178.29,206.93c-3.52-4-3.42-8.91-4-13.57-.14-1.12-.06-2.8,1.88-3s3.67,1.12,3.7,2.56c.07,4.62,2.07,9.49-1.81,13.85Z"/><path class="cls-2" d="M180.55,181.51c.22,1.06-.07,2.07-1.31,2.31-1.53.3-3.6,1.33-4.59-.26-.82-1.31,1-2,2.26-2.53S179.58,180.13,180.55,181.51Z"/><path class="cls-2" d="M172.84,177.55c1.7-.89,3.33-2.17,5.48-1,.23.13.24,1,0,1.19-1.93,1.27-3.78.52-5.61-.33Z"/><path class="cls-2" d="M206.36,247.38c-.12.44-.14,1.18-.4,1.27a1.64,1.64,0,0,1-2-.8,1.27,1.27,0,0,1,.38-1.25A1.7,1.7,0,0,1,206.36,247.38Z"/><path class="cls-2" d="M156.45,851.59c-.44,3.44,0,6.85-3.17,9.89,4.12,0,5.19,1.06,3.29,3.93-1.16,1.76-2.1,3,.56,4.15,1.29.54.3,1.76.09,2.69A86.53,86.53,0,0,1,143.11,903c-1.35,1.91-3.66,3.31-5.68,4.84-3.05,2.31-6.35,4.16-7.9,7.48-1.37,2.93-5.09,5.8-10.06,6.69-7.62,1.36-13.42,5-20.27,7.09-11.63,3.48-23.35,5.58-35.64,4.83a12.07,12.07,0,0,1-5.18-1.62,107.9,107.9,0,0,0-9.86-4.7c-3.33-1.42-5.6-3.65-7.95-5.78-3.55-3.22-7.11-6.47-10.47-9.83a30.89,30.89,0,0,1-6.86-10.7A73.17,73.17,0,0,1,20,889.35c-1.4-6.76-.64-13.6,1.1-20.5a190.89,190.89,0,0,1,8.17-25.43,45.69,45.69,0,0,1,6.42-10.33,52.9,52.9,0,0,1,14.73-13.62c9.24-5.52,19.35-10.55,31.1-12.58,4.47-.77,9-1.82,13.54-1.71a70.9,70.9,0,0,1,22.35,4.56c7.78,2.75,13.1,7.19,17.8,12.16,6.33,6.7,11.27,14,11.5,22.79.09,3.4,1.19,6.67.11,10.16a2.65,2.65,0,0,0,.17,2c.63,1.07,2,1.52,3.69,1.36,1.86-.18,1.27-1.16,1.37-2C152.28,854.29,154.68,853.11,156.45,851.59ZM70.68,822.64a23.31,23.31,0,0,0-12.19,6.84c-13.72,14-21.53,28.7-21.21,44.88.13,6.65.71,13,4.8,19.09,3.28,4.83,7.45,9.28,10,14.31a5.16,5.16,0,0,0,2,1.95,66.23,66.23,0,0,1,9.57,7,11.2,11.2,0,0,0,8.68,2.41A54.76,54.76,0,0,1,78.7,919a57.9,57.9,0,0,0,14.79-1.59c3.22-.8,6.65-1.24,7.88-4.08.36-.82,1.76-1.15,2.81-1.59a37.21,37.21,0,0,0,15.43-11.78c1.9-2.46,4-5,5.86-7.44a45.65,45.65,0,0,0,6-9.36c4.2-9.86,1.69-19.42-.09-29.17-1.28-7-5.5-13.32-9.11-19.82-.3-.54-.5-1.17-1.35-1.13-3.36.16-4.5-2-6.67-3.15s-3.1-3.17-5.62-3.77c-4.33-1-7.89-3.07-12.29-4.08C87.88,820.07,79.64,819.51,70.68,822.64Z"/><path class="cls-2" d="M150.74,834.25c-2.93-.49-3.11-2.46-3.71-4.25-1.15-3.42-1.77-7-4.65-9.93a18.86,18.86,0,0,0-4.74-3.42c-.88-.46-2.12-1-.94-2.08s2.17-.3,3.07.16a37.57,37.57,0,0,1,9.39,7.06,25.48,25.48,0,0,1,6.7,11.86c-2.12-1-3.68-.12-5.26.56Z"/><path class="cls-2" d="M154.47,850.88a31.6,31.6,0,0,1,1.51-5.13c1-2.06,1.91-3.94-.6-5.44-.85-.51-.56-1.37.57-1.8a1.51,1.51,0,0,1,2.18.8c.77,2.47,1.43,5,2.12,7.43.27,1-.42,1.67-1.61,2.2l-4.27,1.88Z"/><path class="cls-2" d="M150.61,834.21c2.38,2.1,2.33,4.92,2.72,7.58a1.42,1.42,0,0,1-1.25,1.82c-1.32.22-2.47-.41-2.49-1.24-.06-2.66-1.42-5.35,1.16-8.11Z"/><path class="cls-2" d="M149.18,849a1.08,1.08,0,0,1,.87-1.42c1-.27,2.41-1,3.09-.14s-.65,1.24-1.51,1.61S149.84,849.76,149.18,849Z"/><path class="cls-2" d="M154.37,850.82c-1.14.62-2.23,1.47-3.68.91-.16-.06-.17-.58,0-.69,1.29-.86,2.53-.54,3.77-.17Z"/><path class="cls-2" d="M131.61,812.65c.08-.26.09-.69.26-.76a1.11,1.11,0,0,1,1.38.33.73.73,0,0,1-.25.75A1.16,1.16,0,0,1,131.61,812.65Z"/><path class="cls-2" d="M722.11,99.35c1.58,4.27,4.1,8.15,2.49,13.06,4.45-1.65,6.23-.85,5.89,3.34-.2,2.57-.45,4.46,3.09,4.72,1.71.12,1.38,2,1.71,3.16a112,112,0,0,1,3.14,42.28c-.32,2.82-2,5.43-3.23,8.07-1.91,4-4.35,7.53-4,12.11.28,4-2,9-6.84,12-7.39,4.72-11.44,11.44-17.6,16.66-10.45,8.86-21.82,16.11-35.51,20.21a14,14,0,0,1-6.55.17,134.36,134.36,0,0,0-13.42-1.59c-4.44-.34-8.21-2.07-12-3.66-5.75-2.39-11.52-4.81-17.15-7.45a48.35,48.35,0,0,1-13.79-9.95,118.2,118.2,0,0,1-10.62-12.86c-5.55-7.48-8.81-15.93-11.06-24.84a262.46,262.46,0,0,1-6.39-33.59c-.6-5,0-9.9.74-14.9,1.15-7.68,3.38-15.44,7.73-22.19,6.66-10.32,14.54-20.41,26-27.59,4.35-2.73,8.56-5.81,13.57-7.53,8.77-3,17.55-3.76,26.8-3.65,10,.12,18.41,3.24,26.44,7.25,10.82,5.4,20.48,12,26,22.45,2.13,4,5.27,7.46,6.19,12a4.14,4.14,0,0,0,1.41,2.37,4.38,4.38,0,0,0,4.79.13c1.9-1,.68-1.9.3-2.9C719.23,104.26,721.11,101.89,722.11,99.35Zm-109.71.36a22.74,22.74,0,0,0-9.05,13.08c-6.42,22.21-6,42.89,4,62,4.11,7.86,8.56,15.24,16.58,20.77,6.42,4.42,13.57,8,19.32,13a7.5,7.5,0,0,0,3.35,1.49A90.61,90.61,0,0,1,661,214.44a12.8,12.8,0,0,0,10.79-.65,54.55,54.55,0,0,1,6.8-2.69,56.13,56.13,0,0,0,15-7.9c3-2.26,6.42-4.18,6.05-8.05-.11-1.12,1.22-2.08,2.08-3a37.89,37.89,0,0,0,9.58-20.28c.58-3.7,1.32-7.51,1.87-11.23.65-4.41,1.31-9,.85-13.57-1.36-13.44-9.78-23.79-17.53-34.68-5.59-7.86-13.89-13.62-21.66-19.88-.64-.52-1.23-1.19-2.12-.79-3.53,1.55-6.06-.61-9.07-1s-5.24-2.51-8.31-2.2c-5.27.53-10.34-.44-15.68.13C629.4,89.68,620.19,92.36,612.4,99.71Z"/><path class="cls-2" d="M705.6,81c-3.45.6-4.81-1.66-6.53-3.55-3.29-3.61-6.11-7.65-10.95-9.93A25.74,25.74,0,0,0,681,65.41c-1.22-.19-2.9-.35-2.26-2.1s2.17-1.24,3.41-1.05a51.8,51.8,0,0,1,14.33,4.59,40.23,40.23,0,0,1,14.31,11.39c-2.86-.29-4,1.35-5.33,2.79Z"/><path class="cls-2" d="M719.55,99.31a44,44,0,0,1-1.44-6.71c-.19-2.84-.29-5.47-3.9-6.23-1.22-.26-1.42-1.4-.46-2.38a1.82,1.82,0,0,1,2.83.06c2.3,2.63,4.5,5.32,6.72,8,.87,1.05.55,2.16-.42,3.27l-3.47,4Z"/><path class="cls-2" d="M705.43,81c3.82,1.54,5.45,4.91,7.47,7.92.48.72,1,1.9-.26,2.68s-2.91.51-3.43-.47c-1.66-3.14-4.73-5.78-3.59-10.13Z"/><path class="cls-2" d="M712.75,99.25a1.32,1.32,0,0,1,.09-2c.95-.74,2-2.17,3.24-1.42,1,.61,0,1.73-.66,2.52S713.89,99.85,712.75,99.25Z"/><path class="cls-2" d="M719.41,99.28c-.86,1.2-1.52,2.65-3.42,2.58-.2,0-.53-.62-.42-.82.88-1.55,2.41-1.68,4-1.73Z"/><path class="cls-2" d="M672.08,63.09c-.07-.34-.32-.86-.17-1a1.27,1.27,0,0,1,1.68-.17,1,1,0,0,1,.17,1A1.31,1.31,0,0,1,672.08,63.09Z"/><path class="cls-2" d="M883.23,528c-1.86,4.12-4.61,9.17-7,14.39a38.51,38.51,0,0,1-19.93,19.9,94,94,0,0,1-20.77,6.6,16.81,16.81,0,0,1-5.74.13c-6-1-12-1.62-18.25-.77-4.16.57-7.86-1.69-11.16-3.7A57.2,57.2,0,0,1,790,556.73c-2.59-2.55-6.12-4.08-8.31-7.11-3.65-5.05-5.6-10.7-8-16.18-1.08-2.47-2.24-4.91-3.31-7.38-2.07-4.78-4.47-9.44-4.72-14.74-.13-2.74-2-5.17-2.65-8-3.21-13.79.56-26.45,7.74-38.34,5.35-8.85,14.07-15,24.05-19.75a66.62,66.62,0,0,1,13.08-4.66,43.36,43.36,0,0,1,16.66-.66,113.09,113.09,0,0,1,20.44,4.7c2.19.75,4.14,1.63,6.9,1.37,2.94-.27,5.67,2.2,7.05,4.37a7.91,7.91,0,0,0,6.09,3.83c2.83.37,4,1.88,5.34,3.9,4.56,6.66,6.49,14.38,11.12,21a10.38,10.38,0,0,1,2,6.26c-.24,5.14,1.92,9.78,3.24,14.61a64.78,64.78,0,0,1,1.93,10.15C889.44,517.14,888.85,518.81,883.23,528Zm-52.57-59.85c-8.3-4.25-14-4.21-22.55.42C796.31,475,789.25,484.81,790,498.28a131.51,131.51,0,0,0,2.64,21.41c1.66,7.4,5.67,12.59,12.4,14.92,6.41,2.23,13.13,4,20.72,2.94a60.85,60.85,0,0,0,12.67-3.12c2.53-.93,5.08-1.33,7.44-3.33,5.49-4.66,8.64-10.43,10.63-16.84.24-.78.7-1.81-.19-2.2-3.4-1.51-2.66-5.42-2.8-8.44-.09-2,.32-4.23,0-6.36a67.86,67.86,0,0,0-1.77-7.13,30.85,30.85,0,0,0-9-14.86C839.31,472,835,470,830.66,468.12Z"/><path class="cls-2" d="M211.55,580.3c2.12,1.48-.16,3.54,2,4.83,3.38-5.22,9.13-7.76,14.72-10.57a128.69,128.69,0,0,1,31.89-11.28,11.59,11.59,0,0,0,2.14-.9c3.53-1.52,3.53-1.52.89-4.4,1.86-1,4.22-.93,5.89-2.34-.16-1.83-2-1.14-3.12-1.4s-1.79-.71-1.77-1.7a1.94,1.94,0,0,1,1.77-1.86c1.94-.31,4.26-1.11,5.79-.52,3.36,1.3,8.08.25,10,4.05,3.76,0,5.72,4.08,9.85,3.25a1.22,1.22,0,0,1,1.39.64c2.75,4.28,7.35,6.19,12.48,7.32a3.69,3.69,0,0,1,2.43,1.92c1.85,2.75,4.41,4.56,8.31,4.22a3.28,3.28,0,0,1,3.24,1.7,33.63,33.63,0,0,0,12.44,11.27c3.65,2,4.63,5.72,6.32,8.91,1.84,3.5,3.23,7.2,4.82,10.83.14.32.41.64.41,1,0,5.43,2.27,10.65.51,16.37a89.7,89.7,0,0,0-4,21.57c-.72,12.79-3.48,25.71-7.22,38.57-1.39,4.77-4.7,7.5-9.45,8.87A28.59,28.59,0,0,0,313,695.72a15.24,15.24,0,0,1-9.08,3.39c-5.15.18-10.12,1.56-15.14,2.84-6.18,1.58-12.18,1.08-18.37.47-7.89-.78-14.82-4-22.55-5.18a5.55,5.55,0,0,1-3.51-2,8.49,8.49,0,0,0-4.06-2.38c-8.07-2.53-14-7.38-18.74-13.58-1.13-1.47-3.27-2.26-4.49-3.7-5.39-6.32-10.55-12.76-14.33-20.07-1.44-2.78-3.18-5.48-4.79-8.2-3.44-5.83-5.2-12.51-4.14-18.75C195.9,616.44,197,604.13,204,593,206.61,588.84,209,584.6,211.55,580.3Zm72.9,99.5c7.65.4,15.44-2.72,23.4-3.5a4.88,4.88,0,0,0,3.77-2.54c2.32-4,5.41-7.62,6.37-12.2,2.12-10.07,4.74-20,6.19-30s.9-19.69-6.91-27.59c-5.86-5.93-12.06-11.38-19.78-14.82s-15.72-5.72-23.9-8a19.62,19.62,0,0,0-12.16.45c-8.25,2.85-15.39,8.1-23.65,11-10.85,3.83-17.14,11.6-23.18,20.38-7.55,11-6.57,20.65.64,30.41a189,189,0,0,0,26.29,28.3c5.77,5.16,12.83,7.32,20.79,7.52ZM272.3,557.92a2.89,2.89,0,0,0,2.57,2.18c.86.08,1.08-.8,1.11-1.48.05-1.19-.62-1.85-2-1.84A1.65,1.65,0,0,0,272.3,557.92Z"/><path class="cls-2" d="M247.52,556c.08-2.17,1.51-3.48,3.82-3.66,3.15-.24,5.53.91,5.49,3.91a3.66,3.66,0,0,1-2.36,2.59C251.53,559.28,248.84,558.64,247.52,556Z"/><path class="cls-2" d="M235.94,563c-.64-.35-1.78-.63-1.84-1.06-.27-1.87,1.52-2.31,3.1-2.77,1-.29,1.81.08,1.82.94C239,561.78,237.77,562.64,235.94,563Z"/><path class="cls-3" d="M993.84,232c1,.09,1.22-.9,1.25-1.66.06-1.33-.69-2.07-2.24-2.06a1.85,1.85,0,0,0-1.9,1.27A3.24,3.24,0,0,0,993.84,232Z"/><path class="cls-3" d="M978.75,256.23c-9.27,3.21-17.3,9.1-26.57,12.37-12.19,4.3-19.25,13-26,22.9-8.48,12.33-7.38,23.2.72,34.17a212.38,212.38,0,0,0,29.54,31.8c6.48,5.8,14.42,8.23,23.36,8.44l22.25.53v-108q-4.77-1.43-9.59-2.74A22,22,0,0,0,978.75,256.23Z"/><path class="cls-2" d="M979.75,365.92c-8.95-.22-16.88-2.64-23.36-8.44a212.38,212.38,0,0,1-29.54-31.8c-8.11-11-9.21-21.84-.72-34.17,6.79-9.87,13.86-18.6,26-22.9,9.28-3.28,17.31-9.17,26.57-12.37a22,22,0,0,1,13.67-.5q4.82,1.32,9.59,2.74v-33c-.16,0-.3-.06-.47-.06-2.17-4.27-7.49-3.09-11.26-4.55-1.71-.66-4.32.23-6.5.58a2.18,2.18,0,0,0-2,2.08c0,1.11.77,1.63,2,1.91s3.32-.48,3.5,1.58c-1.87,1.58-4.52,1.53-6.62,2.63,3,3.24,3,3.24-1,4.95a13,13,0,0,1-2.41,1,144.59,144.59,0,0,0-35.84,12.68c-6.29,3.15-12.75,6-16.54,11.87-2.37-1.44.19-3.76-2.19-5.42-2.87,4.83-5.55,9.59-8.5,14.27-7.88,12.5-9.08,26.33-11.4,39.91-1.2,7,.79,14.52,4.65,21.07,1.81,3.06,3.76,6.09,5.38,9.21,4.25,8.22,10,15.44,16.1,22.55,1.37,1.61,3.77,2.5,5,4.15,5.35,7,12,12.41,21.06,15.25a9.54,9.54,0,0,1,4.56,2.68,6.24,6.24,0,0,0,3.94,2.29c8.68,1.32,16.46,4.95,25.33,5.82a86.21,86.21,0,0,0,13.14.58V366.45Zm13.1-137.62c1.54,0,2.3.73,2.24,2.06,0,.76-.28,1.75-1.25,1.66a3.24,3.24,0,0,1-2.89-2.45A1.85,1.85,0,0,1,992.85,228.3Z"/><path class="cls-2" d="M26.5,388.21a17.13,17.13,0,0,0,10.2-3.81,32.12,32.12,0,0,1,11.52-5.76c5.34-1.54,9.06-4.61,10.62-10,4.21-14.45,7.3-29,8.12-43.34a100.77,100.77,0,0,1,4.45-24.23c2-6.43-.59-12.29-.57-18.39,0-.36-.3-.72-.46-1.08C68.6,277.56,67,273.4,65,269.47c-1.89-3.58-3-7.8-7.1-10a37.79,37.79,0,0,1-14-12.66,3.68,3.68,0,0,0-3.64-1.91c-4.38.38-7.26-1.65-9.33-4.75A4.15,4.15,0,0,0,28.19,238c-5.77-1.27-10.93-3.41-14-8.22A1.37,1.37,0,0,0,12.6,229c-4.47.9-6.68-3.23-10.6-3.58v33a142.76,142.76,0,0,1,17.27,6.19c8.68,3.87,15.65,10,22.23,16.66,8.77,8.88,9.41,19.73,7.76,31s-4.57,22.38-7,33.7c-1.08,5.14-4.56,9.22-7.16,13.71a5.48,5.48,0,0,1-4.24,2.85c-8.95.87-17.7,4.37-26.29,3.93L2,366.45v26.06a38.54,38.54,0,0,0,7.49-1.11C15.13,390,20.72,388.42,26.5,388.21Z"/><path class="cls-2" d="M970.93,230.56a4.11,4.11,0,0,0,2.65-2.91c0-3.37-2.63-4.66-6.17-4.39-2.6.2-4.21,1.67-4.3,4.11C964.59,230.37,967.61,231.09,970.93,230.56Z"/><path class="cls-2" d="M950.1,235.24c2.06-.37,3.48-1.34,3.46-3.25,0-1-.93-1.38-2-1.05-1.77.51-3.79,1-3.48,3.11C948.1,234.53,949.37,234.85,950.1,235.24Z"/><path class="cls-2" d="M648.85,589.2c.07,8.18-3.76,14-10,18.54a52.79,52.79,0,0,0-5,4.46,4.2,4.2,0,0,1-2.33,1.15,39.69,39.69,0,0,0-5.54,1.15,10,10,0,0,1-6.52-.08,37.71,37.71,0,0,0-4.72-1.46,7,7,0,0,1-4-2.38c-.84-.95-2.05-1.45-2.85-2.51a13.61,13.61,0,0,1-2.15-3.55,2.42,2.42,0,0,0-.28-.71c-2.31-2.89-1.95-6.5-2.44-9.82a8.07,8.07,0,0,1,.37-4.5,5.16,5.16,0,0,0,.19-1.69c.52-7.19,3.5-13.07,9.38-17.33a11.21,11.21,0,0,1,5.78-2.3,1.89,1.89,0,0,0,.75-.13c2.23-1.22,4.46-.48,6.66.05a8.75,8.75,0,0,0,2.43.22c5.7-.2,10.8,1.31,15,5.41a16,16,0,0,1,3.5,5.63A21.85,21.85,0,0,1,648.85,589.2Z"/><path class="cls-2" d="M386.93,885.62c.11,14-6.45,24-17.09,31.78a90.51,90.51,0,0,0-8.49,7.64,7.21,7.21,0,0,1-4,2,68,68,0,0,0-9.49,2,17,17,0,0,1-11.17-.14,64.54,64.54,0,0,0-8.08-2.5,12.08,12.08,0,0,1-6.87-4.07c-1.44-1.63-3.52-2.49-4.88-4.3a23.31,23.31,0,0,1-3.69-6.09,4.15,4.15,0,0,0-.48-1.21c-4-5-3.34-11.13-4.18-16.83a13.83,13.83,0,0,1,.63-7.71,8.82,8.82,0,0,0,.33-2.9c.89-12.32,6-22.39,16.07-29.7a19.21,19.21,0,0,1,9.9-3.94,3.24,3.24,0,0,0,1.28-.21c3.83-2.09,7.64-.82,11.42.09a15,15,0,0,0,4.16.38c9.78-.35,18.5,2.25,25.66,9.26a27.49,27.49,0,0,1,6,9.65A37.45,37.45,0,0,1,386.93,885.62Z"/><path class="cls-2" d="M130.43,512.64c.08,8.54-4.88,14.58-12.94,19.34a65.84,65.84,0,0,0-6.42,4.65,6,6,0,0,1-3,1.2,62.54,62.54,0,0,0-7.18,1.2,15.89,15.89,0,0,1-8.46-.08,57.93,57.93,0,0,0-6.12-1.52,9.76,9.76,0,0,1-5.2-2.48c-1.09-1-2.66-1.52-3.69-2.62a14,14,0,0,1-2.79-3.71,2.28,2.28,0,0,0-.37-.74c-3-3-2.52-6.77-3.16-10.24a6.87,6.87,0,0,1,.47-4.69,4.39,4.39,0,0,0,.25-1.77c.67-7.5,4.54-13.63,12.17-18.07a16.69,16.69,0,0,1,7.5-2.4,3,3,0,0,0,1-.13c2.9-1.27,5.78-.5,8.64.05a14,14,0,0,0,3.15.23c7.4-.21,14,1.37,19.42,5.64a16.66,16.66,0,0,1,4.54,5.87A18.89,18.89,0,0,1,130.43,512.64Z"/><path class="cls-2" d="M688.46,329c5.46-6.56,13.16-8,22.38-6.37a65.78,65.78,0,0,0,7.9.61,6,6,0,0,1,3.08,1,62.57,62.57,0,0,0,6.25,3.73,15.88,15.88,0,0,1,6.39,5.54,58,58,0,0,0,3.68,5.12,9.76,9.76,0,0,1,2.36,5.25c.19,1.46,1,2.88,1.12,4.38a14,14,0,0,1-.27,4.63,2.27,2.27,0,0,0-.2.8c.33,4.24-2.46,6.8-4.22,9.85a6.87,6.87,0,0,1-3.4,3.27c-.55.21-.91.77-1.33,1.19-5.36,5.28-12.28,7.45-21,5.9a16.68,16.68,0,0,1-7.27-3,3,3,0,0,0-.82-.53c-3-.9-4.73-3.36-6.55-5.63a14,14,0,0,0-2.25-2.22c-5.78-4.63-9.79-10.11-11.16-16.86a16.65,16.65,0,0,1,.34-7.42A18.89,18.89,0,0,1,688.46,329Z"/><path class="cls-2" d="M31.32,88.46c-.07-1.5-.93-2.92-1.12-4.38a9.76,9.76,0,0,0-2.36-5.25,58,58,0,0,1-3.68-5.12,15.89,15.89,0,0,0-6.39-5.54,62.61,62.61,0,0,1-6.25-3.73,6,6,0,0,0-3.08-1c-2.14-.11-4.28-.2-6.44-.45v51.29c8.19,1.19,14.77-1,19.91-6,.43-.42.78-1,1.33-1.19a6.87,6.87,0,0,0,3.4-3.27c1.76-3.05,4.55-5.61,4.22-9.85a2.28,2.28,0,0,1,.2-.8A14,14,0,0,0,31.32,88.46Z"/><path class="cls-2" d="M1000.53,62.79c-9.22-1.59-16.92-.19-22.38,6.37a18.89,18.89,0,0,0-4.92,9.26,16.66,16.66,0,0,0-.34,7.42c1.36,6.76,5.38,12.24,11.16,16.86a14,14,0,0,1,2.25,2.22c1.82,2.27,3.52,4.73,6.55,5.63a3,3,0,0,1,.82.53,16.69,16.69,0,0,0,7.27,3c.36.06.7.08,1.06.14V62.94C1001.51,62.89,1001,62.87,1000.53,62.79Z"/><path class="cls-2" d="M646.61,919.67c3.57,11.35-1.95,18.49-1.15,26,0,.42-1.45,1.33-2.31,1.45a2.94,2.94,0,0,1-3.47-2.05C637.79,936.48,640.9,929.43,646.61,919.67Z"/><path class="cls-2" d="M968,512.39c.27-3.74,1.46-5.68,3.78-5.72a16.43,16.43,0,0,1,13.11,6,6.63,6.63,0,0,1,.76,7.93c-2,3.29-5.37,2.45-7.25.55C975,517.68,969.5,516.39,968,512.39Z"/><path class="cls-2" d="M131.1,668.79c.27,5.48-1.71,8.54-6.71,8.92-2,.15-3.72-1.37-3-3.18,1.41-3.5,1.76-8.28,6.8-8.75C129.18,665.69,130.37,668,131.1,668.79Z"/><path class="cls-2" d="M481.83,74.74c1.15-4.67,3.91-8.34,8.38-8.49,9.32-.31,8.72,7.35,9.14,13.43.3,4.34-1.26,9.33-6.4,8.63C485.75,87.32,483.22,81,481.83,74.74Z"/><path class="cls-2" d="M49.08,286.53c2.5,4,3.43,6.64,2.1,10.89C49.07,293.92,46.83,291.65,49.08,286.53Z"/><path class="cls-2" d="M785.88,184.7c-1.56.1-2.78-.47-3.15-2.05-.33-1.41-.21-3.07,1.32-3.56s2.65.64,3.13,2.1S787.45,184,785.88,184.7Z"/><path class="cls-2" d="M836.93,21.94c-.22-1.06.2-2,1.18-1.87.58,0,1.13,1,1.56,1.61.08.12-.39.77-.72,1C838,23.37,837.27,23.08,836.93,21.94Z"/><path class="cls-2" d="M790.41,156.82l-.52-1.3c.42-.15,1-.53,1.23-.38s.42.8.61,1.22Z"/><path class="cls-2" d="M404.2,940.28c9,0,15.88,4.7,16.3,12.64H408.41c-.28-2.76-1.93-3.45-4.9-3.45s-4.63,1-4.63,2.83c0,5.94,21.75,1.45,21.75,15.19,0,7.32-7,12.22-16.16,12.22s-16.37-3.94-17-12.71h12.09c.35,2.62,2.21,3.52,5,3.52s4.77-1.45,4.77-3.31c0-6.08-21.75-1.59-21.75-14.92C387.56,945.87,393.15,940.28,404.2,940.28Z"/><path class="cls-2" d="M433.24,950.29a5.82,5.82,0,0,1,5.66,3.45h7.41v-9.09c-3.33-2.89-7.85-4.38-13.08-4.38-11.12,0-19.2,7.53-19.2,19.68s8.08,19.75,19.2,19.75a19.37,19.37,0,0,0,13.08-4.63v-8.91H438.9c-1.31,2.56-2.69,3.45-5.66,3.45-4.83,0-7.18-4.07-7.18-9.67S428.4,950.29,433.24,950.29Z"/><path class="cls-2" d="M458,979.71H446.16V940.93H458v7.18c2.49-4.56,6.28-7.6,11-7.6v12h-2.9c-5.18,0-8.15,2-8.15,8.7Z"/><path class="cls-2" d="M467.48,931.92a6.91,6.91,0,1,1,6.91,6.91A6.85,6.85,0,0,1,467.48,931.92Zm1,8.6h11.81l0,39.19H468.52Z"/><path class="cls-2" d="M505.51,940.71c-5.11,0-8.84,2-11.33,5.46V928.56H482.38v51.16h11.81v-5.21c2.56,3.73,6.22,5.21,11.33,5.21a16.3,16.3,0,0,0,9.86-2.77v-33A16.56,16.56,0,0,0,505.51,940.71Zm-2.9,29.21c-4,0-8.43-3-8.43-9.53s4.42-9.46,8.43-9.46,8.43,3,8.43,9.53S506.62,969.93,502.61,969.93Z"/><path class="cls-2" d="M551.46,928.66h11.81v51.06H551.46Z"/><path class="cls-2" d="M576.62,979.71H564.81V941.22h11.81v7.18c2.49-4.56,6.29-7.6,11-7.6v12h-2.9c-5.18,0-8.15,2-8.15,8.7Z"/><path class="cls-2" d="M540,940.71c-5.11,0-8.84,2-11.33,5.46V928.56H516.91v51.16h11.81v-5.21c2.56,3.73,6.22,5.21,11.33,5.21a16.3,16.3,0,0,0,9.86-2.77v-33A16.56,16.56,0,0,0,540,940.71Zm-2.9,29.21c-4,0-8.43-3-8.43-9.53s4.42-9.46,8.43-9.46,8.43,3,8.43,9.53S541.15,969.93,537.15,969.93Z"/><path class="cls-2" d="M604.42,936.93h3.15a1.34,1.34,0,0,1,1.35,1.35v.45a3.6,3.6,0,0,1-3.6,3.6h-.9a.91.91,0,0,0-.9.9V945a.91.91,0,0,0,.9.9h.9a7,7,0,0,0,2.79-.57,7.13,7.13,0,0,0,3.84-3.84,7,7,0,0,0,.57-2.79v-9.89a2.69,2.69,0,0,0-2.7-2.7h-5.4a2.69,2.69,0,0,0-2.7,2.7v5.4a2.69,2.69,0,0,0,2.7,2.7Z"/><path class="cls-2" d="M589.92,936.14a2.6,2.6,0,0,0,1.91.79H595a1.34,1.34,0,0,1,1.35,1.35v.45a3.6,3.6,0,0,1-3.6,3.6h-.9a.91.91,0,0,0-.9.9V945a.91.91,0,0,0,.9.9h.9a7,7,0,0,0,2.79-.57,7.13,7.13,0,0,0,3.84-3.84,7,7,0,0,0,.57-2.79v-9.89a2.69,2.69,0,0,0-2.7-2.7h-5.4a2.69,2.69,0,0,0-2.7,2.7v5.4A2.6,2.6,0,0,0,589.92,936.14Z"/></svg>