<svg id="Layer_1" data-name="Layer 1" xmlns="http://www.w3.org/2000/svg" xmlns:xlink="http://www.w3.org/1999/xlink" viewBox="0 0 1000 1000"><defs><style>.cls-1{fill:none;}.cls-2{fill:#f6f6f6;}.cls-3{fill:#de9e36;}.cls-4{fill:#de3c4b;}.cls-5{fill:url(#Nueva_muestra_de_motivo_21);}</style><pattern id="Nueva_muestra_de_motivo_21" data-name="Nueva muestra de motivo 21" width="250" height="250" patternUnits="userSpaceOnUse" viewBox="0 0 250 250"><rect class="cls-1" width="250" height="250"/><path class="cls-2" d="M166.22,217.48l.05-.17a1.57,1.57,0,0,1,.73-.9c.1-.58.2-1.16.32-1.74-.4.94-.77,1.89-1.16,2.83Z"/><path class="cls-2" d="M162,246.41l3.39-.69-2.65-.61C162.49,245.55,162.24,246,162,246.41Z"/><path class="cls-2" d="M184.88,241.74a5.62,5.62,0,0,1,.32.74c.22-.48.44-1,.65-1.43l-.93-.14A2.72,2.72,0,0,1,184.88,241.74Z"/><path class="cls-2" d="M36.29,119.86c.44-.7.86-1.4,1.29-2.11a2.71,2.71,0,0,1-.65-.05Z"/><path class="cls-2" d="M56.6,216.67l.89-1.45a1.88,1.88,0,0,1-.45,0Z"/><path class="cls-2" d="M53.62,86.31a4.7,4.7,0,0,1,.27.61l.54-1.19-.78-.11A2.27,2.27,0,0,1,53.62,86.31Z"/><path class="cls-2" d="M34.56,90.2l2.82-.58-2.2-.51C35,89.48,34.78,89.84,34.56,90.2Z"/><path class="cls-2" d="M3.53,139.66a3.63,3.63,0,0,1,.21.47l.42-.91-.6-.09A1.74,1.74,0,0,1,3.53,139.66Z"/><path class="cls-2" d="M38.09,66.11l0-.14a1.31,1.31,0,0,1,.61-.75c.09-.48.17-1,.27-1.45-.33.78-.64,1.57-1,2.36Z"/><path class="cls-2" d="M238.9,142.65l2.17-.44-1.69-.39C239.22,142.1,239.06,142.38,238.9,142.65Z"/><path class="cls-2" d="M241.6,124.15l0-.11a1,1,0,0,1,.47-.58c.07-.37.13-.74.2-1.11-.25.6-.49,1.21-.74,1.81Z"/><path class="cls-2" d="M240.22,165.43c.34-.54.66-1.08,1-1.62a2.09,2.09,0,0,1-.5,0Z"/><path class="cls-2" d="M86.41,8.74a1.57,1.57,0,0,1,.73-.9c.1-.58.2-1.16.32-1.74-.4.94-.77,1.89-1.16,2.83l.06,0Z"/><path class="cls-2" d="M105.33,33.9c.22-.48.44-1,.65-1.43l-.93-.14a2.71,2.71,0,0,1,0,.83A5.61,5.61,0,0,1,105.33,33.9Z"/><path class="cls-2" d="M164.06,32c.52-.84,1-1.69,1.55-2.53a3.26,3.26,0,0,1-.78-.06Z"/><path class="cls-2" d="M84.19,73.47c.52-.84,1-1.69,1.55-2.53a3.26,3.26,0,0,1-.78-.06Z"/><path class="cls-2" d="M82.86,36.54c-.24.44-.49.87-.74,1.3l3.39-.69Z"/><path class="cls-2" d="M198.44,82.74l.89-1.45a1.88,1.88,0,0,1-.45,0Z"/><path class="cls-2" d="M197.25,62.25l2-.4-1.52-.35C197.53,61.75,197.39,62,197.25,62.25Z"/><path class="cls-2" d="M208.43,153.84a4.69,4.69,0,0,1,.27.61l.54-1.19-.78-.11A2.26,2.26,0,0,1,208.43,153.84Z"/><path class="cls-2" d="M192.9,133.65l0-.14a1.31,1.31,0,0,1,.61-.75c.09-.48.17-1,.26-1.45-.33.78-.64,1.57-1,2.36Z"/><path class="cls-2" d="M210.41,59.56a3.24,3.24,0,0,1,.19.42l.38-.82-.54-.08A1.56,1.56,0,0,1,210.41,59.56Z"/><path class="cls-2" d="M199.68,45.61l0-.1a.9.9,0,0,1,.42-.52c.06-.33.12-.67.18-1-.23.54-.44,1.09-.67,1.63Z"/><path class="cls-2" d="M189.37,157.74l2.82-.58-2.2-.51C189.79,157,189.58,157.38,189.37,157.74Z"/><path class="cls-2" d="M250,213.31A270.82,270.82,0,0,0,231.65,250H187.92c1.5-3.2,3-6.42,4.38-9.67.66-1.52.29-3.75-1.68-4.13a138.41,138.41,0,0,0-19.94-2.37c.51-5,1.15-9.91,2-14.83s2.34-10,2.66-15a1.94,1.94,0,0,0-.17-.94c.13-1.08.25-2.16.34-3.24.16-1.81-2.7-2.14-3.13-.42l-.06.22a1.74,1.74,0,0,0-2.84.44,318.94,318.94,0,0,0-21.08,50H94.9a43.9,43.9,0,0,0,.57-4.6,1.94,1.94,0,0,0-.17-.94c.13-1.08.25-2.16.34-3.24.16-1.81-2.7-2.14-3.13-.42l-.06.22a1.74,1.74,0,0,0-2.84.44c-1.5,2.82-2.94,5.67-4.34,8.54H28c1.49-2.48,3-4.94,4.58-7.37,1.1-1.69-.31-4.67-2.51-4.37a168,168,0,0,1-22.94,1.49c3.29-10.94,7.12-21.62,11.11-32.26.5-1.05,1-2.09,1.5-3.15a2.93,2.93,0,0,0,.28-1.58c2-5.39,4.11-10.79,6.15-16.21.68-1.8-2.19-3-3.08-1.3l-.43.81a2.67,2.67,0,0,0-3.89.14A245.37,245.37,0,0,0,0,213.31V155.76q4.5-8.31,8.27-17a1.82,1.82,0,0,0-1.07-2.64c-2.39-.46-4.79-.81-7.2-1.08V57.57C8.21,37.82,17,18.33,28,0H85.27A333.49,333.49,0,0,0,67.73,43.82a2.74,2.74,0,0,0,2.63,3.45c5.4-.38,10.8-.8,16.21-1.21q-6.54,21.84-13,43.7c-1,3.21,3.37,4.64,5.12,2.16a332.34,332.34,0,0,0,33.77-60.17c.66-1.52.29-3.75-1.68-4.13A138.41,138.41,0,0,0,90.8,25.25c.51-5,1.15-9.91,2-14.83C93.41,6.95,94.3,3.49,94.9,0h53.51c-.26.8-.54,1.6-.8,2.4a2.74,2.74,0,0,0,2.63,3.45c5.4-.38,10.8-.8,16.21-1.21q-6.54,21.84-13,43.7c-1,3.21,3.37,4.64,5.12,2.16A332.3,332.3,0,0,0,187.92,0h43.73q-2,4.83-3.78,9.72c-.71,1.92,1.1,3.69,2.88,3.78l9.78.5c.8,0,5.26-.18,5.87.3,1.33,1,.62,1.85.42,3.18-1,6.51-3.49,13-4.84,19.53a281.42,281.42,0,0,0-5.18,37.79c-.25,3.63,4.7,3.66,5.85.79q3.64-9,7.36-18V135c-1.84-.2-3.69-.36-5.55-.44.32-3.17.74-6.34,1.28-9.48s1.49-6.37,1.7-9.6a1.24,1.24,0,0,0-.11-.6c.08-.69.16-1.38.22-2.07.1-1.16-1.73-1.37-2-.27l0,.14a1.11,1.11,0,0,0-1.82.28,205.77,205.77,0,0,0-14,33.48,1.75,1.75,0,0,0,1.68,2.2c3.45-.25,6.91-.51,10.36-.77q-4.18,14-8.33,27.94c-.61,2.05,2.15,3,3.28,1.38A212.52,212.52,0,0,0,250,155.76ZM59.8,85.13c.55-1.26.24-3.12-1.4-3.44a115.25,115.25,0,0,0-16.6-2c.42-4.13,1-8.25,1.67-12.34s1.95-8.29,2.22-12.51a1.61,1.61,0,0,0-.14-.78c.11-.9.21-1.79.29-2.7.13-1.51-2.25-1.78-2.61-.35l0,.18a1.45,1.45,0,0,0-2.36.37,267.94,267.94,0,0,0-18.21,43.6,2.28,2.28,0,0,0,2.19,2.87c4.5-.32,9-.67,13.49-1q-5.45,18.19-10.85,36.38c-.79,2.67,2.81,3.87,4.27,1.8A276.68,276.68,0,0,0,59.8,85.13ZM71.88,190.3a79.61,79.61,0,0,0-11.47-1.37c.29-2.86.66-5.7,1.15-8.53a81.76,81.76,0,0,0,1.53-8.64,1.12,1.12,0,0,0-.1-.54c.07-.62.14-1.24.2-1.87.09-1-1.55-1.23-1.8-.24l0,.13a1,1,0,0,0-1.63.26,185.11,185.11,0,0,0-12.58,30.12,1.58,1.58,0,0,0,1.51,2c3.11-.22,6.21-.46,9.32-.69q-3.76,12.56-7.5,25.14c-.55,1.84,1.94,2.67,2.95,1.24a191.18,191.18,0,0,0,19.42-34.61A1.64,1.64,0,0,0,71.88,190.3Zm77.88-55.39a168,168,0,0,1-22.94,1.49c3.29-10.94,7.12-21.62,11.11-32.26.5-1.05,1-2.09,1.5-3.15a2.93,2.93,0,0,0,.28-1.58c2-5.39,4.11-10.79,6.14-16.21.68-1.8-2.19-3-3.08-1.3l-.43.81a2.67,2.67,0,0,0-3.89.14,262.61,262.61,0,0,0-40.94,73.52c-.71,1.92,1.1,3.69,2.88,3.78l9.78.5c.8,0,5.26-.18,5.87.3,1.33,1,.62,1.85.42,3.18-1,6.51-3.49,13-4.84,19.53a281.37,281.37,0,0,0-5.18,37.79c-.25,3.63,4.7,3.66,5.85.79,11.51-28.49,23.22-57.07,40-83C153.36,137.6,152,134.62,149.75,134.92Zm63.45,14.31a115.25,115.25,0,0,0-16.6-2c.42-4.13,1-8.25,1.67-12.34s1.94-8.29,2.22-12.51a1.62,1.62,0,0,0-.14-.78c.11-.9.21-1.79.29-2.7.13-1.51-2.25-1.78-2.61-.35l0,.18a1.45,1.45,0,0,0-2.36.37,268,268,0,0,0-18.22,43.6,2.28,2.28,0,0,0,2.19,2.87c4.5-.32,9-.67,13.49-1q-5.45,18.19-10.85,36.38c-.79,2.67,2.81,3.87,4.27,1.8a276.7,276.7,0,0,0,28.11-50.09C215.15,151.41,214.84,149.55,213.2,149.23Zm.51-92.86A79.59,79.59,0,0,0,202.24,55c.29-2.86.66-5.7,1.15-8.53a81.81,81.81,0,0,0,1.53-8.64,1.12,1.12,0,0,0-.1-.54c.07-.62.14-1.24.2-1.87.09-1-1.55-1.23-1.8-.24l0,.13a1,1,0,0,0-1.63.26A185.12,185.12,0,0,0,189,65.69a1.58,1.58,0,0,0,1.51,2c3.11-.22,6.21-.46,9.32-.69q-3.76,12.56-7.5,25.14c-.55,1.84,1.94,2.67,2.95,1.24a191.17,191.17,0,0,0,19.42-34.61A1.64,1.64,0,0,0,213.71,56.37Z"/><path class="cls-2" d="M68.58,193.49a3.24,3.24,0,0,1,.18.42l.38-.82L68.6,193A1.56,1.56,0,0,1,68.58,193.49Z"/><path class="cls-2" d="M191.09,187.4c.44-.7.86-1.4,1.29-2.11a2.71,2.71,0,0,1-.65-.05Z"/><path class="cls-2" d="M57.85,179.54l0-.1a.9.9,0,0,1,.42-.52c.06-.33.12-.67.18-1-.23.54-.44,1.09-.67,1.63Z"/><path class="cls-2" d="M55.41,196.18l2-.4-1.52-.35Z"/><path class="cls-3" d="M0,0V57.57C8.21,37.82,17,18.33,28,0Z"/><path class="cls-3" d="M30.11,238.25a168,168,0,0,1-22.94,1.49c3.29-10.94,7.12-21.62,11.11-32.26.5-1.05,1-2.09,1.5-3.15a2.93,2.93,0,0,0,.28-1.58c2-5.39,4.11-10.79,6.15-16.21.68-1.8-2.19-3-3.08-1.3l-.43.81a2.67,2.67,0,0,0-3.89.14A245.37,245.37,0,0,0,0,213.31V250H28c1.49-2.48,3-4.94,4.58-7.37C33.72,240.93,32.31,238,30.11,238.25Z"/><path class="cls-3" d="M149.75,134.92a168,168,0,0,1-22.94,1.49c3.29-10.94,7.12-21.62,11.11-32.26.5-1.05,1-2.09,1.5-3.15a2.93,2.93,0,0,0,.28-1.58c2-5.39,4.11-10.79,6.14-16.21.68-1.8-2.19-3-3.08-1.3l-.43.81a2.67,2.67,0,0,0-3.89.14,262.61,262.61,0,0,0-40.94,73.52c-.71,1.92,1.1,3.69,2.88,3.78l9.78.5c.8,0,5.26-.18,5.87.3,1.33,1,.62,1.85.42,3.18-1,6.51-3.49,13-4.84,19.53a281.37,281.37,0,0,0-5.18,37.79c-.25,3.63,4.7,3.66,5.85.79,11.51-28.49,23.22-57.07,40-83C153.36,137.6,152,134.62,149.75,134.92Z"/><path class="cls-3" d="M230.75,13.5l9.78.5c.8,0,5.26-.18,5.87.3,1.33,1,.62,1.85.42,3.18-1,6.51-3.49,13-4.84,19.53a281.42,281.42,0,0,0-5.18,37.79c-.25,3.63,4.7,3.66,5.85.79q3.64-9,7.36-18V0H231.65q-2,4.83-3.78,9.72C227.16,11.64,229,13.41,230.75,13.5Z"/><path class="cls-3" d="M250,213.31A270.82,270.82,0,0,0,231.65,250H250Z"/><path class="cls-4" d="M67.73,43.82A333.49,333.49,0,0,1,85.27,0H94.9c-.6,3.49-1.49,6.95-2.09,10.43-.85,4.92-1.5,9.86-2,14.83a138.41,138.41,0,0,1,19.94,2.37c2,.38,2.34,2.61,1.68,4.13A332.34,332.34,0,0,1,78.66,91.93c-1.75,2.48-6.08,1-5.12-2.16q6.49-21.86,13-43.7c-5.4.41-10.8.82-16.21,1.21A2.74,2.74,0,0,1,67.73,43.82Zm18,27.12a3.26,3.26,0,0,1-.78-.06l-.77,2.59C84.71,72.63,85.22,71.78,85.74,70.94ZM105,33.17a5.61,5.61,0,0,1,.32.74c.22-.48.44-1,.65-1.43l-.93-.14A2.71,2.71,0,0,1,105,33.17ZM86.29,8.93l.06,0,.05-.17a1.57,1.57,0,0,1,.73-.9c.1-.58.2-1.16.32-1.74C87.06,7,86.68,8,86.29,8.93ZM82.12,37.84l3.39-.69-2.65-.61C82.62,37,82.37,37.41,82.12,37.84Z"/><path class="cls-4" d="M95.3,244.46c.13-1.08.25-2.16.34-3.24.16-1.81-2.7-2.14-3.13-.42l-.06.22a1.74,1.74,0,0,0-2.84.44c-1.5,2.82-2.94,5.67-4.34,8.54H94.9a43.9,43.9,0,0,0,.57-4.6A1.94,1.94,0,0,0,95.3,244.46Z"/><path class="cls-4" d="M59.8,85.13a276.68,276.68,0,0,1-28.11,50.09c-1.46,2.07-5.06.87-4.27-1.8q5.4-18.2,10.85-36.38c-4.5.34-9,.69-13.49,1a2.28,2.28,0,0,1-2.19-2.87A267.94,267.94,0,0,1,40.8,51.58a1.45,1.45,0,0,1,2.36-.37l0-.18c.36-1.43,2.74-1.15,2.61.35-.08.91-.18,1.8-.29,2.7a1.61,1.61,0,0,1,.14.78c-.27,4.22-1.49,8.35-2.22,12.51s-1.25,8.21-1.67,12.34a115.25,115.25,0,0,1,16.6,2C60,82,60.34,83.87,59.8,85.13ZM37.58,117.76a2.71,2.71,0,0,1-.65-.05l-.64,2.16C36.72,119.16,37.15,118.46,37.58,117.76Zm-.19-28.13-2.2-.51c-.2.36-.41.73-.62,1.08ZM39,63.77c-.33.78-.64,1.57-1,2.36l0,0,0-.14a1.31,1.31,0,0,1,.61-.75C38.83,64.74,38.91,64.25,39,63.77Zm15.42,22-.78-.11a2.27,2.27,0,0,1,0,.69,4.7,4.7,0,0,1,.27.61Z"/><path class="cls-4" d="M214.6,152.67a276.7,276.7,0,0,1-28.11,50.09c-1.46,2.07-5.06.87-4.27-1.8q5.4-18.2,10.85-36.38c-4.5.34-9,.69-13.49,1a2.28,2.28,0,0,1-2.19-2.87,268,268,0,0,1,18.22-43.6,1.45,1.45,0,0,1,2.36-.37l0-.18c.36-1.43,2.74-1.15,2.61.35-.08.91-.18,1.8-.29,2.7a1.62,1.62,0,0,1,.14.78c-.27,4.22-1.49,8.35-2.22,12.51s-1.25,8.21-1.67,12.34a115.25,115.25,0,0,1,16.6,2C214.84,149.55,215.15,151.41,214.6,152.67Zm-22.22,32.62a2.71,2.71,0,0,1-.65-.05l-.64,2.16C191.53,186.7,192,186,192.39,185.29Zm-.19-28.13-2.2-.51c-.2.36-.41.73-.62,1.08Zm1.62-25.85c-.33.78-.64,1.57-1,2.36l0,0,0-.14a1.31,1.31,0,0,1,.61-.75C193.64,132.27,193.72,131.79,193.81,131.31Zm15.42,22-.78-.11a2.26,2.26,0,0,1,0,.69,4.69,4.69,0,0,1,.27.61Z"/><path class="cls-3" d="M214.68,58.75a191.17,191.17,0,0,1-19.42,34.61c-1,1.43-3.5.6-2.95-1.24Q196,79.54,199.81,67c-3.11.23-6.21.47-9.32.69a1.58,1.58,0,0,1-1.51-2,185.12,185.12,0,0,1,12.58-30.12,1,1,0,0,1,1.63-.26l0-.13c.25-1,1.89-.8,1.8.24-.05.63-.12,1.25-.2,1.87a1.12,1.12,0,0,1,.1.54,81.81,81.81,0,0,1-1.53,8.64c-.49,2.83-.86,5.67-1.15,8.53a79.59,79.59,0,0,1,11.47,1.37A1.64,1.64,0,0,1,214.68,58.75ZM199.33,81.29a1.88,1.88,0,0,1-.45,0l-.44,1.49Zm-.13-19.44-1.52-.35c-.14.25-.28.5-.43.75ZM200.32,44c-.23.54-.44,1.09-.67,1.63h0l0-.1a.9.9,0,0,1,.42-.52C200.19,44.66,200.25,44.32,200.32,44ZM211,59.16l-.54-.08a1.56,1.56,0,0,1,0,.48,3.24,3.24,0,0,1,.19.42Z"/><path class="cls-3" d="M72.84,192.68a191.18,191.18,0,0,1-19.42,34.61c-1,1.43-3.5.6-2.95-1.24q3.73-12.57,7.5-25.14c-3.11.23-6.21.47-9.32.69a1.58,1.58,0,0,1-1.51-2A185.11,185.11,0,0,1,59.72,169.5a1,1,0,0,1,1.63-.26l0-.13c.25-1,1.89-.8,1.8.24-.05.63-.12,1.25-.2,1.87a1.12,1.12,0,0,1,.1.54,81.76,81.76,0,0,1-1.53,8.64c-.49,2.83-.86,5.67-1.15,8.53a79.61,79.61,0,0,1,11.47,1.37A1.64,1.64,0,0,1,72.84,192.68ZM57.49,215.22a1.88,1.88,0,0,1-.45,0l-.44,1.49Zm-.13-19.44-1.52-.35-.43.75Zm1.12-17.86c-.23.54-.44,1.09-.67,1.63h0l0-.1a.9.9,0,0,1,.42-.52C58.36,178.59,58.41,178.25,58.48,177.92Zm10.66,15.17L68.6,193a1.56,1.56,0,0,1,0,.48,3.24,3.24,0,0,1,.18.42Z"/><path class="cls-4" d="M147.61,2.4c.26-.8.54-1.6.8-2.4h39.51a332.3,332.3,0,0,1-29.39,50.5c-1.75,2.48-6.08,1-5.12-2.16q6.49-21.86,13-43.7c-5.4.41-10.8.82-16.21,1.21A2.74,2.74,0,0,1,147.61,2.4Zm18,27.12a3.26,3.26,0,0,1-.78-.06L164.06,32C164.59,31.2,165.1,30.36,165.61,29.51Z"/><path class="cls-4" d="M192.3,240.33c-1.4,3.25-2.88,6.47-4.38,9.67H148.41a318.94,318.94,0,0,1,21.08-50,1.74,1.74,0,0,1,2.84-.44l.06-.22c.44-1.72,3.29-1.38,3.13.42-.09,1.09-.22,2.17-.34,3.24a1.94,1.94,0,0,1,.17.94c-.33,5.06-1.79,10-2.66,15s-1.5,9.86-2,14.83a138.41,138.41,0,0,1,19.94,2.37C192.59,236.58,193,238.81,192.3,240.33Zm-26.92,5.39-2.65-.61c-.24.44-.49.87-.74,1.3Zm1.95-31.05c-.4.94-.77,1.89-1.16,2.83l.06,0,.05-.17a1.57,1.57,0,0,1,.73-.9C167.11,215.83,167.21,215.25,167.33,214.67ZM185.85,241l-.93-.14a2.72,2.72,0,0,1,0,.83,5.62,5.62,0,0,1,.32.74C185.42,242,185.64,241.52,185.85,241Z"/><path class="cls-4" d="M8.27,138.76q-3.75,8.7-8.27,17V135c2.41.26,4.81.62,7.2,1.08A1.82,1.82,0,0,1,8.27,138.76Zm-4.12.46-.6-.09a1.74,1.74,0,0,1,0,.53,3.63,3.63,0,0,1,.21.47Z"/><path class="cls-4" d="M244.45,134.6c1.86.08,3.71.24,5.55.44v20.72a212.52,212.52,0,0,1-13.32,21.47c-1.12,1.59-3.89.67-3.28-1.38q4.15-14,8.33-27.94c-3.45.26-6.91.53-10.36.77a1.75,1.75,0,0,1-1.68-2.2,205.77,205.77,0,0,1,14-33.48,1.11,1.11,0,0,1,1.82-.28l0-.14c.28-1.1,2.1-.89,2,.27-.06.7-.14,1.38-.22,2.07a1.24,1.24,0,0,1,.11.6c-.21,3.24-1.15,6.41-1.7,9.6S244.77,131.43,244.45,134.6Zm-3.24,29.21a2.09,2.09,0,0,1-.5,0l-.49,1.66C240.56,164.89,240.88,164.35,241.21,163.81Zm-.15-21.6-1.69-.39c-.16.28-.31.56-.48.83Zm1.25-19.85c-.25.6-.49,1.21-.74,1.81h0l0-.11a1,1,0,0,1,.47-.58C242.17,123.1,242.24,122.73,242.31,122.36Z"/></pattern></defs><title>covers</title><rect class="cls-5" width="1000" height="1000"/><polygon class="cls-2" points="655 1000 345 1000 367.78 915.2 387 931 462 896 459 914 528.72 913.87 563 868 560.01 913.61 583.01 913.41 582 934 609.01 913.2 632.75 913 655 1000"/><path class="cls-4" d="M404.2,942.28c9,0,15.88,4.7,16.3,12.64H408.41c-.28-2.76-1.93-3.45-4.9-3.45s-4.63,1-4.63,2.83c0,5.94,21.75,1.45,21.75,15.19,0,7.32-7,12.22-16.16,12.22s-16.37-3.94-17-12.71h12.09c.35,2.62,2.21,3.52,5,3.52s4.77-1.45,4.77-3.31c0-6.08-21.75-1.59-21.75-14.92C387.56,947.87,393.15,942.28,404.2,942.28Z"/><path class="cls-4" d="M433.24,952.29a5.82,5.82,0,0,1,5.66,3.45h7.41v-9.09c-3.33-2.89-7.85-4.38-13.08-4.38-11.12,0-19.2,7.53-19.2,19.68s8.08,19.75,19.2,19.75a19.37,19.37,0,0,0,13.08-4.63v-8.91H438.9c-1.31,2.56-2.69,3.45-5.66,3.45-4.83,0-7.18-4.07-7.18-9.67S428.4,952.29,433.24,952.29Z"/><path class="cls-4" d="M458,981.71H446.16V942.93H458v7.18c2.49-4.56,6.28-7.6,11-7.6v12h-2.9c-5.18,0-8.15,2-8.15,8.7Z"/><path class="cls-4" d="M467.48,933.92a6.91,6.91,0,1,1,6.91,6.91A6.85,6.85,0,0,1,467.48,933.92Zm1,8.6h11.81l0,39.19H468.52Z"/><path class="cls-4" d="M505.51,942.71c-5.11,0-8.84,2-11.33,5.46V930.56H482.38v51.16h11.81v-5.21c2.56,3.73,6.22,5.21,11.33,5.21a16.3,16.3,0,0,0,9.86-2.77v-33A16.56,16.56,0,0,0,505.51,942.71Zm-2.9,29.21c-4,0-8.43-3-8.43-9.53s4.42-9.46,8.43-9.46,8.43,3,8.43,9.53S506.62,971.93,502.61,971.93Z"/><path class="cls-4" d="M551.46,930.66h11.81v51.06H551.46Z"/><path class="cls-4" d="M576.62,981.71H564.81V943.22h11.81v7.18c2.49-4.56,6.29-7.6,11-7.6v12h-2.9c-5.18,0-8.15,2-8.15,8.7Z"/><path class="cls-4" d="M540,942.71c-5.11,0-8.84,2-11.33,5.46V930.56H516.91v51.16h11.81v-5.21c2.56,3.73,6.22,5.21,11.33,5.21a16.3,16.3,0,0,0,9.86-2.77v-33A16.56,16.56,0,0,0,540,942.71Zm-2.9,29.21c-4,0-8.43-3-8.43-9.53s4.42-9.46,8.43-9.46,8.43,3,8.43,9.53S541.15,971.93,537.15,971.93Z"/><path class="cls-4" d="M604.42,938.93h3.15a1.34,1.34,0,0,1,1.35,1.35v.45a3.6,3.6,0,0,1-3.6,3.6h-.9a.91.91,0,0,0-.9.9V947a.91.91,0,0,0,.9.9h.9a7,7,0,0,0,2.79-.57,7.13,7.13,0,0,0,3.84-3.84,7,7,0,0,0,.57-2.79v-9.89a2.69,2.69,0,0,0-2.7-2.7h-5.4a2.69,2.69,0,0,0-2.7,2.7v5.4a2.69,2.69,0,0,0,2.7,2.7Z"/><path class="cls-4" d="M589.92,938.14a2.6,2.6,0,0,0,1.91.79H595a1.34,1.34,0,0,1,1.35,1.35v.45a3.6,3.6,0,0,1-3.6,3.6h-.9a.91.91,0,0,0-.9.9V947a.91.91,0,0,0,.9.9h.9a7,7,0,0,0,2.79-.57,7.13,7.13,0,0,0,3.84-3.84,7,7,0,0,0,.57-2.79v-9.89a2.69,2.69,0,0,0-2.7-2.7h-5.4a2.69,2.69,0,0,0-2.7,2.7v5.4A2.6,2.6,0,0,0,589.92,938.14Z"/></svg>