<svg id="Layer_1" data-name="Layer 1" xmlns="http://www.w3.org/2000/svg" viewBox="0 0 1000 1000"><defs><style>.cls-1{fill:#e8c594;}.cls-2{fill:#fff;}.cls-3{fill:none;}</style></defs><title>covers</title><rect class="cls-1" y="0.5" width="1000" height="1000"/><path class="cls-2" d="M106.78,345a7.2,7.2,0,0,1-1.65-4.67c-.08-1.81.63-3.53-2.73-3.22-1.6.15-1.78-1.42-2.06-2.57-1.08-4.51-2.58-8.84-6.76-12a2.81,2.81,0,0,1-.67-1.56,61.2,61.2,0,0,0-11.69-22.8c-1.26-1.61-3.38-3.4-1.44-5.8.39-.48.72-1.29-.27-1.28-3,0-2.65-2.59-4-3.66-4.62-3.82-7.29-8.69-10.41-13.33-4-5.88-7.3-11.94-5.53-19.16a2,2,0,0,0-1.11-2.54c-3.09-1.28-3-4-4-6.34-2.73-6.34-5.48-12.72-10.77-17.85a23.81,23.81,0,0,1-7.12-13.58c-.87-6-3.23-11.33-6-16.58a22.48,22.48,0,0,1-1.83-17.53,13.88,13.88,0,0,0,.68-3.45c.13-4.27,1.58-7.31,7-8.39,2.63-.52,4.79-2.7,7.3-3.89,4-1.9,7.07-1.61,8.94,1.77,2.78,5,6.67,6.47,12.74,6.06,3.34-.22,6.93.71,10.42,1.06,7.24.74,14.4-.77,21.61-.22a9,9,0,0,0,3.9-.41,29.08,29.08,0,0,1,12.25-1.86c7.11.34,13.78-1.67,20.78-1.85,10.92-.28,21.81-1.63,32.71-2.52a7.67,7.67,0,0,0,2-.13c6.65-2.53,14.09-2.08,20.79-4.4,4.84-1.68,9.86-1.27,14.85-.91,2.1.15,4,.3,5-1.76s3.19-1.85,5-2.46a3.36,3.36,0,0,1,1.84.09c.79,5.19,6.71,4.52,10.07,6.41,5.84,3.27,5.75,8,5.87,12.64.17,7-3.24,13.62-4,20.59a3.33,3.33,0,0,1-.88,2.14c-3.42,2.82-3.22,6.54-3.67,10.2s-.25,7.6-5,9.5c-1.28.52-1.47,1.25-.48,2.23s1.81,2.28.86,3.16c-4.56,4.29-2,10.48-5.67,15.31-2.1,2.74-3.11,6.52-5.18,9.72s-3,7.18-4.26,10.87a7.3,7.3,0,0,1-1.59,2.35c-2.15,2.65-5.85,4.59-4.94,8.76.36,1.63-2.08,2.35-2.81,3.79-3.9,7.6-8.08,15-8.81,23.67-.2,2.35-.33,5.31-3.13,7.35-1.82,1.33-2.47,3.84-2.54,5.9-.25,7.5-5.29,13.68-6.87,20.82-1.91,8.64-6.58,16.46-10.46,24.5-1.25,2.59-.78,5.34-1,8-.15,2-1,4-4.21,2.86-.82-.29-2.07-.56-2.42.13-2.61,5.13-7.58,2.88-11.46,2.59-6.81-.51-13.3-2.66-19.58-5-5.57-2.1-10.37-5.16-12.05-10.83a5.25,5.25,0,0,0-1.51-2.52c-2.59-2.13-2.14-4.24-.14-6.33.82-.85,2.58-1.57,1.29-2.76-1.66-1.52-2.56.34-3.65,1.15A6.65,6.65,0,0,1,106.78,345Zm29.72-32.87c.7-.38,1-.44,1-.56,2.59-6.85,3.69-14.34,10.85-19.21.7-.48.74-1.78,1-2.72.11-.46-.29-.72-1.6-.67-.81.09-.67,2.55-2.78,2-1.12-1.3-.56-2.46.36-3.66,1.55-2,4.35-4.23,4.17-6.19-.24-2.59,1-3,2.8-3.62-1.65-2.17.1-2.75,1.88-3.75,2.4-1.35,3.76-2.93-.35-4.31-2.19-.73-.7-2.39-.06-3.47,2.63-4.46,4.53-9,3.85-14.19a1.93,1.93,0,0,1,1-2c3.32-1.55,2.33-4.65,3.48-7,.83-1.68-.64-3.5.89-5,2.43-2.35,2.86-5.47,3.33-8.33a7.75,7.75,0,0,1,3.2-5.38c2.85-2.22,4.82-5,3.66-8.67a4.22,4.22,0,0,1,1.12-3.87c5.36-6.4,5.82-14.22,8.68-21.57-3-.4-5.33.41-7.63.86-10.31,2-20.51,4.5-30.89,6.08a248.75,248.75,0,0,1-46,2.9c-7-.24-14.08-.14-21.11-.1-3.65,0-4.22,1-2.83,3.91a6.78,6.78,0,0,0,2.69,3.24,6.05,6.05,0,0,1,3.12,4.31c.6,3.38,2.72,6,4.54,8.89A27.63,27.63,0,0,1,88,226.44c1.07,3.28,2.73,6.47,6.31,8.48a5.56,5.56,0,0,1,3.19,5.42,6.93,6.93,0,0,0,.83,3.37c2.85,6.65,7.34,12.58,10.57,19.11a148.39,148.39,0,0,0,10.31,17.62c5.06,7.43,8.32,15.83,12.47,23.76C133.08,306.92,134.87,309.49,136.49,312.13Zm27.66-59.65-.72.34c.17,0,.36.16.5.13a4.12,4.12,0,0,0,.75-.32Zm-16.63,43.91a4,4,0,0,0,1.11.07c.63-.14.66-.45.08-.59a3,3,0,0,0-1.14.09S147.54,296.24,147.53,296.39Z"/><path class="cls-2" d="M179.63,429.12c-2.34,1.29-3.87,1.77-6.34,1.08C175.32,429.11,176.64,428,179.63,429.12Z"/><path class="cls-2" d="M686.59,849.27c-2.34,1.29-3.87,1.77-6.34,1.08C682.28,849.27,683.6,848.11,686.59,849.27Z"/><path class="cls-2" d="M62.74,381.37c.52-.09,1,.09.92.51,0,.25-.48.49-.79.68-.06,0-.38-.17-.49-.31C62,381.82,62.17,381.52,62.74,381.37Z"/><path class="cls-2" d="M470,641.93a3.73,3.73,0,0,1-.85-2.42c0-.94.33-1.83-1.41-1.67-.83.08-.92-.74-1.06-1.33-.56-2.34-1.34-4.58-3.5-6.22a1.45,1.45,0,0,1-.35-.81,31.71,31.71,0,0,0-6.06-11.81c-.65-.83-1.75-1.76-.75-3,.2-.25.37-.67-.14-.66-1.57,0-1.37-1.34-2-1.9-2.4-2-3.78-4.5-5.4-6.91-2.06-3-3.78-6.18-2.87-9.92A1,1,0,0,0,445,594c-1.6-.66-1.56-2.07-2.08-3.28-1.42-3.28-2.84-6.59-5.58-9.25a12.34,12.34,0,0,1-3.69-7,27,27,0,0,0-3.09-8.59,11.65,11.65,0,0,1-.95-9.08,7.2,7.2,0,0,0,.35-1.79c.07-2.21.82-3.79,3.63-4.35,1.36-.27,2.48-1.4,3.78-2,2.07-1,3.66-.83,4.63.92,1.44,2.59,3.45,3.35,6.6,3.14a33.92,33.92,0,0,1,5.4.55c3.75.38,7.46-.4,11.2-.11a4.67,4.67,0,0,0,2-.21,15.07,15.07,0,0,1,6.35-1c3.68.18,7.14-.86,10.77-1,5.66-.15,11.3-.84,16.95-1.31a4,4,0,0,0,1-.07c3.44-1.31,7.3-1.08,10.77-2.28,2.51-.87,5.11-.66,7.69-.47,1.09.08,2.09.15,2.6-.91s1.65-1,2.57-1.27a1.74,1.74,0,0,1,1,0c.41,2.69,3.47,2.34,5.22,3.32,3,1.7,3,4.13,3,6.55.09,3.64-1.68,7.06-2.05,10.67a1.72,1.72,0,0,1-.46,1.11c-1.77,1.46-1.67,3.39-1.9,5.29s-.13,3.94-2.58,4.92c-.67.27-.76.65-.25,1.16s.94,1.18.45,1.64c-2.36,2.22-1,5.43-2.94,7.93-1.09,1.42-1.61,3.38-2.68,5a24.12,24.12,0,0,0-2.21,5.63,3.78,3.78,0,0,1-.83,1.22c-1.12,1.37-3,2.38-2.56,4.54.19.84-1.08,1.22-1.46,2-2,3.94-4.19,7.8-4.56,12.26-.1,1.22-.17,2.75-1.62,3.81a3.94,3.94,0,0,0-1.31,3.06c-.13,3.89-2.74,7.09-3.56,10.79-1,4.48-3.41,8.53-5.42,12.69-.65,1.34-.4,2.77-.51,4.16-.08,1.06-.52,2.07-2.18,1.48-.43-.15-1.07-.29-1.25.07-1.35,2.66-3.93,1.49-5.94,1.34a36.85,36.85,0,0,1-10.14-2.6c-2.89-1.09-5.37-2.67-6.24-5.61a2.72,2.72,0,0,0-.78-1.31c-1.34-1.1-1.11-2.2-.07-3.28.42-.44,1.33-.82.67-1.43-.86-.79-1.33.18-1.89.6A3.42,3.42,0,0,1,470,641.93Zm15.4-17c.36-.2.5-.23.52-.29,1.34-3.55,1.91-7.43,5.62-10,.36-.25.38-.92.5-1.41.06-.24-.15-.37-.83-.34-.42,0-.35,1.32-1.44,1-.58-.68-.29-1.27.19-1.9.8-1.06,2.25-2.19,2.16-3.21-.12-1.34.5-1.54,1.45-1.88-.85-1.12,0-1.43,1-1.94,1.24-.7,1.95-1.52-.18-2.23-1.13-.38-.36-1.24,0-1.8,1.36-2.31,2.35-4.69,2-7.35a1,1,0,0,1,.49-1.05c1.72-.8,1.21-2.41,1.8-3.61.43-.87-.33-1.82.46-2.58,1.26-1.22,1.48-2.83,1.73-4.32a4,4,0,0,1,1.66-2.79c1.48-1.15,2.5-2.57,1.9-4.49a2.18,2.18,0,0,1,.58-2c2.78-3.32,3-7.37,4.5-11.18a11.07,11.07,0,0,0-4,.44c-5.34,1-10.63,2.33-16,3.15a128.89,128.89,0,0,1-23.83,1.5c-3.64-.13-7.29-.07-10.94-.05-1.89,0-2.19.51-1.47,2a3.51,3.51,0,0,0,1.39,1.68,3.14,3.14,0,0,1,1.61,2.23c.31,1.75,1.41,3.13,2.35,4.61a14.31,14.31,0,0,1,1.64,3.29,7.24,7.24,0,0,0,3.27,4.4,2.88,2.88,0,0,1,1.65,2.81,3.59,3.59,0,0,0,.43,1.75c1.48,3.45,3.8,6.52,5.48,9.9a76.9,76.9,0,0,0,5.34,9.13c2.62,3.85,4.31,8.2,6.46,12.31C483.65,622.2,484.58,623.54,485.42,624.91ZM499.76,594l-.37.18c.09,0,.19.09.26.07a2.15,2.15,0,0,0,.39-.17Zm-8.62,22.75a2.1,2.1,0,0,0,.57,0c.33-.07.34-.23,0-.31a1.56,1.56,0,0,0-.59,0S491.15,616.67,491.14,616.75Z"/><path class="cls-2" d="M507.77,685.52a3.82,3.82,0,0,1-3.29.56C505.54,685.52,506.22,684.92,507.77,685.52Z"/><path class="cls-2" d="M447.21,660.78c.27,0,.5,0,.48.27s-.25.25-.41.35-.19-.09-.26-.16S446.92,660.86,447.21,660.78Z"/><path class="cls-2" d="M472.77,867.3a2.88,2.88,0,0,1-.66-1.87c0-.72.25-1.41-1.09-1.29-.64.06-.71-.57-.82-1a7.78,7.78,0,0,0-2.71-4.81,1.12,1.12,0,0,1-.27-.62,24.49,24.49,0,0,0-4.68-9.13c-.5-.64-1.35-1.36-.58-2.32.16-.19.29-.51-.11-.51-1.22,0-1.06-1-1.58-1.47-1.85-1.53-2.92-3.48-4.17-5.34-1.59-2.36-2.92-4.78-2.22-7.67a.8.8,0,0,0-.44-1c-1.24-.51-1.21-1.6-1.61-2.54-1.09-2.54-2.19-5.09-4.31-7.15a9.53,9.53,0,0,1-2.85-5.44,20.85,20.85,0,0,0-2.39-6.64,9,9,0,0,1-.73-7,5.55,5.55,0,0,0,.27-1.38,3.06,3.06,0,0,1,2.8-3.36c1.05-.21,1.92-1.08,2.92-1.56,1.6-.76,2.83-.64,3.58.71,1.11,2,2.67,2.59,5.1,2.43a26.2,26.2,0,0,1,4.17.43c2.9.3,5.77-.31,8.65-.09a3.61,3.61,0,0,0,1.56-.16,11.64,11.64,0,0,1,4.9-.75c2.84.14,5.52-.67,8.32-.74,4.37-.11,8.73-.65,13.09-1a3.08,3.08,0,0,0,.79-.05c2.66-1,5.64-.83,8.32-1.76a14.64,14.64,0,0,1,5.94-.37c.84.06,1.61.12,2-.7s1.28-.74,2-1a1.34,1.34,0,0,1,.74,0c.32,2.08,2.69,1.81,4,2.57,2.34,1.31,2.3,3.19,2.35,5.06.07,2.81-1.3,5.45-1.59,8.24a1.33,1.33,0,0,1-.35.86c-1.37,1.13-1.29,2.62-1.47,4.08s-.1,3-2,3.8c-.51.21-.59.5-.19.89s.72.91.35,1.27c-1.83,1.72-.79,4.2-2.27,6.13-.84,1.1-1.25,2.61-2.07,3.89a18.64,18.64,0,0,0-1.7,4.35,2.92,2.92,0,0,1-.64.94c-.86,1.06-2.34,1.84-2,3.51.14.65-.83.94-1.13,1.52-1.56,3-3.24,6-3.53,9.48a3.56,3.56,0,0,1-1.25,2.94,3,3,0,0,0-1,2.36c-.1,3-2.12,5.48-2.75,8.34-.76,3.46-2.63,6.59-4.19,9.81a8.4,8.4,0,0,0-.39,3.22c-.06.82-.4,1.6-1.69,1.14-.33-.12-.83-.22-1,.05-1,2.05-3,1.15-4.59,1a28.49,28.49,0,0,1-7.84-2c-2.23-.84-4.15-2.06-4.82-4.34a2.1,2.1,0,0,0-.6-1c-1-.85-.86-1.7-.06-2.53.33-.34,1-.63.51-1.1s-1,.14-1.46.46A2.68,2.68,0,0,1,472.77,867.3Zm11.9-13.16c.28-.15.39-.18.41-.23,1-2.74,1.48-5.74,4.34-7.69.28-.19.3-.71.39-1.09,0-.18-.12-.29-.64-.27-.32,0-.27,1-1.11.81-.45-.52-.22-1,.14-1.47.62-.82,1.74-1.7,1.67-2.48-.1-1,.39-1.19,1.12-1.45-.66-.87,0-1.1.75-1.5,1-.54,1.51-1.17-.14-1.73-.87-.29-.28-1,0-1.39a8.8,8.8,0,0,0,1.54-5.68.77.77,0,0,1,.38-.81c1.33-.62.93-1.86,1.39-2.79.33-.67-.26-1.4.36-2a5.52,5.52,0,0,0,1.33-3.34,3.1,3.1,0,0,1,1.28-2.15c1.14-.89,1.93-2,1.47-3.47a1.69,1.69,0,0,1,.45-1.55c2.15-2.56,2.33-5.69,3.48-8.64a8.56,8.56,0,0,0-3.05.34c-4.13.8-8.21,1.8-12.37,2.43a99.61,99.61,0,0,1-18.41,1.16c-2.81-.1-5.63-.06-8.45,0-1.46,0-1.69.39-1.13,1.57a2.71,2.71,0,0,0,1.08,1.3,2.42,2.42,0,0,1,1.25,1.72,10.15,10.15,0,0,0,1.82,3.56,11.05,11.05,0,0,1,1.27,2.54,5.59,5.59,0,0,0,2.52,3.4A2.23,2.23,0,0,1,469,825.4a2.78,2.78,0,0,0,.33,1.35c1.14,2.66,2.94,5,4.23,7.65a59.39,59.39,0,0,0,4.13,7.05c2,3,3.33,6.34,5,9.51C483.3,852,484,853.08,484.67,854.14Zm11.07-23.88-.29.14c.07,0,.14.07.2.05a1.67,1.67,0,0,0,.3-.13Zm-6.66,17.58a1.61,1.61,0,0,0,.44,0c.25-.05.26-.18,0-.24a1.2,1.2,0,0,0-.46,0S489.09,847.78,489.09,847.84Z"/><path class="cls-2" d="M520.76,989.48a3,3,0,0,1-2.54.43C519,989.48,519.57,989,520.76,989.48Z"/><path class="cls-2" d="M474,970.37c.21,0,.39,0,.37.21s-.19.2-.32.27-.15-.07-.2-.13S473.74,970.43,474,970.37Z"/><path class="cls-2" d="M493,151.38a4.06,4.06,0,0,1-.93-2.64c0-1,.36-2-1.54-1.81-.91.08-1-.8-1.16-1.45-.61-2.55-1.45-5-3.82-6.77a1.58,1.58,0,0,1-.38-.88,34.53,34.53,0,0,0-6.6-12.86c-.71-.91-1.91-1.92-.82-3.27.22-.27.4-.73-.15-.72-1.71,0-1.49-1.46-2.23-2.07-2.61-2.16-4.11-4.9-5.88-7.52-2.24-3.32-4.12-6.74-3.12-10.81a1.13,1.13,0,0,0-.63-1.43c-1.74-.72-1.7-2.26-2.27-3.57-1.54-3.58-3.09-7.18-6.08-10.07a13.43,13.43,0,0,1-4-7.66A29.39,29.39,0,0,0,450,68.48a12.68,12.68,0,0,1-1-9.89,7.82,7.82,0,0,0,.39-1.95c.07-2.41.89-4.12,4-4.74,1.48-.3,2.7-1.52,4.12-2.2,2.25-1.07,4-.91,5,1,1.57,2.82,3.76,3.65,7.19,3.42a36.93,36.93,0,0,1,5.88.6c4.09.42,8.13-.43,12.19-.12a5.09,5.09,0,0,0,2.2-.23,16.41,16.41,0,0,1,6.91-1c4,.19,7.77-.94,11.73-1,6.16-.16,12.3-.92,18.45-1.42a4.34,4.34,0,0,0,1.11-.08c3.75-1.43,8-1.18,11.73-2.48,2.73-.95,5.56-.72,8.38-.52,1.19.09,2.28.17,2.83-1s1.8-1,2.79-1.39a1.9,1.9,0,0,1,1,.05c.45,2.93,3.78,2.55,5.68,3.62,3.29,1.85,3.25,4.5,3.31,7.13.1,4-1.83,7.69-2.24,11.62a1.88,1.88,0,0,1-.5,1.21c-1.93,1.59-1.82,3.69-2.07,5.76s-.14,4.29-2.81,5.36c-.72.29-.83.71-.27,1.26s1,1.28.49,1.79c-2.57,2.42-1.11,5.91-3.2,8.64-1.18,1.54-1.76,3.68-2.92,5.49a26.27,26.27,0,0,0-2.4,6.13,4.11,4.11,0,0,1-.9,1.33c-1.22,1.5-3.3,2.59-2.78,4.94.2.92-1.17,1.33-1.59,2.14-2.2,4.29-4.56,8.49-5,13.36-.11,1.33-.19,3-1.76,4.15a4.29,4.29,0,0,0-1.43,3.33c-.14,4.23-3,7.72-3.88,11.75-1.08,4.87-3.71,9.29-5.9,13.82-.71,1.46-.44,3-.56,4.54-.09,1.15-.56,2.25-2.38,1.61-.46-.16-1.17-.31-1.37.07-1.47,2.89-4.28,1.63-6.47,1.46a40.14,40.14,0,0,1-11-2.83c-3.14-1.18-5.85-2.91-6.8-6.11a3,3,0,0,0-.85-1.42c-1.46-1.2-1.21-2.39-.08-3.57.46-.48,1.45-.89.73-1.56-.94-.86-1.45.19-2.06.65A3.75,3.75,0,0,1,493,151.38Zm16.77-18.55c.39-.21.55-.25.57-.32,1.46-3.87,2.08-8.09,6.12-10.84.4-.27.42-1,.54-1.53.06-.26-.17-.4-.9-.37-.46.05-.38,1.44-1.57,1.14-.63-.74-.31-1.39.2-2.07.87-1.15,2.45-2.39,2.35-3.49-.13-1.46.55-1.67,1.58-2-.93-1.22.05-1.55,1.06-2.12,1.35-.76,2.12-1.65-.2-2.43-1.23-.41-.39-1.35,0-2,1.48-2.52,2.56-5.1,2.17-8a1.09,1.09,0,0,1,.54-1.15c1.87-.87,1.32-2.62,2-3.93.47-.95-.36-2,.5-2.81,1.37-1.32,1.61-3.09,1.88-4.7a4.37,4.37,0,0,1,1.8-3c1.61-1.25,2.72-2.8,2.07-4.89a2.38,2.38,0,0,1,.63-2.18c3-3.61,3.28-8,4.9-12.17a12.06,12.06,0,0,0-4.3.48c-5.82,1.12-11.57,2.54-17.43,3.43a140.39,140.39,0,0,1-25.95,1.64c-4-.14-7.94-.08-11.91-.06-2.06,0-2.38.55-1.6,2.21a3.82,3.82,0,0,0,1.52,1.83A3.41,3.41,0,0,1,478,75.88c.34,1.9,1.54,3.41,2.56,5a15.59,15.59,0,0,1,1.79,3.58,7.88,7.88,0,0,0,3.56,4.79,3.14,3.14,0,0,1,1.8,3.06,3.91,3.91,0,0,0,.47,1.9c1.61,3.75,4.14,7.1,6,10.78a83.67,83.67,0,0,0,5.82,9.94c2.86,4.19,4.69,8.93,7,13.41C507.8,129.89,508.81,131.34,509.73,132.83Zm15.61-33.66-.41.19c.1,0,.2.09.28.07a2.33,2.33,0,0,0,.42-.18ZM516,123.95a2.26,2.26,0,0,0,.62,0c.35-.08.37-.25,0-.33a1.7,1.7,0,0,0-.64,0S516,123.86,516,123.95Z"/><path class="cls-2" d="M534.06,198.84a4.16,4.16,0,0,1-3.58.61C531.63,198.84,532.38,198.19,534.06,198.84Z"/><path class="cls-2" d="M468.11,171.9c.29-.05.54,0,.52.29s-.27.28-.45.38-.21-.1-.28-.18C467.71,172.15,467.79,172,468.11,171.9Z"/><path class="cls-3" d="M174.28,996.71a5.57,5.57,0,0,0,.5.77,3.61,3.61,0,0,0,.52.43,2.41,2.41,0,0,0-.21-.58C174.91,997.05,175,996.42,174.28,996.71Z"/><path class="cls-3" d="M166.27,976.21a.8.8,0,0,0,.29.76c.48.32,1,.18,1-.36,0-.2-.32-.45-.5-.67C166.81,976,166.33,976.06,166.27,976.21Z"/><path class="cls-3" d="M175.5,998.24c-.08.79-.22,1.6.65,2.26h.74A2.62,2.62,0,0,0,175.5,998.24Z"/><path class="cls-2" d="M175.5,998.24l-.11-.07c0-.09-.07-.17-.1-.26a3.61,3.61,0,0,1-.52-.43,5.57,5.57,0,0,1-.5-.77c.77-.29.63.34.8.62a2.41,2.41,0,0,1,.21.58l.22.18s0,.1,0,.15a2.62,2.62,0,0,1,1.39,2.26h4.85c-1.16-2.32-2.34-4.63-3.65-6.9-2.15-3.73-3.53-7.85-6.92-11-.32-.31-.67-1-.51-1.23,1.76-2.8-.84-4.71-2-6.91-1.42-2.72-3.33-5.28-3.71-8.33l.12.13-.12-.13h0a26.33,26.33,0,0,1-3.13-6.44c1.14-.74,1.4,1.4,2.54.66.91-.59.7-1.37.41-2.1-.91-2.22-1.93-4.4-2.84-6.62-.41-1-1.1-2-.63-3.12,1.83-.91,3.61-.25,5.34-.05a286,286,0,0,0,52.48.78c9.69-.7,19.44-.87,29.18-1.19,4-.13,4.6.49,3.14,3.82-3.1,7.07-6,14.22-10.25,20.87a74.51,74.51,0,0,0-7.91,15.16,97.74,97.74,0,0,1-6.16,12.64h44.37c6.45-10,12.43-20.27,18.4-30.52,4.37-7.51,5.21-15.66,7.08-23.66a5,5,0,0,0-.11-1.87c-1.36-8.19-7.22-14.21-13.32-20.11-1-1-2.34-1.31-3.28-.31-2.64,2.82-6.36,2.38-9.89,2.53-9.18.39-18.42.35-27.51,1.25-11.07,1.1-22.26.76-33.33,2.11a171.15,171.15,0,0,1-31.8.63,13.77,13.77,0,0,0-3.22.27c-9.5,1.66-18.58.21-27.42-3.2-2.52-1-5.19-2.1-7.84-1.12-2.95,1.09-5.47.69-8.29-.42-3.28-1.3-4.05-.82-4.54,2.28A48.49,48.49,0,0,0,128.89,952c1.78,5.15,4.72,9.9,6.91,14.9,3.53,8.07,7.82,15.95,8.68,24.68a8.72,8.72,0,0,0,1.23,3.61,20.72,20.72,0,0,1,2.3,5.31h28.13C175.28,999.85,175.42,999,175.5,998.24ZM166.56,977a.8.8,0,0,1-.29-.76c.06-.15.54-.18.83-.27.18.23.52.47.5.67C167.52,977.15,167,977.29,166.56,977Z"/><path class="cls-2" d="M175.3,997.91c0,.09.07.17.1.26l.11.07c0-.05,0-.1,0-.15Z"/><path class="cls-2" d="M165,966.09l.08.13s0-.08,0-.12Z"/><path class="cls-2" d="M168,965.07a1.53,1.53,0,0,0-2.09-.95c-.86.38-.76,1.23-.79,2,1.58-.23,2.18,1.3,3.48,1.63C169.2,966.69,168.32,965.9,168,965.07Z"/><path class="cls-2" d="M165,966.09l.12.13-.08-.13Z"/><path class="cls-2" d="M179.09,987.92c-.25,0-.66.3-.67.48,0,.5.39.76,1,.82.23-.17.64-.32.67-.51C180.11,988.17,179.63,987.91,179.09,987.92Z"/><path class="cls-2" d="M149.76,6.31c2.38,2.88,4.33,5.77,4.45,9.49.06,1.94,2.06,3.56,2.37,5.69a20.42,20.42,0,0,0,3.7,8.29,18.89,18.89,0,0,0,4.07,4c1.89,1.54-.22,3.56.65,5.33,2.28,0,4.69-1,6,1.25,1.23,2-2.92,1.68-2.17,3.67,1.09.93,3.6,1.13,2.64,3.39a2,2,0,0,0,.73,2.15c3.45,3.38,5.55,7.52,8.7,11.13a76.68,76.68,0,0,0,15.2,13.46c1.14.77,2.64,2,3.7,1.84,4.48-.69,7.47,1.77,10.89,3.43,2.35,1.14,7.77-.25,7.48-2-.36-2.13.94-2.82,2.26-4.16A46.52,46.52,0,0,1,229,66.79c-.52-1.75-2.32-.89-3.61-2.08,1.48-2.63,2.95-5.1,7-4.74,2.12.19,2.62-1.13,3.37-2.42,5-8.59,10.5-16.92,16.11-25.21,1.66-2.46,4.17-4.73,3.29-8.06a1,1,0,0,1,.67-1.14c3.45-1.32,4.25-4.37,5.9-6.87,1.93-2.91,3.35-6,5.33-9,1.53-2.25,3-4.53,4.46-6.81H227.18c-.69,1.3-1.38,2.61-2,3.93a147.16,147.16,0,0,1-10.93,19A16,16,0,0,0,211.76,29c-1,4.4-5.34,7.36-5.83,12.07a32.45,32.45,0,0,1-12.54-14.51C189.48,17.87,186,9,181.74.5h-4.85c0,.15,0,.28,0,.44a3.3,3.3,0,0,1-.79-.44H148a21,21,0,0,1,.66,3.17A5.26,5.26,0,0,0,149.76,6.31Zm86.09,45.23c.27.14.73.25.77.42a.82.82,0,0,1-.41.71.49.49,0,0,1-.76-.37ZM226.7,39.7c.63,0,.49.63.46,1-.06.67-.37,1.19-1.27,1.06-.16,0-.24-.49-.36-.76C225.67,40.41,226,39.74,226.7,39.7ZM185.84,21.23a1.08,1.08,0,0,1,.58.69c.08.37-.21.56-.6.54-.2-.24-.51-.46-.58-.72A.43.43,0,0,1,185.84,21.23Z"/><path class="cls-2" d="M284.24,39.69c0,.27.31.77.46.77,2.74,0,5.18,1.92,9.37,1.15-3.38-2.08-5.84-3.27-9-2.94A.92.92,0,0,0,284.24,39.69Z"/><path class="cls-2" d="M187.11,5.09a3.46,3.46,0,0,0,.2-.71.46.46,0,0,0-.25-.34c-.41-.18-.58,0-.48.38Z"/><path class="cls-2" d="M190.68,12.23a2.64,2.64,0,0,0-1.6-2.54C189.32,11,189.63,11.83,190.68,12.23Z"/><path class="cls-2" d="M190.81,12.29l-.13-.06s0,.1,0,.15Z"/><path class="cls-2" d="M190.81,12.3l-.1.08.06.09Z"/><path class="cls-2" d="M191.63,15.55c.72-1.45-.4-2.19-.87-3.09C190.5,13.53,190.09,14.63,191.63,15.55Z"/><path class="cls-2" d="M193,19.33c.24-.17.65-.31.69-.51s-.34-.42-.58-.67c-.23.19-.61.35-.64.56S192.78,19.12,193,19.33Z"/><path class="cls-2" d="M200.43,34.07a.92.92,0,0,0-.81-1c-.43,0-.68.23-.49.57a6.82,6.82,0,0,0,.86,1C200.14,34.5,200.42,34.29,200.43,34.07Z"/><path class="cls-2" d="M177.23,984.06l-.52.59.63.52c.19-.19.55-.4.52-.57S177.46,984.23,177.23,984.06Z"/><path class="cls-2" d="M758.09,664.5c1.59,1.47,3.82.4,4.46,2.57A57.49,57.49,0,0,0,752,675.2c-1.63,1.66-3.24,2.51-2.8,5.14.36,2.12-6.35,3.84-9.25,2.43-4.23-2.05-7.92-5.09-13.46-4.24-1.31.2-3.16-1.33-4.58-2.27a94.81,94.81,0,0,1-18.79-16.64c-3.9-4.46-6.5-9.58-10.76-13.76a2.41,2.41,0,0,1-.9-2.66c1.19-2.79-1.92-3-3.26-4.19-.92-2.47,4.21-2,2.69-4.54-1.66-2.75-4.64-1.58-7.46-1.55-1.08-2.19,1.53-4.68-.8-6.59a23.36,23.36,0,0,1-5-5c-2.21-3.29-4-6.6-4.57-10.25-.38-2.64-2.85-4.64-2.93-7-.15-4.6-2.56-8.18-5.5-11.74a6.5,6.5,0,0,1-1.35-3.27,25.5,25.5,0,0,0-3.66-10.49,10.78,10.78,0,0,1-1.52-4.46c-1.07-10.8-6.38-20.54-10.74-30.51-2.7-6.19-6.35-12.06-8.54-18.43a60,60,0,0,1-3-29.23c.6-3.84,1.56-4.43,5.61-2.82,3.48,1.38,6.6,1.87,10.25.52,3.27-1.21,6.58.19,9.69,1.39,10.94,4.22,22.17,6,33.91,4a17,17,0,0,1,4-.33,211.6,211.6,0,0,0,39.32-.79c13.68-1.67,27.51-1.25,41.21-2.6,11.24-1.11,22.67-1.06,34-1.54,4.37-.19,9,.36,12.23-3.13,1.17-1.24,2.8-.84,4.06.38,7.55,7.3,14.8,14.74,16.47,24.87a6.13,6.13,0,0,1,.14,2.31c-2.31,9.89-3.35,20-8.75,29.26-9.06,15.57-18.09,31.15-28.27,46.16-2.45,3.62-4.21,7.48-6.59,11.08-2,3.08-3,6.86-7.29,8.49a1.17,1.17,0,0,0-.83,1.41c1.09,4.12-2,6.93-4.07,10C784,634.73,777.12,645,771,655.65c-.92,1.59-1.54,3.23-4.17,3C761.73,658.19,759.92,661.25,758.09,664.5ZM696.3,582.22a5.38,5.38,0,0,0-.38-1c-.21-.34,0-1.13-1-.77a6.85,6.85,0,0,0,.62.95,7.82,7.82,0,0,0,.91.76c-.1,1.25-.53,2.61,1.76,3.52C698.14,584.07,697.76,583,696.3,582.22Zm-12.73-39.51-.15-.16c.47,3.77,2.82,6.94,4.58,10.3,1.42,2.71,4.63,5.07,2.45,8.54-.2.32.23,1.14.63,1.52,4.18,3.94,5.89,9,8.55,13.65,7.57,13.14,12.76,27.1,18.9,40.72a40.12,40.12,0,0,0,15.51,17.94c.61-5.83,6-9.49,7.21-14.93a19.74,19.74,0,0,1,3.06-6.82A182,182,0,0,0,757.85,590c3.29-6.86,7.57-13.42,10.1-20.49a92.16,92.16,0,0,1,9.79-18.74c5.31-8.22,8.84-17.06,12.67-25.8,1.81-4.13,1.08-4.89-3.88-4.73-12,.4-24.1.61-36.08,1.47a353.6,353.6,0,0,1-64.89-1c-2.14-.24-4.35-1.06-6.61.07-.58,1.36.27,2.61.78,3.85,1.12,2.74,2.38,5.44,3.51,8.19.37.9.62,1.86-.5,2.59-1.41.91-1.72-1.73-3.14-.81A31.92,31.92,0,0,0,683.57,542.72Zm74.72,92.51c.15.33.25.91.45.93,1.12.16,1.5-.48,1.57-1.31,0-.5.21-1.33-.57-1.28S758.46,634.46,758.29,635.23ZM686,554.74c-.36.1-1,.14-1,.33a1,1,0,0,0,.36.94c.6.39,1.19.22,1.28-.44C686.69,555.33,686.26,555,686,554.74Zm23.14,57.51c.49,0,.84-.21.74-.66a1.34,1.34,0,0,0-.71-.85.53.53,0,0,0-.75.62C708.55,611.68,708.93,612,709.18,612.25Zm61.37,36.9a.61.61,0,0,0,.94.46,1,1,0,0,0,.51-.87c0-.21-.61-.35-.95-.52Z"/><path class="cls-2" d="M843,635.93c-5.19,1-8.2-1.44-11.59-1.42-.19,0-.55-.61-.57-.95a1.14,1.14,0,0,1,1-1.26c3.91-.41,7,1.06,11.13,3.63"/><path class="cls-2" d="M683.57,542.72c.07-1-.13-2.1,1-2.59a1.9,1.9,0,0,1,2.59,1.17c.42,1,1.5,2,.74,3.28-1.65-.41-2.37-2.45-4.46-2Z"/><path class="cls-2" d="M701.22,571.16c-.71-.07-1.22-.4-1.19-1,0-.23.53-.58.83-.59.67,0,1.27.31,1.18,1C702,570.77,701.5,571,701.22,571.16Z"/><path class="cls-2" d="M710.12,589.94c-.12-.51.09-.69.6-.47a.57.57,0,0,1,.31.43,4.29,4.29,0,0,1-.25.88Z"/><path class="cls-2" d="M715.36,599.69c-1.45-.46-1.83-1.51-2.14-3.22,1.93.89,1.79,2.2,2,3.32Z"/><path class="cls-2" d="M715.23,599.79c.53,1.16,2.06,2.08,1.14,3.93-2-1.2-1.33-2.65-1-4Z"/><path class="cls-2" d="M718.17,606.92c.29.32.76.62.71.83s-.55.42-.85.63c-.24-.26-.68-.55-.65-.78S717.89,607.15,718.17,606.92Z"/><path class="cls-2" d="M726.25,625.41a1.14,1.14,0,0,1,1,1.2c0,.27-.35.53-.54.79a8.43,8.43,0,0,1-1.07-1.29C725.42,625.7,725.72,625.42,726.25,625.41Z"/><path class="cls-2" d="M697.93,565.51l.64-.73c.28.22.73.42.77.67s-.41.46-.64.7Z"/><path class="cls-3" d="M48.57,730.48a.5.5,0,0,0-.71.59c.08.31.44.57.68.85.46,0,.8-.2.71-.63A1.27,1.27,0,0,0,48.57,730.48Z"/><path class="cls-3" d="M36.42,703.47c-.11,1.14-.38,2.34,1.69,3.16A3.3,3.3,0,0,0,36.42,703.47Z"/><path class="cls-3" d="M35,701.67a6.45,6.45,0,0,0,.59.9,4.18,4.18,0,0,0,.61.51,2.86,2.86,0,0,0-.25-.68C35.73,702.07,35.89,701.32,35,701.67Z"/><path class="cls-3" d="M106.85,767a.58.58,0,0,0,.9.44,1,1,0,0,0,.48-.83c0-.2-.58-.33-.9-.5Z"/><path class="cls-3" d="M96.57,752.17c-.85.05-1.21.84-1.38,1.57.14.31.24.86.42.89,1.06.16,1.43-.46,1.49-1.25C97.15,752.91,97.31,752.12,96.57,752.17Z"/><path class="cls-3" d="M25.57,677.58a.94.94,0,0,0,.34.9c.57.37,1.13.21,1.22-.42,0-.24-.37-.52-.58-.79C26.21,677.37,25.64,677.4,25.57,677.58Z"/><path class="cls-2" d="M36.18,703.08c0,.1.08.2.11.3l.12.09c0-.06,0-.12,0-.18Z"/><path class="cls-2" d="M179.06,640.27c-1.59-9.62-8.48-16.69-15.65-23.63-1.2-1.16-2.75-1.54-3.86-.36-3.1,3.31-7.47,2.8-11.62,3-10.78.46-21.64.41-32.32,1.47-13,1.29-26.16.89-39.15,2.48a201.11,201.11,0,0,1-37.36.75,16.17,16.17,0,0,0-3.78.31c-11.16,2-21.83.25-32.22-3.76-1-.39-2-.8-3.09-1.12V695.7a10.24,10.24,0,0,0,1.43,4.17,24.23,24.23,0,0,1,3.48,10,6.17,6.17,0,0,0,1.28,3.1c2.8,3.38,5.09,6.78,5.23,11.15.08,2.28,2.42,4.18,2.78,6.69.5,3.47,2.24,6.61,4.34,9.74a22.19,22.19,0,0,0,4.78,4.76c2.21,1.81-.26,4.18.76,6.26,2.68,0,5.51-1.14,7.09,1.47,1.44,2.39-3.43,2-2.55,4.31,1.28,1.09,4.23,1.33,3.1,4a2.29,2.29,0,0,0,.86,2.53c4.05,4,6.52,8.84,10.22,13.07a90.08,90.08,0,0,0,17.86,15.81c1.34.9,3.1,2.35,4.35,2.16,5.26-.81,8.77,2.08,12.79,4,2.76,1.34,9.13-.3,8.79-2.31-.42-2.5,1.11-3.31,2.66-4.89a54.63,54.63,0,0,1,10-7.73c-.61-2.06-2.73-1-4.24-2.44,1.74-3.08,3.47-6,8.28-5.56,2.49.22,3.08-1.33,4-2.84,5.85-10.1,12.34-19.88,18.92-29.62,2-2.89,4.9-5.55,3.87-9.47a1.12,1.12,0,0,1,.79-1.34c4.06-1.55,5-5.14,6.93-8.07,2.26-3.42,3.93-7.09,6.27-10.53,9.67-14.27,18.25-29.07,26.86-43.86,5.14-8.82,6.12-18.4,8.32-27.8A5.82,5.82,0,0,0,179.06,640.27ZM25.91,678.48a.94.94,0,0,1-.34-.9c.07-.18.63-.21,1-.31.21.27.62.56.58.79C27,678.69,26.48,678.85,25.91,678.48Zm10.51,25-.12-.09c0-.1-.08-.2-.11-.3a4.18,4.18,0,0,1-.61-.51,6.45,6.45,0,0,1-.59-.9c.9-.34.74.4.94.73a2.86,2.86,0,0,1,.25.68l.26.21c0,.06,0,.12,0,.18a3.3,3.3,0,0,1,1.69,3.16C36,705.81,36.31,704.61,36.42,703.47Zm12.12,28.44c-.24-.28-.6-.54-.68-.85a.5.5,0,0,1,.71-.59,1.27,1.27,0,0,1,.68.81C49.34,731.72,49,731.94,48.54,731.91Zm48.57,21.47c-.06.79-.43,1.4-1.49,1.25-.19,0-.28-.58-.42-.89.17-.73.53-1.52,1.38-1.57S97.15,752.91,97.11,753.38Zm10.63,14a.58.58,0,0,1-.9-.44l.48-.88c.32.16.86.29.9.5A1,1,0,0,1,107.74,767.41Zm18-118.47c-3.64,8.31-7,16.71-12,24.52a87.57,87.57,0,0,0-9.3,17.81c-2.41,6.72-6.47,12.95-9.6,19.47a172.85,172.85,0,0,1-12.85,22.36A18.77,18.77,0,0,0,79,739.57c-1.15,5.17-6.28,8.65-6.85,14.18a38.12,38.12,0,0,1-14.73-17c-5.84-12.95-10.77-26.21-18-38.69-2.53-4.39-4.15-9.22-8.13-13-.38-.36-.79-1.14-.6-1.44,2.07-3.29-1-5.54-2.33-8.12-1.67-3.2-3.91-6.21-4.36-9.79l.14.15-.14-.15h0a30.94,30.94,0,0,1-3.67-7.56c1.34-.87,1.64,1.64,3,.77,1.07-.7.83-1.61.48-2.46-1.07-2.6-2.27-5.17-3.33-7.78-.48-1.18-1.29-2.37-.74-3.66,2.14-1.07,4.24-.29,6.28-.06a336,336,0,0,0,61.66.91c11.38-.82,22.84-1,34.28-1.4C126.74,644.29,127.43,645,125.71,648.94Z"/><path class="cls-2" d="M993.88,619.18c-3.46,1.28-6.43.81-9.74-.5-3.85-1.53-4.76-1-5.33,2.68a57,57,0,0,0,2.85,27.77c2.09,6.05,5.55,11.63,8.12,17.51,4.14,9.48,9.18,18.73,10.2,29,0,0,0,0,0,.07V619.37A9.3,9.3,0,0,0,993.88,619.18Z"/><path class="cls-2" d="M164.18,752.17c0,.32.36.9.54.9,3.22,0,6.08,2.25,11,1.35-4-2.44-6.86-3.84-10.58-3.45A1.08,1.08,0,0,0,164.18,752.17Z"/><path class="cls-2" d="M51.27,913.18c0,.32.36.9.54.9,3.22,0,6.08,2.25,11,1.35-4-2.44-6.86-3.84-10.58-3.45A1.08,1.08,0,0,0,51.27,913.18Z"/><path class="cls-2" d="M949.68,423.68c0,.32.36.9.54.9,3.22,0,6.08,2.25,11,1.35-4-2.44-6.86-3.84-10.58-3.45A1.08,1.08,0,0,0,949.68,423.68Z"/><path class="cls-2" d="M24.1,665.69l.1.15c0-.05,0-.11,0-.16Z"/><path class="cls-2" d="M28.29,667.61c.72-1.22-.3-2.15-.7-3.12a1.8,1.8,0,0,0-2.46-1.11c-1,.44-.89,1.43-.93,2.3C26.07,665.4,26.76,667.23,28.29,667.61Z"/><path class="cls-2" d="M24.06,665.69l.14.15-.1-.15Z"/><path class="cls-2" d="M40.64,691.34c-.29,0-.78.35-.79.56,0,.59.46.9,1.13,1,.27-.2.75-.37.78-.6C41.84,691.64,41.27,691.32,40.64,691.34Z"/><path class="cls-2" d="M50,710.27c-.48-.21-.68,0-.57.45l.63.79a4.1,4.1,0,0,0,.23-.84A.54.54,0,0,0,50,710.27Z"/><path class="cls-2" d="M54.26,719.9c0,.06,0,.12,0,.17l.12-.09C54.35,720,54.32,719.92,54.26,719.9Z"/><path class="cls-2" d="M52.38,716.91c.28,1.56.65,2.52,1.88,3C54.09,718.87,54.12,717.71,52.38,716.91Z"/><path class="cls-2" d="M54.29,720.07l.07.12.05-.21Z"/><path class="cls-2" d="M55.37,723.8c.84-1.7-.47-2.57-1-3.62C54,721.43,53.57,722.72,55.37,723.8Z"/><path class="cls-2" d="M57.08,726.85c-.27.22-.71.41-.75.65s.39.49.62.74c.29-.2.76-.36.81-.6S57.35,727.15,57.08,726.85Z"/><path class="cls-2" d="M64.76,744.42c-.5,0-.79.27-.58.67a8,8,0,0,0,1,1.23c.18-.25.5-.49.51-.75A1.09,1.09,0,0,0,64.76,744.42Z"/><path class="cls-2" d="M38.46,686.8l-.61.7.74.61c.22-.22.64-.47.61-.66S38.72,687,38.46,686.8Z"/><path class="cls-2" d="M819.15,749.2c.9.83,2.16.23,2.52,1.45a32.54,32.54,0,0,0-6,4.6c-.92.94-1.83,1.42-1.58,2.91.2,1.2-3.59,2.17-5.24,1.37-2.39-1.16-4.48-2.88-7.62-2.4-.74.11-1.79-.75-2.59-1.29a53.67,53.67,0,0,1-10.64-9.42c-2.21-2.52-3.68-5.42-6.09-7.79a1.36,1.36,0,0,1-.51-1.5c.67-1.58-1.09-1.72-1.85-2.37-.52-1.4,2.38-1.14,1.52-2.57s-2.63-.89-4.22-.88c-.61-1.24.87-2.65-.45-3.73a13.23,13.23,0,0,1-2.85-2.83A14.28,14.28,0,0,1,771,719c-.22-1.49-1.61-2.63-1.66-4-.09-2.6-1.45-4.63-3.11-6.64a3.68,3.68,0,0,1-.76-1.85,14.43,14.43,0,0,0-2.07-5.94,6.11,6.11,0,0,1-.86-2.53c-.61-6.11-3.61-11.62-6.08-17.27-1.53-3.5-3.59-6.82-4.83-10.43a33.93,33.93,0,0,1-1.7-16.54c.34-2.17.88-2.51,3.18-1.6a7.57,7.57,0,0,0,5.8.3c1.85-.68,3.72.1,5.48.78a35.41,35.41,0,0,0,19.19,2.24,9.64,9.64,0,0,1,2.25-.19,119.76,119.76,0,0,0,22.25-.44c7.74-.95,15.57-.71,23.32-1.47,6.36-.63,12.83-.6,19.25-.87,2.48-.11,5.07.2,6.92-1.77.66-.7,1.59-.47,2.3.21,4.27,4.13,8.37,8.34,9.32,14.07a3.47,3.47,0,0,1,.08,1.31c-1.31,5.6-1.89,11.3-5,16.56-5.13,8.81-10.24,17.63-16,26.13-1.39,2-2.38,4.23-3.73,6.27-1.15,1.74-1.71,3.88-4.13,4.81a.67.67,0,0,0-.47.8c.62,2.33-1.14,3.92-2.3,5.64-3.92,5.8-7.79,11.63-11.27,17.64-.52.9-.87,1.83-2.36,1.69C821.22,745.63,820.19,747.36,819.15,749.2Zm-35-46.56a3,3,0,0,0-.22-.59c-.12-.19,0-.64-.56-.43a3.9,3.9,0,0,0,.35.54,4.41,4.41,0,0,0,.51.43c-.06.71-.3,1.48,1,2A2,2,0,0,0,784.18,702.64ZM777,680.28l-.08-.09c.27,2.13,1.6,3.93,2.59,5.83.8,1.53,2.62,2.87,1.39,4.83-.11.18.13.65.36.86,2.37,2.23,3.34,5.11,4.84,7.73,4.28,7.44,7.22,15.34,10.7,23a22.7,22.7,0,0,0,8.78,10.15c.34-3.3,3.4-5.37,4.08-8.45a11.18,11.18,0,0,1,1.73-3.86A103,103,0,0,0,819,707c1.86-3.88,4.28-7.6,5.72-11.6a52.15,52.15,0,0,1,5.54-10.61c3-4.65,5-9.65,7.17-14.6,1-2.34.61-2.77-2.19-2.68-6.81.23-13.64.34-20.42.83a200.11,200.11,0,0,1-36.73-.54c-1.21-.13-2.46-.6-3.74,0-.33.77.15,1.48.44,2.18.63,1.55,1.35,3.08,2,4.63.21.51.35,1.05-.28,1.47-.8.52-1-1-1.77-.46A18.07,18.07,0,0,0,777,680.28Zm42.29,52.36c.08.18.14.51.25.53.63.09.85-.27.89-.74,0-.28.12-.75-.32-.72S819.37,732.2,819.27,732.64Zm-40.89-45.55c-.2.06-.54.08-.58.19a.56.56,0,0,0,.2.53c.34.22.67.13.73-.25C778.75,687.42,778.5,687.24,778.38,687.09Zm13.1,32.55c.28,0,.48-.12.42-.37a.76.76,0,0,0-.4-.48.3.3,0,0,0-.42.35C791.12,719.31,791.34,719.47,791.48,719.63Zm34.73,20.88a.35.35,0,0,0,.53.26.58.58,0,0,0,.29-.49c0-.12-.35-.2-.54-.29Z"/><path class="cls-2" d="M867.24,733c-2.94.54-4.64-.82-6.56-.8-.11,0-.31-.35-.32-.54a.64.64,0,0,1,.58-.72c2.21-.23,3.93.6,6.3,2.05"/><path class="cls-2" d="M777,680.28c0-.54-.07-1.19.56-1.47a1.07,1.07,0,0,1,1.46.66c.24.58.85,1.13.42,1.86-.94-.23-1.34-1.38-2.52-1.14Z"/><path class="cls-2" d="M787,696.38c-.4,0-.69-.22-.67-.57,0-.13.3-.33.47-.34.38,0,.72.17.67.55C787.42,696.16,787.13,696.26,787,696.38Z"/><path class="cls-2" d="M792,707c-.07-.29.05-.39.34-.27a.32.32,0,0,1,.18.24,2.44,2.44,0,0,1-.14.5Z"/><path class="cls-2" d="M795,712.52c-.82-.26-1-.86-1.21-1.83,1.09.5,1,1.24,1.14,1.88Z"/><path class="cls-2" d="M794.9,712.58c.3.66,1.17,1.18.65,2.22-1.14-.68-.76-1.5-.58-2.28Z"/><path class="cls-2" d="M796.56,716.62c.16.18.43.35.4.47s-.31.24-.48.36c-.13-.15-.39-.31-.37-.44S796.4,716.75,796.56,716.62Z"/><path class="cls-2" d="M801.14,727.08a.65.65,0,0,1,.56.68c0,.16-.2.3-.31.45a4.78,4.78,0,0,1-.6-.73C800.67,727.24,800.84,727.09,801.14,727.08Z"/><path class="cls-2" d="M785.11,693.18l.36-.41c.16.13.41.24.44.38s-.23.26-.36.4Z"/><path class="cls-2" d="M615.59,375.3c-1.8,1-6,.89-3.67,4.07.26.37-.81,1.24-1.35,1.83a52.23,52.23,0,0,0-6.71,8.59c-1.78,3-4.22,5.81-6,9.29-6-4.24-13.2-7.17-17.3-12.44a11,11,0,0,0-3.51-2.52c-8.76-4.78-15-10.85-18-18.41-.93-2.37-3.9-3.75-4.82-6.16a10,10,0,0,0-4.29-5.37c-2.32-1.47-2.83-4.52-3.88-6.92-.54-1.23-.2-2.64-2.53-3.21a1.72,1.72,0,0,1-1-1.07c-1.57-5.92-6.69-11.14-7.71-17.16-.07-.43.08-1-.23-1.28-5.65-5.89-6-12.95-9.42-19.33-3-5.61-5.6-11.4-8.2-17.12-2.28-5-4.54-10.09-6.72-15.15-2.07-4.79-3.75-9.66-6-14.41-1.65-3.54-2.36-7.18-3.88-10.74-1.32-3.09.55-6.06,2.58-8.73a5.86,5.86,0,0,1,5.14-1.78c4.12.62,7.72-.45,11.21-1.19a11.39,11.39,0,0,1,8,1c1.9.92,3.83-2.61,5-1.32,2.56,2.8,5.92,3.28,10,3.42,8.15.28,16.31.78,24.46,1.33,4.71.32,9.29-.17,13.91-.35,9.31-.37,18.73.53,28-.49a117.37,117.37,0,0,1,19.36-1c2.66.14,5.64,3.81,6.77,1.76.5-.9,1.5-1.17,2.82-1.28,5.7-.48,11.3,1,17.07,1.07,4.81,0,10.37,2.87,12.53,6.65,2.32,4.06,5.13,8.08,5,12.73-.05,3-2.38,5.49-2.22,8.46a1.32,1.32,0,0,1-1,1c-5.29.44-5.24,3.49-5.81,6.28-.19.91-1.05,1.51-2.13,2a2.78,2.78,0,0,0-1.81,1.63c-1.08,4.71-4.25,8.91-5.3,13.66-1.54,6.94-3.55,13.74-7.94,20.08-1.65,2.39-2.4,5.37-3.54,8.09s-2.33,4.79-6.08,5.85c-1.33.38-2.51,1.76-.74,2.38,4.83,1.7,1.72,3.23.48,4.73-1.06,1.29-2.19,2.51-3.16,3.86-3,4.25-4.13,9-7,13.27-1.08,1.57-2.55,2.74-6.8,3.13,4.26,1.32,5.36,2.37,3.38,4.13-1.33,1.19-2.35,2.6-2.07,4.38a2.37,2.37,0,0,1-1.92,2.52c-5,.92-5,4.79-8.21,6.58,1.38,1.7,6.31.57,5,3.78a11.92,11.92,0,0,0-1.26-1c-.5-.3-1.28-.41-1.51,0s.52.64,1.09.71S615,375.25,615.59,375.3Zm-37.21-41.08a13.94,13.94,0,0,1,3.86,5.92c1.34,3,2.41,6,3.68,9,.4.93.51,2.51,2.21,2.27,1.16-.17,4.73-.06,2.68-2.51,3.52-3.1.21-8.44,6.12-10.78.49-.19.5-.67.37-1.17-.82-3,1.22-5.61,2.71-7.94,2.68-4.2,4.65-8.69,8.08-12.67.82-1,4.2-3.31-.15-5.13-.77-.32.15-1.07.43-1.56a16.5,16.5,0,0,0,2.19-6.29,27.62,27.62,0,0,1,2.87-8.26c.81-1.69,2.37-3.17,3.57-4.76,2.83-3.73,3.62-8,4.9-12.09.72-2.29,2.75-4.19,2.83-6.54.12-3.94,1.65-7.61,3.06-11.3.59-1.55-.27-2.28-2.44-2.19-2.43.1-4.85.26-7.26.47-15.26,1.3-30.48,2.65-46.06,2.3-8.69-.2-17.38,0-26.09-.52-.06,3.62,4.06,6.54,2.6,10-.1.24.6.77,1.06,1,1.58.93,1.95,2.29,2.67,3.51,5.05,8.52,8.16,17.49,13.33,26a4.21,4.21,0,0,1,.65,2.16c0,1.38-1.35,2.1-3,2.23s-2-.94-2.23-1.8c-.82-2.76-3.08-5.2-3.68-8a6.65,6.65,0,0,0-3.17-4.05c-1.48,1.72-.66,3.4.5,4.4,3.41,3,3.88,6.62,5,9.88,2,5.73,5.62,11.22,6.41,17.16.7,5.28,4,10.19,5.81,15.34,1.59,4.61,1.91,4.66,9.28,5.45C581.11,340.77,577.94,338.09,578.38,334.22Zm-28.53-50c.44.15.79.07.76-.25a1.23,1.23,0,0,0-.49-.72c-.31-.24-.64-.12-.62.25S549.73,283.94,549.86,284.18Zm39.93,69.57c-.34.28-.26.51.25.66a1.34,1.34,0,0,0,.58,0c.47-.1.6-.39.2-.62A2.89,2.89,0,0,0,589.78,353.75Z"/><path class="cls-2" d="M649.9,362.9c-1.84-.09-2.83-.65-2.85-1.86a.77.77,0,0,1,1.12-.63c1.14.43,2.74.65,2.79,1.87C651,362.53,650.18,362.75,649.9,362.9Z"/><path class="cls-2" d="M715.19,837.55c-1.84-.09-2.82-.65-2.85-1.86a.77.77,0,0,1,1.12-.63c1.14.43,2.74.65,2.79,1.87C716.26,837.17,715.47,837.4,715.19,837.55Z"/><path class="cls-2" d="M969.72,464.67c-1.84-.09-2.83-.65-2.85-1.86a.77.77,0,0,1,1.12-.63c1.14.44,2.74.65,2.79,1.87C970.79,464.29,970,464.51,969.72,464.67Z"/><path class="cls-2" d="M569.55,313.26c2,1.73,2.54,3,1.79,5.06C568.82,316.66,568.47,315.38,569.55,313.26Z"/><path class="cls-2" d="M573.17,324.3c.35-.05.78-.22,1.05-.13.84.29,1.11.86.88,1.46a.77.77,0,0,1-1.28.25C573.26,325.45,572.75,324.94,573.17,324.3Z"/><path class="cls-2" d="M564.06,309.39c.26.19.72.39.72.57s-.43.42-.89.25a.82.82,0,0,1-.42-.31C563.3,309.54,563.52,309.37,564.06,309.39Z"/><path class="cls-2" d="M290.19,480.47c-2.06,1.2-6.82,1-4.2,4.65.3.42-.92,1.41-1.54,2.09a59.65,59.65,0,0,0-7.67,9.81c-2,3.45-4.82,6.64-6.83,10.61-6.86-4.84-15.07-8.19-19.76-14.21a12.63,12.63,0,0,0-4-2.88c-10-5.46-17.15-12.4-20.52-21-1.06-2.71-4.45-4.28-5.51-7a11.46,11.46,0,0,0-4.9-6.13c-2.65-1.68-3.23-5.16-4.43-7.91-.61-1.41-.23-3-2.89-3.67a2,2,0,0,1-1.16-1.23c-1.8-6.76-7.64-12.72-8.81-19.6-.08-.49.09-1.1-.26-1.47-6.45-6.72-6.8-14.79-10.76-22.09-3.48-6.4-6.4-13-9.36-19.55-2.6-5.73-5.18-11.53-7.68-17.3-2.36-5.48-4.28-11-6.81-16.46-1.89-4-2.7-8.21-4.43-12.26-1.5-3.53.63-6.92,2.95-10a6.7,6.7,0,0,1,5.88-2c4.71.7,8.82-.52,12.81-1.36a13,13,0,0,1,9.12,1.15c2.17,1.05,4.38-3,5.72-1.51,2.92,3.2,6.76,3.75,11.43,3.91,9.31.31,18.63.89,27.94,1.52,5.38.36,10.61-.19,15.89-.4,10.63-.42,21.4.61,32-.56,7.27-.8,14.57-1.56,22.11-1.15,3,.16,6.44,4.36,7.73,2,.57-1,1.72-1.34,3.23-1.46,6.51-.55,12.9,1.17,19.5,1.22,5.5,0,11.84,3.27,14.31,7.59,2.65,4.64,5.86,9.23,5.77,14.55-.06,3.46-2.72,6.28-2.54,9.67a1.51,1.51,0,0,1-1.1,1.15c-6,.51-6,4-6.64,7.17-.21,1-1.2,1.72-2.43,2.25a3.17,3.17,0,0,0-2.07,1.86c-1.23,5.38-4.85,10.18-6.05,15.6-1.76,7.92-4.05,15.69-9.07,22.94-1.89,2.73-2.74,6.14-4,9.24s-2.66,5.47-6.95,6.69c-1.52.43-2.86,2-.84,2.72,5.52,1.94,2,3.69.55,5.41-1.21,1.47-2.51,2.87-3.61,4.4-3.47,4.85-4.72,10.31-8,15.16-1.23,1.8-2.91,3.13-7.76,3.57,4.86,1.51,6.12,2.71,3.86,4.72-1.52,1.36-2.69,3-2.36,5a2.7,2.7,0,0,1-2.19,2.87c-5.7,1-5.66,5.47-9.37,7.52,1.58,1.94,7.2.65,5.7,4.31a13.6,13.6,0,0,0-1.44-1.12c-.58-.34-1.47-.47-1.73.05s.59.73,1.24.81S289.5,480.42,290.19,480.47Zm-42.5-46.93c2.88,2.56,3.5,4.73,4.41,6.76,1.53,3.4,2.76,6.85,4.21,10.27.45,1.06.58,2.87,2.53,2.59,1.33-.19,5.41-.07,3.06-2.87,4-3.54.24-9.64,7-12.31.56-.22.58-.76.42-1.34-.93-3.41,1.39-6.41,3.09-9.07,3.06-4.8,5.31-9.92,9.23-14.47.94-1.09,4.8-3.78-.17-5.86-.88-.37.17-1.22.49-1.79a18.85,18.85,0,0,0,2.5-7.18c.39-3.22,1.83-6.38,3.28-9.43.92-1.94,2.71-3.62,4.08-5.43,3.23-4.26,4.14-9.14,5.6-13.81.82-2.61,3.15-4.79,3.23-7.47.14-4.5,1.89-8.69,3.5-12.91.68-1.77-.31-2.6-2.78-2.5-2.78.12-5.54.3-8.3.53-17.43,1.49-34.82,3-52.61,2.62-9.93-.22-19.85,0-29.8-.59-.07,4.14,4.64,7.47,3,11.46-.11.27.69.88,1.22,1.19,1.8,1.07,2.22,2.61,3.05,4,5.77,9.73,9.32,20,15.23,29.68a4.81,4.81,0,0,1,.74,2.46c0,1.58-1.54,2.4-3.48,2.55-1.77.13-2.25-1.07-2.55-2.06-.94-3.15-3.52-5.94-4.2-9.18a7.59,7.59,0,0,0-3.62-4.63c-1.69,2-.75,3.89.57,5,3.89,3.37,4.43,7.56,5.76,11.29,2.33,6.55,6.42,12.82,7.32,19.6.8,6,4.61,11.64,6.64,17.52,1.82,5.26,2.19,5.32,10.6,6.23C250.8,441,247.18,438,247.69,433.54ZM215.1,376.39c.5.17.9.08.87-.29a1.41,1.41,0,0,0-.56-.83c-.35-.28-.73-.14-.71.29C214.71,375.84,215,376.12,215.1,376.39Zm45.61,79.47c-.39.32-.3.59.29.75a1.53,1.53,0,0,0,.67,0c.54-.12.69-.44.23-.71A3.29,3.29,0,0,0,260.71,455.86Z"/><path class="cls-2" d="M329.37,466.31c-2.1-.1-3.23-.74-3.26-2.12a.88.88,0,0,1,1.28-.72c1.3.5,3.13.75,3.19,2.14C330.6,465.88,329.7,466.13,329.37,466.31Z"/><path class="cls-2" d="M384.45,184.7c-2.1-.1-3.23-.74-3.26-2.12a.88.88,0,0,1,1.28-.72c1.3.5,3.13.75,3.19,2.14C385.67,184.27,384.77,184.52,384.45,184.7Z"/><path class="cls-2" d="M918.45,432c-2.1-.1-3.23-.74-3.26-2.12a.88.88,0,0,1,1.28-.72c1.3.5,3.13.75,3.19,2.14C919.68,431.54,918.78,431.8,918.45,432Z"/><path class="cls-2" d="M237.6,409.6c2.28,2,2.9,3.42,2,5.78C236.76,413.49,236.36,412,237.6,409.6Z"/><path class="cls-2" d="M241.74,422.22c.41-.06.89-.25,1.2-.15,1,.33,1.27,1,1,1.66a.88.88,0,0,1-1.46.28C241.83,423.53,241.26,422.94,241.74,422.22Z"/><path class="cls-2" d="M231.33,405.19c.29.22.82.44.82.65,0,.37-.49.48-1,.29a.93.93,0,0,1-.48-.35C230.46,405.36,230.71,405.16,231.33,405.19Z"/><path class="cls-2" d="M954.06,93.2c-.07,1.2-.63,2.64-.13,3.38,3.53,5.2-.21,10.33,0,15.47a6.18,6.18,0,0,1-.74,3.23c-8.72,15.1-13.35,32-21,47.57-5.93,12-11.85,24-16.85,36.47-4.83,12-12,22.88-16.88,34.85a322.7,322.7,0,0,1-13.8,30.34c-.51,1-1.11,2.26-.84,3.16,1,3.39.12,5.11-3.37,6.39-2.29.84-3.17,3.24-2.22,6.2,1.24,3.89.83,3.57-3.37,4.65a18.53,18.53,0,0,1-14.23-1.83,38.29,38.29,0,0,0-12.53-4.57c-5-.79-8.62-5.13-10.46-8.7-2.53-4.88-6.7-8.07-9.76-12.21a83,83,0,0,1-10.23-17.05c-.89-2.1-1.67-4.26-3.25-5.79-6.54-6.32-11.19-14.19-14.79-22.13-6.19-13.65-15.33-25.32-22.68-38.13-7.68-13.37-16.7-25.8-25.07-38.67-5.84-9-8.16-19.2-9.13-29.71-.57-6.12,11.7-17.38,17.84-16.29a13.89,13.89,0,0,0,6.48-.19,10.91,10.91,0,0,1,5.29-.38c12.09,3.05,24.25,1.75,36.41,1,13.65-.89,27-4.23,40.5-5.78a127.51,127.51,0,0,1,25.93-.3,2.32,2.32,0,0,0,.67,0c9.57-2,19.4-1.15,29-2.68,6-1,12.12-.43,18.08-.26,6.92.19,13.86.17,20.78.47,3.79.16,5.84,3.26,8.68,5C954.74,88,955,90.69,954.06,93.2ZM791.93,143.84a5.12,5.12,0,0,0-.87-1.59.4.4,0,0,0-.57.56,5.16,5.16,0,0,0,1.58.89c2,6.54,6.48,11.68,10.44,16.88,8.57,11.25,15.28,23.49,21.5,36.08,1.36,2.76,2.6,5.59,5.17,8.4.63-3.81-3.3-5.84-1.62-8.6,1.32-.54,1.84,0,2.19.53,1.18,1.9,2.27,3.86,3.45,5.76,7.17,11.63,15,22.72,27.08,31.66.06-3.89,4.16-6.13,3.17-8.38-1.69-3.83.33-5,2.35-7.1a9.47,9.47,0,0,0,2.51-4.56,41.56,41.56,0,0,1,3.84-9.72c4.22-8.27,10-15.84,11.61-25.31,1.25-7.43,5.61-13.49,9-19.92,1.53-2.88,1.15-6.14,2.79-8.86a142.84,142.84,0,0,0,12.83-27.64c1.6-4.65,1.39-5-3.54-4.82-10.48.42-20.72,3.19-31.35,2.64-6.44-.33-12.95.79-19.43,1.25-2.68.19-5.61-.12-7.88,1.33-3.09,2-6.31,2-9.69,1.92-14.79-.29-29.59-.27-44.3-2.3-2.8-.39-5.65-.41-8.88-.63,4.38,9.69,10,18,16.21,26.21C795.49,148.93,794.51,145.18,791.93,143.84ZM845,227c-3.17-7-8.53-12.47-13.2-18.42C834.1,216.21,839.87,221.38,845,227Zm-64.2-97.15c.24.21.51.64.84.7s.66-.32.42-.82a1,1,0,0,0-.42-.42C781.11,129.1,780.82,129.26,780.76,129.88Z"/><path class="cls-2" d="M934.18,79.2c1.66-1.92,2.61-4.88,6.62-4.27A6.85,6.85,0,0,1,934.18,79.2Z"/><path class="cls-2" d="M815.53,168.92c-1.9.49-3.59.3-4.58-1.65-1.12-2.2-2.25-4.33-4.36-5.82-1-.68-1.56-1.77-.32-2.73s2,.08,2.78.88c2.66,2.76,4.25,6.25,6.32,9.41Z"/><path class="cls-2" d="M818.45,176.2c.42.07,1.12,0,1.24.24,1.3,2.58,3.55,4.64,4.23,7.53.11.48-.38,1.2-.76,1.66a1.19,1.19,0,0,1-1.16,0c-1.87-2.47-4.06-4.78-4.65-8C817.2,176.83,817.75,176.41,818.45,176.2Z"/><path class="cls-2" d="M801.66,153.29c.18-.74.59-1.21,1.32-1a2.28,2.28,0,0,1,1.56,1.83c.17.76-.25,1.32-1,1.23A2,2,0,0,1,801.66,153.29Z"/><path class="cls-2" d="M815.37,169c.54,1.23,2.43,2.26.64,3.84a1.26,1.26,0,0,1-1.18-.16c-1.72-1.56-.3-2.63.68-3.76Z"/><path class="cls-2" d="M940.77,947.17c-1.43.83-4.74.71-2.91,3.23.21.29-.64,1-1.07,1.45a41.43,41.43,0,0,0-5.32,6.81c-1.41,2.39-3.35,4.61-4.74,7.37-4.76-3.36-10.47-5.69-13.72-9.87a8.78,8.78,0,0,0-2.79-2c-6.95-3.79-11.91-8.61-14.25-14.6-.73-1.88-3.09-3-3.82-4.88a8,8,0,0,0-3.4-4.26c-1.84-1.17-2.24-3.59-3.07-5.49-.43-1-.16-2.1-2-2.55a1.37,1.37,0,0,1-.81-.85c-1.25-4.69-5.31-8.83-6.12-13.61-.06-.34.06-.77-.18-1-4.48-4.67-4.72-10.27-7.47-15.34-2.41-4.45-4.44-9-6.5-13.58-1.81-4-3.6-8-5.33-12-1.64-3.8-3-7.66-4.73-11.43-1.31-2.81-1.87-5.7-3.08-8.52-1-2.45.43-4.81,2-6.92a4.65,4.65,0,0,1,4.08-1.41c3.27.49,6.13-.36,8.89-.95a9,9,0,0,1,6.33.8c1.51.73,3-2.07,4-1,2,2.22,4.69,2.61,7.94,2.71,6.47.22,12.94.62,19.4,1.05a101.83,101.83,0,0,0,11-.28c7.38-.29,14.86.42,22.2-.39a93.08,93.08,0,0,1,15.35-.8c2.11.11,4.48,3,5.37,1.39.39-.72,1.19-.93,2.24-1,4.52-.38,9,.81,13.54.85,3.82,0,8.22,2.27,9.94,5.27,1.84,3.22,4.07,6.41,4,10.1,0,2.41-1.89,4.36-1.76,6.71a1,1,0,0,1-.76.8c-4.2.35-4.16,2.77-4.61,5-.15.72-.84,1.2-1.69,1.56a2.2,2.2,0,0,0-1.44,1.29c-.85,3.74-3.37,7.07-4.2,10.83-1.22,5.5-2.81,10.9-6.3,15.93-1.31,1.9-1.9,4.26-2.81,6.41s-1.85,3.8-4.82,4.64c-1.06.3-2,1.39-.59,1.89,3.83,1.35,1.36,2.56.38,3.75-.84,1-1.74,2-2.5,3.06-2.41,3.37-3.28,7.16-5.58,10.53-.85,1.25-2,2.18-5.39,2.48,3.38,1,4.25,1.88,2.68,3.28a3.86,3.86,0,0,0-1.64,3.47,1.88,1.88,0,0,1-1.52,2c-4,.73-3.93,3.8-6.51,5.22,1.09,1.35,5,.45,4,3a9.47,9.47,0,0,0-1-.78c-.4-.24-1-.33-1.2,0s.41.51.86.56S940.29,947.13,940.77,947.17Zm-29.51-32.59a11.06,11.06,0,0,1,3.06,4.69c1.06,2.36,1.91,4.76,2.92,7.13.31.74.4,2,1.76,1.8.92-.13,3.75,0,2.13-2,2.79-2.46.17-6.69,4.86-8.55.39-.15.4-.53.29-.93-.65-2.37,1-4.45,2.15-6.3,2.12-3.33,3.69-6.89,6.41-10,.65-.75,3.33-2.63-.12-4.07-.61-.26.12-.85.34-1.24a13.09,13.09,0,0,0,1.74-5,21.92,21.92,0,0,1,2.28-6.55,24.53,24.53,0,0,1,2.83-3.77c2.24-3,2.87-6.35,3.89-9.59.57-1.81,2.19-3.33,2.24-5.19.1-3.13,1.31-6,2.43-9,.47-1.23-.21-1.81-1.93-1.74-1.93.08-3.85.21-5.76.37-12.1,1-24.18,2.1-36.53,1.82-6.89-.16-13.79,0-20.69-.41-.05,2.87,3.22,5.19,2.06,8-.08.19.48.61.84.83,1.25.74,1.54,1.82,2.12,2.78,4,6.76,6.47,13.87,10.57,20.61a3.34,3.34,0,0,1,.51,1.71c0,1.09-1.07,1.67-2.42,1.77s-1.56-.74-1.77-1.43c-.65-2.19-2.45-4.12-2.92-6.38a5.27,5.27,0,0,0-2.51-3.21,2.32,2.32,0,0,0,.4,3.49c2.7,2.34,3.08,5.25,4,7.84,1.62,4.55,4.46,8.9,5.08,13.61.56,4.19,3.2,8.08,4.61,12.16,1.26,3.65,1.52,3.69,7.36,4.32C913.42,919.78,910.91,917.66,911.26,914.59ZM888.63,874.9c.35.12.63.05.6-.2a1,1,0,0,0-.39-.57c-.24-.19-.5-.1-.49.2S888.53,874.71,888.63,874.9Zm31.67,55.18c-.27.22-.21.41.2.52a1.06,1.06,0,0,0,.46,0c.38-.08.48-.31.16-.49A2.29,2.29,0,0,0,920.3,930.08Z"/><path class="cls-2" d="M968,937.34c-1.46-.07-2.24-.51-2.26-1.47a.61.61,0,0,1,.89-.5c.91.34,2.17.52,2.21,1.49C968.83,937,968.21,937.21,968,937.34Z"/><path class="cls-2" d="M904.25,898c1.58,1.38,2,2.38,1.42,4C903.67,900.66,903.39,899.64,904.25,898Z"/><path class="cls-2" d="M907.12,906.72c.28,0,.62-.18.83-.1.67.23.88.68.7,1.15a.61.61,0,0,1-1,.2C907.19,907.63,906.79,907.23,907.12,906.72Z"/><path class="cls-2" d="M899.9,894.89c.2.15.57.31.57.45s-.34.33-.7.2a.64.64,0,0,1-.33-.25C899.29,895,899.47,894.87,899.9,894.89Z"/><path class="cls-2" d="M434.15,847.8c-2,1.14-6.51,1-4,4.43.29.4-.88,1.35-1.47,2a56.92,56.92,0,0,0-7.31,9.36c-1.94,3.29-4.6,6.33-6.52,10.12-6.54-4.62-14.38-7.81-18.85-13.55a12,12,0,0,0-3.83-2.75c-9.54-5.2-16.36-11.82-19.57-20.06-1-2.59-4.25-4.08-5.25-6.71a10.93,10.93,0,0,0-4.67-5.85c-2.52-1.6-3.08-4.93-4.22-7.54-.58-1.34-.22-2.88-2.75-3.5a1.88,1.88,0,0,1-1.11-1.17c-1.72-6.45-7.29-12.13-8.4-18.69-.08-.47.09-1.05-.25-1.4-6.15-6.41-6.49-14.1-10.27-21.07-3.32-6.11-6.1-12.42-8.93-18.65-2.48-5.47-4.94-11-7.32-16.5-2.25-5.22-4.08-10.52-6.49-15.7-1.8-3.86-2.58-7.83-4.23-11.7-1.44-3.36.6-6.6,2.81-9.51a6.39,6.39,0,0,1,5.6-1.94c4.49.67,8.42-.49,12.21-1.3a12.41,12.41,0,0,1,8.7,1.1c2.07,1,4.18-2.84,5.46-1.44,2.79,3.06,6.45,3.58,10.9,3.73,8.88.3,17.77.85,26.65,1.45,5.13.35,10.12-.19,15.15-.39,10.14-.4,20.41.58,30.49-.53a127.84,127.84,0,0,1,21.09-1.1c2.89.16,6.15,4.15,7.38,1.92.54-1,1.64-1.28,3.08-1.4,6.21-.52,12.31,1.11,18.6,1.17,5.25,0,11.29,3.12,13.65,7.24,2.53,4.42,5.59,8.81,5.5,13.87-.06,3.3-2.59,6-2.42,9.22a1.44,1.44,0,0,1-1,1.1c-5.77.48-5.71,3.8-6.33,6.84-.2,1-1.15,1.64-2.32,2.14a3,3,0,0,0-2,1.77c-1.17,5.14-4.62,9.71-5.77,14.88-1.68,7.56-3.86,15-8.65,21.88-1.8,2.6-2.61,5.85-3.86,8.81s-2.54,5.22-6.63,6.38c-1.45.41-2.73,1.92-.81,2.59,5.27,1.85,1.87,3.52.52,5.16-1.15,1.4-2.39,2.73-3.44,4.2-3.31,4.63-4.5,9.83-7.66,14.46-1.17,1.72-2.78,3-7.41,3.41,4.64,1.44,5.84,2.58,3.68,4.5-1.45,1.29-2.56,2.83-2.25,4.77a2.58,2.58,0,0,1-2.09,2.74c-5.44,1-5.4,5.21-8.94,7.17,1.5,1.85,6.87.62,5.44,4.12a13,13,0,0,0-1.37-1.07c-.55-.33-1.4-.45-1.65,0s.56.7,1.18.77S433.49,847.74,434.15,847.8ZM393.61,803c2.75,2.45,3.34,4.51,4.21,6.45,1.46,3.24,2.63,6.54,4,9.79.43,1,.55,2.74,2.41,2.47,1.26-.18,5.16-.06,2.92-2.73,3.83-3.38.23-9.19,6.67-11.74.53-.21.55-.73.4-1.27-.89-3.25,1.33-6.11,2.95-8.65,2.92-4.58,5.06-9.46,8.8-13.8.89-1,4.57-3.61-.16-5.59-.84-.35.16-1.17.47-1.7a18,18,0,0,0,2.39-6.85,30.08,30.08,0,0,1,3.13-9c.88-1.85,2.58-3.46,3.89-5.18,3.08-4.06,3.95-8.72,5.34-13.17.78-2.49,3-4.57,3.08-7.13.13-4.3,1.8-8.29,3.34-12.32.65-1.69-.29-2.48-2.65-2.38-2.65.11-5.29.29-7.91.51-16.62,1.42-33.21,2.88-50.18,2.5-9.47-.21-18.94,0-28.42-.56-.07,3.94,4.42,7.13,2.83,10.93-.11.26.66.84,1.16,1.14,1.72,1,2.12,2.49,2.91,3.82,5.51,9.28,8.89,19.05,14.52,28.31a4.58,4.58,0,0,1,.7,2.35c0,1.5-1.47,2.29-3.32,2.43-1.69.12-2.15-1-2.43-2-.89-3-3.36-5.66-4-8.76a7.24,7.24,0,0,0-3.45-4.41c-1.61,1.88-.71,3.71.54,4.8,3.71,3.22,4.23,7.21,5.49,10.77,2.22,6.24,6.12,12.23,7,18.7.76,5.75,4.4,11.11,6.33,16.71,1.74,5,2.09,5.07,10.11,5.94C396.58,810.17,393.13,807.25,393.61,803Zm-31.08-54.51c.48.16.86.07.83-.27a1.34,1.34,0,0,0-.54-.79c-.34-.26-.69-.13-.67.27S362.4,748.26,362.53,748.52Zm43.5,75.8c-.37.31-.29.56.27.71a1.46,1.46,0,0,0,.63,0c.52-.11.65-.42.22-.68A3.13,3.13,0,0,0,406,824.32Z"/><path class="cls-2" d="M511.83,901.06c-2-.1-3.08-.71-3.11-2a.84.84,0,0,1,1.23-.68c1.24.47,3,.71,3,2C513,900.65,512.14,900.89,511.83,901.06Z"/><path class="cls-2" d="M424.3,847c2.17,1.89,2.76,3.26,2,5.51C423.5,850.68,423.11,849.28,424.3,847Z"/><path class="cls-2" d="M428.24,859c.39-.06.85-.24,1.15-.14.92.32,1.21.93,1,1.59a.84.84,0,0,1-1.39.27C428.33,860.25,427.79,859.7,428.24,859Z"/><path class="cls-2" d="M418.32,842.76c.28.21.78.42.78.62,0,.35-.47.46-1,.28a.89.89,0,0,1-.45-.34C417.48,842.92,417.72,842.73,418.32,842.76Z"/><path class="cls-2" d="M404.2,938.75c9,0,15.88,4.7,16.3,12.64H408.41c-.28-2.76-1.93-3.45-4.9-3.45s-4.63,1-4.63,2.83c0,5.94,21.75,1.45,21.75,15.19,0,7.32-7,12.22-16.16,12.22s-16.37-3.94-17-12.71h12.09c.35,2.62,2.21,3.52,5,3.52s4.77-1.45,4.77-3.31c0-6.08-21.75-1.59-21.75-14.92C387.56,944.34,393.15,938.75,404.2,938.75Z"/><path class="cls-2" d="M433.24,948.76a5.82,5.82,0,0,1,5.66,3.45h7.41v-9.09c-3.33-2.89-7.85-4.38-13.08-4.38-11.12,0-19.2,7.53-19.2,19.68s8.08,19.75,19.2,19.75a19.37,19.37,0,0,0,13.08-4.63v-8.91H438.9c-1.31,2.56-2.69,3.45-5.66,3.45-4.83,0-7.18-4.07-7.18-9.67S428.4,948.76,433.24,948.76Z"/><path class="cls-2" d="M458,978.18H446.16V939.4H458v7.18c2.49-4.56,6.28-7.6,11-7.6v12h-2.9c-5.18,0-8.15,2-8.15,8.7Z"/><path class="cls-2" d="M467.48,930.39a6.91,6.91,0,1,1,6.91,6.91A6.85,6.85,0,0,1,467.48,930.39Zm1,8.6h11.81l0,39.19H468.52Z"/><path class="cls-2" d="M505.51,939.18c-5.11,0-8.84,2-11.33,5.46V927H482.38v51.16h11.81V973c2.56,3.73,6.22,5.21,11.33,5.21a16.3,16.3,0,0,0,9.86-2.77v-33A16.56,16.56,0,0,0,505.51,939.18Zm-2.9,29.21c-4,0-8.43-3-8.43-9.53s4.42-9.46,8.43-9.46,8.43,3,8.43,9.53S506.62,968.4,502.61,968.4Z"/><path class="cls-2" d="M551.46,927.13h11.81v51.06H551.46Z"/><path class="cls-2" d="M576.62,978.18H564.81V939.69h11.81v7.18c2.49-4.56,6.29-7.6,11-7.6v12h-2.9c-5.18,0-8.15,2-8.15,8.7Z"/><path class="cls-2" d="M540,939.18c-5.11,0-8.84,2-11.33,5.46V927H516.91v51.16h11.81V973c2.56,3.73,6.22,5.21,11.33,5.21a16.3,16.3,0,0,0,9.86-2.77v-33A16.56,16.56,0,0,0,540,939.18Zm-2.9,29.21c-4,0-8.43-3-8.43-9.53s4.42-9.46,8.43-9.46,8.43,3,8.43,9.53S541.15,968.4,537.15,968.4Z"/><path class="cls-2" d="M604.42,935.4h3.15a1.34,1.34,0,0,1,1.35,1.35v.45a3.6,3.6,0,0,1-3.6,3.6h-.9a.91.91,0,0,0-.9.9v1.8a.91.91,0,0,0,.9.9h.9a7,7,0,0,0,2.79-.57,7.13,7.13,0,0,0,3.84-3.84,7,7,0,0,0,.57-2.79v-9.89a2.69,2.69,0,0,0-2.7-2.7h-5.4a2.69,2.69,0,0,0-2.7,2.7v5.4a2.69,2.69,0,0,0,2.7,2.7Z"/><path class="cls-2" d="M589.92,934.61a2.6,2.6,0,0,0,1.91.79H595a1.34,1.34,0,0,1,1.35,1.35v.45a3.6,3.6,0,0,1-3.6,3.6h-.9a.91.91,0,0,0-.9.9v1.8a.91.91,0,0,0,.9.9h.9a7,7,0,0,0,2.79-.57,7.13,7.13,0,0,0,3.84-3.84,7,7,0,0,0,.57-2.79v-9.89a2.69,2.69,0,0,0-2.7-2.7h-5.4a2.69,2.69,0,0,0-2.7,2.7v5.4A2.6,2.6,0,0,0,589.92,934.61Z"/></svg>