<svg id="Layer_1" data-name="Layer 1" xmlns="http://www.w3.org/2000/svg" xmlns:xlink="http://www.w3.org/1999/xlink" viewBox="0 0 1000 1000"><defs><style>.cls-1{fill:none;}.cls-2{fill:#fffefc;}.cls-3{fill:#e88b25;}.cls-4{fill:#3c3c3b;}.cls-5{fill:#60b8ea;}.cls-6{fill:url(#Nueva_muestra_de_motivo_18);}</style><pattern id="Nueva_muestra_de_motivo_18" data-name="Nueva muestra de motivo 18" width="300" height="300" patternUnits="userSpaceOnUse" viewBox="0 0 300 300"><rect class="cls-1" width="300" height="300"/><path class="cls-2" d="M294.56,259.23c-6.16,13.6-12.5,27.16-18.69,40.77H212.18a137,137,0,0,0-5.3-16.12v-.13a1.25,1.25,0,0,0-.55-1.14c-.34-.81-.68-1.62-1-2.42-.56-1.24-2.39-.77-2.73.36-2,6.49-4,13-6,19.45H141.17q-13.46-20.57-27.72-40.6a1.66,1.66,0,0,0-2.83,0c-6.41,13.15-12.71,26.68-17.49,40.6H22.78l-.06-.1c-.16-.33-.34-.66-.5-1a1.38,1.38,0,0,0-.46-.54q-9.55-15.22-19.31-30.31l-.07-.46a1.25,1.25,0,0,0-.89-1l-.86-1.32A1.59,1.59,0,0,0,0,264.17V218.88q7.17-.22,14.3-1c8.38-.89,16.79-3.26,25.2-3.41A1.79,1.79,0,0,0,41,211.81q-14.87-22.9-30.7-45.14c-.65-.91-2.24-1.2-2.83,0C5,171.91,2.43,177.21,0,182.56V130.61a82.19,82.19,0,0,1,12.41-1.39A1.79,1.79,0,0,0,14,126.54Q7.08,116,0,105.5v-66a252.1,252.1,0,0,0,40.43-8.2,1.2,1.2,0,0,0,.71-1.75Q32,14.74,22.78,0H93.14c-1,3-2,6-2.87,9a.84.84,0,0,0,.1.69,1.72,1.72,0,0,0,1.69,1.87,181.62,181.62,0,0,0,25.36-1c8.38-.89,16.79-3.27,25.2-3.41a1.79,1.79,0,0,0,1.54-2.68c-1-1.52-2-3-3-4.54h55.41c-4.14,13.38-8.25,26.77-11.78,40.32a.71.71,0,0,0,.65.92,1.21,1.21,0,0,0,.61.64h0a1.3,1.3,0,0,0,1,.76c10.36,1.86,21.62,1.4,32.07.49a1.78,1.78,0,0,0,1.69-2.22c-2.94-13.44-5.06-27.46-8.67-40.92h63.69c-5.94,13.06-11.75,26.18-17.12,39.46a.57.57,0,0,0,0,.51A1.28,1.28,0,0,0,260,41.26a266.27,266.27,0,0,0,40-1.73v66q-8.22-12.15-16.75-24.1a1.66,1.66,0,0,0-2.83,0c-7.79,16-15.42,32.52-20.35,49.64a.84.84,0,0,0,.1.69,1.72,1.72,0,0,0,1.69,1.87,181.62,181.62,0,0,0,25.36-1c4.26-.45,8.52-1.29,12.79-2v51.95a250,250,0,0,0-12.84,33.75.84.84,0,0,0,.1.69,1.72,1.72,0,0,0,1.69,1.87c3.68.13,7.37.12,11.06,0v45.28l-.11-.09c-1-1.62-2.08-3.24-3.14-4.85A1.28,1.28,0,0,0,294.56,259.23ZM73.46,111c4.8-.51,9.62-1.87,14.44-2a1,1,0,0,0,.88-1.53Q80.26,94.42,71.18,81.67a1,1,0,0,0-1.62,0c-4.46,9.16-8.83,18.63-11.66,28.44a.48.48,0,0,0,.05.39,1,1,0,0,0,1,1.07A104,104,0,0,0,73.46,111ZM96.27,232.44q-3.48-5.67-7-11.3l-.19-.38a.52.52,0,0,0-.18-.21q-3.63-5.79-7.35-11.53l0-.18a.48.48,0,0,0-.34-.39l-.33-.5a.6.6,0,0,0-.29-.44l-1.19-1.85a.49.49,0,0,0-.83,0C74,215.81,69.09,225.88,64.92,236.2a.22.22,0,0,0,0,.2.49.49,0,0,0,.48.49A98.49,98.49,0,0,0,96,233.11.46.46,0,0,0,96.27,232.44Zm103.49-69.15q-9.13-14.89-18.41-29.69c-.16-.33-.34-.66-.5-1a1.38,1.38,0,0,0-.47-.54q-9.55-15.22-19.31-30.31l-.07-.46a1.25,1.25,0,0,0-.89-1l-.86-1.32a1.59,1.59,0,0,0-.75-1.16c-1-1.62-2.08-3.24-3.14-4.85a1.28,1.28,0,0,0-2.19,0c-12.06,26.65-24.84,53.12-35.81,80.23a.57.57,0,0,0,0,.51,1.28,1.28,0,0,0,1.26,1.28A258.82,258.82,0,0,0,199.05,165,1.2,1.2,0,0,0,199.76,163.29Zm35.18,75.46c-3.35-15.32-5.38-31.59-11.32-46.22v-.11a1,1,0,0,0-.44-.92c-.28-.65-.55-1.31-.84-2-.45-1-1.94-.63-2.22.29C215.26,205.95,210,222,205.73,238.26a.57.57,0,0,0,.52.75,1,1,0,0,0,.5.52h0a1,1,0,0,0,.81.62c8.4,1.51,17.52,1.14,26,.39A1.44,1.44,0,0,0,234.94,238.75ZM250.64,92.47q-3.48-5.67-7-11.3l-.19-.38a.52.52,0,0,0-.18-.21q-3.63-5.79-7.35-11.53l0-.18a.48.48,0,0,0-.34-.39l-.33-.5a.6.6,0,0,0-.29-.44l-1.19-1.85a.49.49,0,0,0-.83,0c-4.59,10.14-9.45,20.21-13.63,30.53a.22.22,0,0,0,0,.2.49.49,0,0,0,.48.49,98.5,98.5,0,0,0,30.59-3.78A.46.46,0,0,0,250.64,92.47Z"/><path class="cls-3" d="M41.14,29.59Q32,14.74,22.78,0H0V39.53a252.1,252.1,0,0,0,40.43-8.2A1.2,1.2,0,0,0,41.14,29.59Z"/><path class="cls-3" d="M22.23,298.91a1.38,1.38,0,0,0-.46-.54q-9.55-15.22-19.31-30.31l-.07-.46a1.25,1.25,0,0,0-.89-1l-.86-1.32A1.59,1.59,0,0,0,0,264.17V300H22.78l-.06-.1C22.56,299.57,22.39,299.24,22.23,298.91Z"/><path class="cls-3" d="M258.78,40A1.28,1.28,0,0,0,260,41.26a266.27,266.27,0,0,0,40-1.73V0H275.86c-5.94,13.06-11.75,26.18-17.12,39.46A.57.57,0,0,0,258.78,40Z"/><path class="cls-3" d="M300,264.17l-.11-.09c-1-1.62-2.08-3.24-3.14-4.85a1.28,1.28,0,0,0-2.19,0c-6.16,13.6-12.5,27.16-18.69,40.77H300Z"/><path class="cls-3" d="M181.35,133.6c-.16-.33-.34-.66-.5-1a1.38,1.38,0,0,0-.47-.54q-9.55-15.22-19.31-30.31l-.07-.46a1.25,1.25,0,0,0-.89-1l-.86-1.32a1.59,1.59,0,0,0-.75-1.16c-1-1.62-2.08-3.24-3.14-4.85a1.28,1.28,0,0,0-2.19,0c-12.06,26.65-24.84,53.12-35.81,80.23a.57.57,0,0,0,0,.51,1.28,1.28,0,0,0,1.26,1.28A258.82,258.82,0,0,0,199.05,165a1.2,1.2,0,0,0,.71-1.75Q190.63,148.4,181.35,133.6Z"/><path class="cls-4" d="M89.26,221.15l-.19-.38a.52.52,0,0,0-.18-.21q-3.63-5.79-7.35-11.53l0-.18a.48.48,0,0,0-.34-.39l-.33-.5a.6.6,0,0,0-.29-.44l-1.19-1.85a.49.49,0,0,0-.83,0C74,215.81,69.09,225.88,64.92,236.2a.22.22,0,0,0,0,.2.49.49,0,0,0,.48.49A98.49,98.49,0,0,0,96,233.11a.46.46,0,0,0,.27-.66Q92.79,226.78,89.26,221.15Z"/><path class="cls-4" d="M243.63,81.18l-.19-.38a.52.52,0,0,0-.18-.21q-3.63-5.79-7.35-11.53l0-.18a.48.48,0,0,0-.34-.39l-.33-.5a.6.6,0,0,0-.29-.44l-1.19-1.85a.49.49,0,0,0-.83,0c-4.59,10.14-9.45,20.21-13.63,30.53a.22.22,0,0,0,0,.2.49.49,0,0,0,.48.49,98.5,98.5,0,0,0,30.59-3.78.46.46,0,0,0,.27-.66Q247.16,86.81,243.63,81.18Z"/><path class="cls-4" d="M39.5,214.49A1.79,1.79,0,0,0,41,211.81q-14.87-22.9-30.7-45.14c-.65-.91-2.24-1.2-2.83,0C5,171.91,2.43,177.21,0,182.56v36.32q7.17-.22,14.3-1C22.69,217,31.09,214.64,39.5,214.49Z"/><path class="cls-4" d="M287.25,217a1.72,1.72,0,0,0,1.69,1.87c3.68.13,7.37.12,11.06,0V182.56a250,250,0,0,0-12.84,33.75A.84.84,0,0,0,287.25,217Z"/><path class="cls-4" d="M87.89,109.07a1,1,0,0,0,.88-1.53Q80.26,94.42,71.18,81.67a1,1,0,0,0-1.62,0c-4.46,9.16-8.83,18.63-11.66,28.44a.48.48,0,0,0,.05.39,1,1,0,0,0,1,1.07A104,104,0,0,0,73.46,111C78.26,110.51,83.07,109.15,87.89,109.07Z"/><path class="cls-5" d="M90.37,9.73a1.72,1.72,0,0,0,1.69,1.87,181.62,181.62,0,0,0,25.36-1c8.38-.89,16.79-3.27,25.2-3.41a1.79,1.79,0,0,0,1.54-2.68c-1-1.52-2-3-3-4.54h-48c-1,3-2,6-2.87,9A.84.84,0,0,0,90.37,9.73Z"/><path class="cls-5" d="M110.63,259.4c-6.41,13.15-12.71,26.68-17.49,40.6h48q-13.46-20.57-27.72-40.6A1.66,1.66,0,0,0,110.63,259.4Z"/><path class="cls-5" d="M14,126.54Q7.08,116,0,105.5v25.11a82.19,82.19,0,0,1,12.41-1.39A1.79,1.79,0,0,0,14,126.54Z"/><path class="cls-5" d="M280.42,81.4c-7.79,16-15.42,32.52-20.35,49.64a.84.84,0,0,0,.1.69,1.72,1.72,0,0,0,1.69,1.87,181.62,181.62,0,0,0,25.36-1c4.26-.45,8.52-1.29,12.79-2V105.5q-8.22-12.15-16.75-24.1A1.66,1.66,0,0,0,280.42,81.4Z"/><path class="cls-4" d="M185.45,41.24a1.21,1.21,0,0,0,.61.64h0a1.3,1.3,0,0,0,1,.76c10.36,1.86,21.62,1.4,32.07.49a1.78,1.78,0,0,0,1.69-2.22c-2.94-13.44-5.06-27.46-8.67-40.92H196.58c-4.14,13.38-8.25,26.77-11.78,40.32A.71.71,0,0,0,185.45,41.24Z"/><path class="cls-4" d="M223.62,192.53v-.11a1,1,0,0,0-.44-.92c-.28-.65-.55-1.31-.84-2-.45-1-1.94-.63-2.22.29C215.26,205.95,210,222,205.73,238.26a.57.57,0,0,0,.52.75,1,1,0,0,0,.5.52h0a1,1,0,0,0,.81.62c8.4,1.51,17.52,1.14,26,.39a1.44,1.44,0,0,0,1.37-1.8C231.59,223.43,229.56,207.17,223.62,192.53Z"/><path class="cls-4" d="M206.88,283.75a1.25,1.25,0,0,0-.55-1.14c-.34-.81-.68-1.62-1-2.42-.56-1.24-2.39-.77-2.73.36-2,6.49-4,13-6,19.45h15.59a137,137,0,0,0-5.3-16.12Z"/></pattern></defs><title>covers</title><rect class="cls-6" width="1000" height="1000"/><polygon class="cls-2" points="632.5 1000 365.5 1000 366 923 634.5 917 632.5 1000"/><path class="cls-4" d="M404.2,940.28c9,0,15.88,4.7,16.3,12.64H408.41c-.28-2.76-1.93-3.45-4.9-3.45s-4.63,1-4.63,2.83c0,5.94,21.75,1.45,21.75,15.19,0,7.32-7,12.22-16.16,12.22s-16.37-3.94-17-12.71h12.09c.35,2.62,2.21,3.52,5,3.52s4.77-1.45,4.77-3.31c0-6.08-21.75-1.59-21.75-14.92C387.56,945.87,393.15,940.28,404.2,940.28Z"/><path class="cls-4" d="M433.24,950.29a5.82,5.82,0,0,1,5.66,3.45h7.41v-9.09c-3.33-2.89-7.85-4.38-13.08-4.38-11.12,0-19.2,7.53-19.2,19.68s8.08,19.75,19.2,19.75a19.37,19.37,0,0,0,13.08-4.63v-8.91H438.9c-1.31,2.56-2.69,3.45-5.66,3.45-4.83,0-7.18-4.07-7.18-9.67S428.4,950.29,433.24,950.29Z"/><path class="cls-4" d="M458,979.71H446.16V940.93H458v7.18c2.49-4.56,6.28-7.6,11-7.6v12h-2.9c-5.18,0-8.15,2-8.15,8.7Z"/><path class="cls-4" d="M467.48,931.92a6.91,6.91,0,1,1,6.91,6.91A6.85,6.85,0,0,1,467.48,931.92Zm1,8.6h11.81l0,39.19H468.52Z"/><path class="cls-4" d="M505.51,940.71c-5.11,0-8.84,2-11.33,5.46V928.56H482.38v51.16h11.81v-5.21c2.56,3.73,6.22,5.21,11.33,5.21a16.3,16.3,0,0,0,9.86-2.77v-33A16.56,16.56,0,0,0,505.51,940.71Zm-2.9,29.21c-4,0-8.43-3-8.43-9.53s4.42-9.46,8.43-9.46,8.43,3,8.43,9.53S506.62,969.93,502.61,969.93Z"/><path class="cls-4" d="M551.46,928.66h11.81v51.06H551.46Z"/><path class="cls-4" d="M576.62,979.71H564.81V941.22h11.81v7.18c2.49-4.56,6.29-7.6,11-7.6v12h-2.9c-5.18,0-8.15,2-8.15,8.7Z"/><path class="cls-4" d="M540,940.71c-5.11,0-8.84,2-11.33,5.46V928.56H516.91v51.16h11.81v-5.21c2.56,3.73,6.22,5.21,11.33,5.21a16.3,16.3,0,0,0,9.86-2.77v-33A16.56,16.56,0,0,0,540,940.71Zm-2.9,29.21c-4,0-8.43-3-8.43-9.53s4.42-9.46,8.43-9.46,8.43,3,8.43,9.53S541.15,969.93,537.15,969.93Z"/><path class="cls-4" d="M604.42,936.93h3.15a1.34,1.34,0,0,1,1.35,1.35v.45a3.6,3.6,0,0,1-3.6,3.6h-.9a.91.91,0,0,0-.9.9V945a.91.91,0,0,0,.9.9h.9a7,7,0,0,0,2.79-.57,7.13,7.13,0,0,0,3.84-3.84,7,7,0,0,0,.57-2.79v-9.89a2.69,2.69,0,0,0-2.7-2.7h-5.4a2.69,2.69,0,0,0-2.7,2.7v5.4a2.69,2.69,0,0,0,2.7,2.7Z"/><path class="cls-4" d="M589.92,936.14a2.6,2.6,0,0,0,1.91.79H595a1.34,1.34,0,0,1,1.35,1.35v.45a3.6,3.6,0,0,1-3.6,3.6h-.9a.91.91,0,0,0-.9.9V945a.91.91,0,0,0,.9.9h.9a7,7,0,0,0,2.79-.57,7.13,7.13,0,0,0,3.84-3.84,7,7,0,0,0,.57-2.79v-9.89a2.69,2.69,0,0,0-2.7-2.7h-5.4a2.69,2.69,0,0,0-2.7,2.7v5.4A2.6,2.6,0,0,0,589.92,936.14Z"/></svg>