<svg id="Layer_1" data-name="Layer 1" xmlns="http://www.w3.org/2000/svg" xmlns:xlink="http://www.w3.org/1999/xlink" viewBox="0 0 1000 1000"><defs><style>.cls-1{fill:none;}.cls-2{fill:#f6f6f6;}.cls-3{fill:#3c3c3b;}.cls-4{fill:#f47193;}.cls-5{fill:#3fc1ef;}.cls-6{fill:url(#Nueva_muestra_de_motivo_19);}</style><pattern id="Nueva_muestra_de_motivo_19" data-name="Nueva muestra de motivo 19" width="300" height="300" patternUnits="userSpaceOnUse" viewBox="0 0 300 300"><rect class="cls-1" width="300" height="300"/><path class="cls-2" d="M202.3,149.13l.12.16a3.58,3.58,0,0,0,0-.51c-.17-1.28-.54-.36-.93-.22A2.1,2.1,0,0,1,202.3,149.13Z"/><path class="cls-2" d="M61.75,216.39a2.1,2.1,0,0,1,.84.57l.12.16a3.58,3.58,0,0,0,0-.51C62.52,215.34,62.15,216.25,61.75,216.39Z"/><path class="cls-2" d="M110.55,288.88a2.1,2.1,0,0,1,.84.57l.12.16a3.58,3.58,0,0,0,0-.51C111.31,287.83,110.94,288.74,110.55,288.88Z"/><path class="cls-2" d="M300,231.79v49a24.91,24.91,0,0,0-7.68,5,22.17,22.17,0,0,0-2,2.26,26.71,26.71,0,0,0-10.42,12H222.2a18.13,18.13,0,0,0-13.08-9.51,15.49,15.49,0,0,0-7.15.63,17.37,17.37,0,0,0-11,5.76,16.67,16.67,0,0,0-2.22,3.12H124.31a18.52,18.52,0,0,0,3.15-11.59A18.27,18.27,0,0,0,112.34,272a15.49,15.49,0,0,0-7.15.63,17.37,17.37,0,0,0-11,5.76c-5.53,6.1-5.57,14.94-1.16,21.61H40.83a26.43,26.43,0,0,0-.52-2.94c-2.41-10-11.43-16.32-21.15-18A34.57,34.57,0,0,0,0,280.77v-49a14.14,14.14,0,0,0,7.14-6.71c4.2-8.09,1-18.38-7.14-21.4V136.52c8,8.57,22.54,9.33,32.18,1.55,12.39-10,11.75-30.41-1.47-39.33a23.07,23.07,0,0,0-11.07-3.89,2.59,2.59,0,0,0-2.86-2C9.8,93.45,4,97.4,0,102.88V38.65A34.29,34.29,0,0,0,32.54,26.56C38.3,19.31,42,9.38,40.83,0H93c.16.25.32.5.5.74,4.84,6.65,13.46,10,21.32,6.94A20.13,20.13,0,0,0,124.31,0h64.44a18,18,0,0,0,1.56,19.23c4.84,6.65,13.46,10,21.32,6.94,7.69-3,13.25-10.94,12.61-19.27a17.62,17.62,0,0,0-2-6.9h57.67a28,28,0,0,0,.86,24.3A26.81,26.81,0,0,0,300,38.65v64.23a29.77,29.77,0,0,0-2,3.15q-.51.89-.93,1.85c-3.1,6.63-3.89,14.43-1.54,21.18a20.87,20.87,0,0,0,4.48,7.46v67.16a14.3,14.3,0,0,0-4.86-.87,13.12,13.12,0,0,0-9.78,4.08,11.8,11.8,0,0,0-4.68,4.8c-2.42,4.67-1.42,10.29,1.51,14.47A14.9,14.9,0,0,0,300,231.79ZM184.44,160.43c4.84,6.65,13.46,10,21.32,6.94,7.69-3,13.25-10.94,12.61-19.27a18.27,18.27,0,0,0-15.11-16.41,15.49,15.49,0,0,0-7.15.63,17.37,17.37,0,0,0-11,5.76C179.36,144.4,179.52,153.68,184.44,160.43ZM78.65,215.92a18.27,18.27,0,0,0-15.11-16.41,15.48,15.48,0,0,0-7.15.63,17.37,17.37,0,0,0-11,5.76c-5.74,6.33-5.58,15.61-.67,22.36s13.46,10,21.32,6.94C73.73,232.23,79.29,224.25,78.65,215.92Zm31-71.65a13.12,13.12,0,0,0-9.78,4.08,11.8,11.8,0,0,0-4.68,4.8c-2.42,4.67-1.42,10.29,1.51,14.47,6.37,9.09,19.66,9.11,24.95-1.07C126.62,157,121.28,144.38,109.66,144.26Zm31.85-78.38c-2.41-10-11.43-16.32-21.15-18-9.33-1.66-19.77,0-26.84,6.73a22.18,22.18,0,0,0-2,2.26C79.93,63.92,74.9,79.45,81.93,93.13c10.42,20.29,38.75,18.7,51.82,2.26C140.11,87.37,144,76.09,141.51,65.88Zm95,140.19c-2.41-10-11.43-16.32-21.15-18-9.33-1.66-19.77,0-26.84,6.73a22.16,22.16,0,0,0-2,2.26c-11.56,7.09-16.59,22.62-9.56,36.29,10.42,20.29,38.75,18.7,51.82,2.26C235.08,227.57,239,216.28,236.48,206.08ZM250.34,58.24a23.07,23.07,0,0,0-11.07-3.89,2.59,2.59,0,0,0-2.86-2c-8.27.74-14.9,6.13-18.79,13.2q-.51.89-.93,1.85c-3.1,6.63-3.89,14.43-1.54,21.18,5.28,15.19,24.71,18.65,36.66,9C264.19,87.57,263.56,67.16,250.34,58.24Z"/><path class="cls-2" d="M97.52,86.25a9,9,0,0,0,1,2.44,6.47,6.47,0,0,0,4.08,2.71A15.27,15.27,0,0,1,97.52,86.25Z"/><path class="cls-2" d="M296.32,17.42a9,9,0,0,0,1,2.44A5.85,5.85,0,0,0,300,22.09V21.6A15.53,15.53,0,0,1,296.32,17.42Z"/><path class="cls-2" d="M208.16,7.94l.12.16a3.58,3.58,0,0,0,0-.51c-.17-1.28-.54-.36-.93-.22A2.1,2.1,0,0,1,208.16,7.94Z"/><path class="cls-2" d="M0,21.6v.48a8.82,8.82,0,0,0,1.39.49A14.66,14.66,0,0,1,0,21.6Z"/><path class="cls-2" d="M192.5,226.44a9,9,0,0,0,1,2.44,6.47,6.47,0,0,0,4.08,2.71A15.27,15.27,0,0,1,192.5,226.44Z"/><path class="cls-3" d="M32.54,26.56C38.3,19.31,42,9.38,40.83,0H0V21.6a14.66,14.66,0,0,0,1.39,1A8.82,8.82,0,0,1,0,22.09V38.65A34.29,34.29,0,0,0,32.54,26.56Z"/><path class="cls-3" d="M19.16,279A34.57,34.57,0,0,0,0,280.77V300H40.83a26.43,26.43,0,0,0-.52-2.94C37.9,287.1,28.88,280.74,19.16,279Z"/><path class="cls-3" d="M280.72,24.3A26.81,26.81,0,0,0,300,38.65V22.09a5.85,5.85,0,0,1-2.68-2.22,9,9,0,0,1-1-2.44A15.53,15.53,0,0,0,300,21.6V0H279.87A28,28,0,0,0,280.72,24.3Z"/><path class="cls-3" d="M141.51,65.88c2.47,10.21-1.4,21.49-7.77,29.5-13.06,16.45-41.39,18-51.82-2.26-7-13.67-2-29.2,9.56-36.29a22.18,22.18,0,0,1,2-2.26c7.07-6.77,17.51-8.39,26.84-6.73C130.08,49.57,139.1,55.93,141.51,65.88ZM102.59,91.4a15.27,15.27,0,0,1-5.07-5.16,9,9,0,0,0,1,2.44A6.47,6.47,0,0,0,102.59,91.4Z"/><path class="cls-3" d="M236.48,206.08c2.47,10.21-1.4,21.49-7.77,29.5-13.06,16.45-41.39,18-51.82-2.26-7-13.67-2-29.2,9.56-36.29a22.16,22.16,0,0,1,2-2.26c7.07-6.77,17.51-8.39,26.84-6.73C225.06,189.76,234.07,196.12,236.48,206.08ZM197.57,231.6a15.27,15.27,0,0,1-5.07-5.16,9,9,0,0,0,1,2.44A6.47,6.47,0,0,0,197.57,231.6Z"/><path class="cls-3" d="M290.29,288a26.71,26.71,0,0,0-10.42,12H300V280.77a24.91,24.91,0,0,0-7.68,5A22.17,22.17,0,0,0,290.29,288Z"/><path class="cls-3" d="M114.84,7.68A20.13,20.13,0,0,0,124.31,0H93c.16.25.32.5.5.74C98.37,7.4,107,10.7,114.84,7.68Z"/><path class="cls-3" d="M124.31,300H93c-4.41-6.67-4.37-15.51,1.16-21.61a17.37,17.37,0,0,1,11-5.76,15.49,15.49,0,0,1,7.15-.63,18.27,18.27,0,0,1,15.11,16.41A18.52,18.52,0,0,1,124.31,300Zm-12.8-10.38a3.58,3.58,0,0,0,0-.51c-.17-1.28-.54-.36-.93-.22a2.1,2.1,0,0,1,.84.57Z"/><path class="cls-4" d="M188.74,0H222.2a17.62,17.62,0,0,1,2,6.9c.63,8.33-4.92,16.32-12.61,19.27-7.86,3-16.47-.28-21.32-6.94A18,18,0,0,1,188.74,0Zm18.58,7.37a2.1,2.1,0,0,1,.84.57l.12.16a3.58,3.58,0,0,0,0-.51C208.09,6.32,207.72,7.23,207.33,7.37Z"/><path class="cls-5" d="M184.44,160.43c-4.91-6.75-5.07-16,.67-22.36a17.37,17.37,0,0,1,11-5.76,15.49,15.49,0,0,1,7.15-.63,18.27,18.27,0,0,1,15.11,16.41c.63,8.33-4.92,16.32-12.61,19.27C197.9,170.38,189.28,167.08,184.44,160.43Zm17-11.86a2.1,2.1,0,0,1,.84.57l.12.16a3.58,3.58,0,0,0,0-.51C202.23,147.51,201.86,148.42,201.46,148.57Z"/><path class="cls-4" d="M78.65,215.92c.63,8.33-4.92,16.32-12.61,19.27-7.86,3-16.47-.28-21.32-6.94s-5.07-16,.67-22.36a17.37,17.37,0,0,1,11-5.76,15.48,15.48,0,0,1,7.15-.63A18.27,18.27,0,0,1,78.65,215.92Zm-15.94,1.2a3.58,3.58,0,0,0,0-.51c-.17-1.28-.54-.36-.93-.22a2.1,2.1,0,0,1,.84.57Z"/><path class="cls-4" d="M209.12,290.49a15.49,15.49,0,0,0-7.15.63,17.37,17.37,0,0,0-11,5.76,16.67,16.67,0,0,0-2.22,3.12H222.2A18.13,18.13,0,0,0,209.12,290.49Z"/><path class="cls-3" d="M32.18,138.07c12.39-10,11.75-30.41-1.47-39.33a23.07,23.07,0,0,0-11.07-3.89,2.59,2.59,0,0,0-2.86-2C9.8,93.45,4,97.4,0,102.88v33.64C8,145.09,22.54,145.85,32.18,138.07Z"/><path class="cls-3" d="M250.34,58.24a23.07,23.07,0,0,0-11.07-3.89,2.59,2.59,0,0,0-2.86-2c-8.27.74-14.9,6.13-18.79,13.2q-.51.89-.93,1.85c-3.1,6.63-3.89,14.43-1.54,21.18,5.28,15.19,24.71,18.65,36.66,9C264.19,87.57,263.56,67.16,250.34,58.24Z"/><path class="cls-3" d="M297.06,107.87c-3.1,6.63-3.89,14.43-1.54,21.18a20.87,20.87,0,0,0,4.48,7.46V102.88a29.77,29.77,0,0,0-2,3.15Q297.48,106.92,297.06,107.87Z"/><path class="cls-3" d="M7.14,225.08c4.2-8.09,1-18.38-7.14-21.4v28.11A14.14,14.14,0,0,0,7.14,225.08Z"/><path class="cls-3" d="M285.36,206.88a11.8,11.8,0,0,0-4.68,4.8c-2.42,4.67-1.42,10.29,1.51,14.47A14.9,14.9,0,0,0,300,231.79V203.68a14.3,14.3,0,0,0-4.86-.87A13.12,13.12,0,0,0,285.36,206.88Z"/><path class="cls-3" d="M109.66,144.26a13.12,13.12,0,0,0-9.78,4.08,11.8,11.8,0,0,0-4.68,4.8c-2.42,4.67-1.42,10.29,1.51,14.47,6.37,9.09,19.66,9.11,24.95-1.07C126.62,157,121.28,144.38,109.66,144.26Z"/></pattern></defs><title>covers</title><rect class="cls-6" width="1000" height="1000"/><polygon class="cls-2" points="617 1000 369 1000 371 879 636 916 617 1000"/><path class="cls-3" d="M404.2,941.28c9,0,15.88,4.7,16.3,12.64H408.41c-.28-2.76-1.93-3.45-4.9-3.45s-4.63,1-4.63,2.83c0,5.94,21.75,1.45,21.75,15.19,0,7.32-7,12.22-16.16,12.22s-16.37-3.94-17-12.71h12.09c.35,2.62,2.21,3.52,5,3.52s4.77-1.45,4.77-3.31c0-6.08-21.75-1.59-21.75-14.92C387.56,946.87,393.15,941.28,404.2,941.28Z"/><path class="cls-3" d="M433.24,951.29a5.82,5.82,0,0,1,5.66,3.45h7.41v-9.09c-3.33-2.89-7.85-4.38-13.08-4.38-11.12,0-19.2,7.53-19.2,19.68s8.08,19.75,19.2,19.75a19.37,19.37,0,0,0,13.08-4.63v-8.91H438.9c-1.31,2.56-2.69,3.45-5.66,3.45-4.83,0-7.18-4.07-7.18-9.67S428.4,951.29,433.24,951.29Z"/><path class="cls-3" d="M458,980.71H446.16V941.93H458v7.18c2.49-4.56,6.28-7.6,11-7.6v12h-2.9c-5.18,0-8.15,2-8.15,8.7Z"/><path class="cls-3" d="M467.48,932.92a6.91,6.91,0,1,1,6.91,6.91A6.85,6.85,0,0,1,467.48,932.92Zm1,8.6h11.81l0,39.19H468.52Z"/><path class="cls-3" d="M505.51,941.71c-5.11,0-8.84,2-11.33,5.46V929.56H482.38v51.16h11.81v-5.21c2.56,3.73,6.22,5.21,11.33,5.21a16.3,16.3,0,0,0,9.86-2.77v-33A16.56,16.56,0,0,0,505.51,941.71Zm-2.9,29.21c-4,0-8.43-3-8.43-9.53s4.42-9.46,8.43-9.46,8.43,3,8.43,9.53S506.62,970.93,502.61,970.93Z"/><path class="cls-3" d="M551.46,929.66h11.81v51.06H551.46Z"/><path class="cls-3" d="M576.62,980.71H564.81V942.22h11.81v7.18c2.49-4.56,6.29-7.6,11-7.6v12h-2.9c-5.18,0-8.15,2-8.15,8.7Z"/><path class="cls-3" d="M540,941.71c-5.11,0-8.84,2-11.33,5.46V929.56H516.91v51.16h11.81v-5.21c2.56,3.73,6.22,5.21,11.33,5.21a16.3,16.3,0,0,0,9.86-2.77v-33A16.56,16.56,0,0,0,540,941.71Zm-2.9,29.21c-4,0-8.43-3-8.43-9.53s4.42-9.46,8.43-9.46,8.43,3,8.43,9.53S541.15,970.93,537.15,970.93Z"/><path class="cls-3" d="M604.42,937.93h3.15a1.34,1.34,0,0,1,1.35,1.35v.45a3.6,3.6,0,0,1-3.6,3.6h-.9a.91.91,0,0,0-.9.9V946a.91.91,0,0,0,.9.9h.9a7,7,0,0,0,2.79-.57,7.13,7.13,0,0,0,3.84-3.84,7,7,0,0,0,.57-2.79v-9.89a2.69,2.69,0,0,0-2.7-2.7h-5.4a2.69,2.69,0,0,0-2.7,2.7v5.4a2.69,2.69,0,0,0,2.7,2.7Z"/><path class="cls-3" d="M589.92,937.14a2.6,2.6,0,0,0,1.91.79H595a1.34,1.34,0,0,1,1.35,1.35v.45a3.6,3.6,0,0,1-3.6,3.6h-.9a.91.91,0,0,0-.9.9V946a.91.91,0,0,0,.9.9h.9a7,7,0,0,0,2.79-.57,7.13,7.13,0,0,0,3.84-3.84,7,7,0,0,0,.57-2.79v-9.89a2.69,2.69,0,0,0-2.7-2.7h-5.4a2.69,2.69,0,0,0-2.7,2.7v5.4A2.6,2.6,0,0,0,589.92,937.14Z"/></svg>