<svg id="Layer_1" data-name="Layer 1" xmlns="http://www.w3.org/2000/svg" xmlns:xlink="http://www.w3.org/1999/xlink" viewBox="0 0 1000 1000"><defs><style>.cls-1{fill:none;}.cls-2{fill:#f6f6f6;}.cls-3{fill:#3c3c3b;}.cls-4{fill:#ee6a71;}.cls-5{fill:url(#Nueva_muestra_de_motivo_20);}</style><pattern id="Nueva_muestra_de_motivo_20" data-name="Nueva muestra de motivo 20" width="250" height="250" patternTransform="translate(-11.42 -1136) scale(2.43 2.42)" patternUnits="userSpaceOnUse" viewBox="0 0 250 250"><rect class="cls-1" width="250" height="250"/><path class="cls-2" d="M200.06,250H168.6c-.31-5.59-.35-11.19-.48-16.78-.06-2.64-4.44-3.5-4.83-.65A145,145,0,0,0,162,250H140.34c-.49-4.44-1.12-8.82-1.84-13.05-.63-3.72-6.41-2.73-6.45.87,0,4.06,0,8.12,0,12.18H107.27c-.51-6-1.46-12-2.39-17.81-.67-4.21-7.95-3.27-7.5,1A167.45,167.45,0,0,1,98,250H70c-.31-5.59-.35-11.19-.48-16.78-.06-2.64-4.44-3.5-4.83-.65A145,145,0,0,0,63.4,250H42.81c.18-9.24-1.31-18.76-2.74-27.71-.67-4.21-8-3.27-7.5,1,.93,8.92.54,17.81.76,26.69H6.43c0-.19,0-.38,0-.58.05-11.17.12-22.47-1.84-33.49A3.73,3.73,0,0,0,0,212.69V194.48c2.07.42,4.21-.41,4.57-3.07,1.56-11.48-.37-23.79-2.19-35.17A3.09,3.09,0,0,0,0,153.69V138.42c2.07.42,4.21-.41,4.57-3.07,1.56-11.48-.37-23.79-2.19-35.17A3.09,3.09,0,0,0,0,97.63V86.18a3.15,3.15,0,0,0,3.34-2.12c1.57-5-.17-11.16-.48-16.33-.36-5.83-.38-11.68-.51-17.52A2.59,2.59,0,0,0,0,47.83V37.39a4.68,4.68,0,0,0,5-4.17C6.68,22.37,6.39,11,6.43,0h26.9c.05,2.1.13,4.19.28,6.29.33,4.59,7.94,6.41,8.66,1.17A64.94,64.94,0,0,0,42.81,0H63.4c0,.25,0,.49,0,.74-.08,5.46-.94,12.11,1.73,17,1.26,2.32,4.66,1.63,5.4-.71,1.57-5-.17-11.16-.48-16.33,0-.25,0-.49,0-.74H98c0,5.4,0,10.79.38,16.18.33,4.59,7.94,6.41,8.66,1.17A79.57,79.57,0,0,0,107.27,0H132.1c0,3.44.06,6.89,0,10.33-.08,7.51-.6,15,.08,22.53.37,4,6.73,5.64,7.6,1,2-10.82,1.79-22.56.55-33.89H162c0,.25,0,.49,0,.74-.08,5.46-.94,12.11,1.73,17,1.26,2.32,4.66,1.63,5.4-.71,1.57-5-.17-11.16-.48-16.33,0-.25,0-.49,0-.74h31.46c0,5.4,0,10.79.38,16.18.33,4.59,7.94,6.41,8.66,1.17A79.56,79.56,0,0,0,209.29,0h35.43c-.23,10.51-1.47,21.2-1.09,31.68.13,3.47,3.37,5.66,6.38,5.71V47.83a2,2,0,0,0-2.49,1.74,146.47,146.47,0,0,0-1.3,18.17c-.08,5.46-.94,12.11,1.73,17A2.64,2.64,0,0,0,250,86.18V97.63c-2.32-.63-5.42.72-5.13,3.57,1.15,11,.26,22,1,33a4.92,4.92,0,0,0,4.08,4.24v15.26c-2.32-.63-5.42.72-5.13,3.57,1.15,11,.26,22,1,33a4.92,4.92,0,0,0,4.08,4.24v18.21a5.28,5.28,0,0,0-4.43,4.46c-1.1,10.69-.63,21.53-.83,32.27,0,.19,0,.38,0,.58H209.29c-.51-6-1.46-12-2.39-17.81-.67-4.21-7.95-3.27-7.5,1A167.45,167.45,0,0,1,200.06,250ZM28.08,47.48c-.08,7.51-.6,15,.08,22.53.37,4,6.73,5.64,7.6,1C38.6,56,37,39.13,34.46,24.1,33.83,20.38,28,21.38,28,25,28,32.48,28.16,40,28.08,47.48Zm5,75c1.57-5-.17-11.16-.48-16.33-.36-5.83-.38-11.68-.51-17.52C32,86,27.62,85.13,27.22,88a146.53,146.53,0,0,0-1.3,18.17c-.08,5.46-.94,12.11,1.73,17C28.91,125.51,32.31,124.81,33.05,122.48Zm3.5,51c-.36-5.83-.38-11.68-.51-17.52-.06-2.64-4.44-3.5-4.83-.65a146.53,146.53,0,0,0-1.3,18.17c-.08,5.46-.94,12.11,1.73,17,1.26,2.32,4.66,1.63,5.4-.71C38.61,184.82,36.87,178.63,36.55,173.47Zm24.46.65c-.67-4.21-8-3.27-7.5,1,1.15,11,.26,22,1,33,.33,4.59,7.94,6.41,8.66,1.17C64.77,197.8,62.84,185.5,61,174.12Zm0-53.4c-.67-4.21-8-3.27-7.5,1,1.15,11,.26,22,1,33,.33,4.59,7.94,6.41,8.66,1.17C64.77,144.4,62.84,132.1,61,120.72Zm6.77-87.79c-1-5.49-8.53-3.52-9,1.22-1.1,10.69-.63,21.53-.83,32.27S56.43,88,56.81,98.68c.22,6.18,10.32,8.28,11.37,1.54,1.72-11,1.38-22.64,1.43-33.79S69.73,44,67.78,32.93Zm31.5,129.95c-.63-3.72-6.41-2.73-6.45.87-.06,7.5.15,15,.07,22.51s-.6,15,.08,22.53c.37,4,6.73,5.64,7.6,1C103.41,194.76,101.83,177.9,99.28,162.88Zm0-74.32c-.63-3.72-6.41-2.73-6.45.87-.06,7.5.15,15,.07,22.51s-.6,15,.08,22.53c.37,4,6.73,5.64,7.6,1C103.41,120.44,101.83,103.59,99.28,88.56Zm5.66-40c-.36-5.83-.38-11.68-.51-17.52-.06-2.64-4.44-3.5-4.83-.65a146.45,146.45,0,0,0-1.3,18.17c-.08,5.46-.94,12.11,1.73,17,1.26,2.32,4.66,1.63,5.4-.71C107,59.89,105.25,53.7,104.94,48.53Zm102,132.69c-.67-4.21-7.95-3.27-7.5,1,1.15,11,.26,22,1,33,.33,4.59,7.94,6.41,8.66,1.17C210.66,204.9,208.73,192.6,206.91,181.22Zm0-60.74c-.67-4.21-7.95-3.27-7.5,1,1.15,11,.26,22,1,33,.33,4.59,7.94,6.41,8.66,1.17C210.66,144.16,208.73,131.86,206.91,120.48Zm-70.48-16.92c1.56-11.48-.37-23.79-2.19-35.17-.67-4.21-8-3.27-7.5,1,1.15,11,.26,22,1,33C128.09,107,135.71,108.79,136.42,103.56Zm4.75,33.77c-1-5.49-8.53-3.52-9,1.22-1.1,10.69-.63,21.53-.83,32.27s-1.5,21.58-1.11,32.25c.22,6.18,10.32,8.28,11.37,1.54,1.72-11,1.38-22.64,1.43-33.79S143.12,148.36,141.17,137.33Zm26.54,30.91c-.63-3.72-6.41-2.73-6.45.87-.06,7.5.15,15,.07,22.51s-.6,15,.08,22.53c.37,4,6.73,5.64,7.6,1C171.84,200.12,170.26,183.27,167.71,168.24Zm.46-61.44c-.67-4.21-7.95-3.27-7.5,1,1.15,11,.26,22,1,33,.33,4.59,7.94,6.41,8.66,1.17C171.92,130.49,170,118.18,168.16,106.8Zm4.46-49.47c-.36-5.83-.38-11.68-.51-17.52-.06-2.64-4.44-3.5-4.83-.65A146.51,146.51,0,0,0,166,57.33c-.08,5.46-.94,12.11,1.73,17,1.26,2.32,4.66,1.63,5.4-.71C174.68,68.69,172.94,62.5,172.63,57.33Zm27,16.2c-.08,7.51-.6,15,.08,22.53.37,4,6.73,5.64,7.6,1,2.84-15.07,1.25-31.92-1.3-46.94-.63-3.72-6.41-2.73-6.45.87C199.52,58.52,199.73,66,199.65,73.53Z"/><path class="cls-3" d="M5,33.22C6.68,22.37,6.39,11,6.43,0H0V37.39A4.68,4.68,0,0,0,5,33.22Z"/><path class="cls-3" d="M4.59,215.93A3.73,3.73,0,0,0,0,212.69V250H6.43c0-.19,0-.38,0-.58C6.48,238.26,6.54,227,4.59,215.93Z"/><path class="cls-3" d="M243.62,31.68c.13,3.47,3.37,5.66,6.38,5.71V0h-5.28C244.49,10.51,243.25,21.2,243.62,31.68Z"/><path class="cls-3" d="M58.76,34.15c-1.1,10.69-.63,21.53-.83,32.27S56.43,88,56.81,98.68c.22,6.18,10.32,8.28,11.37,1.54,1.72-11,1.38-22.64,1.43-33.79S69.73,44,67.78,32.93C66.81,27.44,59.25,29.41,58.76,34.15Z"/><path class="cls-3" d="M245.57,217.15c-1.1,10.69-.63,21.53-.83,32.27,0,.19,0,.38,0,.58H250V212.69A5.28,5.28,0,0,0,245.57,217.15Z"/><path class="cls-3" d="M132.15,138.55c-1.1,10.69-.63,21.53-.83,32.27s-1.5,21.58-1.11,32.25c.22,6.18,10.32,8.28,11.37,1.54,1.72-11,1.38-22.64,1.43-33.79s.12-22.47-1.84-33.49C140.2,131.84,132.64,133.81,132.15,138.55Z"/><path class="cls-3" d="M42.26,7.46A64.94,64.94,0,0,0,42.81,0H33.32c.05,2.1.13,4.19.28,6.29C33.93,10.87,41.55,12.69,42.26,7.46Z"/><path class="cls-3" d="M40.06,222.29c-.67-4.21-8-3.27-7.5,1,.93,8.92.54,17.81.76,26.69h9.48C43,240.76,41.5,231.24,40.06,222.29Z"/><path class="cls-3" d="M4.57,191.41c1.56-11.48-.37-23.79-2.19-35.17A3.09,3.09,0,0,0,0,153.69v40.79C2.07,194.9,4.21,194.07,4.57,191.41Z"/><path class="cls-3" d="M244.87,157.26c1.15,11,.26,22,1,33a4.92,4.92,0,0,0,4.08,4.24V153.69C247.68,153.05,244.58,154.41,244.87,157.26Z"/><path class="cls-3" d="M209.1,17.35A79.56,79.56,0,0,0,209.29,0h-9.23c0,5.4,0,10.79.38,16.18C200.77,20.77,208.39,22.59,209.1,17.35Z"/><path class="cls-3" d="M53.51,175.14c1.15,11,.26,22,1,33,.33,4.59,7.94,6.41,8.66,1.17,1.56-11.48-.37-23.79-2.19-35.17C60.34,169.91,53.07,170.85,53.51,175.14Z"/><path class="cls-3" d="M199.4,233.2a167.45,167.45,0,0,1,.66,16.8h9.23c-.51-6-1.46-12-2.39-17.81C206.23,228,199,228.91,199.4,233.2Z"/><path class="cls-3" d="M160.66,107.82c1.15,11,.26,22,1,33,.33,4.59,7.94,6.41,8.66,1.17,1.56-11.48-.37-23.79-2.19-35.17C167.49,102.59,160.21,103.53,160.66,107.82Z"/><path class="cls-3" d="M199.4,121.5c1.15,11,.26,22,1,33,.33,4.59,7.94,6.41,8.66,1.17,1.56-11.48-.37-23.79-2.19-35.17C206.23,116.27,199,117.21,199.4,121.5Z"/><path class="cls-4" d="M107.07,17.35A79.57,79.57,0,0,0,107.27,0H98c0,5.4,0,10.79.38,16.18C98.75,20.77,106.36,22.59,107.07,17.35Z"/><path class="cls-4" d="M53.51,121.74c1.15,11,.26,22,1,33,.33,4.59,7.94,6.41,8.66,1.17,1.56-11.48-.37-23.79-2.19-35.17C60.34,116.51,53.07,117.45,53.51,121.74Z"/><path class="cls-4" d="M97.38,233.2A167.45,167.45,0,0,1,98,250h9.23c-.51-6-1.46-12-2.39-17.81C104.21,228,96.93,228.91,97.38,233.2Z"/><path class="cls-4" d="M136.42,103.56c1.56-11.48-.37-23.79-2.19-35.17-.67-4.21-8-3.27-7.5,1,1.15,11,.26,22,1,33C128.09,107,135.71,108.79,136.42,103.56Z"/><path class="cls-4" d="M199.4,182.24c1.15,11,.26,22,1,33,.33,4.59,7.94,6.41,8.66,1.17,1.56-11.48-.37-23.79-2.19-35.17C206.23,177,199,177.95,199.4,182.24Z"/><path class="cls-4" d="M4.57,135.35c1.56-11.48-.37-23.79-2.19-35.17A3.09,3.09,0,0,0,0,97.63v40.79C2.07,138.85,4.21,138,4.57,135.35Z"/><path class="cls-4" d="M244.87,101.2c1.15,11,.26,22,1,33a4.92,4.92,0,0,0,4.08,4.24V97.63C247.68,97,244.58,98.36,244.87,101.2Z"/><path class="cls-3" d="M132.12,10.33c-.08,7.51-.6,15,.08,22.53.37,4,6.73,5.64,7.6,1,2-10.82,1.79-22.56.55-33.89H132.1C132.13,3.44,132.16,6.89,132.12,10.33Z"/><path class="cls-3" d="M92.83,89.43c-.06,7.5.15,15,.07,22.51s-.6,15,.08,22.53c.37,4,6.73,5.64,7.6,1,2.84-15.07,1.25-31.92-1.3-46.94C98.65,84.84,92.86,85.83,92.83,89.43Z"/><path class="cls-3" d="M161.26,169.12c-.06,7.5.15,15,.07,22.51s-.6,15,.08,22.53c.37,4,6.73,5.64,7.6,1,2.84-15.07,1.25-31.92-1.3-46.94C167.07,164.52,161.29,165.52,161.26,169.12Z"/><path class="cls-3" d="M28.16,70c.37,4,6.73,5.64,7.6,1C38.6,56,37,39.13,34.46,24.1,33.83,20.38,28,21.38,28,25c-.06,7.5.15,15,.07,22.51S27.48,62.53,28.16,70Z"/><path class="cls-3" d="M132.05,237.82c0,4.06,0,8.12,0,12.18h8.24c-.49-4.44-1.12-8.82-1.84-13.05C137.87,233.22,132.08,234.22,132.05,237.82Z"/><path class="cls-3" d="M199.73,96.06c.37,4,6.73,5.64,7.6,1,2.84-15.07,1.25-31.92-1.3-46.94-.63-3.72-6.41-2.73-6.45.87-.06,7.5.15,15,.07,22.51S199,88.58,199.73,96.06Z"/><path class="cls-3" d="M92.83,163.75c-.06,7.5.15,15,.07,22.51s-.6,15,.08,22.53c.37,4,6.73,5.64,7.6,1,2.84-15.07,1.25-31.92-1.3-46.94C98.65,159.16,92.86,160.15,92.83,163.75Z"/><path class="cls-3" d="M65.11,17.77c1.26,2.32,4.66,1.63,5.4-.71,1.57-5-.17-11.16-.48-16.33,0-.25,0-.49,0-.74H63.4c0,.25,0,.49,0,.74C63.3,6.2,62.45,12.85,65.11,17.77Z"/><path class="cls-3" d="M33.05,122.48c1.57-5-.17-11.16-.48-16.33-.36-5.83-.38-11.68-.51-17.52C32,86,27.62,85.13,27.22,88a146.53,146.53,0,0,0-1.3,18.17c-.08,5.46-.94,12.11,1.73,17C28.91,125.51,32.31,124.81,33.05,122.48Z"/><path class="cls-3" d="M3.34,84.07c1.57-5-.17-11.16-.48-16.33-.36-5.83-.38-11.68-.51-17.52A2.59,2.59,0,0,0,0,47.83V86.18A3.15,3.15,0,0,0,3.34,84.07Z"/><path class="cls-3" d="M247.51,49.57a146.47,146.47,0,0,0-1.3,18.17c-.08,5.46-.94,12.11,1.73,17A2.64,2.64,0,0,0,250,86.18V47.83A2,2,0,0,0,247.51,49.57Z"/><path class="cls-3" d="M64.68,232.57A145,145,0,0,0,63.4,250H70c-.31-5.59-.35-11.19-.48-16.78C69.46,230.58,65.08,229.72,64.68,232.57Z"/><path class="cls-3" d="M104.43,31c-.06-2.64-4.44-3.5-4.83-.65a146.45,146.45,0,0,0-1.3,18.17c-.08,5.46-.94,12.11,1.73,17,1.26,2.32,4.66,1.63,5.4-.71,1.57-5-.17-11.16-.48-16.33C104.58,42.7,104.56,36.85,104.43,31Z"/><path class="cls-3" d="M36,155.95c-.06-2.64-4.44-3.5-4.83-.65a146.53,146.53,0,0,0-1.3,18.17c-.08,5.46-.94,12.11,1.73,17,1.26,2.32,4.66,1.63,5.4-.71,1.57-5-.17-11.16-.48-16.33C36.2,167.63,36.17,161.79,36,155.95Z"/><path class="cls-3" d="M163.72,17.77c1.26,2.32,4.66,1.63,5.4-.71,1.57-5-.17-11.16-.48-16.33,0-.25,0-.49,0-.74H162c0,.25,0,.49,0,.74C161.91,6.2,161.06,12.85,163.72,17.77Z"/><path class="cls-3" d="M163.29,232.57A145,145,0,0,0,162,250h6.59c-.31-5.59-.35-11.19-.48-16.78C168.07,230.58,163.69,229.72,163.29,232.57Z"/><path class="cls-3" d="M172.11,39.81c-.06-2.64-4.44-3.5-4.83-.65A146.51,146.51,0,0,0,166,57.33c-.08,5.46-.94,12.11,1.73,17,1.26,2.32,4.66,1.63,5.4-.71,1.57-5-.17-11.16-.48-16.33C172.27,51.5,172.25,45.65,172.11,39.81Z"/></pattern></defs><title>covers</title><rect class="cls-5" width="1000" height="1000"/><polygon class="cls-2" points="632.5 1001 365.5 1001 365.5 909 634.5 918 632.5 1001"/><path class="cls-3" d="M404.2,941.28c9,0,15.88,4.7,16.3,12.64H408.41c-.28-2.76-1.93-3.45-4.9-3.45s-4.63,1-4.63,2.83c0,5.94,21.75,1.45,21.75,15.19,0,7.32-7,12.22-16.16,12.22s-16.37-3.94-17-12.71h12.09c.35,2.62,2.21,3.52,5,3.52s4.77-1.45,4.77-3.31c0-6.08-21.75-1.59-21.75-14.92C387.56,946.87,393.15,941.28,404.2,941.28Z"/><path class="cls-3" d="M433.24,951.29a5.82,5.82,0,0,1,5.66,3.45h7.41v-9.09c-3.33-2.89-7.85-4.38-13.08-4.38-11.12,0-19.2,7.53-19.2,19.68s8.08,19.75,19.2,19.75a19.37,19.37,0,0,0,13.08-4.63v-8.91H438.9c-1.31,2.56-2.69,3.45-5.66,3.45-4.83,0-7.18-4.07-7.18-9.67S428.4,951.29,433.24,951.29Z"/><path class="cls-3" d="M458,980.71H446.16V941.93H458v7.18c2.49-4.56,6.28-7.6,11-7.6v12h-2.9c-5.18,0-8.15,2-8.15,8.7Z"/><path class="cls-3" d="M467.48,932.92a6.91,6.91,0,1,1,6.91,6.91A6.85,6.85,0,0,1,467.48,932.92Zm1,8.6h11.81l0,39.19H468.52Z"/><path class="cls-3" d="M505.51,941.71c-5.11,0-8.84,2-11.33,5.46V929.56H482.38v51.16h11.81v-5.21c2.56,3.73,6.22,5.21,11.33,5.21a16.3,16.3,0,0,0,9.86-2.77v-33A16.56,16.56,0,0,0,505.51,941.71Zm-2.9,29.21c-4,0-8.43-3-8.43-9.53s4.42-9.46,8.43-9.46,8.43,3,8.43,9.53S506.62,970.93,502.61,970.93Z"/><path class="cls-3" d="M551.46,929.66h11.81v51.06H551.46Z"/><path class="cls-3" d="M576.62,980.71H564.81V942.22h11.81v7.18c2.49-4.56,6.29-7.6,11-7.6v12h-2.9c-5.18,0-8.15,2-8.15,8.7Z"/><path class="cls-3" d="M540,941.71c-5.11,0-8.84,2-11.33,5.46V929.56H516.91v51.16h11.81v-5.21c2.56,3.73,6.22,5.21,11.33,5.21a16.3,16.3,0,0,0,9.86-2.77v-33A16.56,16.56,0,0,0,540,941.71Zm-2.9,29.21c-4,0-8.43-3-8.43-9.53s4.42-9.46,8.43-9.46,8.43,3,8.43,9.53S541.15,970.93,537.15,970.93Z"/><path class="cls-3" d="M604.42,937.93h3.15a1.34,1.34,0,0,1,1.35,1.35v.45a3.6,3.6,0,0,1-3.6,3.6h-.9a.91.91,0,0,0-.9.9V946a.91.91,0,0,0,.9.9h.9a7,7,0,0,0,2.79-.57,7.13,7.13,0,0,0,3.84-3.84,7,7,0,0,0,.57-2.79v-9.89a2.69,2.69,0,0,0-2.7-2.7h-5.4a2.69,2.69,0,0,0-2.7,2.7v5.4a2.69,2.69,0,0,0,2.7,2.7Z"/><path class="cls-3" d="M589.92,937.14a2.6,2.6,0,0,0,1.91.79H595a1.34,1.34,0,0,1,1.35,1.35v.45a3.6,3.6,0,0,1-3.6,3.6h-.9a.91.91,0,0,0-.9.9V946a.91.91,0,0,0,.9.9h.9a7,7,0,0,0,2.79-.57,7.13,7.13,0,0,0,3.84-3.84,7,7,0,0,0,.57-2.79v-9.89a2.69,2.69,0,0,0-2.7-2.7h-5.4a2.69,2.69,0,0,0-2.7,2.7v5.4A2.6,2.6,0,0,0,589.92,937.14Z"/></svg>