<svg id="Layer_1" data-name="Layer 1" xmlns="http://www.w3.org/2000/svg" viewBox="0 0 1000 1000"><defs><style>.cls-1{fill:none;}.cls-2{fill:#fff;}.cls-3{fill:#2d3740;}.cls-4{fill:#ff8c5a;}.cls-5{fill:#e8c594;}</style></defs><title>covers</title><rect class="cls-1" y="1" width="1000" height="1000"/><rect class="cls-2" y="1" width="1000" height="1000"/><rect class="cls-3" y="1" width="1000" height="1000"/><path class="cls-1" d="M180.33,604.19a.4.4,0,0,0,0,.34c.23.23.44.17.59-.13,0-.12,0-.28,0-.35C180.69,603.82,180.46,603.87,180.33,604.19Z"/><path class="cls-1" d="M460.38,464.31c-.27.41-.49.85-.81,1.41.42-.07.68,0,.82-.15.39-.3.85-.64.6-1.23A.33.33,0,0,0,460.38,464.31Z"/><path class="cls-1" d="M182.86,880.94c-.3-.09-.51.15-.42.47.14.48.35.95.59,1.57.22-.38.41-.56.42-.76C183.47,881.71,183.5,881.12,182.86,880.94Z"/><path class="cls-1" d="M213.45,612.25a.47.47,0,0,0,.3.14c.29,0,.42-.13.37-.41-.18-.09-.38-.29-.54-.26S213.26,612,213.45,612.25Z"/><path class="cls-1" d="M217.79,610.95c-.12.25,0,.35.39.24a1.13,1.13,0,0,0,.28-.21,1.18,1.18,0,0,0-.33-.11C218,610.86,217.83,610.88,217.79,610.95Z"/><path class="cls-1" d="M178.73,873.45a.5.5,0,0,0-.07.34.34.34,0,0,0,.52.28c.05-.21.2-.47.13-.63S178.92,873.19,178.73,873.45Z"/><path class="cls-1" d="M178.5,837a.43.43,0,0,0-.35.1c-.18.29-.06.5.29.58.12,0,.31,0,.36-.12C179,837.31,178.87,837.09,178.5,837Z"/><path class="cls-1" d="M175.34,866.27a4.57,4.57,0,0,0,2.26,3.84A4.49,4.49,0,0,0,175.34,866.27Z"/><path class="cls-1" d="M222.48,609.95c-.46-.13-1-.29-1.3.25-.15.26,0,.5.33.49.47,0,.94-.11,1.56-.18C222.78,610.22,222.66,610,222.48,609.95Z"/><path class="cls-1" d="M181.06,878.09a1.18,1.18,0,0,0,.29.24,1.3,1.3,0,0,0,0-.37c0-.12-.1-.32-.18-.34C180.92,877.56,180.85,877.75,181.06,878.09Z"/><path class="cls-1" d="M131.27,298c0,2.05-1.53,2.74-1.58,4.28C133.35,302.16,133.36,302.14,131.27,298Z"/><path class="cls-1" d="M347.44,662.7a.35.35,0,0,0-.23.57c.23,0,.51.15.66.06s.22-.44-.07-.6A.52.52,0,0,0,347.44,662.7Z"/><path class="cls-1" d="M340.68,836.55c-.09.06-.19.22-.17.3.08.31.29.37.58.19.06-.11.18-.22.16-.31C341.18,836.41,341,836.34,340.68,836.55Z"/><path class="cls-1" d="M343.29,665.69a1.24,1.24,0,0,0-.21.33,1.33,1.33,0,0,0,.39,0c.12,0,.32-.14.33-.22C343.82,665.48,343.61,665.43,343.29,665.69Z"/><path class="cls-1" d="M384.66,658.2c.05.12.07.31.16.36.33.16.54,0,.55-.37a.44.44,0,0,0-.15-.35C384.9,657.68,384.7,657.83,384.66,658.2Z"/><path class="cls-1" d="M351.13,661.18a4.67,4.67,0,0,0,3.69-2.79A4.75,4.75,0,0,0,351.13,661.18Z"/><path class="cls-1" d="M358,858a4.28,4.28,0,0,0,4,1A4.21,4.21,0,0,0,358,858Z"/><path class="cls-1" d="M372.65,862.67a.32.32,0,0,0,0,.59c.42.22.86.39,1.43.64-.11-.39-.1-.64-.23-.78C373.57,862.78,373.2,862.37,372.65,862.67Z"/><path class="cls-1" d="M365,860.46a.47.47,0,0,0,.18.27.31.31,0,0,0,.53-.16c-.11-.17-.18-.44-.33-.5S364.91,860.17,365,860.46Z"/><path class="cls-1" d="M369.36,861.58c-.23.15-.14.32.21.41a1.11,1.11,0,0,0,.35,0,1.2,1.2,0,0,0-.22-.27C369.6,861.62,369.42,861.53,369.36,861.58Z"/><path class="cls-1" d="M206.16,613.69a4.28,4.28,0,0,0,4-1.19A4.21,4.21,0,0,0,206.16,613.69Z"/><path class="cls-1" d="M584,278A4.21,4.21,0,0,0,581.2,275,4.28,4.28,0,0,0,584,278Z"/><path class="cls-1" d="M151.07,303.23c.7.4,1.23-.09,1.63-.64a39.57,39.57,0,0,0,4.78-8.27c-4,1.72-6.06,4-6.72,7.48C150.65,302.33,150.56,302.95,151.07,303.23Z"/><path class="cls-1" d="M586.24,281.37c0-.2.09-.47,0-.6s-.41-.16-.53.12a.47.47,0,0,0,0,.33A.31.31,0,0,0,586.24,281.37Z"/><path class="cls-1" d="M379.92,106.89c.47-.26,1-.59.89-1.16-.15-.8-.86-.89-1.54-.84a39.6,39.6,0,0,0-9.4,1.67C373.77,108.53,376.83,108.63,379.92,106.89Z"/><path class="cls-1" d="M389.57,124.22c1.57-1.32,3.09-.59,4.29-1.55C391.39,120,391.37,120,389.57,124.22Z"/><path class="cls-1" d="M589,284.84a1.2,1.2,0,0,0,0-.35c0-.11-.15-.27-.23-.27-.28,0-.3.19,0,.46A1.11,1.11,0,0,0,589,284.84Z"/><path class="cls-1" d="M849.85,169.18a39.58,39.58,0,0,0,8.79-3.74c-4.24-1-7.25-.45-9.87,1.94-.4.36-.84.8-.61,1.33C848.48,169.46,849.19,169.38,849.85,169.18Z"/><path class="cls-1" d="M385.83,315.61c0-.43,0-.69-.05-.86-.26-.44-.54-1-1.18-.77-.3.09-.35.4-.1.62S385.29,315.21,385.83,315.61Z"/><path class="cls-1" d="M835.46,152.66c-1.24,1.64-2.87,1.27-3.83,2.48C834.64,157.21,834.66,157.2,835.46,152.66Z"/><path class="cls-1" d="M591.5,288.77c.12-.39.26-.6.23-.77-.08-.47-.17-1-.79-1.06-.3,0-.44.24-.29.51S591.16,288.25,591.5,288.77Z"/><path class="cls-1" d="M578.48,248.23c.1-.06.27-.09.3-.18.12-.31,0-.48-.38-.46-.11,0-.27.08-.3.16C578,248.06,578.14,248.23,578.48,248.23Z"/><path class="cls-1" d="M238.69,99.21c.17-.27,0-.49-.34-.5a.52.52,0,0,0-.34.14.35.35,0,0,0,.06.61C238.29,99.39,238.6,99.37,238.69,99.21Z"/><path class="cls-1" d="M381.92,312.57a1.29,1.29,0,0,0-.17-.33c-.09-.09-.25-.22-.33-.19-.27.11-.23.3.12.47A1.2,1.2,0,0,0,381.92,312.57Z"/><path class="cls-1" d="M242.57,91.62a4.75,4.75,0,0,0-2,4.18A4.67,4.67,0,0,0,242.57,91.62Z"/><path class="cls-1" d="M234.3,106.62c-.1-.31-.43-.35-.65-.09s-.61.86-1,1.42c.45,0,.72,0,.89-.08C234,107.6,234.51,107.28,234.3,106.62Z"/><path class="cls-1" d="M236.2,103.27c-.12-.28-.32-.23-.49.14a1.23,1.23,0,0,0,0,.39,1.35,1.35,0,0,0,.34-.19C236.1,103.52,236.23,103.34,236.2,103.27Z"/><path class="cls-1" d="M377.82,310.13c-.07-.21-.08-.51-.23-.6s-.47,0-.49.31a.5.5,0,0,0,.12.33A.34.34,0,0,0,377.82,310.13Z"/><path class="cls-1" d="M374.37,307.61a4.49,4.49,0,0,0-4-2A4.57,4.57,0,0,0,374.37,307.61Z"/><path class="cls-1" d="M269.27,77.93c.37,0,.49-.23.32-.58-.05-.11-.2-.25-.29-.24-.36,0-.47.24-.33.59C269.07,77.78,269.17,77.94,269.27,77.93Z"/><path class="cls-1" d="M357.81,279.77c.08-.1.24-.19.24-.29,0-.35-.21-.48-.55-.33-.11,0-.25.18-.24.27C357.26,279.77,357.47,279.88,357.81,279.77Z"/><path class="cls-1" d="M340,667.51c-.48.21-.94.48-1.55.8.42.18.63.36.83.34.53,0,1.14-.08,1.25-.76C340.62,667.56,340.34,667.38,340,667.51Z"/><path class="cls-1" d="M776.44,630.7c-.25.19-.22.41.05.59.12,0,.27.07.34,0,.26-.19.23-.41-.06-.58A.39.39,0,0,0,776.44,630.7Z"/><path class="cls-1" d="M682.17,432.91a39.57,39.57,0,0,0-8.3-4.72c1.74,4,4,6,7.52,6.68.53.1,1.14.18,1.43-.32C683.22,433.83,682.73,433.3,682.17,432.91Z"/><path class="cls-1" d="M765.54,669.88c0,.46,0,.93,0,1.54.31-.25.53-.35.6-.51.18-.43.4-.92-.08-1.29C765.82,669.44,765.56,669.58,765.54,669.88Z"/><path class="cls-1" d="M765,661.87a.46.46,0,0,0-.17.27c-.05.28.08.42.35.41.11-.17.33-.34.32-.49S765.23,661.71,765,661.87Z"/><path class="cls-1" d="M764.46,654.63a4.18,4.18,0,0,0,.67,4A4.11,4.11,0,0,0,764.46,654.63Z"/><path class="cls-1" d="M765.76,666.58c0-.11,0-.3,0-.34-.23-.14-.35,0-.28.35a1.1,1.1,0,0,0,.17.3A1.18,1.18,0,0,0,765.76,666.58Z"/><path class="cls-1" d="M969.47,168.68c2-.14,2.84,1.34,4.38,1.28C973.44,166.32,973.43,166.32,969.47,168.68Z"/><path class="cls-1" d="M952.41,579.22c.58-2,2.25-2.2,2.72-3.66C951.58,574.67,951.57,574.69,952.41,579.22Z"/><path class="cls-1" d="M973.3,148.58c.35-.73-.17-1.22-.75-1.58a39.55,39.55,0,0,0-8.58-4.2c2,3.89,4.4,5.78,7.93,6.19C972.43,149.05,973,149.1,973.3,148.58Z"/><path class="cls-1" d="M933.15,568.79a39.58,39.58,0,0,0-6.92,6.58c4.33-.51,6.95-2.12,8.56-5.28.25-.48.51-1,.1-1.46C934.33,568,933.69,568.37,933.15,568.79Z"/><path class="cls-1" d="M909.11,695.57c-.81,4.29-.06,7.26,2.47,9.75.38.38.84.79,1.36.54.73-.36.61-1.07.38-1.71A39.57,39.57,0,0,0,909.11,695.57Z"/><path class="cls-1" d="M897.59,719.39c1.7,1.15,1.42,2.8,2.68,3.7C902.18,720,902.17,719.95,897.59,719.39Z"/><path class="cls-1" d="M677.74,454.36c2.05,0,2.75,1.52,4.29,1.55C681.86,452.26,681.84,452.25,677.74,454.36Z"/><path class="cls-1" d="M490.95,433.8c-.33,0-.41.26-.26.57.1.07.21.21.31.2.34,0,.43-.26.25-.57C491.18,433.91,491,433.79,490.95,433.8Z"/><path class="cls-1" d="M540.35,859.31c-2.95,2.17-2.94,2.19,1.08,4.43C540.29,862,541.18,860.62,540.35,859.31Z"/><path class="cls-1" d="M522.11,870.48c-.81.06-1,.76-1,1.44a39.58,39.58,0,0,0,.66,9.53c2.37-3.66,2.8-6.7,1.4-10C523,871,522.69,870.44,522.11,870.48Z"/><path class="cls-1" d="M464.06,456.62a.49.49,0,0,0-.3.16.33.33,0,0,0,.11.56c.19-.09.48-.14.55-.29S464.37,456.6,464.06,456.62Z"/><path class="cls-1" d="M465.88,453.71a4.36,4.36,0,0,0,1.48-4.06A4.44,4.44,0,0,0,465.88,453.71Z"/><path class="cls-1" d="M462,461.22a1.16,1.16,0,0,0,0,.37,1.24,1.24,0,0,0,.3-.2c.08-.09.18-.27.14-.34C462.33,460.79,462.14,460.86,462,461.22Z"/><path class="cls-4" d="M361.61,118a14.11,14.11,0,0,1,1.22,4.15c.17,2.46,1.65,4,3.7,5.28,3.58,2.21,7.45,1.11,11.2,1.15a1.76,1.76,0,0,0,1.79-1.81c0-1.55.82-2.11,2.18-2.25a1.74,1.74,0,0,0,1.64-1.45,1,1,0,0,1,1.81-.53c.66.61.47,1.45-.12,2.13s-2.16.55-2.2,2c.51.46,1,.1,1.45,0a100,100,0,0,1,17.38-3c1.65-.11,1.66-1.1.91-2.14-1-1.33-.39-2,.89-2.24,3.93-.88,7.87-1.71,11.87-2.26,1.79-.25,3.43,1.19,4.8.74,3.67-1.2,8.16,0,11-3.85a4.05,4.05,0,0,1,3.67-1.15c.73.12.74,1,1,1.56,2.88-.41,5.85-.63,7.12-4a.93.93,0,0,1,1.33-.5c2.13,1.13,3.81-.13,5.59-.95.57-.26,1.25-.55,1.82,0s-1.27,1.05-.29,1.92c1.7-.72,3.35-1.9,5.1-2.08,6.44-.67,12.32-3.49,18.64-4.58a20.55,20.55,0,0,0,3.82-1c8.29-3.15,17.11-4.67,25.24-8.31a3,3,0,0,1,1.53-.36c4.25.59,7.81-2,11.85-2.49,2.68-.32,2.68-.64,2.32-3.48-.67-5.29-3.2-9.59-6.54-13.72s-6.57-4.7-11.1-2.77A38,38,0,0,1,492,75a3.59,3.59,0,0,0-1.85.66c-2.22,1.94-5.07,2.08-7.71,2.76-4.73,1.23-9.57,2-14.25,3.52a53.38,53.38,0,0,1-10.72,2.76c-5.95.63-11.64,2.28-17.45,3.49-2,.42-3.69,1.55-5.92,1.75-3.66.34-7.32,1-11,1.39-1.44.17-3.33.17-4.17,1.06C416.5,95,413.5,94,410.76,94.28c-1.43.15-2.87.22-4.3.51-3.88.79-7.83,1.3-11.66,2.26-4.38,1.1-8.94,1.29-13.26,2.46-5.12,1.38-10.3,2.24-15.5,3.11a15.76,15.76,0,0,0-2.69.66c-3.12,1.11-3.31,1.48-2.77,4.85.06.38.33.89.18,1.13C358.77,112.41,360.51,115.18,361.61,118Zm32.26,4.67c-1.21,1-2.72.23-4.29,1.55C391.37,120,391.39,120,393.86,122.67Zm-14.59-17.79c.68-.05,1.4,0,1.54.84.1.57-.42.9-.89,1.16-3.09,1.74-6.16,1.64-10.05-.33A39.6,39.6,0,0,1,379.27,104.89Z"/><path class="cls-5" d="M435.79,114.32v0h-.06Z"/><path class="cls-5" d="M792.66,172.7l0,0,.06,0Z"/><path class="cls-4" d="M726,228.68c4,3.16,7.46,3.1,11.44.2a38,38,0,0,1,9.32-5.24,3.58,3.58,0,0,0,1.65-1.06c1.73-2.39,4.47-3.16,6.89-4.43,4.33-2.27,8.88-4.1,13.09-6.63a53.36,53.36,0,0,1,9.82-5.1c5.66-1.95,10.83-4.84,16.21-7.33,1.85-.86,3.24-2.34,5.37-3,3.49-1.15,6.92-2.58,10.4-3.83,1.36-.49,3.21-.92,3.82-2,1.77-3,4.91-2.75,7.52-3.65,1.36-.47,2.74-.86,4.07-1.47,3.6-1.64,7.34-3,10.85-4.83,4-2.06,8.42-3.27,12.36-5.38,4.68-2.5,9.53-4.5,14.4-6.52a15.83,15.83,0,0,0,2.48-1.25c2.79-1.79,2.89-2.18,1.61-5.35-.15-.36-.52-.79-.43-1.06,1.23-3.52-1.1-5.83-2.79-8.33a14.09,14.09,0,0,1-2.12-3.77c-.72-2.36-2.51-3.54-4.79-4.31-4-1.35-7.5.6-11.17,1.4a1.76,1.76,0,0,0-1.34,2.16c.37,1.5-.32,2.24-1.61,2.68a1.74,1.74,0,0,0-1.27,1.78c0,1.09-.83,1.38-1.64.92s-.78-1.31-.36-2.1,2-1,1.7-2.41c-.6-.34-1,.12-1.41.34A100,100,0,0,1,823.83,156c-1.58.48-1.38,1.44-.4,2.29,1.24,1.08.82,1.82-.36,2.39-3.63,1.74-7.28,3.44-11.05,4.87-1.69.64-3.61-.39-4.85.36-3.3,2-7.94,1.87-9.86,6.23A4.06,4.06,0,0,1,794,174c-.74.05-.94-.78-1.31-1.3-2.71,1-5.55,1.93-6,5.47a.93.93,0,0,1-1.19.78c-2.33-.62-3.68,1-5.24,2.18-.5.38-1.1.81-1.79.36-.85-.56,1-1.31-.15-1.93-1.49,1.08-2.83,2.61-4.5,3.18-6.12,2.1-11.22,6.18-17.13,8.65a20.55,20.55,0,0,0-3.49,1.87c-7.36,4.94-15.62,8.4-22.72,13.77a3,3,0,0,1-1.41.7c-4.27.38-7.16,3.71-11,5.09-2.54.92-2.46,1.23-1.47,3.91C718.4,221.78,721.83,225.4,726,228.68Zm122.75-61.3c2.62-2.39,5.63-3,9.87-1.94a39.58,39.58,0,0,1-8.79,3.74c-.65.2-1.37.28-1.69-.47C847.93,168.18,848.37,167.74,848.76,167.38Zm-13.3-14.72c-.8,4.54-.82,4.55-3.83,2.48C832.59,153.93,834.23,154.3,835.46,152.66Z"/><path class="cls-4" d="M989.71,149.81c-4.19-1.7-8-4.23-12.16-5.83-5-1.9-9.64-4.26-14.35-6.63a15.83,15.83,0,0,0-2.57-1.05c-3.18-.94-3.55-.76-5.1,2.29-.18.35-.25.91-.52,1-3.46,1.37-3.69,4.64-4.47,7.57a14.1,14.1,0,0,1-1.46,4.07c-1.31,2.09-1,4.21-.12,6.44,1.59,3.9,5.36,5.28,8.37,7.53a1.76,1.76,0,0,0,2.51-.41c.89-1.27,1.9-1.22,3.08-.53a1.74,1.74,0,0,0,2.18-.2,1,1,0,0,1,1.77.64c.18.89-.47,1.45-1.35,1.65s-2.07-.83-2.94.29c.14.68.72.65,1.18.84a100,100,0,0,1,15.8,7.83c1.4.88,2,.1,2-1.19,0-1.65.84-1.81,2-1.29,3.69,1.61,7.36,3.26,10.92,5.17,1.59.86,2.06,3,3.44,3.43a13,13,0,0,1,2,.91V154.64C996.56,153,993.22,151.23,989.71,149.81Zm-25.74-7a39.55,39.55,0,0,1,8.58,4.2c.58.36,1.11.85.75,1.58-.25.52-.87.48-1.41.41C968.37,148.57,966,146.68,964,142.8Zm5.5,25.88c4-2.36,4-2.36,4.38,1.28C972.31,170,971.51,168.54,969.47,168.68Z"/><path class="cls-5" d="M0,187.93v0l-.05,0Z"/><path class="cls-4" d="M9.13,184.82a4.05,4.05,0,0,1,3.64,1.24c.52.53,0,1.22-.13,1.84,2.57,1.36,5.09,2.94,8.09,1a.93.93,0,0,1,1.37.38c1.06,2.17,3.15,2.14,5.08,2.53.62.13,1.33.3,1.44,1.11.13,1-1.65.1-1.36,1.38,1.8.42,3.83.44,5.35,1.33,5.6,3.26,12,4.44,17.75,7.29a20.53,20.53,0,0,0,3.7,1.41c8.55,2.34,16.57,6.32,25.28,8.17a3.05,3.05,0,0,1,1.45.61c3.08,3,7.49,3,11,5,2.35,1.32,2.54,1.06,3.92-1.45,2.58-4.67,3.07-9.63,2.81-14.94-.25-5.12-2.53-7.67-7.34-8.78a38,38,0,0,1-10.06-3.62,3.58,3.58,0,0,0-1.89-.56c-2.94.26-5.31-1.31-7.85-2.31-4.55-1.79-8.91-4-13.58-5.56a53.36,53.36,0,0,1-10.28-4.09c-5.17-3-10.75-5-16.15-7.46-1.86-.84-3.89-.93-5.81-2.08-3.15-1.88-6.48-3.54-9.7-5.36-1.26-.71-2.79-1.83-4-1.6-3.45.64-5.29-1.92-7.68-3.3-1.25-.72-2.45-1.51-3.78-2.12L0,154.64v27.71C2.81,183.84,5.45,186,9.13,184.82Z"/><path class="cls-4" d="M994.59,500.59a53.37,53.37,0,0,1-7.41,8.22c-4.62,3.81-8.45,8.33-12.62,12.55-1.44,1.45-2.22,3.32-4,4.73-2.86,2.3-5.58,4.84-8.4,7.23-1.11.94-2.69,2-2.89,3.18-.6,3.46-3.64,4.3-5.76,6.06-1.11.92-2.27,1.77-3.3,2.8-2.8,2.8-5.81,5.4-8.48,8.32-3,3.34-6.74,6-9.7,9.37-3.51,4-7.35,7.56-11.2,11.15a15.8,15.8,0,0,0-1.88,2c-2,2.65-1.95,3.06.37,5.57.26.29.77.56.77.84.08,3.73,3.07,5.07,5.54,6.83a14.1,14.1,0,0,1,3.31,2.79c1.5,2,3.59,2.43,6,2.36,4.21-.13,6.82-3.19,10-5.23a1.76,1.76,0,0,0,.49-2.5c-.88-1.28-.49-2.21.57-3.07a1.74,1.74,0,0,0,.57-2.12c-.35-1,.29-1.59,1.21-1.44s1.19.95,1.07,1.84-1.5,1.65-.75,2.86c.68.1.87-.45,1.2-.81a100,100,0,0,1,12.84-12.09c1.31-1,.78-1.83-.43-2.29-1.54-.58-1.4-1.42-.5-2.36,2.79-2.9,5.61-5.77,8.65-8.44,1.36-1.2,3.52-.9,4.41-2,2.4-3,6.79-4.54,7.05-9.29a4.06,4.06,0,0,1,2.43-3c.68-.31,1.15.4,1.68.76,2.17-1.93,4.52-3.76,3.75-7.24A.93.93,0,0,1,990,537c2.4-.24,3.1-2.21,4.14-3.88.33-.53.74-1.15,1.55-1,1,.23-.48,1.58.82,1.76,1-1.54,1.74-3.43,3.1-4.56.13-.11.24-.24.37-.35V494.57C998.13,496.51,996.27,498.47,994.59,500.59Zm-59.8,69.5c-1.62,3.16-4.23,4.77-8.56,5.28a39.58,39.58,0,0,1,6.92-6.58c.54-.42,1.19-.74,1.75-.15C935.3,569.05,935,569.61,934.79,570.09Zm17.62,9.13c-.84-4.53-.83-4.55,2.72-3.66C954.65,577,953,577.26,952.41,579.22Z"/><path class="cls-5" d="M985.47,545.45l0,0,0,0Z"/><path class="cls-4" d="M12.64,515.29a20.52,20.52,0,0,0,2.61-3c5.17-7.21,11.69-13.34,16.46-20.86a3.05,3.05,0,0,1,1.08-1.15c3.87-1.85,5.41-6,8.51-8.62,2.05-1.75,1.88-2,0-4.18-3.48-4-8-6.23-13-7.83-4.89-1.55-8.07-.29-10.78,3.82a38.05,38.05,0,0,1-6.89,8.17,3.58,3.58,0,0,0-1.18,1.57c-.78,2.85-3.08,4.53-4.9,6.56-1.46,1.63-3,3.2-4.52,4.78V529C4.78,525,8.1,519.56,12.64,515.29Z"/><path class="cls-5" d="M536.51,816.74h0s0,0,0,.06Z"/><path class="cls-4" d="M542.89,874c-1.54-.14-2-1-2-2.4a1.74,1.74,0,0,0-1.27-1.79,1,1,0,0,1-.33-1.85c.68-.6,1.49-.31,2.1.35s.31,2.21,1.72,2.4c.52-.46.2-1,.14-1.44a100,100,0,0,1-1.12-17.6c.06-1.65-.91-1.77-2-1.13-1.43.82-2,.18-2.14-1.12-.45-4-.86-8-1-12-.05-1.81,1.55-3.28,1.25-4.7-.8-3.78.83-8.12-2.66-11.36a4.05,4.05,0,0,1-.75-3.77c.19-.72,1-.63,1.66-.81-.1-2.9,0-5.88-3.19-7.5a.93.93,0,0,1-.35-1.38c1.35-2,.27-3.8-.35-5.66-.2-.6-.41-1.3.24-1.81.81-.62.91,1.37,1.87.49-.54-1.76-1.53-3.53-1.53-5.3,0-6.48-2.16-12.62-2.56-19a20.55,20.55,0,0,0-.63-3.91c-2.25-8.58-2.82-17.51-5.57-26a3.05,3.05,0,0,1-.2-1.56c1-4.16-1.16-8-1.21-12,0-2.7-.35-2.73-3.21-2.67-5.33.1-9.88,2.16-14.34,5-4.31,2.78-5.38,6-3.93,10.74a38.06,38.06,0,0,1,1.9,10.52,3.58,3.58,0,0,0,.46,1.91c1.69,2.42,1.52,5.26,1.93,8,.72,4.84,1,9.73,2,14.54a53.39,53.39,0,0,1,1.6,11c0,6,1,11.82,1.62,17.72.2,2,1.14,3.83,1.11,6.07-.06,3.67.17,7.38.21,11.08,0,1.45-.18,3.33.61,4.26,2.28,2.67,1,5.54,1,8.3,0,1.44-.09,2.88.05,4.33.37,3.94.46,7.92,1,11.84.63,4.48.33,9,1,13.44.83,5.24,1.13,10.48,1.44,15.74a15.83,15.83,0,0,0,.37,2.75c.77,3.22,1.12,3.45,4.53,3.27.39,0,.92-.24,1.14-.06,2.92,2.31,5.87.87,8.79.09a14.1,14.1,0,0,1,4.26-.77c2.46.1,4.17-1.21,5.64-3.12,2.58-3.33,1.89-7.29,2.33-11A1.76,1.76,0,0,0,542.89,874Zm-21.13,7.44a39.58,39.58,0,0,1-.66-9.53c0-.68.19-1.38,1-1.44.58,0,.85.52,1.06,1C524.57,874.76,524.14,877.79,521.77,881.46Zm18.58-22.14c.83,1.3-.06,2.73,1.08,4.43C537.41,861.5,537.4,861.48,540.35,859.31Z"/><path class="cls-5" d="M719.62,476.27v0l-.05,0Z"/><path class="cls-4" d="M797.76,486.16a38,38,0,0,1-9.81-4.24,3.58,3.58,0,0,0-1.85-.67c-3,.07-5.22-1.64-7.69-2.8-4.43-2.07-8.64-4.58-13.21-6.4a53.36,53.36,0,0,1-10-4.72c-5-3.32-10.42-5.68-15.65-8.46-1.8-1-3.82-1.17-5.67-2.44-3-2.08-6.25-3.94-9.35-6-1.21-.79-2.67-2-3.88-1.85-3.49.43-5.16-2.24-7.46-3.77-1.2-.8-2.35-1.66-3.64-2.35-3.49-1.87-6.85-4-10.42-5.71-4.08-2-7.71-4.72-11.77-6.58-4.82-2.21-9.36-4.86-13.91-7.51a15.84,15.84,0,0,0-2.5-1.21c-3.11-1.14-3.49-1-5.23,2-.2.33-.31.9-.58,1-3.54,1.15-4,4.4-4.94,7.27a14.09,14.09,0,0,1-1.71,4c-1.44,2-1.29,4.14-.52,6.42,1.34,4,5,5.61,7.89,8a1.76,1.76,0,0,0,2.53-.25c1-1.21,2-1.1,3.11-.34a1.74,1.74,0,0,0,2.19-.07,1,1,0,0,1,1.73.75c.12.89-.56,1.42-1.45,1.56s-2-1-2.95.11c.1.68.68.7,1.12.91a100,100,0,0,1,15.28,8.8c1.34,1,2,.22,2.07-1.07.11-1.64,1-1.75,2.12-1.16,3.58,1.84,7.14,3.71,10.57,5.84,1.54,1,1.87,3.11,3.22,3.64,3.59,1.42,6.3,5.19,10.93,4.07a4.06,4.06,0,0,1,3.56,1.46c.49.56,0,1.22-.24,1.83,2.48,1.52,4.9,3.25,8,1.5a.93.93,0,0,1,1.34.47c.92,2.23,3,2.33,4.91,2.84.61.16,1.31.38,1.37,1.2.07,1-1.65,0-1.45,1.29,1.77.53,3.79.68,5.26,1.66,5.38,3.6,11.71,5.18,17.26,8.39a20.55,20.55,0,0,0,3.6,1.64c8.39,2.87,16.15,7.34,24.72,9.73a3.05,3.05,0,0,1,1.41.7c2.89,3.17,7.29,3.45,10.71,5.66,2.26,1.46,2.47,1.22,4-1.2,2.86-4.5,3.67-9.42,3.74-14.73C804.6,490.25,802.48,487.56,797.76,486.16Zm-120-31.8c4.1-2.11,4.12-2.1,4.29,1.55C680.49,455.88,679.79,454.35,677.74,454.36Zm5.08-19.82c-.29.51-.9.42-1.43.32-3.49-.64-5.78-2.67-7.52-6.68a39.57,39.57,0,0,1,8.3,4.72C682.73,433.3,683.22,433.83,682.82,434.54Z"/><path class="cls-4" d="M103.72,406.22c-.06-3,1.67-5.21,2.84-7.68,2.1-4.42,4.64-8.61,6.48-13.17a53.34,53.34,0,0,1,4.78-10c3.35-5,5.75-10.38,8.55-15.6,1-1.8,1.19-3.82,2.47-5.66,2.1-3,4-6.22,6-9.31.8-1.21,2-2.66,1.87-3.87-.41-3.49,2.28-5.15,3.81-7.44.81-1.2,1.68-2.34,2.38-3.62,1.89-3.48,4-6.83,5.78-10.38,2-4.06,4.77-7.68,6.65-11.73,2.24-4.81,4.91-9.33,7.59-13.86a15.79,15.79,0,0,0,1.23-2.49c1.16-3.11,1-3.49-1.93-5.24-.33-.2-.89-.32-1-.59-1.13-3.55-4.38-4-7.24-5a14.09,14.09,0,0,1-4-1.74c-2-1.46-4.13-1.32-6.42-.56-4,1.32-5.64,5-8.09,7.84a1.76,1.76,0,0,0,.23,2.53c1.2,1,1.09,2,.32,3.11a1.74,1.74,0,0,0,.05,2.19,1,1,0,0,1-.76,1.72c-.9.12-1.41-.57-1.55-1.46s1-2-.09-2.95c-.68.09-.7.68-.92,1.12a100,100,0,0,1-8.9,15.23c-1,1.34-.23,2,1.05,2.07,1.64.12,1.75,1,1.14,2.13-1.86,3.57-3.75,7.12-5.91,10.54-1,1.53-3.12,1.85-3.66,3.2-1.44,3.58-5.23,6.27-4.14,10.91A4.05,4.05,0,0,1,111,340c-.56.49-1.22-.06-1.82-.25-1.53,2.47-3.28,4.88-1.55,8a.93.93,0,0,1-.48,1.34c-2.24.91-2.35,3-2.87,4.89-.17.61-.39,1.31-1.21,1.36-1,.06,0-1.65-1.28-1.46-.54,1.76-.7,3.79-1.69,5.25-3.63,5.36-5.25,11.68-8.49,17.21A20.58,20.58,0,0,0,89.91,380c-2.92,8.37-7.44,16.1-9.89,24.66a3.06,3.06,0,0,1-.71,1.41c-3.18,2.87-3.49,7.27-5.72,10.67-1.48,2.26-1.23,2.46,1.17,4,4.48,2.89,9.4,3.73,14.71,3.83,5.13.1,7.83-2,9.26-6.72a38,38,0,0,1,4.3-9.79A3.59,3.59,0,0,0,103.72,406.22Zm47-104.42c.66-3.49,2.71-5.77,6.72-7.48a39.57,39.57,0,0,1-4.78,8.27c-.4.55-.93,1-1.63.64C150.56,302.95,150.65,302.33,150.75,301.8ZM131.27,298c2.09,4.11,2.08,4.13-1.58,4.28C129.74,300.77,131.27,300.08,131.27,298Z"/><path class="cls-5" d="M109.11,339.77h0l0-.05Z"/><path class="cls-5" d="M919.89,761.06l0,0,0-.06Z"/><path class="cls-4" d="M973.21,804.16a3.58,3.58,0,0,0-1.15-1.59c-2.48-1.6-3.4-4.29-4.79-6.64-2.5-4.21-4.57-8.65-7.32-12.72a53.33,53.33,0,0,1-5.62-9.53c-2.25-5.54-5.42-10.56-8.19-15.8-1-1.8-2.51-3.12-3.32-5.2-1.33-3.42-2.95-6.77-4.38-10.18-.56-1.34-1.09-3.16-2.17-3.71-3.12-1.61-3-4.76-4-7.31-.54-1.34-1-2.69-1.68-4-1.83-3.51-3.41-7.16-5.4-10.58-2.27-3.91-3.72-8.24-6-12.06-2.74-4.54-5-9.28-7.28-14a15.86,15.86,0,0,0-1.38-2.41c-1.93-2.69-2.34-2.77-5.43-1.32-.35.17-.76.57-1,.49-3.58-1-5.76,1.41-8.17,3.24a14.1,14.1,0,0,1-3.65,2.32c-2.32.84-3.4,2.7-4,5-1.13,4.06,1,7.46,2,11.08a1.76,1.76,0,0,0,2.23,1.22c1.48-.45,2.25.2,2.76,1.47a1.74,1.74,0,0,0,1.85,1.18c1.09,0,1.42.76,1,1.59s-1.26.85-2.08.47-1.12-1.93-2.5-1.57c-.3.62.17,1,.42,1.39a100,100,0,0,1,7.68,15.87c.57,1.56,1.51,1.3,2.31.28,1-1.3,1.78-.91,2.4.23,1.93,3.53,3.82,7.09,5.46,10.78.73,1.65-.2,3.62.61,4.82,2.17,3.19,2.29,7.83,6.75,9.52a4.05,4.05,0,0,1,2.12,3.21c.09.74-.73,1-1.23,1.37,1.19,2.65,2.23,5.44,5.79,5.75a.93.93,0,0,1,.85,1.14c-.49,2.36,1.18,3.62,2.46,5.11.41.48.87,1.05.46,1.76-.52.88-1.36-.93-1.92.25,1.16,1.43,2.75,2.69,3.42,4.33,2.43,6,6.77,10.87,9.55,16.64a20.52,20.52,0,0,0,2.06,3.38c5.32,7.09,9.22,15.15,15,22a3.05,3.05,0,0,1,.77,1.37c.61,4.24,4.09,7,5.67,10.7,1.05,2.48,1.36,2.39,4,1.26,4.9-2.11,8.33-5.73,11.38-10.08,2.94-4.2,2.7-7.61-.41-11.43A38,38,0,0,1,973.21,804.16Zm-72.95-81.07c-1.26-.9-1-2.55-2.68-3.7C902.17,719.95,902.18,720,900.27,723.08Zm12.68-17.23c-.52.26-1-.16-1.36-.54-2.53-2.49-3.28-5.46-2.47-9.75a39.57,39.57,0,0,1,4.21,8.58C913.56,704.78,913.67,705.49,912.94,705.85Z"/><path class="cls-4" d="M638.83,649.41c1.69,1.25,3,2.28,5.05.86,1.31-.91,2.24,0,3,1-.81.58-1.06,1.06-.08,1.83,2.77,2.16,5.44,4.46,9,5.33,2.86.71,5,3.43,8.42,2.72a1.8,1.8,0,0,1,1.86,1.38c.55,2.7,3.15,3.23,4.59,4.7a16.36,16.36,0,0,1,2,1.16c1.66,1.34,3.63.28,5.46.72,1.14.27,1.29-1.93,2.14-2.7,2.76-2.48,3.79-5.91,5.43-9,5-9.55,3.54-7.54.28-15.55a5.89,5.89,0,0,0-4.43-3.86c-3.24-.71-5.81-2.93-9.45-3.17-4.09-.27-7.87-2.84-11.49-4.76-8-4.28-17.18-6.26-24.5-12a6.06,6.06,0,0,0-3.5-1,12.42,12.42,0,0,1-7.19-2.58,24.69,24.69,0,0,0-6.09-3.66c-5.44-2.33-11.15-4.12-15.93-8-2.27-1.83-5.11-3.78-8.16-3.55-3.73.27-4.68-4.23-8.11-4-.13,0-.26-.08-.39-.12a36.11,36.11,0,0,1-5.76-2.19c-5.78-2.69-11.53-5.47-17.44-7.85-3.67-1.48-7-4.08-11-4.48-3.36-.34-6.65-.91-10-1.49s-4.26,0-5.12,2.94a39,39,0,0,0-1.66,6.78c-.81,7.55,1.11,10.35,7.34,12.18,1.32.39,2.62.83,4,1.15,7.76,1.86,14.85,5.44,22.06,8.67,4.37,2,8.37,4.86,12.84,6.5,6.59,2.42,12.64,5.85,18.66,9.26,10.51,5.95,20.72,12.44,31.08,18.67C634,646.79,636.65,647.8,638.83,649.41Z"/><path class="cls-4" d="M283.28,419.2c1.07-5.94,2.22-11.88,3-17.86.46-3.72,2-7.39,1.45-11.12-.5-3.16-.78-6.31-1-9.48s-1.06-3.89-3.93-4a36.87,36.87,0,0,0-6.61.12c-7.11,1.08-9.2,3.52-9.37,9.67,0,1.3-.12,2.6-.09,3.9.17,7.55-1.38,14.91-2.59,22.29-.73,4.48-2.42,8.83-2.84,13.32-.62,6.62-2.3,13-4,19.32-2.9,11.06-6.37,22-9.56,33-.72,2.49-1,5.12-2,7.5-.74,1.85-1.36,3.29.44,4.83,1.15,1,.53,2.05-.23,3-.72-.6-1.23-.72-1.69.37-1.31,3.06-2.76,6.06-2.71,9.5,0,2.79-1.92,5.45-.45,8.37a1.71,1.71,0,0,1-.82,2c-2.34,1.15-2.2,3.67-3.19,5.33a15.5,15.5,0,0,1-.59,2.07c-.82,1.84.63,3.39.66,5.17,0,1.11,2.08.71,3,1.3,2.94,1.92,6.32,2,9.58,2.78,10,2.27,7.76,1.41,14.3-3.51a5.57,5.57,0,0,0,2.45-5c-.14-3.14,1.28-6,.61-9.42-.75-3.81.69-7.89,1.58-11.67,2-8.39,1.57-17.24,5-25.32a5.74,5.74,0,0,0,.08-3.45,11.75,11.75,0,0,1,.62-7.2,23.38,23.38,0,0,0,1.87-6.45c.82-5.55,1.07-11.2,3.44-16.51,1.13-2.53,2.22-5.6,1.28-8.33-1.15-3.35,2.73-5.31,1.67-8.39a1.28,1.28,0,0,1,0-.39A34.2,34.2,0,0,1,283.28,419.2Z"/><path class="cls-4" d="M654.39,10.29c1.16,6.55,1.24,13.13,1.33,19.68.15,11.44-.3,22.88-.44,34.32,0,2.59.39,5.21.11,7.76-.22,2-.44,3.54,1.71,4.54,1.37.64,1.05,1.84.58,3-.86-.39-1.37-.36-1.53.81-.45,3.3-1.05,6.57-.08,9.88.79,2.68-.4,5.76,1.79,8.19a1.71,1.71,0,0,1-.25,2.18c-1.95,1.73-1.14,4.12-1.66,6a15.48,15.48,0,0,1,0,2.15c-.31,2,1.51,3.11,2,4.81.32,1.06,2.19.13,3.23.46,3.35,1.07,6.64.28,10,.13,10.2-.46,7.86-.7,12.85-7.19a5.57,5.57,0,0,0,1-5.46c-1-3-.37-6.15-1.92-9.24-1.73-3.47-1.43-7.79-1.58-11.67-.33-8.61-3.08-17-1.89-25.75a5.74,5.74,0,0,0-.84-3.35,11.76,11.76,0,0,1-1.32-7.11,23.37,23.37,0,0,0,.09-6.72c-.69-5.56-2-11.09-1.08-16.83.41-2.73.65-6-1-8.37-2-2.92,1.22-5.84-.62-8.53a1.28,1.28,0,0,1-.09-.38c-.23-.84-.39-1.69-.54-2.55H653.82A61.1,61.1,0,0,0,654.39,10.29Z"/><path class="cls-4" d="M671.93,979.79c-.54-3.71,0-7.66-1.56-11.1-1.32-2.91-2.43-5.87-3.53-8.86s-2.06-3.46-4.85-2.78a36.86,36.86,0,0,0-6.33,1.88c-6.56,2.93-7.93,5.85-6.46,11.81.31,1.26.57,2.54.95,3.78,2.17,7.23,2.63,14.74,3.43,22.18.15,1.43.21,2.87.24,4.31h20.43q-.27-1.59-.42-3.21C673.27,991.78,672.8,985.76,671.93,979.79Z"/><path class="cls-4" d="M965.2,3.51c-4.89,3.53-9.84,7-14.54,10.79-2.92,2.35-6.6,3.9-8.76,7-1.84,2.62-3.82,5.08-5.84,7.54s-1.94,3.54.07,5.59a36.83,36.83,0,0,0,4.84,4.5c5.86,4.16,9.07,3.86,13.45-.44.93-.91,1.89-1.78,2.77-2.74,5.12-5.55,11.35-9.76,17.36-14.23,3.64-2.71,7.88-4.67,11.3-7.61A107.09,107.09,0,0,1,1000,4.05V1H968.32A39.1,39.1,0,0,1,965.2,3.51Z"/><path class="cls-4" d="M997.63,980c-4.44,3.42-8.55,7.32-13.94,9.48-2.57,1-5.48,2.48-6.71,5.11-1.5,3.21-5.65,1.92-7,4.87-.05.11-.19.18-.28.27-.43.44-.9.83-1.35,1.24H1000V978.44A25.17,25.17,0,0,0,997.63,980Z"/><path class="cls-5" d="M0,4.05l2.12-1.3c1-.6,2-1.17,3-1.76H0Z"/><path class="cls-4" d="M38.53,981.66c1.82-.82,3.27-1.42,3-3.78-.14-1.5,1-1.84,2.25-2,.1.93.39,1.37,1.47.91,3.07-1.29,6.2-2.44,8.55-5,1.91-2,5.16-2.58,6.14-5.7a1.71,1.71,0,0,1,2-.89c2.48.79,4.13-1.11,6-1.62a15.44,15.44,0,0,1,1.86-1.08c1.87-.75,1.91-2.88,3.11-4.18.75-.82-1-2-1.24-3-.78-3.43-3.13-5.86-5-8.66-5.58-8.55-4.6-6.41-12.72-7.41a5.57,5.57,0,0,0-5.23,1.88c-2.08,2.35-5.11,3.45-7,6.35-2.11,3.26-6,5.19-9.24,7.29-7.25,4.67-13.11,11.31-21.21,14.71a5.74,5.74,0,0,0-2.45,2.43,11.75,11.75,0,0,1-5.45,4.75A23,23,0,0,0,0,978.44V1001H5.08c8.84-5.26,17.89-10.19,26.82-15.31C34.15,984.41,36.19,982.71,38.53,981.66Z"/><path class="cls-4" d="M769,813.13c-1.3-.06-2.6-.17-3.89-.16-7.55,0-14.88-1.64-22.24-3-4.46-.81-8.79-2.57-13.27-3.07-6.61-.74-12.94-2.52-19.25-4.3-11-3.09-21.86-6.76-32.79-10.14-2.47-.76-5.1-1.1-7.47-2.09-1.84-.77-3.27-1.42-4.84.35-1,1.13-2.06.49-3-.28.61-.71.74-1.22-.34-1.7-3-1.36-6-2.87-9.45-2.87-2.79,0-5.41-2-8.36-.6a1.71,1.71,0,0,1-2-.85c-1.11-2.36-3.63-2.26-5.28-3.28a15.48,15.48,0,0,1-2.06-.62c-1.83-.86-3.4.57-5.18.57-1.11,0-.75,2.07-1.36,3-2,2.91-2.15,6.29-2.95,9.53-2.44,9.91-1.55,7.73,3.26,14.36a5.57,5.57,0,0,0,4.95,2.54c3.14-.08,6,1.38,9.4.78,3.82-.68,7.88.83,11.64,1.78,8.35,2.12,17.21,1.87,25.23,5.47a5.74,5.74,0,0,0,3.45.14,11.75,11.75,0,0,1,7.19.74,23.38,23.38,0,0,0,6.42,2c5.53.91,11.18,1.27,16.44,3.73,2.51,1.17,5.56,2.32,8.31,1.42,3.37-1.09,5.26,2.83,8.36,1.82a1.29,1.29,0,0,1,.39,0,34.26,34.26,0,0,1,5.79.71c5.92,1.17,11.83,2.42,17.8,3.28,3.71.53,7.35,2.17,11.09,1.64,3.17-.44,6.32-.67,9.5-.88s3.91-1,4-3.86a36.84,36.84,0,0,0,0-6.61C777.57,815.54,775.17,813.4,769,813.13Z"/><path class="cls-4" d="M788.62,685c-.42-1.18-1.4-2.31-1.4-3.47a6.23,6.23,0,0,0-1.36-4.5c-1.22-1.47-.81-3.54.67-5,.68-.64.39-1.12.18-1.65a14.93,14.93,0,0,1-.7-3.71c-.4-3-1.5-5.91-.72-9-2-3.9-.23-8.65-2.8-12.47-.41-.61-.15-1.75,0-2.61a7.65,7.65,0,0,0-.21-3,88.88,88.88,0,0,1-2.51-13.21,9.81,9.81,0,0,0-.36-2.26c-1.93-5.92-1.46-12.4-4.33-18.11a3.29,3.29,0,0,1,0-3,2.41,2.41,0,0,0,.24-1.82c-1.19-4.81-1.71-9.75-2.75-14.57-1.89-8.77-4.27-17.44-6.51-26.13a4.9,4.9,0,0,1,.15-2.87c1.06-3.56-.71-5.63-4.29-5.32-4.35.37-8.48,1.33-12,4.24A16.74,16.74,0,0,1,747,558.4c-1.5.8-2,2-1.26,3.48,1.67,3.5,2,7.34,2.78,11.05,1.56,7.12,1.68,14.62,5.56,21.15.47.79.3,2,.4,3,.26,2.78,0,5.75.85,8.31,1.7,4.88,1.57,9.94,2,12.63A109.46,109.46,0,0,0,760,638.5c.44,1.83,1,3.61.2,5.68a5.93,5.93,0,0,0,.66,4.78,5.91,5.91,0,0,1,.74,4.41,21.53,21.53,0,0,0-.3,8.56,113.39,113.39,0,0,1,1.3,13.6c.1,4.27,2.33,8.23,1.34,12.66-.36,1.63.36,3.49.25,5.29-.22,3.53-.31,7.06-.37,10.6,0,1.35,1.83,4.14,2.56,3.86,1.87-.73,3.7-.37,5.52-.52a6.25,6.25,0,0,1,3,.12,4,4,0,0,0,3,0c2.91-1.22,5.89-2.29,8.72-3.67,4.4-2.15,6.77-6.61,4.78-10.45C790,690.63,789.59,687.76,788.62,685Zm-24.16-30.36a4.11,4.11,0,0,1,.67,4A4.18,4.18,0,0,1,764.46,654.63Zm.35,7.52a.46.46,0,0,1,.17-.27c.24-.16.48-.09.5.19s-.2.33-.32.49C764.89,662.56,764.76,662.42,764.81,662.14Zm.91,4.1c.06,0,.06.23,0,.34a1.18,1.18,0,0,1-.15.31,1.1,1.1,0,0,1-.17-.3C765.38,666.24,765.5,666.1,765.73,666.24Zm.4,4.67c-.07.16-.3.26-.6.51,0-.61,0-1.07,0-1.54,0-.3.28-.44.51-.26C766.53,670,766.31,670.48,766.13,670.91Zm10.7-39.6c-.07.05-.23,0-.34,0-.27-.19-.3-.4-.05-.59a.39.39,0,0,1,.33,0C777.07,630.9,777.09,631.12,776.83,631.31Z"/><path class="cls-1" d="M240.58,95.48a4.67,4.67,0,0,0,2-4.18A4.75,4.75,0,0,0,240.58,95.48Z"/><path class="cls-1" d="M269.3,76.79c-.36,0-.47.24-.33.59.1.08.21.24.31.24.37,0,.49-.23.32-.58C269.54,76.92,269.39,76.78,269.3,76.79Z"/><path class="cls-1" d="M233.66,106.21c-.33.41-.61.86-1,1.42.45,0,.72,0,.89-.08.45-.28,1-.59.76-1.26C234.2,106,233.87,105.95,233.66,106.21Z"/><path class="cls-1" d="M235.71,103.09a1.24,1.24,0,0,0,0,.39,1.34,1.34,0,0,0,.34-.19c.09-.09.22-.27.19-.35C236.08,102.66,235.88,102.72,235.71,103.09Z"/><path class="cls-1" d="M238,98.53a.35.35,0,0,0,.06.61c.21-.08.52-.1.62-.25s0-.49-.34-.5A.52.52,0,0,0,238,98.53Z"/><path class="cls-4" d="M280.88,4.8c-3.18,7.65-7.94,14.72-8.57,23.33-.08,1-1,2-1.57,3-1.57,2.76-3.78,5.33-4.61,8.3-1.59,5.65-5,10.29-6.35,13.08a124.4,124.4,0,0,0-10.86,20.84c-.78,2-1.44,4-3.5,5.42a6.73,6.73,0,0,0-2.49,4.89,6.72,6.72,0,0,1-2.18,4.6,24.47,24.47,0,0,0-5.85,7.78,128.88,128.88,0,0,1-7.63,13.53c-2.69,4-3.18,9.19-7,12.67-1.4,1.29-1.93,3.49-3.21,5.09-2.5,3.14-4.88,6.38-7.24,9.64-.9,1.24-1,5-.12,5.26,2.22.54,3.69,2.06,5.48,3.1a7.1,7.1,0,0,1,2.7,2.05,4.5,4.5,0,0,0,2.8,1.9c3.51.75,7,1.69,10.52,2.25,5.49.86,10.6-1.76,11.25-6.63.46-3.49,2-6.41,2.86-9.63.38-1.38.2-3.07,1-4.14a7.08,7.08,0,0,0,1.66-5.08c-.19-2.16,1.55-3.83,3.85-4.18,1-.16,1.09-.79,1.24-1.43a17,17,0,0,1,1.76-3.91c1.57-3.05,2.45-6.49,5.18-8.86.64-5,5.41-8.21,5.5-13.44,0-.83,1-1.72,1.68-2.44a8.69,8.69,0,0,0,1.77-3,101.07,101.07,0,0,1,6.25-13.95,11.19,11.19,0,0,0,1.14-2.33c2-6.77,6.71-12.51,7.75-19.7a3.74,3.74,0,0,1,1.9-2.78,2.74,2.74,0,0,0,1.41-1.54c2-5.25,4.75-10.2,6.92-15.37,3.95-9.4,7.36-19,10.93-28.59a5.57,5.57,0,0,1,2-2.58,8.32,8.32,0,0,0,1.1-1H282.57C282,2.26,281.41,3.52,280.88,4.8ZM233.54,107.56c-.17.11-.44,0-.89.08.4-.57.67-1,1-1.42s.55-.23.65.09C234.51,107,234,107.27,233.54,107.56Zm2.47-4.27a1.34,1.34,0,0,1-.34.19,1.24,1.24,0,0,1,0-.39c.17-.37.37-.43.49-.15C236.23,103,236.1,103.2,236,103.29Zm2.68-4.4c-.09.15-.4.17-.62.25a.35.35,0,0,1-.06-.61.52.52,0,0,1,.34-.14C238.68,98.4,238.86,98.62,238.69,98.89Zm1.89-3.41a4.75,4.75,0,0,1,2-4.18A4.67,4.67,0,0,1,240.58,95.48Zm28.69-17.87c-.1,0-.2-.16-.31-.24-.13-.35,0-.57.33-.59.1,0,.24.14.29.24C269.76,77.38,269.63,77.6,269.27,77.61Z"/><path class="cls-4" d="M306.7,994.29c-4.29-2.48-8.77-4.28-13.9-3.82a19,19,0,0,1-3.89-.2c-1.91-.23-3.12.53-3.44,2.42a32.92,32.92,0,0,1-2.9,8.32h25.76C310.4,998.63,309.78,996.07,306.7,994.29Z"/><path class="cls-4" d="M445.88,592.08a19,19,0,0,1-3.36-2c-1.59-1.08-3-1-4.17.56-2.65,3.53-6.35,5.85-9.66,8.63-6.35,5.33-13.83,9.4-18.36,16.75-.55.89-1.83,1.35-2.8,2-2.67,1.72-5.81,3-7.92,5.24-4,4.28-9.18,6.82-11.66,8.68a124.4,124.4,0,0,0-19.25,13.48c-1.61,1.41-3.12,2.87-5.61,3.2a6.73,6.73,0,0,0-4.46,3.19,6.72,6.72,0,0,1-4.05,3.07,24.47,24.47,0,0,0-8.78,4.21,128.9,128.9,0,0,1-13,8.48c-4.24,2.35-7.06,6.69-12,8-1.84.5-3.32,2.21-5.19,3-3.67,1.64-7.28,3.41-10.87,5.21-1.37.68-3.21,4-2.53,4.61,1.72,1.5,2.32,3.53,3.44,5.28a7.11,7.11,0,0,1,1.45,3.07,4.5,4.5,0,0,0,1.61,3c2.76,2.29,5.41,4.72,8.3,6.84,4.48,3.3,10.22,3.33,13-.69,2-2.88,4.71-4.78,7-7.22,1-1,1.59-2.63,2.76-3.24a7.08,7.08,0,0,0,3.82-3.74c.83-2,3.14-2.68,5.34-1.93,1,.34,1.33-.19,1.76-.7a17,17,0,0,1,3.36-2.66c2.8-2,5.17-4.63,8.68-5.47,2.85-4.1,8.59-4.79,11.08-9.39.4-.73,1.68-1.07,2.62-1.39a8.68,8.68,0,0,0,2.93-1.8,101.09,101.09,0,0,1,12-9.49,11.17,11.17,0,0,0,2.08-1.55c4.94-5.06,11.72-8,16-13.91a3.74,3.74,0,0,1,3-1.59,2.74,2.74,0,0,0,2-.72c4.21-3.73,8.92-6.86,13.22-10.45,7.84-6.52,15.31-13.49,22.88-20.33a5.57,5.57,0,0,1,3-1.36c4.14-.81,5.3-3.68,3.1-7.13C453.79,597.7,450.64,594,445.88,592.08ZM339.31,668.65c-.2,0-.41-.16-.83-.34.61-.32,1.07-.59,1.55-.8.31-.13.59.05.53.38C340.45,668.57,339.84,668.61,339.31,668.65Zm4.16-2.65a1.33,1.33,0,0,1-.39,0,1.24,1.24,0,0,1,.21-.33c.32-.25.52-.21.5.1C343.79,665.87,343.59,666,343.47,666Zm4.41-2.67c-.15.09-.44,0-.66-.06a.35.35,0,0,1,.23-.57.52.52,0,0,1,.36,0C348.09,662.9,348.15,663.17,347.87,663.34Zm3.25-2.16a4.75,4.75,0,0,1,3.69-2.79A4.67,4.67,0,0,1,351.13,661.18Zm33.69-2.62c-.09,0-.11-.23-.16-.36,0-.37.24-.52.57-.37a.44.44,0,0,1,.15.35C385.36,658.57,385.15,658.72,384.82,658.55Z"/><path class="cls-4" d="M513.95,199a17.11,17.11,0,0,1-1.48,3.18c-.84,1.52-.61,2.79.86,3.69,3.39,2.07,5.79,5.19,8.56,7.92,5.32,5.24,9.61,11.6,16.59,15,.85.42,1.37,1.53,2,2.34,1.77,2.24,3.18,5,5.37,6.65,4.18,3.24,6.9,7.65,8.78,9.71a112.08,112.08,0,0,0,13.74,16.1c1.41,1.33,2.84,2.55,3.35,4.76a6.07,6.07,0,0,0,3.24,3.73,6,6,0,0,1,3.1,3.37A22,22,0,0,0,582.6,283a116,116,0,0,1,8.72,10.94c2.47,3.6,6.6,5.76,8.23,10.1.6,1.61,2.26,2.79,3.17,4.4,1.78,3.15,3.68,6.23,5.6,9.3.73,1.17,3.88,2.53,4.35,1.87,1.2-1.67,3-2.39,4.44-3.53a6.4,6.4,0,0,1,2.63-1.56,4.06,4.06,0,0,0,2.54-1.7c1.81-2.67,3.77-5.26,5.42-8,2.57-4.3,2.11-9.45-1.74-11.63-2.76-1.56-4.69-3.81-7.07-5.64-1-.78-2.49-1.2-3.14-2.19a6.38,6.38,0,0,0-3.68-3.1c-1.87-.57-2.67-2.59-2.19-4.62.22-.93-.29-1.18-.77-1.52a15.28,15.28,0,0,1-2.67-2.79c-2-2.34-4.59-4.24-5.65-7.32-3.92-2.21-5-7.29-9.37-9.13-.69-.29-1.1-1.41-1.47-2.23a7.84,7.84,0,0,0-1.87-2.47,91,91,0,0,1-9.54-9.93,10.07,10.07,0,0,0-1.57-1.74c-5-4-8.18-9.82-13.84-13.12a3.37,3.37,0,0,1-1.68-2.53,2.47,2.47,0,0,0-.81-1.7c-3.71-3.46-6.92-7.41-10.5-11-6.52-6.47-13.41-12.57-20.18-18.77a5,5,0,0,1-1.48-2.55c-1.08-3.64-3.75-4.44-6.66-2.17C518.31,191.44,515.29,194.57,513.95,199Zm77,87.93c.62,0,.71.59.79,1.06,0,.18-.11.39-.23.77-.34-.52-.62-.91-.85-1.32S590.64,286.91,590.94,286.94Zm-2.16-2.72c.08,0,.18.16.23.27a1.2,1.2,0,0,1,0,.35,1.11,1.11,0,0,1-.31-.16C588.48,284.41,588.5,284.23,588.78,284.22Zm-2.54-3.45c.1.13,0,.4,0,.6a.31.31,0,0,1-.53-.16.47.47,0,0,1,0-.33C585.82,280.61,586.06,280.54,586.23,280.77ZM584,278A4.28,4.28,0,0,1,581.2,275,4.21,4.21,0,0,1,584,278Zm-5.62-30.45c.35,0,.49.16.38.46,0,.08-.2.12-.3.18-.34,0-.48-.17-.38-.48C578.13,247.67,578.3,247.6,578.4,247.59Z"/><path class="cls-4" d="M405.39,848.76c-3.17.19-6-.63-9-.87-1.28-.1-2.75.35-3.83-.12a6.38,6.38,0,0,0-4.78-.59c-1.88.54-3.65-.71-4.36-2.68-.32-.9-.88-.83-1.48-.85a15.28,15.28,0,0,1-3.76-.88c-3-.86-6.16-1-8.73-3-4.49.29-8.19-3.36-12.84-2.54-.74.13-1.7-.58-2.45-1.07a7.83,7.83,0,0,0-2.91-1A91,91,0,0,1,337.85,832a10.06,10.06,0,0,0-2.26-.6c-6.34-.64-12.22-3.77-18.75-3.44a3.37,3.37,0,0,1-2.79-1.2,2.47,2.47,0,0,0-1.61-1c-5-.87-9.84-2.43-14.78-3.46-9-1.86-18.09-3.21-27.16-4.71a5,5,0,0,1-2.63-1.33c-2.89-2.46-5.57-1.67-6.76,1.82-1.45,4.22-2.26,8.49-1,12.94a17.11,17.11,0,0,1,.49,3.47c.13,1.73,1,2.67,2.73,2.62,4-.12,7.69,1.19,11.5,2,7.32,1.49,14.38,4.47,22.11,3.54.94-.11,2,.53,3,.86,2.71.91,5.37,2.41,8.13,2.64,5.27.43,10,2.64,12.66,3.35a112,112,0,0,0,20.3,6c1.9.34,3.78.59,5.4,2.16a6.06,6.06,0,0,0,4.75,1.36,6.05,6.05,0,0,1,4.44,1.13,22,22,0,0,0,7.89,3.82,116,116,0,0,1,13.28,4.41c4,1.67,8.67,1.22,12.41,4,1.38,1,3.42,1.1,5.06,2,3.21,1.67,6.49,3.21,9.77,4.73,1.25.58,4.63,0,4.67-.81.09-2.05,1.18-3.62,1.79-5.38a6.39,6.39,0,0,1,1.35-2.74,4.06,4.06,0,0,0,1.2-2.81c.06-3.23.29-6.46.17-9.68C413,852.56,409.81,848.49,405.39,848.76ZM341.09,837c-.29.18-.5.12-.58-.19,0-.08.08-.24.17-.3.28-.21.5-.14.57.18C341.27,836.82,341.14,836.94,341.09,837ZM358,858a4.21,4.21,0,0,1,4,1A4.28,4.28,0,0,1,358,858Zm7.18,2.78a.47.47,0,0,1-.18-.27c-.05-.29.11-.49.38-.39s.22.33.33.5A.31.31,0,0,1,365.15,860.74Zm4.43,1.25c-.36-.08-.44-.25-.21-.41.06,0,.24,0,.34.11a1.2,1.2,0,0,1,.22.27A1.11,1.11,0,0,1,369.57,862Zm3.12,1.28a.32.32,0,0,1,0-.59c.55-.3.92.11,1.24.46.12.13.12.38.23.78C373.55,863.65,373.11,863.48,372.69,863.26Z"/><path class="cls-4" d="M223,630.68c-1-1.93-.9-4-1.31-5.92a6.84,6.84,0,0,1-.27-3.26,4.34,4.34,0,0,0-.44-3.23c-1.72-3-3.28-6.09-5.16-9-2.92-4.49-8.08-6.46-12-3.79-2.8,1.92-5.86,2.71-8.74,4.15-1.23.61-2.32,1.83-3.58,2a6.82,6.82,0,0,0-4.71,2.08c-1.43,1.53-3.74,1.35-5.47-.06-.79-.65-1.27-.28-1.82,0a16.36,16.36,0,0,1-3.93,1.26c-3.2.84-6.22,2.42-9.68,2-4,2.73-9.36,1.41-13.17,4.71-.6.52-1.87.4-2.83.36a8.37,8.37,0,0,0-3.25.64,97.28,97.28,0,0,1-14,4.5,10.78,10.78,0,0,0-2.4.69c-6.17,2.89-13.27,3.25-19.09,7.14a3.6,3.6,0,0,1-3.22.43,2.64,2.64,0,0,0-2,0c-5.06,1.94-10.36,3.17-15.46,4.94-9.27,3.23-18.36,7-27.5,10.58a5.36,5.36,0,0,1-3.14.23c-4-.67-6,1.52-5.21,5.38,1,4.67,2.58,9,6.21,12.41a18.27,18.27,0,0,1,2.36,2.92c1.07,1.52,2.39,1.9,3.95.9,3.58-2.29,7.71-3.13,11.63-4.51,7.53-2.65,15.65-3.79,22.22-8.88.8-.62,2.11-.59,3.19-.83,3-.65,6.25-.73,8.91-2,5.07-2.5,10.58-3,13.45-3.87A119.78,119.78,0,0,0,148.49,647c1.93-.73,3.79-1.53,6.14-1a6.48,6.48,0,0,0,5.1-1.36,6.47,6.47,0,0,1,4.69-1.4,23.55,23.55,0,0,0,9.34-.83,124.09,124.09,0,0,1,14.6-3.24c4.62-.68,8.63-3.64,13.57-3.16,1.82.18,3.74-.86,5.71-1,3.86-.23,7.71-.61,11.56-1C220.66,633.82,223.45,631.44,223,630.68Zm-85.23-.5a.42.42,0,0,1,0-.37c.14-.34.38-.4.62-.14.07.07,0,.25,0,.37C138.28,630.36,138,630.42,137.81,630.17ZM165.4,640a4.49,4.49,0,0,1,4.27-1.27A4.58,4.58,0,0,1,165.4,640Zm8.11-1.39a.5.5,0,0,1-.32-.15c-.21-.24-.16-.51.14-.56s.38.18.58.28C174,638.43,173.83,638.59,173.52,638.57Zm4.74-1.28c-.37.12-.54,0-.42-.26,0-.07.24-.1.37-.09a1.28,1.28,0,0,1,.35.12A1.21,1.21,0,0,1,178.26,637.29Zm3.56-.54c-.33,0-.51-.25-.35-.52.34-.58.9-.4,1.39-.26.19.05.32.29.63.59C182.83,636.63,182.32,636.72,181.82,636.74Z"/><path class="cls-4" d="M504.11,407.53a2.56,2.56,0,0,0,1.17-1.56c1.42-5.06,3.52-9.91,5.08-14.9,2.84-9.09,5.17-18.34,7.65-27.55a5.2,5.2,0,0,1,1.64-2.58c2.84-2.73,2.29-5.57-1.18-7.17-4.21-1.93-8.53-3.21-13.26-2.33a17.77,17.77,0,0,1-3.64.15c-1.8,0-2.86.77-3,2.55-.29,4.11-2,7.81-3.21,11.67-2.28,7.4-6.09,14.39-5.92,22.45,0,1-.75,2-1.2,3-1.22,2.7-3,5.29-3.56,8.12-1,5.4-3.75,10-4.75,12.72a116.23,116.23,0,0,0-8.27,20.34c-.55,1.93-1,3.84-2.78,5.35a6.29,6.29,0,0,0-1.89,4.77A6.28,6.28,0,0,1,465.4,447a22.85,22.85,0,0,0-4.75,7.75A120.42,120.42,0,0,1,454.74,468c-2.14,4-2.15,8.83-5.38,12.4-1.19,1.32-1.49,3.41-2.53,5-2,3.14-4,6.37-5.89,9.6-.73,1.23-.48,4.78.35,4.9,2.11.31,3.61,1.59,5.37,2.4a6.64,6.64,0,0,1,2.69,1.67,4.21,4.21,0,0,0,2.77,1.52c3.33.39,6.64,1,10,1.16,5.19.32,9.71-2.56,9.88-7.15.12-3.29,1.27-6.14,1.82-9.21.23-1.31-.08-2.87.52-3.94a6.61,6.61,0,0,0,1.1-4.87c-.36-2,1.11-3.7,3.21-4.22,1-.24.95-.83,1-1.44a15.85,15.85,0,0,1,1.29-3.79c1.2-3,1.71-6.25,4-8.7.16-4.66,4.31-8.11,3.94-13-.06-.77.77-1.69,1.35-2.42a8.12,8.12,0,0,0,1.38-2.9,94.44,94.44,0,0,1,4.59-13.52,10.44,10.44,0,0,0,.85-2.27c1.31-6.48,5.14-12.22,5.47-19A3.49,3.49,0,0,1,504.11,407.53Zm-43.72,58c-.15.11-.41.08-.82.15.32-.56.54-1,.81-1.41a.33.33,0,0,1,.61,0C461.25,464.93,460.79,465.27,460.4,465.57Zm1.92-4.18a1.24,1.24,0,0,1-.3.2,1.16,1.16,0,0,1,0-.37c.12-.36.31-.43.44-.18C462.5,461.11,462.4,461.29,462.32,461.38Zm1.55-4a.33.33,0,0,1-.11-.56.49.49,0,0,1,.3-.16c.31,0,.49.16.36.43S464.06,457.25,463.87,457.35Zm2-3.63a4.44,4.44,0,0,1,1.48-4.06A4.36,4.36,0,0,1,465.88,453.71ZM491,434.57c-.09,0-.2-.13-.31-.2-.15-.31-.07-.53.26-.57.09,0,.24.11.29.2C491.43,434.32,491.33,434.54,491,434.57Z"/><path class="cls-4" d="M286.51,240.69c-2.43-3.25-5.4-3.06-7.48.28-2.52,4.06-4.38,8.31-4.09,13.25a18.33,18.33,0,0,1-.31,3.73c-.28,1.83.41,3,2.22,3.38,4.16.82,7.72,3.07,11.51,4.78,7.27,3.29,13.92,8.08,22.18,8.95,1,.11,1.93,1,2.88,1.6,2.61,1.59,5,3.79,7.84,4.69,5.39,1.7,9.74,5.12,12.39,6.5a119.73,119.73,0,0,0,19.72,11.07c1.9.81,3.79,1.51,5.11,3.53A6.48,6.48,0,0,0,363.1,305a6.46,6.46,0,0,1,4.35,2.24,23.54,23.54,0,0,0,7.31,5.86,124,124,0,0,1,12.78,7.75c3.8,2.7,8.74,3.34,12,7.1,1.2,1.39,3.3,2,4.8,3.24,2.95,2.5,6,4.89,9,7.26,1.17.9,4.83,1.1,5.06.27.58-2.11,2.09-3.49,3.15-5.18a6.84,6.84,0,0,1,2.06-2.54,4.33,4.33,0,0,0,1.92-2.64c.83-3.35,1.84-6.66,2.48-10,1-5.26-1.37-10.25-6-11-3.34-.55-6.11-2.09-9.17-3-1.31-.41-2.94-.29-4-1a6.81,6.81,0,0,0-4.84-1.75c-2.09.12-3.63-1.61-3.9-3.83-.12-1-.72-1.07-1.34-1.24a16.34,16.34,0,0,1-3.71-1.81c-2.89-1.61-6.16-2.55-8.37-5.25-4.75-.76-7.73-5.45-12.77-5.7-.8,0-1.63-1-2.29-1.69a8.36,8.36,0,0,0-2.78-1.79,97.27,97.27,0,0,1-13.22-6.43,10.73,10.73,0,0,0-2.21-1.16c-6.45-2.18-11.83-6.83-18.71-8a3.6,3.6,0,0,1-2.62-1.92,2.64,2.64,0,0,0-1.44-1.4c-5-2.1-9.67-4.87-14.57-7.12-8.92-4.08-18.08-7.65-27.17-11.37A5.35,5.35,0,0,1,286.51,240.69ZM384.59,314c.64-.18.93.33,1.18.77.1.17,0,.43.05.86-.53-.4-1-.68-1.34-1S384.28,314.06,384.59,314ZM381.42,312c.08,0,.24.1.33.19a1.29,1.29,0,0,1,.17.33,1.2,1.2,0,0,1-.37,0C381.19,312.35,381.14,312.16,381.42,312Zm-3.82-2.52c.14.1.15.39.23.6a.34.34,0,0,1-.59,0,.5.5,0,0,1-.12-.33C377.12,309.52,377.34,309.36,377.59,309.53Zm-3.23-1.92a4.57,4.57,0,0,1-4-2A4.49,4.49,0,0,1,374.37,307.61ZM357.5,279.15c.34-.15.55,0,.55.33,0,.1-.16.19-.24.29-.34.12-.55,0-.55-.34C357.25,279.33,357.39,279.2,357.5,279.15Z"/><path class="cls-4" d="M211.94,887.74c-.89-1-2.34-1.81-2.79-3a6.81,6.81,0,0,0-3.16-4.06c-1.83-1-2.22-3.3-1.26-5.32.44-.92,0-1.29-.47-1.76a16.33,16.33,0,0,1-2.17-3.51c-1.59-2.9-3.86-5.45-4.28-8.9-3.61-3.18-3.64-8.74-7.76-11.63-.65-.46-.84-1.72-1-2.66a8.37,8.37,0,0,0-1.4-3,97.23,97.23,0,0,1-7.76-12.49,10.74,10.74,0,0,0-1.25-2.16c-4.3-5.28-6.37-12.08-11.54-16.78a3.6,3.6,0,0,1-1.2-3,2.64,2.64,0,0,0-.47-2c-3.11-4.44-5.58-9.28-8.54-13.79-5.38-8.21-11.22-16.11-16.92-24.1a5.35,5.35,0,0,1-1-3c-.32-4-2.94-5.47-6.48-3.74-4.29,2.09-8.13,4.69-10.53,9a18.3,18.3,0,0,1-2.26,3c-1.21,1.4-1.26,2.78.08,4,3.08,2.92,4.9,6.71,7.19,10.18,4.39,6.66,7.47,14.25,14,19.39.79.62,1.09,1.9,1.58,2.89,1.36,2.74,2.22,5.88,4.14,8.14,3.65,4.31,5.51,9.53,7,12.1a119.75,119.75,0,0,0,10.78,19.88c1.17,1.7,2.4,3.3,2.44,5.71a6.48,6.48,0,0,0,2.56,4.62A6.46,6.46,0,0,1,172,866.1,23.55,23.55,0,0,0,175,875a124,124,0,0,1,6.68,13.37c1.78,4.32,5.62,7.48,6.35,12.39.27,1.81,1.74,3.41,2.34,5.3,1.16,3.69,2.46,7.33,3.79,11,.51,1.38,3.49,3.51,4.13,2.92,1.62-1.48,3.63-1.83,5.42-2.71a6.83,6.83,0,0,1,3.09-1,4.33,4.33,0,0,0,3-1.21c2.49-2.39,5.11-4.66,7.45-7.18,3.64-3.92,4.31-9.4.77-12.54C215.55,893,214,890.19,211.94,887.74Zm-36.6-21.48a4.49,4.49,0,0,1,2.26,3.84A4.57,4.57,0,0,1,175.34,866.27Zm2.81-29.13a.43.43,0,0,1,.35-.1c.37.05.48.27.29.57-.05.08-.23.08-.36.12C178.09,837.64,178,837.43,178.15,837.14Zm1,36.94a.34.34,0,0,1-.52-.28.5.5,0,0,1,.07-.34c.18-.26.45-.28.58,0S179.23,873.86,179.18,874.08Zm2.16,4.25a1.18,1.18,0,0,1-.29-.24c-.21-.33-.14-.52.15-.47.08,0,.15.21.18.34A1.3,1.3,0,0,1,181.35,878.32Zm2.11,3.89c0,.19-.2.38-.42.76-.24-.62-.45-1.09-.59-1.57-.09-.32.11-.56.42-.47C183.5,881.12,183.47,881.71,183.45,882.22Z"/><path class="cls-4" d="M902.46,278c1.74-1.24,3.45-2.29,4.95-3.54,5.72-4.79,11.35-9.66,17.07-14.46a3.7,3.7,0,0,0,1.42-3.48c0-4.13-1.87-7.33-3.25-10.78-1-2.6-3.55-3.79-6.46-4.74-2.51-.82-4.63-.11-7.45,1.84-7.15,5-13,11.1-20.13,16.12-6.3,4.45-11.84,9.83-18.41,14a57.32,57.32,0,0,0-11.87,9.59c-1.91,2.07-4,4.75-6.36,5.77-7,3.1-12.66,8.33-19.36,12a102.39,102.39,0,0,0-17.2,11.56c-3.32,2.83-6.65,5.85-9.75,8.71-5.79,5.34-12.61,8.78-18.88,13.12-4.72,3.27-7.62,7.18-5.91,10.39a35.27,35.27,0,0,0,9.05,11.18c3.23,2.57,8.67.39,13.31,0,3.39-.3,4.41-2.51,6.16-4.35a9.09,9.09,0,0,1,1.94-1.36c7.89-4.68,14.78-10.67,22.39-15.73,3.62-2.41,6.78-5.48,10.3-8.08,4.66-3.44,7.62-8.16,12.7-11.26,2.21-1.35,4-3.21,5.94-4.77,4-3.14,7.38-6.68,11.49-9.76,5.35-4,10.93-7.77,16.08-12.13C894.2,284.39,897.3,280,902.46,278Z"/><path class="cls-4" d="M851.73,835.76c-2.55-2.16-5.51-2.67-8.37-3.62-2.15-.71-4.2.22-6.31,1.52-1.82,1.13-2.49,2.81-2.75,5.57-.66,7,.06,13.86-.55,20.88-.54,6.22-.1,12.47-1,18.7a46.42,46.42,0,0,0-.27,12.35c.29,2.27.83,5,.25,7-1.76,6-1.46,12.18-2.69,18.25A82.94,82.94,0,0,0,828.23,933c0,3.54.15,7.17.29,10.58.28,6.37-1.16,12.39-1.74,18.54-.44,4.63.46,8.47,3.34,9.08a28.58,28.58,0,0,0,11.65.24c3.28-.66,4.77-5.16,6.94-8.25,1.58-2.25.75-4,.53-6.08a7.36,7.36,0,0,1,.17-1.91c1.23-7.33,1.12-14.72,2-22.07.4-3.5.15-7.06.39-10.6.31-4.68-1.07-9-.33-13.74a50.3,50.3,0,0,0,.15-6.17c.13-4.1-.28-8.06,0-12.21.31-5.41.91-10.83.9-16.28,0-4.21-1.1-8.42.34-12.67.14-1.72.39-3.33.39-4.91,0-6,0-12.07,0-18.12A3,3,0,0,0,851.73,835.76Z"/><path class="cls-4" d="M404.2,940.07c9,0,15.88,4.7,16.3,12.64H408.41c-.28-2.76-1.93-3.45-4.9-3.45s-4.63,1-4.63,2.83c0,5.94,21.75,1.45,21.75,15.19,0,7.32-7,12.22-16.16,12.22s-16.37-3.94-17-12.71h12.09c.35,2.62,2.21,3.52,5,3.52s4.77-1.45,4.77-3.31c0-6.08-21.75-1.59-21.75-14.92C387.56,945.66,393.15,940.07,404.2,940.07Z"/><path class="cls-4" d="M433.24,950.08a5.82,5.82,0,0,1,5.66,3.45h7.41v-9.09c-3.33-2.89-7.85-4.38-13.08-4.38-11.12,0-19.2,7.53-19.2,19.68s8.08,19.75,19.2,19.75a19.37,19.37,0,0,0,13.08-4.63V966H438.9c-1.31,2.56-2.69,3.45-5.66,3.45-4.83,0-7.18-4.07-7.18-9.67S428.4,950.08,433.24,950.08Z"/><path class="cls-4" d="M458,979.5H446.16V940.72H458v7.18c2.49-4.56,6.28-7.6,11-7.6v12h-2.9c-5.18,0-8.15,2-8.15,8.7Z"/><path class="cls-4" d="M467.48,931.71a6.91,6.91,0,1,1,6.91,6.91A6.85,6.85,0,0,1,467.48,931.71Zm1,8.6h11.81l0,39.19H468.52Z"/><path class="cls-4" d="M505.51,940.5c-5.11,0-8.84,2-11.33,5.46V928.35H482.38V979.5h11.81v-5.21c2.56,3.73,6.22,5.21,11.33,5.21a16.3,16.3,0,0,0,9.86-2.77v-33A16.56,16.56,0,0,0,505.51,940.5Zm-2.9,29.21c-4,0-8.43-3-8.43-9.53s4.42-9.46,8.43-9.46,8.43,3,8.43,9.53S506.62,969.71,502.61,969.71Z"/><path class="cls-4" d="M551.46,928.44h11.81V979.5H551.46Z"/><path class="cls-4" d="M576.62,979.5H564.81V941h11.81v7.18c2.49-4.56,6.29-7.6,11-7.6v12h-2.9c-5.18,0-8.15,2-8.15,8.7Z"/><path class="cls-4" d="M540,940.5c-5.11,0-8.84,2-11.33,5.46V928.35H516.91V979.5h11.81v-5.21c2.56,3.73,6.22,5.21,11.33,5.21a16.3,16.3,0,0,0,9.86-2.77v-33A16.56,16.56,0,0,0,540,940.5Zm-2.9,29.21c-4,0-8.43-3-8.43-9.53s4.42-9.46,8.43-9.46,8.43,3,8.43,9.53S541.15,969.71,537.15,969.71Z"/><path class="cls-4" d="M604.42,936.72h3.15a1.34,1.34,0,0,1,1.35,1.35v.45a3.6,3.6,0,0,1-3.6,3.6h-.9a.91.91,0,0,0-.9.9v1.8a.91.91,0,0,0,.9.9h.9a7,7,0,0,0,2.79-.57,7.13,7.13,0,0,0,3.84-3.84,7,7,0,0,0,.57-2.79v-9.89a2.69,2.69,0,0,0-2.7-2.7h-5.4a2.69,2.69,0,0,0-2.7,2.7V934a2.69,2.69,0,0,0,2.7,2.7Z"/><path class="cls-4" d="M589.92,935.93a2.6,2.6,0,0,0,1.91.79H595a1.34,1.34,0,0,1,1.35,1.35v.45a3.6,3.6,0,0,1-3.6,3.6h-.9a.91.91,0,0,0-.9.9v1.8a.91.91,0,0,0,.9.9h.9a7,7,0,0,0,2.79-.57,7.13,7.13,0,0,0,3.84-3.84,7,7,0,0,0,.57-2.79v-9.89a2.69,2.69,0,0,0-2.7-2.7h-5.4a2.69,2.69,0,0,0-2.7,2.7V934A2.6,2.6,0,0,0,589.92,935.93Z"/></svg>