<?xml version="1.0" encoding="utf-8"?>
<!-- Generator: Adobe Illustrator 21.0.2, SVG Export Plug-In . SVG Version: 6.00 Build 0)  -->
<svg version="1.1" id="Layer_1" xmlns="http://www.w3.org/2000/svg" xmlns:xlink="http://www.w3.org/1999/xlink" x="0px" y="0px"
	 viewBox="0 0 512 512" style="enable-background:new 0 0 512 512;" xml:space="preserve">
<style type="text/css">
	.st0{opacity:0.52;fill:#B1CCF2;}
	.st1{display:none;fill:#395784;}
	.st2{fill:#4B7AB2;}
	.st3{fill:#5E94E5;}
	.st4{opacity:0.2;enable-background:new    ;}
	.st5{fill:#4A5058;}
	.st6{fill:#F4B759;}
	.st7{fill:#5485CC;}
	.st8{fill:#F8ECC8;}
	.st9{opacity:0.1;enable-background:new    ;}
	.st10{fill:#EDBCB9;}
	.st11{display:none;fill:#4A5058;}
	.st12{fill:#B1CCF2;}
	.st13{opacity:0.55;enable-background:new    ;}
</style>
<ellipse class="st0" cx="249.7" cy="470" rx="239.7" ry="14"/>
<path class="st1" d="M173.6,437h-4.9v-82.9h-43.9v102.6c0,7.6,6.2,13.8,13.8,13.8h52.9c4.3,0,7.8-3.5,7.8-7.8l0,0
	C199.3,448.5,187.8,437,173.6,437z"/>
<path class="st2" d="M175.6,437h-4.9v-82.9h-43.9v102.6c0,7.6,6.2,13.8,13.8,13.8h52.9c4.3,0,7.8-3.5,7.8-7.8l0,0
	C201.3,448.5,189.8,437,175.6,437z"/>
<path class="st3" d="M116.5,327.1C52.3,327.1,0,274.8,0,210.6v-27.7C0,173,8,165,17.9,165s17.9,8,17.9,17.9v27.7
	c0,44.4,36.2,80.6,80.6,80.6c9.9,0,17.9,8,17.9,17.9C134.4,319.1,126.4,327.1,116.5,327.1z"/>
<path class="st4" d="M116.5,291.2c-11.5,0-22.4-2.4-32.3-6.8c-8.9,8.3-16.2,18.4-21.4,29.5c16.1,8.4,34.3,13.1,53.7,13.1
	c9.9,0,17.9-8,17.9-17.9C134.4,299.3,126.4,291.2,116.5,291.2z"/>
<g>
	<path class="st5" d="M16.4,224.9l-14.9,4.6c0.9,5.5,2.2,10.8,3.8,16l15.9-4.9c4.3-1.3,6.8-5.9,5.4-10.2
		C25.3,226,20.8,223.5,16.4,224.9z M60.7,285.8c-3.2-3.2-8.4-3.2-11.6,0l-11,10.9c4.1,3.7,8.4,7.1,13,10.2l9.6-9.5
		C63.9,294.2,63.9,289,60.7,285.8z M52.1,259.1c-3.3-4.4-6.1-9-8.5-14l-12.1,7c-3.9,2.3-5.2,7.3-3,11.2c1.5,2.6,4.3,4.1,7.1,4.1
		c1.4,0,2.8-0.4,4.1-1.1L52.1,259.1z"/>
	<path class="st5" d="M17.9,164.9c-9.9,0-17.9,8-17.9,17.9v23.5h35.9v-23.5C35.9,172.9,27.9,164.9,17.9,164.9z"/>
</g>
<path class="st6" d="M314.3,437h-4.9v-82.9h-43.9v102.6c0,7.6,6.2,13.8,13.8,13.8h52.9c4.3,0,7.8-3.5,7.8-7.8l0,0
	C340,448.5,328.5,437,314.3,437z"/>
<path class="st7" d="M314.3,437h-4.9v-82.9h-43.9v102.6c0,7.6,6.2,13.8,13.8,13.8h52.9c4.3,0,7.8-3.5,7.8-7.8l0,0
	C340,448.5,328.5,437,314.3,437z"/>
<path class="st5" d="M280,413.9h-14.6v16.4H280c4.5,0,8.2-3.7,8.2-8.2S284.6,413.9,280,413.9z M295.6,390.3c-4.5,0-8.2,3.7-8.2,8.2
	s3.7,8.2,8.2,8.2h13.7v-16.4L295.6,390.3L295.6,390.3z"/>
<path class="st3" d="M165.3,258.6c-52.8,0-95.6,42.8-95.6,95.6l0,0v102.6c0,7.6,6.2,13.8,13.8,13.8h52.9c4.3,0,7.8-3.5,7.8-7.8l0,0
	c0-14.2-11.5-25.7-25.7-25.7h-4.9v-31.7c2.6,0.4,5.2,0.6,7.9,0.6h129.1c35,0,63.3-28.4,63.3-63.3v-84L165.3,258.6L165.3,258.6z"/>
<path class="st5" d="M109.3,316.9c0,4.5,3.7,8.2,8.2,8.2s8.2-3.7,8.2-8.2v-50.2c-5.8,2.6-11.3,5.9-16.4,9.6L109.3,316.9L109.3,316.9
	z M92.9,412.4c-4.5,0-8.2,3.7-8.2,8.2s3.7,8.2,8.2,8.2h20.7l0,0v-16.4l0,0L92.9,412.4L92.9,412.4z M92.9,398.2
	c0-4.5-3.7-8.2-8.2-8.2H69.8v16.4h14.9C89.2,406.4,92.9,402.8,92.9,398.2z M101.1,359c0-4.5-3.7-8.2-8.2-8.2H69.8c0,0.9,0,1.9,0,2.8
	l0,0v13.6H93C97.5,367.2,101.1,363.6,101.1,359z M225.7,258.1v73.7c0,4.5,3.7,8.2,8.2,8.2s8.2-3.7,8.2-8.2v-73.7L225.7,258.1
	L225.7,258.1z M144.3,317.3c-4.5,0-8.2,3.7-8.2,8.2v16.4c0,4.5,3.7,8.2,8.2,8.2s8.2-3.7,8.2-8.2v-16.4
	C152.5,321,148.8,317.3,144.3,317.3z M175.2,346.4c0,4.5,3.7,8.2,8.2,8.2s8.2-3.7,8.2-8.2v-88.3h-16.4V346.4L175.2,346.4z"/>
<path class="st8" d="M256.6,263v82c0,12-9.7,21.7-21.7,21.7h-65.7c-21.6,0-39.2,17.5-39.2,39.2l0,0h120.6c35,0,63.3-28.4,63.3-63.3
	V263H256.6L256.6,263z"/>
<path class="st3" d="M233,437h-4.9v-73h-43.9v92.7c0,7.6,6.2,13.8,13.8,13.8h52.9c4.3,0,7.8-3.5,7.8-7.8l0,0
	C258.7,448.5,247.2,437,233,437z"/>
<path class="st5" d="M211.8,384.5c0-4.5-3.7-8.2-8.2-8.2h-19.5v16.4h19.5C208.2,392.7,211.8,389.1,211.8,384.5z M215.4,411.8
	c-4.5,0-8.2,3.7-8.2,8.2s3.7,8.2,8.2,8.2H228v-16.4L215.4,411.8L215.4,411.8z"/>
<path class="st9" d="M165.3,258.6c-11.4,0-22.3,2-32.4,5.6c-5.3,6.2-10,13.1-14,20.8c-2,3.8,1.3,8.2,5.5,7.3
	c15.1-3.3,31-2.4,41.5,1.2c4,1.4,5.5,6.3,2.8,9.5c-12.3,15-14.4,26-12.7,35.2c0.7,3.7,4.9,5.4,8,3.2c18.1-13.3,54-19.6,78.9-11.2
	l0,0c26.2,10.2,52.1,16.1,70.9,16.1c0.1-1.2,0.1-2.4,0.1-3.6v-84L165.3,258.6L165.3,258.6z"/>
<circle class="st5" cx="187.7" cy="89.4" r="48"/>
<circle class="st10" cx="187.7" cy="89.4" r="21.7"/>
<circle class="st5" cx="444.8" cy="89.4" r="48"/>
<circle class="st10" cx="444.8" cy="89.4" r="21.7"/>
<path class="st3" d="M316.2,54.1c52.9,0,135.6,37.6,175.2,127.5c35.3,80.3-110.7,148.1-175.2,148.1S105.7,261.9,141,181.6
	C180.6,91.7,263.3,54.1,316.2,54.1z"/>
<g>
	<path class="st11" d="M381.8,164.9c-4.5,0-8.2-3.7-8.2-8.2v-12.2c0-4.5,3.7-8.2,8.2-8.2s8.2,3.7,8.2,8.2v12.2
		C390,161.2,386.4,164.9,381.8,164.9z"/>
	<path class="st5" d="M263.4,161.4c-4.5,0-8.2-3.7-8.2-8.2c0-3.6-2.9-6.6-6.6-6.6c-3.6,0-6.6,2.9-6.6,6.6c0,4.5-3.7,8.2-8.2,8.2
		s-8.2-3.7-8.2-8.2c0-12.7,10.3-23,23-23s23,10.3,23,23C271.5,157.7,267.9,161.4,263.4,161.4z"/>
</g>
<path class="st5" d="M396.6,161.4c-4.5,0-8.2-3.7-8.2-8.2c0-3.6-3-6.6-6.6-6.6s-6.6,2.9-6.6,6.6c0,4.5-3.7,8.2-8.2,8.2
	s-8.2-3.7-8.2-8.2c0-12.7,10.3-23,23-23s23,10.3,23,23C404.8,157.7,401.1,161.4,396.6,161.4z"/>
<path class="st12" d="M505.9,275.8c4.2,0.9,7.5-3.5,5.5-7.3C469.6,189,353.9,192,341.6,192h-50.8c-12.3,0-128-3.1-169.8,76.5
	c-2,3.8,1.3,8.2,5.5,7.3c15.1-3.3,31-2.4,41.5,1.2c4,1.4,5.5,6.3,2.8,9.5c-12.3,15-14.4,26-12.7,35.2c0.7,3.7,4.9,5.4,8,3.2
	c18.1-13.3,54-19.6,78.9-11.2l0,0c26.3,10.3,52.2,16.1,71.1,16.1s44.8-5.8,71.1-16.1l0,0c24.9-8.3,60.9-2,78.9,11.2
	c3,2.2,7.3,0.5,8-3.2c1.7-9.2-0.4-20.1-12.7-35.2c-2.7-3.3-1.2-8.2,2.8-9.5C474.9,273.3,490.7,272.4,505.9,275.8z"/>
<path class="st13" d="M357.3,236c-4.5,0-8.2,3.7-8.2,8.2c0,6.8-5.5,12.3-12.3,12.3s-12.3-5.5-12.3-12.3v-24.3H308v24.3
	c0,6.8-5.5,12.3-12.3,12.3s-12.3-5.5-12.3-12.3c0-4.5-3.7-8.2-8.2-8.2s-8.2,3.7-8.2,8.2c0,15.8,12.9,28.7,28.7,28.7
	c8,0,15.3-3.3,20.5-8.6c5.2,5.3,12.5,8.6,20.5,8.6c15.8,0,28.7-12.9,28.7-28.7C365.4,239.7,361.8,236,357.3,236z"/>
<path class="st12" d="M356.8,197.9l-28.6-81c-4-11.3-20-11.3-24,0l-28.6,81H356.8z"/>
<g>
	<path class="st5" d="M355.2,206.1l-9.1,10.8c-15.6,18.6-44.2,18.6-59.8,0l-9.1-10.8c-4.7-5.6-0.7-14.1,6.6-14.1h64.9
		C356,192,359.9,200.5,355.2,206.1z"/>
	<path class="st5" d="M272.1,75.4c0,4.5,3.7,8.2,8.2,8.2s8.2-3.7,8.2-8.2V57.1c-5.3,1.1-10.8,2.5-16.4,4.3L272.1,75.4L272.1,75.4z
		 M448,145.6h23.6c-3.9-5.8-8-11.2-12.2-16.4H448c-4.5,0-8.2,3.7-8.2,8.2C439.8,141.9,443.5,145.6,448,145.6z M192.6,137.4
		c0-4.5-3.7-8.2-8.2-8.2H173c-4.2,5.2-8.3,10.6-12.2,16.4h23.6C189,145.6,192.6,141.9,192.6,137.4z M195.9,167.6h-48.1
		c-2.4,4.5-4.6,9.2-6.7,14c-0.3,0.8-0.7,1.6-1,2.4h55.8c4.5,0,8.2-3.7,8.2-8.2C204.1,171.2,200.4,167.6,195.9,167.6z M491.4,181.6
		c-2.1-4.8-4.4-9.5-6.7-14h-48.1c-4.5,0-8.2,3.7-8.2,8.2s3.7,8.2,8.2,8.2h55.8C492.1,183.2,491.8,182.4,491.4,181.6z M344,75.4
		c0,4.5,3.7,8.2,8.2,8.2s8.2-3.7,8.2-8.2v-14c-5.6-1.7-11-3.1-16.4-4.3L344,75.4L344,75.4z M308,54.3v29.1c0,4.5,3.7,8.2,8.2,8.2
		s8.2-3.7,8.2-8.2V54.3c-2.8-0.2-5.5-0.3-8.2-0.3C313.6,54.1,310.8,54.2,308,54.3z"/>
</g>
</svg>
