<?xml version="1.0" encoding="utf-8"?>
<!-- Generator: Adobe Illustrator 21.0.2, SVG Export Plug-In . SVG Version: 6.00 Build 0)  -->
<svg version="1.1" id="Layer_1" xmlns="http://www.w3.org/2000/svg" xmlns:xlink="http://www.w3.org/1999/xlink" x="0px" y="0px"
	 viewBox="0 0 391.5 288.2" style="enable-background:new 0 0 391.5 288.2;" xml:space="preserve">
<style type="text/css">
	.st0{fill:#4A5058;}
	.st1{fill:#EDBCB9;}
	.st2{fill:#5E94E5;}
	.st3{display:none;fill:#4A5058;}
	.st4{fill:#B1CCF2;}
	.st5{opacity:0.55;enable-background:new    ;}
</style>
<circle class="st0" cx="67.2" cy="48" r="48"/>
<circle class="st1" cx="67.2" cy="48" r="21.7"/>
<circle class="st0" cx="324.3" cy="48" r="48"/>
<circle class="st1" cx="324.3" cy="48" r="21.7"/>
<path class="st2" d="M195.8,12.6c52.9,0,135.6,37.6,175.2,127.5c35.3,80.3-110.7,148.1-175.2,148.1S-14.7,220.4,20.6,140.1
	C60.1,50.2,142.8,12.6,195.8,12.6z"/>
<g>
	<path class="st3" d="M261.4,123.5c-4.5,0-8.2-3.7-8.2-8.2v-12.2c0-4.5,3.7-8.2,8.2-8.2s8.2,3.7,8.2,8.2v12.2
		C269.5,119.8,265.9,123.5,261.4,123.5z"/>
	<path class="st3" d="M142.9,119.9c-4.5,0-8.2-3.7-8.2-8.2c0-3.6-2.9-6.6-6.6-6.6c-3.6,0-6.6,2.9-6.6,6.6c0,4.5-3.7,8.2-8.2,8.2
		s-8.2-3.7-8.2-8.2c0-12.7,10.3-23,23-23s23,10.3,23,23C151.1,116.3,147.4,119.9,142.9,119.9z"/>
</g>
<path class="st0" d="M128.1,123.5c-4.5,0-8.2-3.7-8.2-8.2v-12.2c0-4.5,3.7-8.2,8.2-8.2s8.2,3.7,8.2,8.2v12.2
	C136.3,119.8,132.6,123.5,128.1,123.5z"/>
<path class="st0" d="M276.1,119.9c-4.5,0-8.2-3.7-8.2-8.2c0-3.6-2.9-6.6-6.6-6.6c-3.6,0-6.6,2.9-6.6,6.6c0,4.5-3.7,8.2-8.2,8.2
	s-8.2-3.7-8.2-8.2c0-12.7,10.3-23,23-23c12.7,0,23,10.3,23,23C284.3,116.3,280.6,119.9,276.1,119.9z"/>
<path class="st4" d="M385.4,234.3c4.2,0.9,7.5-3.5,5.5-7.3c-41.8-79.5-157.5-76.5-169.8-76.5h-50.8c-12.3,0-128-3.1-169.8,76.5
	c-2,3.8,1.3,8.2,5.5,7.3c15.1-3.3,31-2.4,41.5,1.2c4,1.4,5.5,6.3,2.8,9.5c-12.3,15-14.4,26-12.7,35.2c0.7,3.7,4.9,5.4,8,3.2
	c18.1-13.3,54-19.6,78.9-11.2l0,0c26.3,10.3,52.2,16.1,71.1,16.1s44.8-5.8,71.1-16.1l0,0c24.9-8.3,60.9-2,78.9,11.2
	c3,2.2,7.3,0.5,8-3.2c1.7-9.2-0.4-20.1-12.7-35.2c-2.7-3.3-1.2-8.2,2.8-9.5C354.4,231.9,370.3,231,385.4,234.3z"/>
<path class="st5" d="M236.8,194.6c-4.5,0-8.2,3.7-8.2,8.2c0,6.8-5.5,12.3-12.3,12.3s-12.3-5.5-12.3-12.3v-24.3h-16.4v24.3
	c0,6.8-5.5,12.3-12.3,12.3s-12.3-5.5-12.3-12.3c0-4.5-3.7-8.2-8.2-8.2s-8.2,3.7-8.2,8.2c0,15.8,12.9,28.7,28.7,28.7
	c8,0,15.3-3.3,20.5-8.6c5.2,5.3,12.5,8.6,20.5,8.6c15.8,0,28.7-12.9,28.7-28.7C245,198.3,241.3,194.6,236.8,194.6z"/>
<path class="st4" d="M236.3,156.5l-28.6-81c-4-11.3-20-11.3-24,0l-28.6,81H236.3z"/>
<g>
	<path class="st0" d="M234.8,164.7l-9.1,10.8c-15.6,18.6-44.2,18.6-59.8,0l-9.1-10.8c-4.7-5.6-0.7-14.1,6.6-14.1h64.9
		C235.5,150.6,239.4,159.1,234.8,164.7z"/>
	<path class="st0" d="M151.6,33.9c0,4.5,3.7,8.2,8.2,8.2s8.2-3.7,8.2-8.2V15.6c-5.3,1.1-10.8,2.5-16.4,4.3V33.9L151.6,33.9z
		 M327.6,104.1h23.6c-3.9-5.8-8-11.2-12.2-16.4h-11.4c-4.5,0-8.2,3.7-8.2,8.2C319.4,100.5,323,104.1,327.6,104.1z M72.2,95.9
		c0-4.5-3.7-8.2-8.2-8.2H52.6c-4.2,5.2-8.3,10.6-12.2,16.4H64C68.5,104.1,72.2,100.5,72.2,95.9z M75.4,126.1H27.3
		c-2.4,4.5-4.6,9.2-6.7,14c-0.3,0.8-0.7,1.6-1,2.4h55.8c4.5,0,8.2-3.7,8.2-8.2C83.6,129.8,80,126.1,75.4,126.1z M370.9,140.1
		c-2.1-4.8-4.4-9.5-6.7-14h-48.1c-4.5,0-8.2,3.7-8.2,8.2s3.7,8.2,8.2,8.2h55.8C371.6,141.7,371.3,140.9,370.9,140.1z M223.5,33.9
		c0,4.5,3.7,8.2,8.2,8.2s8.2-3.7,8.2-8.2v-14c-5.6-1.7-11-3.1-16.4-4.3V33.9L223.5,33.9z M187.6,12.9V42c0,4.5,3.7,8.2,8.2,8.2
		s8.2-3.7,8.2-8.2V12.9c-2.8-0.2-5.5-0.3-8.2-0.3C193.1,12.6,190.4,12.7,187.6,12.9z"/>
</g>
</svg>
