<?xml version="1.0" encoding="utf-8"?>
<!-- Generator: Adobe Illustrator 21.0.2, SVG Export Plug-In . SVG Version: 6.00 Build 0)  -->
<svg version="1.1" id="Layer_1" xmlns="http://www.w3.org/2000/svg" xmlns:xlink="http://www.w3.org/1999/xlink" x="0px" y="0px"
	 viewBox="0 0 564.4 501" style="enable-background:new 0 0 564.4 501;" xml:space="preserve">
<style type="text/css">
	.st0{fill:#4A5058;}
	.st1{fill:#EDBCB9;}
	.st2{fill:#5E94E5;}
	.st3{display:none;fill:#4A5058;}
	.st4{fill:#B1CCF2;}
	.st5{opacity:0.55;enable-background:new    ;}
	.st6{fill:#B74744;}
	.st7{fill:#FFFFFF;}
	.st8{display:none;opacity:0.55;enable-background:new    ;}
	.st9{opacity:0.6;fill:#D2D3D6;}
	.st10{fill:#4C4C4F;}
	.st11{fill:#546A79;}
</style>
<circle class="st0" cx="67.3" cy="260.7" r="48"/>
<circle class="st1" cx="67.3" cy="260.7" r="21.7"/>
<circle class="st0" cx="324.4" cy="260.7" r="48"/>
<circle class="st1" cx="324.4" cy="260.7" r="21.7"/>
<path class="st2" d="M195.9,225.3c52.9,0,135.6,37.6,175.2,127.5c35.3,80.3-110.7,148.1-175.2,148.1S-14.6,433.1,20.7,352.8
	C60.2,262.9,142.9,225.3,195.9,225.3z"/>
<g>
	<path class="st0" d="M261.5,336.2c-4.5,0-8.2-3.7-8.2-8.2v-12.2c0-4.5,3.7-8.2,8.2-8.2s8.2,3.7,8.2,8.2V328
		C269.6,332.5,266,336.2,261.5,336.2z"/>
	<path class="st3" d="M143,332.6c-4.5,0-8.2-3.7-8.2-8.2c0-3.6-2.9-6.6-6.6-6.6c-3.6,0-6.6,2.9-6.6,6.6c0,4.5-3.7,8.2-8.2,8.2
		s-8.2-3.7-8.2-8.2c0-12.7,10.3-23,23-23s23,10.3,23,23C151.2,329,147.5,332.6,143,332.6z"/>
</g>
<path class="st0" d="M128.2,336.2c-4.5,0-8.2-3.7-8.2-8.2v-12.2c0-4.5,3.7-8.2,8.2-8.2s8.2,3.7,8.2,8.2V328
	C136.4,332.5,132.7,336.2,128.2,336.2z"/>
<path class="st3" d="M276.2,332.6c-4.5,0-8.2-3.7-8.2-8.2c0-3.6-2.9-6.6-6.6-6.6c-3.6,0-6.6,2.9-6.6,6.6c0,4.5-3.7,8.2-8.2,8.2
	s-8.2-3.7-8.2-8.2c0-12.7,10.3-23,23-23s23,10.3,23,23C284.4,329,280.7,332.6,276.2,332.6z"/>
<path class="st4" d="M385.5,447c4.2,0.9,7.5-3.5,5.5-7.3c-41.8-79.5-157.5-76.5-169.8-76.5h-50.8c-12.3,0-128-3.1-169.8,76.5
	c-2,3.8,1.3,8.2,5.5,7.3c15.1-3.3,31-2.4,41.5,1.2c4,1.4,5.5,6.3,2.8,9.5c-12.3,15-14.4,26-12.7,35.2c0.7,3.7,4.9,5.4,8,3.2
	c18.1-13.3,54-19.6,78.9-11.2l0,0c26.3,10.3,52.2,16.1,71.1,16.1s44.8-5.8,71.1-16.1l0,0c24.9-8.3,60.9-2,78.9,11.2
	c3,2.2,7.3,0.5,8-3.2c1.7-9.2-0.4-20.1-12.7-35.2c-2.7-3.3-1.2-8.2,2.8-9.5C354.5,444.6,370.4,443.7,385.5,447z"/>
<path class="st5" d="M251.7,444.2c0,13.3-25,24-55.8,24s-55.8-10.8-55.8-24c0-12,20.7-22,47.6-23.7v-24.6h16.4v24.6
	C231,422.2,251.7,432.1,251.7,444.2z"/>
<ellipse class="st6" cx="195.9" cy="444.3" rx="37.9" ry="12.2"/>
<path class="st7" d="M177.6,433.6l-4,6.4l-6.7-3.6C166.9,436.4,170.5,434.9,177.6,433.6z"/>
<path class="st7" d="M225.1,436.5l-6.9,3.5l-4-6.4C214.2,433.6,220,434.5,225.1,436.5z"/>
<path class="st8" d="M236.9,407.3c-4.5,0-8.2,3.7-8.2,8.2c0,6.8-5.5,12.3-12.3,12.3s-12.3-5.5-12.3-12.3v-24.3h-16.4v24.3
	c0,6.8-5.5,12.3-12.3,12.3s-12.3-5.5-12.3-12.3c0-4.5-3.7-8.2-8.2-8.2s-8.2,3.7-8.2,8.2c0,15.8,12.9,28.7,28.7,28.7
	c8,0,15.3-3.3,20.5-8.6c5.2,5.3,12.5,8.6,20.5,8.6c15.8,0,28.7-12.9,28.7-28.7C245.1,411,241.4,407.3,236.9,407.3z"/>
<path class="st4" d="M236.4,369.2l-28.6-81c-4-11.3-20-11.3-24,0l-28.6,81H236.4z"/>
<g>
	<path class="st0" d="M234.9,377.4l-9.1,10.8c-15.6,18.6-44.2,18.6-59.8,0l-9.1-10.8c-4.7-5.6-0.7-14.1,6.6-14.1h64.9
		C235.6,363.3,239.5,371.8,234.9,377.4z"/>
	<path class="st0" d="M151.7,246.6c0,4.5,3.7,8.2,8.2,8.2s8.2-3.7,8.2-8.2v-18.3c-5.3,1.1-10.8,2.5-16.4,4.3V246.6L151.7,246.6z
		 M327.7,316.8h23.6c-3.9-5.8-8-11.2-12.2-16.4h-11.4c-4.5,0-8.2,3.7-8.2,8.2C319.5,313.2,323.1,316.8,327.7,316.8z M72.3,308.6
		c0-4.5-3.7-8.2-8.2-8.2H52.7c-4.2,5.2-8.3,10.6-12.2,16.4h23.6C68.6,316.8,72.3,313.2,72.3,308.6z M75.5,338.8H27.4
		c-2.4,4.5-4.6,9.2-6.7,14c-0.3,0.8-0.7,1.6-1,2.4h55.8c4.5,0,8.2-3.7,8.2-8.2C83.7,342.5,80.1,338.8,75.5,338.8z M371,352.8
		c-2.1-4.8-4.4-9.5-6.7-14h-48.1c-4.5,0-8.2,3.7-8.2,8.2s3.7,8.2,8.2,8.2H372C371.7,354.4,371.4,353.6,371,352.8z M223.6,246.6
		c0,4.5,3.7,8.2,8.2,8.2s8.2-3.7,8.2-8.2v-14c-5.6-1.7-11-3.1-16.4-4.3V246.6L223.6,246.6z M187.7,225.6v29.1c0,4.5,3.7,8.2,8.2,8.2
		s8.2-3.7,8.2-8.2v-29.1c-2.8-0.2-5.5-0.3-8.2-0.3S190.5,225.4,187.7,225.6z"/>
</g>
<path class="st9" d="M564.4,88.8c0-49-51.7-88.8-115.5-88.8S333.4,39.7,333.4,88.8c0,43.8,41.2,80.1,95.4,87.4
	c2.8,17.3-2.4,35.7-15.8,49.1c28.7,0,52.4-21.4,55.9-49.1C523.2,168.9,564.4,132.6,564.4,88.8z"/>
<g>
	<path class="st2" d="M472.7,121.9h-45.5c-5.2,0-9.5-4.3-9.5-9.5V82.3c0-5.2,4.3-9.5,9.5-9.5h45.4c5.2,0,9.5,4.3,9.5,9.5v30
		C482.2,117.6,477.9,121.9,472.7,121.9z"/>
	<path class="st4" d="M472.7,72.7h-22.8v49.2h22.8c5.2,0,9.5-4.3,9.5-9.5V82.3C482.2,77,477.9,72.7,472.7,72.7z"/>
	<path class="st10" d="M449.9,103.5L449.9,103.5c-2.5,0-4.6-2-4.6-4.6v-9.2c0-2.5,2.2-4.6,4.6-4.6l0,0c2.5,0,4.6,2.2,4.6,4.6v9.2
		C454.5,101.5,452.4,103.5,449.9,103.5z"/>
	<path class="st11" d="M427.1,72.7h5.8v-10c0-8,7.5-14.6,16.9-14.6c9.4,0,16.9,6.6,16.9,14.6v10h5.8c0.2,0,0.3,0,0.3,0v-10
		c0-11.4-10.3-20.8-23.1-20.8c-12.8,0-23.1,9.4-23.1,20.8v10C427,72.7,427.1,72.7,427.1,72.7z"/>
</g>
</svg>
