<?xml version="1.0" encoding="utf-8"?>
<!-- Generator: Adobe Illustrator 21.0.2, SVG Export Plug-In . SVG Version: 6.00 Build 0)  -->
<svg version="1.1" id="Capa_1" xmlns="http://www.w3.org/2000/svg" xmlns:xlink="http://www.w3.org/1999/xlink" x="0px" y="0px"
	 viewBox="0 0 52 52" style="enable-background:new 0 0 52 52;" xml:space="preserve">
<style type="text/css">
	.st0{fill:#5E94E5;}
	.st1{fill:#B1CCF2;}
	.st2{fill:#4C4C4F;}
	.st3{fill:#546A79;}
</style>
<path class="st0" d="M40.8,52H11.2C7.8,52,5,49.2,5,45.8V26.2c0-3.4,2.8-6.2,6.2-6.2h29.5c3.4,0,6.2,2.8,6.2,6.2v19.5
	C47,49.2,44.2,52,40.8,52z"/>
<path class="st1" d="M40.8,20H26v32h14.8c3.4,0,6.2-2.8,6.2-6.2V26.2C47,22.8,44.2,20,40.8,20z"/>
<path class="st2" d="M26,40L26,40c-1.6,0-3-1.3-3-3v-6c0-1.6,1.4-3,3-3l0,0c1.6,0,3,1.4,3,3v6C29,38.7,27.6,40,26,40z"/>
<path class="st3" d="M11.2,20H15v-6.5C15,8.3,19.9,4,26,4s11,4.3,11,9.5V20h3.8c0.1,0,0.2,0,0.2,0v-6.5C41,6.1,34.3,0,26,0
	S11,6.1,11,13.5V20C11.1,20,11.2,20,11.2,20z"/>
</svg>
