<svg id="Layer_1" data-name="Layer 1" xmlns="http://www.w3.org/2000/svg" viewBox="0 0 15.35 17.93"><defs><style>.cls-1{fill:#d2d3d6;}</style></defs><title>achievements</title><path class="cls-1" d="M15,1.73a1.3,1.3,0,0,0-1-.46H12.8V.88A.88.88,0,0,0,11.92,0H3.43a.88.88,0,0,0-.88.88v.39H1.3a1.3,1.3,0,0,0-1,.46,1.28,1.28,0,0,0-.29,1A6.71,6.71,0,0,0,3.43,7.56,8.85,8.85,0,0,0,4,8.68,5.23,5.23,0,0,0,6.39,11a1.9,1.9,0,0,1-1.46,2h0a.41.41,0,0,0-.32.4v1.9H3.83a1.25,1.25,0,0,0-1.24,1.24v1a.41.41,0,0,0,.41.41h9.38a.41.41,0,0,0,.41-.41v-1a1.25,1.25,0,0,0-1.24-1.24h-.77v-1.9a.41.41,0,0,0-.32-.4h0a1.89,1.89,0,0,1-1.46-2,5.26,5.26,0,0,0,2.36-2.25,8.86,8.86,0,0,0,.56-1.12,6.71,6.71,0,0,0,3.41-4.79A1.28,1.28,0,0,0,15,1.73ZM.84,2.63a.45.45,0,0,1,.1-.37A.47.47,0,0,1,1.3,2.1H2.55v.76A13,13,0,0,0,3,6.28,5.88,5.88,0,0,1,.84,2.63ZM11.56,16.12a.42.42,0,0,1,.41.41v.57H3.42v-.57a.42.42,0,0,1,.41-.41ZM10,13.8v1.49H5.43V13.8ZM6.52,13a2.75,2.75,0,0,0,.28-.37,2.7,2.7,0,0,0,.43-1.42,3.25,3.25,0,0,0,.93,0A2.73,2.73,0,0,0,8.87,13H6.52ZM12,2.86a10.72,10.72,0,0,1-1.32,5.39,3.67,3.67,0,0,1-3,2.12,3.67,3.67,0,0,1-3-2.12A10.72,10.72,0,0,1,3.38,2.86v-2a0,0,0,0,1,0,0h8.5a0,0,0,0,1,0,0Zm2.54-.23a5.88,5.88,0,0,1-2.16,3.65,13,13,0,0,0,.44-3.42V2.1h1.25a.47.47,0,0,1,.36.17A.45.45,0,0,1,14.52,2.63Z"/></svg>