<svg id="Layer_1" data-name="Layer 1" xmlns="http://www.w3.org/2000/svg" viewBox="0 0 17.76 21.95"><defs><style>.cls-1{fill:#d2d3d6;}</style></defs><title>book-icon</title><path class="cls-1" d="M17,1.54H2.74a.39.39,0,1,0,0,.77H17a.39.39,0,1,0,0-.77Z"/><path class="cls-1" d="M17,3.08H2.74a.39.39,0,0,0,0,.77H17a.39.39,0,1,0,0-.77Z"/><path class="cls-1" d="M17.37,4.62H2.74a1.93,1.93,0,1,1,0-3.85H17.37a.39.39,0,0,0,0-.77H2.74A2.71,2.71,0,0,0,.09,2.08.36.36,0,0,0,0,2.28V19.23A2.76,2.76,0,0,0,2.74,22H15.06a2.69,2.69,0,0,0,2.66-2.72V5A.33.33,0,0,0,17.37,4.62Zm-.42,14.61a1.92,1.92,0,0,1-1.89,2H2.74a2,2,0,0,1-2-2V4.55a3,3,0,0,0,2,.84H16.95V19.23Z"/><path class="cls-1" d="M12.5,10.23h-.82l-.32-.47a.3.3,0,0,0-.25-.13h-2a.3.3,0,0,0-.25.14l-.3.46H5.62a1.66,1.66,0,0,0-1.55,1.64v3.24a1.79,1.79,0,0,0,1.55,1.76H12.5c.84,0,1.22-.89,1.22-1.76V11.87C13.73,10.87,13.25,10.23,12.5,10.23Zm.62,4.88c0,.4-.13,1.16-.62,1.16H5.62c-.49,0-.94-.65-.94-1.16V11.87a1.06,1.06,0,0,1,.94-1H8.71A.3.3,0,0,0,9,10.69l.3-.46H11l.32.47a.3.3,0,0,0,.25.13h1c.57,0,.62.79.62,1v3.24Z"/><path class="cls-1" d="M10.1,11.14a2.11,2.11,0,1,0,2.11,2.11A2.11,2.11,0,0,0,10.1,11.14Zm0,3.62a1.51,1.51,0,1,1,1.51-1.51A1.51,1.51,0,0,1,10.1,14.76Z"/><path class="cls-1" d="M6.18,11.74a.3.3,0,0,0-.3.3v3a.3.3,0,1,0,.6,0V12A.3.3,0,0,0,6.18,11.74Z"/></svg>