<svg id="Layer_1" data-name="Layer 1" xmlns="http://www.w3.org/2000/svg" viewBox="0 0 15.21 15.21"><defs><style>.cls-1{fill:#fff;}</style></defs><title>cog-wheel-icon</title><path class="cls-1" d="M14.43,6l-1.07-.18a6,6,0,0,0-.43-1l.63-.88a.94.94,0,0,0-.1-1.21l-.95-.95a.93.93,0,0,0-.66-.28.92.92,0,0,0-.54.17l-.88.63a6,6,0,0,0-1.07-.44L9.17.78A.94.94,0,0,0,8.25,0H6.91A.94.94,0,0,0,6,.78L5.8,1.87a5.88,5.88,0,0,0-1,.44l-.87-.63a.94.94,0,0,0-1.21.1l-1,.95a.94.94,0,0,0-.1,1.21l.64.89a5.89,5.89,0,0,0-.42,1L.78,6A.94.94,0,0,0,0,7V8.31a.94.94,0,0,0,.78.93l1.08.18a5.88,5.88,0,0,0,.44,1l-.63.87a.94.94,0,0,0,.1,1.21l.95.95a.93.93,0,0,0,.66.28.92.92,0,0,0,.54-.17l.89-.64a6,6,0,0,0,1,.41L6,14.43a.94.94,0,0,0,.93.78H8.27a.94.94,0,0,0,.93-.78l.18-1.07a6,6,0,0,0,1-.43l.88.63a.93.93,0,0,0,.55.17h0a.93.93,0,0,0,.66-.28l.95-.95a.94.94,0,0,0,.1-1.21l-.63-.88a6,6,0,0,0,.43-1l1.07-.18a.94.94,0,0,0,.78-.93V6.94A.93.93,0,0,0,14.43,6ZM6.29,2.61a.44.44,0,0,0,.31-.34L6.83.92A.08.08,0,0,1,6.91.85H8.25a.08.08,0,0,1,.08.07l.22,1.33a.43.43,0,0,0,.32.35,5.16,5.16,0,0,1,1.36.56.43.43,0,0,0,.47,0l1.1-.79,0,0a.09.09,0,0,1,.06,0l.95.95a.09.09,0,0,1,0,.11l-.78,1.1a.43.43,0,0,0,0,.47,5.09,5.09,0,0,1,.55,1.33.42.42,0,0,0,.34.31l1.33.23a.08.08,0,0,1,.07.08V8.27h0a.08.08,0,0,1-.07.08L13,8.58a.43.43,0,0,0-.34.31,5.09,5.09,0,0,1-.55,1.33.43.43,0,0,0,0,.47l.78,1.11a.09.09,0,0,1,0,.11l-.95.95a.08.08,0,0,1-.06,0l0,0-1.1-.78a.43.43,0,0,0-.47,0,5.09,5.09,0,0,1-1.33.55.42.42,0,0,0-.31.34l-.23,1.33a.08.08,0,0,1-.08.07H6.94a.08.08,0,0,1-.08-.07L6.63,13a.43.43,0,0,0-.31-.34A5.28,5.28,0,0,1,5,12.08.44.44,0,0,0,4.8,12a.42.42,0,0,0-.25.08l-1.11.79,0,0a.09.09,0,0,1-.06,0l-.95-.95a.09.09,0,0,1,0-.11l.78-1.1a.44.44,0,0,0,0-.47,5,5,0,0,1-.56-1.33.44.44,0,0,0-.34-.31L.93,8.39a.08.08,0,0,1-.07-.08V7a.08.08,0,0,1,.07-.08l1.33-.22a.43.43,0,0,0,.35-.32A5.08,5.08,0,0,1,3.14,5a.42.42,0,0,0,0-.46L2.33,3.43a.09.09,0,0,1,0-.11l.95-.95a.08.08,0,0,1,.06,0l0,0,1.1.78a.44.44,0,0,0,.47,0Z"/><path class="cls-1" d="M7.61,4.32A3.28,3.28,0,1,0,10.89,7.6,3.28,3.28,0,0,0,7.61,4.32Zm0,5.71A2.42,2.42,0,1,1,10,7.6,2.43,2.43,0,0,1,7.61,10Z"/></svg>