<svg id="Layer_1" data-name="Layer 1" xmlns="http://www.w3.org/2000/svg" viewBox="0 0 17.09 13.01"><defs><style>.cls-1{fill:#FFF;}</style></defs><title>message-icon</title><path class="cls-1" d="M15,0H2.09A2.09,2.09,0,0,0,0,2.09v8.83A2.09,2.09,0,0,0,2.09,13H15a2.09,2.09,0,0,0,2.09-2.09V2.09A2.09,2.09,0,0,0,15,0Zm1.14,10.92A1.14,1.14,0,0,1,15,12.05H2.09A1.14,1.14,0,0,1,1,10.92V2.09A1.14,1.14,0,0,1,2.09,1H15a1.14,1.14,0,0,1,1.14,1.14v8.82Z"/><path class="cls-1" d="M10.78,6.39,15,2.65a.48.48,0,1,0-.64-.71L8.56,7.11l-1.12-1h0L7.35,6,2.77,1.93a.48.48,0,0,0-.64.71L6.36,6.43,2.15,10.37a.48.48,0,0,0,0,.68.49.49,0,0,0,.35.15.48.48,0,0,0,.33-.13l4.28-4,1.16,1a.48.48,0,0,0,.64,0L10.07,7l4.25,4a.48.48,0,0,0,.68,0,.48.48,0,0,0,0-.68Z"/></svg>
