<svg id="Layer_1" data-name="Layer 1" xmlns="http://www.w3.org/2000/svg" viewBox="0 0 488.49 535.56"><defs><style>.cls-1{fill:#d2d3d6;}</style></defs><title>news-icon</title><path class="cls-1" d="M360,80,314.47,11.31a25.33,25.33,0,0,0-43.64,2.49,589.21,589.21,0,0,1-164,197.41c-.53.41-65.92,44.22-65.92,44.22A38.69,38.69,0,0,0,27.79,305L14.33,314a32.11,32.11,0,0,0-9,44.46l39,58.72a32.11,32.11,0,0,0,44.46,9l13.46-8.93a38.73,38.73,0,0,0,36,13.06l135.62,100.4a25.17,25.17,0,0,0,28.78.72l48.07-31.9a25.09,25.09,0,0,0,1-41.08L235.26,372.21A588.41,588.41,0,0,1,465,306.38a25.17,25.17,0,0,0,20.9-14.17,25.06,25.06,0,0,0-1.66-25.08l-45.55-68.64A71.73,71.73,0,0,0,360,80ZM88.32,396.75l-13.23,8.78a7.35,7.35,0,0,1-10.17-2.06L26,344.76A7.35,7.35,0,0,1,28,334.59l13.23-8.78ZM134,405.9a13.92,13.92,0,0,1-13.88-6L50.69,295.31h0A13.92,13.92,0,0,1,54.58,276l56.1-37.23,84.78,127.75s-56.61,37.53-56.86,37.68A13,13,0,0,1,134,405.9ZM337,478.31a.28.28,0,0,1,.14.29.28.28,0,0,1-.16.29L289,510.78a.35.35,0,0,1-.39,0L163,417.81l48.67-32.3Zm126.59-197.5a.45.45,0,0,1,0,.55.57.57,0,0,1-.55.36A613.2,613.2,0,0,0,216.82,354L130.54,224A613.37,613.37,0,0,0,292.82,25.11a.58.58,0,0,1,.55-.37.45.45,0,0,1,.49.25ZM424.84,177.63l-51-76.81a47,47,0,0,1,51,76.81Z"/></svg>