<svg id="Layer_1" data-name="Layer 1" xmlns="http://www.w3.org/2000/svg" viewBox="0 0 161.38 136.55"><defs><style>.cls-1{fill:#5e94e5;}</style></defs><title>quotes</title><path class="cls-1" d="M55.86,62.07H34.14a9.27,9.27,0,0,1-9.31-9.31v-3.1A23.92,23.92,0,0,1,32.1,32.1a23.93,23.93,0,0,1,17.55-7.27h6.21a6.29,6.29,0,0,0,6.21-6.21V6.21a6,6,0,0,0-1.84-4.37A6,6,0,0,0,55.86,0H49.66A48.39,48.39,0,0,0,30.4,3.93,49.19,49.19,0,0,0,3.93,30.41,48.37,48.37,0,0,0,0,49.66v68.28a18,18,0,0,0,5.43,13.19,18,18,0,0,0,13.19,5.43H55.87a18.54,18.54,0,0,0,18.62-18.62V80.69A18.55,18.55,0,0,0,55.86,62.07Z"/><path class="cls-1" d="M156,67.5a18,18,0,0,0-13.19-5.43H121a9.27,9.27,0,0,1-9.31-9.31v-3.1A23.93,23.93,0,0,1,119,32.1a23.92,23.92,0,0,1,17.56-7.27h6.21A6,6,0,0,0,147.13,23,6,6,0,0,0,149,18.62V6.21a6,6,0,0,0-1.84-4.37A6,6,0,0,0,142.77,0h-6.21A48.4,48.4,0,0,0,117.3,3.93,49.2,49.2,0,0,0,90.83,30.41,48.38,48.38,0,0,0,86.9,49.66v68.28a18.54,18.54,0,0,0,18.62,18.62h37.24a18.54,18.54,0,0,0,18.62-18.62V80.69A18,18,0,0,0,156,67.5Z"/></svg>