<?xml version="1.0" encoding="utf-8"?>
<!-- Generator: Adobe Illustrator 19.0.0, SVG Export Plug-In . SVG Version: 6.00 Build 0)  -->
<svg version="1.1" id="Capa_1" xmlns="http://www.w3.org/2000/svg" xmlns:xlink="http://www.w3.org/1999/xlink" x="0px" y="0px"
	 viewBox="-94 186.4 421.6 421.6" style="enable-background:new -94 186.4 421.6 421.6;" xml:space="preserve">
<style type="text/css">
	.st0{fill:#74a3e9;}
	.st1{fill:#FFF;}
</style>
<rect x="-94" y="186.4" class="st0" width="421.6" height="421.6"/>
<g>
	<path class="st1" d="M139.1,484.2c-12.3,12.3-32.4,12.3-44.7,0c-2.5-2.5-6.6-2.5-9.1,0c-2.5,2.5-2.5,6.6,0,9.1
		c8.7,8.7,20.1,13,31.5,13s22.8-4.3,31.5-13c2.5-2.5,2.5-6.6,0-9.1C145.7,481.6,141.6,481.6,139.1,484.2z"/>
	<path class="st1" d="M262.9,548.2c-15.1-16.7-15.8-59.4-14-103.6c6.6-6.2,10.7-15,10.7-24.7c0-8.5-3.2-16.4-8.4-22.3
		c2.2-45,3.4-75.1-10.9-102.9c-9.7-19-25.5-34.8-46.9-47.1c-24.9-14.3-53.3-21.4-82.1-20.3c-25.3,0.9-48.9,12.7-65.1,32.5
		C25.2,261,6.1,272.4-4.2,290c-0.9,1.5-1.7,3.1-2.5,4.6c-14.3,27.8-13.1,57.9-10.9,103c-5.2,6-8.4,13.8-8.4,22.3
		c0,9.7,4.1,18.5,10.7,24.7c1.8,44.2,1.1,86.8-14,103.6c-1.4,1.6-2,3.8-1.5,5.8c0.5,2.1,2,3.8,4,4.5c17,6.4,33.5,8.7,48.4,8.7
		c15.5,0,29.2-2.5,39.9-5.4c18.7-5.1,31.9-12.2,36.4-14.8c6.1,1,12.4,1.5,18.8,1.5c6.4,0,12.7-0.5,18.8-1.5
		c4.5,2.6,17.7,9.7,36.4,14.8c14.4,3.9,27.7,5.4,39.7,5.4c20.1,0,36.6-4.2,48.6-8.7c2-0.8,3.5-2.4,4-4.5
		C264.8,552,264.3,549.8,262.9,548.2z M232.2,433.3v-32c0-0.1,0-0.2,0-0.3v-1c8.4,2.7,14.5,10.6,14.5,20c0,9.4-6.2,17.4-14.7,20
		C232.1,437.7,232.2,435.5,232.2,433.3z M4.8,300.6c0.7-1.4,1.4-2.7,2.2-4c8.5-14.6,24.8-23.8,42.4-24c0,0,0.1,0,0.1,0
		c2,0,3.8-1,5-2.5c13.9-18.2,34.8-29.1,57.3-29.9c26.4-0.9,52.4,5.5,75.2,18.6c19.2,11,33.2,25.1,41.8,41.8
		c11.4,22.3,11.8,46.5,9.9,88.1c-2.1-0.9-4.3-1.5-6.5-2v-6.6c0-3.6-2.9-6.5-6.5-6.5c-3.6,0-6.5,2.9-6.5,6.5v14.7
		c-88.9,0.9-137.1-41.9-149.9-55.3c-1.5-1.6-3.7-2.3-5.9-1.9c-2.1,0.4-3.9,1.9-4.8,3.9c-9.4,22.8-25.8,34.8-51.6,37.6
		c-3.3,0.4-5.8,3.1-5.8,6.4v1.2c-2.3,0.4-4.4,1.1-6.5,2C-7,347.1-6.7,322.8,4.8,300.6z M1.6,440c-8.5-2.7-14.7-10.6-14.7-20
		c0-9.3,6.1-17.2,14.5-20v33.3C1.4,435.5,1.5,437.7,1.6,440z M-14.2,549.2c11.5-19.6,13.5-52.3,12-96.9c1.7,0.5,3.5,0.9,5.3,1.2
		c7.3,41.3,36.8,75.1,75.6,88.7C60.1,550.3,24.7,560.9-14.2,549.2z M116.8,535.7c-56.5,0-102.5-46-102.5-102.5l0-42.1
		c24.2-4,41.4-15.9,52.4-36.2c9.3,8.5,24.3,20.1,45.5,30.3c31.9,15.3,67.8,22.9,107.1,22.5v25.6
		C219.3,489.8,173.3,535.7,116.8,535.7z M175.8,549.5c-8.3-2.2-15.4-4.9-21.1-7.3c38.8-13.6,68.3-47.4,75.6-88.7
		c1.8-0.3,3.6-0.6,5.3-1.2c-1.5,44.6,0.5,77.2,12,96.9C224.9,556.1,200.8,556.2,175.8,549.5z"/>
	<path class="st1" d="M39.6,414.1c-2.5,2.5-2.5,6.6,0,9.1c2.5,2.5,6.6,2.5,9.1,0c4.1-4.1,10.9-4.1,15,0c1.3,1.3,2.9,1.9,4.6,1.9
		c1.7,0,3.3-0.6,4.6-1.9c2.5-2.5,2.5-6.6,0-9.1C63.7,405,48.8,405,39.6,414.1z"/>
	<path class="st1" d="M193.9,423.3c2.5-2.5,2.5-6.6,0-9.1c-9.2-9.2-24.1-9.2-33.3,0c-2.5,2.5-2.5,6.6,0,9.1c2.5,2.5,6.6,2.5,9.1,0
		c4.1-4.1,10.9-4.1,15,0c1.3,1.3,2.9,1.9,4.6,1.9S192.7,424.5,193.9,423.3z"/>
</g>
</svg>
