<?xml version="1.0" encoding="utf-8"?>
<!-- Generator: Adobe Illustrator 19.0.0, SVG Export Plug-In . SVG Version: 6.00 Build 0)  -->
<svg version="1.1" id="Capa_1" xmlns="http://www.w3.org/2000/svg" xmlns:xlink="http://www.w3.org/1999/xlink" x="0px" y="0px"
	 viewBox="-93 184.8 424.2 424.2" style="enable-background:new -93 184.8 424.2 424.2;" xml:space="preserve">
<style type="text/css">
	.st0{fill:#74a3e9;}
	.st1{fill:#FFF;}
</style>
<rect x="-93" y="184.8" class="st0" width="424.2" height="424.2"/>
<g>
	<path class="st1" d="M52.7,423.7c3.1,0,6.1,1.2,8.3,3.4c1.3,1.3,2.9,1.9,4.5,1.9c1.6,0,3.3-0.6,4.5-1.9c2.5-2.5,2.5-6.6,0-9.1
		c-4.6-4.6-10.8-7.2-17.4-7.2s-12.7,2.6-17.4,7.2c-2.5,2.5-2.5,6.6,0,9.1c2.5,2.5,6.6,2.5,9.1,0C46.6,424.9,49.6,423.7,52.7,423.7z"
		/>
	<path class="st1" d="M168.2,418.1c-2.5,2.5-2.5,6.6,0,9.1c2.5,2.5,6.6,2.5,9.1,0c4.6-4.6,12-4.6,16.6,0c1.3,1.3,2.9,1.9,4.5,1.9
		c1.6,0,3.3-0.6,4.5-1.9c2.5-2.5,2.5-6.6,0-9.1C193.3,408.5,177.7,408.5,168.2,418.1z"/>
	<path class="st1" d="M185.5,481.3c-36.6,36.6-96.2,36.6-132.8,0c-2.5-2.5-6.6-2.5-9.1,0c-2.5,2.5-2.5,6.6,0,9.1
		c20.8,20.8,48.1,31.2,75.5,31.2c27.3,0,54.7-10.4,75.5-31.2c2.5-2.5,2.5-6.6,0-9.1C192.1,478.8,188,478.8,185.5,481.3z"/>
	<path class="st1" d="M270.5,430.6c0-17.4-12.6-32-29.2-35V288.3c0-13.9-6.9-26.8-18.5-34.5c-10.9-7.2-24.4-8.9-36.7-4.6l-40.3-13.7
		c-30.9-10.5-63.5-11.6-94.2-3.1c-40.2,11.1-63.2,34.5-66.7,67.8c-3.1,4.1-5.6,8.8-7.3,13.8l-3.1,9.2c-1.7,5,0.2,10.2,4.6,13
		c4.4,2.8,9.9,2.2,13.7-1.4c1.3-1.2,2.7-2.3,4.2-3.2v63.9c-16.6,3-29.2,17.6-29.2,35c0,18.1,13.6,33.1,31.2,35.3
		c4.4,24.3,16,46.8,33.7,64.7c23.1,23.4,53.8,36.4,86.5,36.4c0,0,0,0,0,0c32.6,0,63.3-12.7,86.4-35.8c18-18,29.7-40.7,34-65.3
		C256.9,463.6,270.5,448.7,270.5,430.6z M215.7,264.5c8.1,5.4,12.8,14.1,12.8,23.8v83.9c-19.9-3.1-35.2-20.4-35.2-41.1l-0.5-70.5
		C200.6,258.5,208.8,259.9,215.7,264.5z M-11.5,321.9l1.2-3.7c3.3-9.7,10.5-17.5,19.9-21.5c9.4-4,20.1-3.8,29.3,0.5
		c19.4,9,42.9,4.2,57.1-11.9l1.6-1.8c2.3-2.7,2.1-6.7-0.6-9.1c-2.7-2.3-6.7-2.1-9.1,0.6l-1.6,1.8c-10.5,11.8-27.8,15.4-42.1,8.8
		c-12.6-5.8-27-6.1-39.8-0.6c-1.2,0.5-2.3,1.1-3.4,1.6c7.5-19.9,25.5-33.9,53.9-41.7c28.2-7.8,58.2-6.8,86.7,2.9l38.2,13l0.5,33.1
		c-17,23.1-41.8,38.8-70.1,44.1c-28.9,5.5-58.5-0.3-83.1-16.4C15.2,313.7,0,314-11.5,321.9z M-19.4,430.6c0-10.3,6.9-19,16.3-21.8
		v34.8c0,3,0.1,6,0.3,9C-12.3,449.8-19.4,441-19.4,430.6z M196.5,522.1c-20.7,20.7-48.1,32-77.3,32c0,0,0,0,0,0
		c-29.2,0-56.7-11.6-77.4-32.5c-20.6-20.9-32-48.6-32-78V328.7c3.6,0.3,7.2,1.4,10.5,3.6c27.5,17.9,60.3,24.4,92.5,18.3
		c26.1-5,49.6-17.9,67.7-36.8v17.4c0,27.8,21,50.9,48,54v59.6C228.5,474,217.1,501.4,196.5,522.1z M241.1,452.5
		c0.2-2.6,0.2-5.1,0.2-7.7v-36c9.4,2.8,16.3,11.5,16.3,21.8C257.6,441,250.6,449.8,241.1,452.5z"/>
</g>
</svg>
