<?xml version="1.0" encoding="utf-8"?>
<!-- Generator: Adobe Illustrator 19.0.0, SVG Export Plug-In . SVG Version: 6.00 Build 0)  -->
<svg version="1.1" id="Capa_1" xmlns="http://www.w3.org/2000/svg" xmlns:xlink="http://www.w3.org/1999/xlink" x="0px" y="0px"
	 viewBox="-275 367 60 60" style="enable-background:new -275 367 60 60;" xml:space="preserve">
<style type="text/css">
	.st0{fill:#74a3e9;}
	.st1{fill:#FFF;}
</style>
<rect x="-275" y="367" class="st0" width="60" height="60"/>
<path class="st1" d="M-230.5,407.4l-7.7-3.8c-0.7-0.4-1.2-1.1-1.2-1.9v-2.7c0.2-0.2,0.4-0.5,0.6-0.8c1-1.4,1.8-3,2.4-4.7
	c1.1-0.5,1.9-1.6,1.9-2.9v-3.2c0-0.8-0.3-1.5-0.8-2.1V381c0-0.4,0.2-3.1-1.7-5.2c-1.6-1.9-4.3-2.8-8-2.8s-6.3,1-8,2.8
	c-1.9,2.2-1.7,4.8-1.7,5.2v4.3c-0.5,0.6-0.8,1.3-0.8,2.1v3.2c0,1,0.4,1.9,1.2,2.5c0.7,2.9,2.3,5.1,2.8,5.8v2.7
	c0,0.8-0.4,1.5-1.1,1.9l-7.2,3.9c-2.3,1.3-3.8,3.7-3.8,6.4v2.6c0,3.8,12.1,4.8,18.5,4.8s18.5-1,18.5-4.8v-2.4
	C-226.5,411.1-228.1,408.6-230.5,407.4z M-228.1,416.3c0,1.1-6,3.2-16.9,3.2s-16.9-2.1-16.9-3.2v-2.6c0-2.1,1.1-4,2.9-5l7.2-3.9
	c1.2-0.7,1.9-1.9,1.9-3.3v-3.2l-0.2-0.2c0,0-2-2.4-2.7-5.7l-0.1-0.3l-0.3-0.2c-0.5-0.3-0.7-0.8-0.7-1.3v-3.2c0-0.5,0.2-0.9,0.5-1.2
	l0.3-0.2v-5l0-0.1c0,0-0.3-2.2,1.3-4c1.3-1.5,3.6-2.3,6.7-2.3c3.1,0,5.4,0.8,6.7,2.3c1.6,1.8,1.3,4,1.3,4l0,5.1l0.3,0.2
	c0.3,0.3,0.5,0.7,0.5,1.2v3.2c0,0.7-0.5,1.3-1.1,1.5l-0.4,0.1l-0.1,0.4c-0.5,1.7-1.3,3.2-2.3,4.6c-0.2,0.3-0.5,0.6-0.7,0.9l-0.2,0.2
	v3.3c0,1.4,0.8,2.7,2.1,3.3l7.7,3.8c1.9,1,3.1,2.9,3.1,5V416.3z"/>
</svg>
