<svg id="Layer_1" data-name="Layer 1" xmlns="http://www.w3.org/2000/svg" viewBox="0 0 538.31 107.7"><title>children-logo</title><path d="M54,23.55c9,0,15.3,3.15,19.64,11.55h3.23V4.65A56.73,56.73,0,0,0,54,0C24.15,0,0,22.2,0,53.85S24.15,107.7,54,107.7A56.73,56.73,0,0,0,76.87,103V72.6H73.64C69.3,81,63,84.15,54,84.15c-17,0-27.9-12-27.9-30.3S37,23.55,54,23.55Z"/><path d="M148,63.15H107.39V106.8H81.74V1.5h25.65V43.65H148V1.5h25.65V106.8H148Z"/><path d="M178.19,1.5h25.65V106.8H178.19Z"/><path d="M234,1.5V87.3h19.95v19.5h-45.6V1.5Z"/><path d="M295.24,21c10.48,0,18.69,3.66,24.09,10.08V5.68A68.15,68.15,0,0,0,295.24,1.5h-37V106.8h37a67.92,67.92,0,0,0,24.09-4.2V77.22c-5.4,6.42-13.61,10.08-24.09,10.08h-11.4V21Z"/><path d="M390,8.54c-6.26-4.35-14.75-7-25.47-7H323V106.8h25.65v-41h3l23.7,41H390V81.31L379.53,63.9A36,36,0,0,0,390,59.13ZM364.53,46.35h-15.9V21h15.9c7.8,0,12.6,5.4,12.6,12.75C377.13,41.25,372.33,46.35,364.53,46.35Z"/><path d="M441.49,21l-21.94-.15V43.5h21.94V63H419.55V87.45h21.94V107H393.91V1.35l47.59.15Z"/><path d="M538.31,1.35v105.6H512.66L469.76,40.5v66.45H444.12V1.35h25.65l42.9,66.45V1.35Z"/></svg>