<?xml version="1.0" encoding="utf-8"?>
<!-- Generator: Adobe Illustrator 19.0.0, SVG Export Plug-In . SVG Version: 6.00 Build 0)  -->
<svg version="1.1" id="Layer_1" xmlns="http://www.w3.org/2000/svg" xmlns:xlink="http://www.w3.org/1999/xlink" x="0px" y="0px"
	 viewBox="0 0 566.9 566.9" style="enable-background:new 0 0 566.9 566.9;" xml:space="preserve">
<style type="text/css">
	.st0{fill:#6691CC;}
	.st1{display:none;}
	.st2{display:inline;}
	.st3{fill:#FFFFFF;}
	.st4{fill:#FFFFFF;stroke:#FFFFFF;stroke-width:13;stroke-miterlimit:10;}
</style>
<rect id="XMLID_1_" y="0" class="st0" width="566.9" height="566.9"/>
<g id="XMLID_2_" class="st1">
	<g id="XMLID_3_" class="st2">
		<path id="XMLID_5_" class="st3" d="M444.2,121.7H122.9c-28.7,0-52,23.3-52,52v219.6c0,28.7,23.3,52,52,52h321.2
			c28.7,0,52-23.3,52-52V173.8C496.2,145.1,472.8,121.7,444.2,121.7z M472.4,393.3c0,15.6-12.7,28.2-28.2,28.2H122.9
			c-15.6,0-28.2-12.7-28.2-28.2V173.8c0-15.6,12.7-28.2,28.2-28.2h321.2c15.6,0,28.2,12.7,28.2,28.2L472.4,393.3L472.4,393.3z"/>
		<path id="XMLID_4_" class="st3" d="M339,280.7l104-93.3c4.8-4.4,5.3-11.9,0.9-16.8c-4.4-4.8-11.9-5.3-16.8-0.9L283.7,298.5l-28-25
			c-0.1-0.1-0.2-0.2-0.2-0.3c-0.6-0.6-1.2-1.1-1.9-1.7L139.8,169.7c-4.9-4.4-12.4-4-16.8,1c-4.4,4.9-4,12.4,1,16.8l105.2,94
			l-104.8,98.1c-4.8,4.5-5,12-0.5,16.8c2.4,2.5,5.5,3.8,8.7,3.8c2.9,0,5.8-1.1,8.1-3.2L247,297.5l28.9,25.8c2.3,2,5.1,3,7.9,3
			s5.7-1.1,7.9-3.1l29.6-26.6L427,397.1c2.3,2.2,5.3,3.3,8.2,3.3c3.2,0,6.2-1.2,8.6-3.7c4.5-4.8,4.3-12.3-0.4-16.8L339,280.7z"/>
	</g>
</g>
<path class="st4" d="M398.7,365.1l-60.8-30.4c-5.7-2.9-9.3-8.6-9.3-15.1v-21.5c1.5-1.8,3-3.8,4.6-6.1c7.9-11.1,14.2-23.5,18.8-36.9
	c9-4.1,14.8-13,14.8-23v-25.5c0-6.1-2.3-12.1-6.4-16.7v-33.9c0.4-3.5,1.8-24.3-13.3-41.5C334,99.6,312.8,92,284,92
	s-50,7.6-63.1,22.5c-15.1,17.2-13.7,38-13.3,41.5v33.9c-4.1,4.6-6.4,10.6-6.4,16.7v25.5c0,7.7,3.5,15,9.5,19.8
	c5.8,23.1,18,40.5,22.3,46.1V319c0,6.2-3.4,11.8-8.8,14.8l-56.8,31c-18.5,10.1-29.9,29.4-29.9,50.4v20.6
	c0,30.2,95.8,38.2,146.4,38.2s146.4-8,146.4-38.2v-19.4C430.4,394.6,418.3,374.9,398.7,365.1z M417.7,435.8
	c0,8.6-47.2,25.5-133.7,25.5s-133.7-16.8-133.7-25.5v-20.6c0-16.4,8.9-31.4,23.3-39.2l56.8-31c9.5-5.2,15.4-15.1,15.4-26v-25.6
	l-1.5-1.8c-0.2-0.2-15.8-19.1-21.7-45l-0.6-2.5l-2.2-1.4c-3.7-2.4-5.9-6.4-5.9-10.7v-25.5c0-3.6,1.5-6.9,4.3-9.4l2.1-1.9v-39.7
	l-0.1-0.8c0-0.2-2.2-17.8,10.2-32c10.5-12,28.6-18.1,53.5-18.1c24.9,0,42.8,6.1,53.4,18c12.4,14,10.3,31.9,10.3,32.1l-0.1,40.5
	l2.1,1.9c2.8,2.5,4.3,5.8,4.3,9.4v25.5c0,5.6-3.6,10.4-9.1,12.1l-3.2,1l-1,3.2c-4.3,13.2-10.3,25.5-18,36.4
	c-1.9,2.7-3.7,5.1-5.3,6.9l-1.6,1.8v26.3c0,11.3,6.3,21.4,16.3,26.4l60.8,30.4c15.2,7.6,24.7,22.9,24.7,40V435.8z"/>
</svg>
