<?xml version="1.0" encoding="utf-8"?>
<!-- Generator: Adobe Illustrator 19.0.0, SVG Export Plug-In . SVG Version: 6.00 Build 0)  -->
<svg version="1.1" id="Layer_1" xmlns="http://www.w3.org/2000/svg" xmlns:xlink="http://www.w3.org/1999/xlink" x="0px" y="0px"
	 viewBox="-28 -57.4 566.9 566.9" style="enable-background:new -28 -57.4 566.9 566.9;" xml:space="preserve">
<style type="text/css">
	.st0{fill:#6691CC;}
	.st1{display:none;}
	.st2{display:inline;}
	.st3{fill:#FFFFFF;}
	.st4{fill:#FFFFFF;stroke:#FFFFFF;stroke-width:8;stroke-miterlimit:10;}
</style>
<rect id="XMLID_1_" x="-28" y="-57.4" class="st0" width="566.9" height="566.9"/>
<g id="XMLID_2_" class="st1">
	<g id="XMLID_3_" class="st2">
		<path id="XMLID_5_" class="st3" d="M388.2,6.9H66.9c-28.7,0-52,23.3-52,52v219.6c0,28.7,23.3,52,52,52h321.2c28.7,0,52-23.3,52-52
			V59C440.2,30.3,416.8,6.9,388.2,6.9z M416.4,278.5c0,15.6-12.7,28.2-28.2,28.2H66.9c-15.6,0-28.2-12.7-28.2-28.2V59
			c0-15.6,12.7-28.2,28.2-28.2h321.2c15.6,0,28.2,12.7,28.2,28.2L416.4,278.5L416.4,278.5z"/>
		<path id="XMLID_4_" class="st3" d="M283,165.9l104-93.3c4.8-4.4,5.3-11.9,0.9-16.8c-4.4-4.8-11.9-5.3-16.8-0.9L227.7,183.7l-28-25
			c-0.1-0.1-0.2-0.2-0.2-0.3c-0.6-0.6-1.2-1.1-1.9-1.7L83.8,54.9c-4.9-4.4-12.4-4-16.8,1c-4.4,4.9-4,12.4,1,16.8l105.2,94
			L68.4,264.8c-4.8,4.5-5,12-0.5,16.8c2.4,2.5,5.5,3.8,8.7,3.8c2.9,0,5.8-1.1,8.1-3.2L191,182.7l28.9,25.8c2.3,2,5.1,3,7.9,3
			s5.7-1.1,7.9-3.1l29.6-26.6L371,282.3c2.3,2.2,5.3,3.3,8.2,3.3c3.2,0,6.2-1.2,8.6-3.7c4.5-4.8,4.3-12.3-0.4-16.8L283,165.9z"/>
	</g>
</g>
<path class="st4" d="M330.4,278.9l-39.4-19.7c-3.7-1.9-6.1-5.6-6.1-9.8v-14c1-1.2,1.9-2.5,3-3.9c5.1-7.2,9.2-15.2,12.2-24
	c5.9-2.7,9.6-8.5,9.6-14.9v-16.5c0-3.9-1.5-7.8-4.1-10.8v-22c0.3-2.3,1.2-15.8-8.6-26.9c-8.5-9.6-22.2-14.6-41-14.6s-32.4,5-41,14.6
	c-9.8,11.2-8.9,24.6-8.6,26.9v22c-2.7,3-4.1,6.9-4.1,10.8v16.5c0,5,2.3,9.7,6.2,12.9c3.8,15,11.7,26.3,14.5,29.9V249
	c0,4-2.2,7.6-5.7,9.6l-36.8,20.1c-12,6.5-19.4,19.1-19.4,32.7v13.4c0,19.6,62.2,24.8,95,24.8s95-5.2,95-24.8v-12.6
	C351,298.1,343.1,285.3,330.4,278.9z M342.7,324.8c0,5.6-30.6,16.5-86.7,16.5s-86.7-10.9-86.7-16.5v-13.4c0-10.7,5.8-20.4,15.1-25.4
	l36.8-20.1c6.2-3.4,10-9.8,10-16.9v-16.6l-1-1.2c-0.1-0.1-10.3-12.4-14.1-29.2l-0.4-1.7l-1.4-0.9c-2.4-1.6-3.9-4.1-3.9-7v-16.5
	c0-2.3,1-4.5,2.8-6.1l1.4-1.2V143l-0.1-0.6c0-0.1-1.4-11.6,6.6-20.8c6.8-7.8,18.6-11.8,34.7-11.8c16.2,0,27.7,3.9,34.6,11.7
	c8.1,9.1,6.7,20.7,6.7,20.9l-0.1,26.3l1.4,1.2c1.8,1.7,2.8,3.8,2.8,6.1v16.5c0,3.6-2.3,6.7-5.9,7.8l-2.1,0.6l-0.6,2.1
	c-2.8,8.5-6.7,16.5-11.7,23.6c-1.2,1.7-2.4,3.3-3.4,4.5l-1,1.2v17.1c0,7.3,4.1,13.9,10.6,17.1l39.4,19.7c9.8,5,16,14.9,16,26v12.5
	H342.7L342.7,324.8z"/>
</svg>
