<?xml version="1.0" encoding="utf-8"?>
<!-- Generator: Adobe Illustrator 19.0.0, SVG Export Plug-In . SVG Version: 6.00 Build 0)  -->
<svg version="1.1" id="Layer_1" xmlns="http://www.w3.org/2000/svg" xmlns:xlink="http://www.w3.org/1999/xlink" x="0px" y="0px"
	 viewBox="-28 -57.4 566.9 566.9" style="enable-background:new -28 -57.4 566.9 566.9;" xml:space="preserve">
<style type="text/css">
	.st0{fill:#6691CC;}
	.st1{display:none;}
	.st2{display:inline;}
	.st3{fill:#FFFFFF;}
	.st4{fill:#FFFFFF;stroke:#FFFFFF;stroke-width:8;stroke-miterlimit:10;}
</style>
<rect id="XMLID_1_" x="-28" y="-57.4" class="st0" width="566.9" height="566.9"/>
<g id="XMLID_2_" class="st1">
	<g id="XMLID_3_" class="st2">
		<path id="XMLID_5_" class="st3" d="M416.2,64.3H94.9c-28.7,0-52,23.3-52,52v219.6c0,28.7,23.3,52,52,52h321.2
			c28.7,0,52-23.3,52-52V116.4C468.2,87.7,444.8,64.3,416.2,64.3z M444.4,335.9c0,15.6-12.7,28.2-28.2,28.2H94.9
			c-15.6,0-28.2-12.7-28.2-28.2V116.4c0-15.6,12.7-28.2,28.2-28.2h321.2c15.6,0,28.2,12.7,28.2,28.2L444.4,335.9L444.4,335.9z"/>
		<path id="XMLID_4_" class="st3" d="M311,223.3L415,130c4.8-4.4,5.3-11.9,0.9-16.8c-4.4-4.8-11.9-5.3-16.8-0.9L255.7,241.1l-28-25
			c-0.1-0.1-0.2-0.2-0.2-0.3c-0.6-0.6-1.2-1.1-1.9-1.7L111.8,112.3c-4.9-4.4-12.4-4-16.8,1c-4.4,4.9-4,12.4,1,16.8l105.2,94
			L96.4,322.2c-4.8,4.5-5,12-0.5,16.8c2.4,2.5,5.5,3.8,8.7,3.8c2.9,0,5.8-1.1,8.1-3.2L219,240.1l28.9,25.8c2.3,2,5.1,3,7.9,3
			s5.7-1.1,7.9-3.1l29.6-26.6L399,339.7c2.3,2.2,5.3,3.3,8.2,3.3c3.2,0,6.2-1.2,8.6-3.7c4.5-4.8,4.3-12.3-0.4-16.8L311,223.3z"/>
	</g>
</g>
<path class="st4" d="M364.1,303l-57.3-28.6c-5.4-2.7-8.8-8.1-8.8-14.2v-20.3c1.4-1.7,2.8-3.6,4.3-5.7c7.4-10.5,13.4-22.1,17.7-34.8
	c8.5-3.9,13.9-12.3,13.9-21.7v-24c0-5.7-2.2-11.4-6-15.7V106c0.4-3.3,1.7-22.9-12.5-39.1c-12.3-14-32.3-21.2-59.5-21.2
	s-47.1,7.2-59.5,21.2c-14.2,16.2-12.9,35.8-12.5,39.1v31.9c-3.9,4.3-6,10-6,15.7v24c0,7.3,3.3,14.1,9,18.7c5.5,21.8,17,38.2,21,43.4
	v19.8c0,5.8-3.2,11.1-8.3,13.9l-53.5,29.2c-17.4,9.5-28.2,27.7-28.2,47.5v19.4c0,28.5,90.3,36,138,36s138-7.5,138-36v-18.3
	C394,330.8,382.6,312.2,364.1,303z M382,369.6c0,8.1-44.5,24-126,24s-126-15.8-126-24v-19.4c0-15.5,8.4-29.6,22-36.9l53.5-29.2
	c9-4.9,14.5-14.2,14.5-24.5v-24.1l-1.4-1.7c-0.2-0.2-14.9-18-20.5-42.4l-0.6-2.4l-2.1-1.3c-3.5-2.3-5.6-6-5.6-10.1v-24
	c0-3.4,1.4-6.5,4.1-8.9l2-1.8v-37.4l-0.1-0.8c0-0.2-2.1-16.8,9.6-30.2c9.9-11.3,27-17.1,50.4-17.1c23.5,0,40.3,5.7,50.3,17
	c11.7,13.2,9.7,30.1,9.7,30.3l-0.1,38.2l2,1.8c2.6,2.4,4.1,5.5,4.1,8.9v24c0,5.3-3.4,9.8-8.6,11.4l-3,0.9l-0.9,3
	c-4.1,12.4-9.7,24-17,34.3c-1.8,2.5-3.5,4.8-5,6.5l-1.5,1.7v24.8c0,10.6,5.9,20.2,15.4,24.9l57.3,28.6c14.3,7.2,23.3,21.6,23.3,37.7
	v18.2H382z"/>
</svg>
