<?xml version="1.0" encoding="utf-8"?>
<!-- Generator: Adobe Illustrator 19.0.0, SVG Export Plug-In . SVG Version: 6.00 Build 0)  -->
<svg version="1.1" id="Layer_1" xmlns="http://www.w3.org/2000/svg" xmlns:xlink="http://www.w3.org/1999/xlink" x="0px" y="0px"
	 viewBox="-28 -57.4 566.9 566.9" style="enable-background:new -28 -57.4 566.9 566.9;" xml:space="preserve">
<style type="text/css">
	.st0{fill:#6691CC;}
	.st1{fill:#FFFFFF;}
</style>
<rect id="XMLID_1_" x="-28" y="-57.4" class="st0" width="566.9" height="566.9"/>
<path class="st1" d="M384.6,76.1H159c-3.4-0.5-6.5,1.8-7.1,5.1c-0.6,3.3,1.8,6.5,5.1,7.1c0.7,0.1,1.4,0.1,1.9,0h225.6
	c3.4,0.5,6.5-1.8,7.1-5.1c0.5-3.4-1.8-6.5-5.1-7.1C385.9,75.9,385.2,75.9,384.6,76.1z"/>
<path class="st1" d="M384.6,100.4H159c-3.4,0.5-5.7,3.7-5.1,7.1c0.4,2.6,2.4,4.6,5.1,5.1h225.6c3.4,0.5,6.5-1.8,7.1-5.1
	c0.5-3.4-1.8-6.5-5.1-7.1C385.9,100.3,385.2,100.3,384.6,100.4z"/>
<path class="st1" d="M390.4,124.8H159c-16.8,1.2-31.4-11.4-32.6-28.2s11.4-31.4,28.2-32.6c1.4-0.1,3-0.1,4.4,0h231.4
	c3.4-0.5,5.7-3.7,5.1-7.1c-0.4-2.6-2.4-4.6-5.1-5.1H159c-19.9-0.1-37.2,13.5-41.9,32.9c-0.8,0.8-1.3,2-1.4,3.1V356
	c-0.1,24.1,19.3,43.7,43.3,43.8h194.9c23.5-0.3,42.3-19.5,42.1-43l0,0v-226c0.4-2.9-1.5-5.5-4.4-6
	C391.2,124.7,390.9,124.7,390.4,124.8z M383.8,355.9c0.7,16.7-12.3,30.9-29.1,31.6c-0.3,0-0.5,0-0.8,0H159
	c-17.5,0-31.7-14.2-31.7-31.7V123.6c8.5,8.2,19.8,12.9,31.7,13.3h224.8V355.9z"/>
<path class="st1" d="M324,211.2h-15.4l-6-8.8c-1.1-1.5-2.8-2.5-4.7-2.4h-37.5c-1.9,0-3.7,1-4.7,2.6l-5.6,8.6H195
	c-16.2,1.1-28.9,14.5-29,30.7v60.7c0.1,16.7,12.5,30.7,29,33h129c15.7,0,22.8-16.7,22.8-33v-60.7C347,223.2,338,211.2,324,211.2z
	 M335.6,302.6c0,7.5-2.4,21.7-11.6,21.7H195.1c-9.2,0-17.6-12.2-17.6-21.7v-60.7c0.5-9.7,7.9-17.6,17.6-18.7H253
	c2.3,0.1,4.5-1.2,5.4-3.4l5.6-8.6h31.8l6,8.8c1.1,1.5,2.8,2.5,4.7,2.4h18.7c10.7,0,11.6,14.8,11.6,18.7v60.7L335.6,302.6z"/>
<path class="st1" d="M279,228.3c-21.8,0-39.5,17.7-39.5,39.5s17.7,39.5,39.5,39.5s39.5-17.7,39.5-39.5l0,0
	C318.6,245.9,300.9,228.3,279,228.3z M279,296c-15.6,0-28.3-12.7-28.3-28.3s12.7-28.3,28.3-28.3c15.6,0,28.3,12.7,28.3,28.3
	S294.7,296,279,296L279,296z"/>
<path class="st1" d="M205.6,239.5c-3.1,0-5.6,2.5-5.6,5.6l0,0v56.2c0,3.1,2.5,5.6,5.6,5.6s5.6-2.5,5.6-5.6l0,0v-56.9
	C210.9,241.6,208.5,239.5,205.6,239.5z"/>
</svg>
