<?xml version="1.0" encoding="utf-8"?>
<!-- Generator: Adobe Illustrator 19.0.0, SVG Export Plug-In . SVG Version: 6.00 Build 0)  -->
<svg version="1.1" id="Layer_1" xmlns="http://www.w3.org/2000/svg" xmlns:xlink="http://www.w3.org/1999/xlink" x="0px" y="0px"
	 viewBox="-28 -57.4 566.9 566.9" style="enable-background:new -28 -57.4 566.9 566.9;" xml:space="preserve">
<style type="text/css">
	.st0{fill:#6691CC;}
	.st1{fill:#FFFFFF;}
</style>
<rect id="XMLID_1_" x="-28" y="-57.4" class="st0" width="566.9" height="566.9"/>
<path class="st1" d="M346.9,119.9H187.3c-2.4-0.4-4.6,1.3-5,3.6c-0.4,2.3,1.3,4.6,3.6,5c0.5,0.1,1,0.1,1.3,0h159.6
	c2.4,0.4,4.6-1.3,5-3.6c0.4-2.4-1.3-4.6-3.6-5C347.9,119.8,347.4,119.8,346.9,119.9z"/>
<path class="st1" d="M346.9,137.1H187.3c-2.4,0.4-4,2.6-3.6,5c0.3,1.8,1.7,3.3,3.6,3.6h159.6c2.4,0.4,4.6-1.3,5-3.6
	c0.4-2.4-1.3-4.6-3.6-5C347.9,137,347.4,137,346.9,137.1z"/>
<path class="st1" d="M351.1,154.4H187.3c-11.9,0.8-22.2-8.1-23.1-20s8.1-22.2,20-23.1c1-0.1,2.1-0.1,3.1,0h163.7
	c2.4-0.4,4-2.6,3.6-5c-0.3-1.8-1.7-3.3-3.6-3.6H187.3c-14.1-0.1-26.3,9.6-29.6,23.3c-0.6,0.6-0.9,1.4-1,2.2V318
	c-0.1,17.1,13.7,30.9,30.6,31h137.9c16.6-0.2,29.9-13.8,29.8-30.4l0,0V158.6c0.3-2.1-1.1-3.9-3.1-4.2
	C351.6,154.3,351.4,154.3,351.1,154.4z M346.4,317.9c0.5,11.8-8.7,21.9-20.6,22.4c-0.2,0-0.4,0-0.6,0H187.3
	c-12.4,0-22.4-10-22.4-22.4V153.5c6,5.8,14,9.1,22.4,9.4h159V317.9z"/>
<path class="st1" d="M303,228.8h-10.6l-4.1-6.1c-0.8-1-1.9-1.7-3.2-1.7h-25.8c-1.3,0-2.5,0.7-3.2,1.8l-3.9,5.9h-38
	c-11.2,0.8-19.9,10-20,21.2v41.8c0.1,11.5,8.6,21.2,20,22.7H303c10.8,0,15.7-11.5,15.7-22.7V250C318.8,237.1,312.6,228.8,303,228.8z
	 M311,291.8c0,5.2-1.7,15-8,15h-88.8c-6.3,0-12.1-8.4-12.1-15V250c0.3-6.7,5.4-12.1,12.1-12.9h39.9c1.6,0.1,3.1-0.8,3.7-2.3l3.9-5.9
	h21.9l4.1,6.1c0.8,1,1.9,1.7,3.2,1.7h12.9c7.4,0,8,10.2,8,12.9v41.8L311,291.8z"/>
<path class="st1" d="M272,240.6c-15,0-27.2,12.2-27.2,27.2c0,15,12.2,27.2,27.2,27.2c15,0,27.2-12.2,27.2-27.2l0,0
	C299.3,252.7,287.1,240.6,272,240.6z M272,287.3c-10.8,0-19.5-8.8-19.5-19.5c0-10.8,8.8-19.5,19.5-19.5c10.8,0,19.5,8.8,19.5,19.5
	S282.8,287.3,272,287.3L272,287.3z"/>
<path class="st1" d="M221.4,248.3c-2.1,0-3.9,1.7-3.9,3.9l0,0v38.7c0,2.1,1.7,3.9,3.9,3.9c2.1,0,3.9-1.7,3.9-3.9l0,0v-39.2
	C225,249.8,223.4,248.3,221.4,248.3z"/>
</svg>
