<?xml version="1.0" encoding="utf-8"?>
<!-- Generator: Adobe Illustrator 19.0.0, SVG Export Plug-In . SVG Version: 6.00 Build 0)  -->
<svg version="1.1" id="Layer_1" xmlns="http://www.w3.org/2000/svg" xmlns:xlink="http://www.w3.org/1999/xlink" x="0px" y="0px"
	 viewBox="-28 -57.4 566.9 566.9" style="enable-background:new -28 -57.4 566.9 566.9;" xml:space="preserve">
<style type="text/css">
	.st0{fill:#6691CC;}
	.st1{fill:#FFFFFF;}
</style>
<rect id="XMLID_1_" x="-28" y="-57.4" class="st0" width="566.9" height="566.9"/>
<g>
	<path class="st1" d="M185.4,280h184.3c20.9,0,38-17,38-38v-77.5c0-0.1,0-0.2,0-0.3c0-0.2,0-0.3,0-0.5s0-0.3-0.1-0.4
		c0-0.2-0.1-0.3-0.1-0.5c0-0.2-0.1-0.3-0.1-0.4c-0.1-0.2-0.1-0.3-0.2-0.5c-0.1-0.2-0.1-0.3-0.2-0.4c-0.1-0.2-0.1-0.3-0.2-0.4
		s-0.2-0.3-0.2-0.5c-0.1-0.2-0.2-0.3-0.2-0.3c-0.1-0.2-0.2-0.3-0.2-0.4c-0.1-0.2-0.2-0.2-0.2-0.3c0-0.2-0.2-0.3-0.3-0.4
		c-0.1-0.2-0.2-0.2-0.3-0.3c-0.1-0.2-0.2-0.2-0.3-0.3c-0.1-0.2-0.2-0.2-0.3-0.3s-0.2-0.2-0.3-0.3c-0.2-0.2-0.2-0.2-0.3-0.3
		c-0.2-0.1-0.2-0.2-0.3-0.3c-0.2-0.1-0.3-0.2-0.4-0.3c-0.2-0.1-0.2-0.2-0.3-0.2c-0.2,0-0.3-0.2-0.4-0.3c-0.2-0.1-0.3-0.2-0.4-0.2
		c-0.2,0-0.3-0.2-0.4-0.2c-0.2,0-0.3-0.2-0.4-0.2c-0.2,0-0.3-0.1-0.4-0.2c-0.2-0.1-0.3-0.2-0.5-0.2s-0.3-0.1-0.3-0.1
		c-0.2-0.1-0.3-0.1-0.5-0.1c-0.1,0-0.2-0.1-0.3-0.1L166,122.8V90.2c0-0.3,0-0.7-0.1-1c0-0.1,0-0.2-0.1-0.3c0-0.2-0.1-0.4-0.1-0.6
		c-0.1-0.2-0.1-0.3-0.2-0.5c0-0.2-0.1-0.2-0.1-0.3c-0.1-0.2-0.2-0.4-0.2-0.6c0-0.1-0.1-0.2-0.1-0.3c-0.1-0.2-0.2-0.3-0.3-0.5
		c-0.1-0.1-0.1-0.2-0.2-0.3c-0.1-0.2-0.2-0.3-0.3-0.4c-0.1-0.2-0.2-0.2-0.2-0.3c-0.1-0.2-0.2-0.2-0.2-0.3c-0.1-0.2-0.2-0.3-0.3-0.4
		c-0.1-0.1-0.2-0.2-0.2-0.2c-0.2-0.2-0.3-0.3-0.4-0.4c-0.1-0.1-0.2-0.2-0.2-0.2c-0.2-0.2-0.3-0.3-0.5-0.4c-0.1-0.1-0.2-0.2-0.3-0.2
		c-0.2-0.2-0.3-0.2-0.4-0.3c-0.2-0.2-0.4-0.3-0.5-0.3s-0.2-0.1-0.2-0.2c-0.3-0.2-0.6-0.3-0.9-0.4l-50.7-21.3
		c-4.8-2-10.2,0.2-12.2,4.9c-2,4.8,0.2,10.2,4.9,12.2l45,19v42.1v6.7v51.2v45.7v57.7c0,19.2,14.5,35.2,33.1,37.6
		c-3.4,5.6-5.4,12.2-5.4,19.2c0,20.7,16.9,37.5,37.5,37.5s37.5-16.9,37.5-37.5c0-6.8-1.8-13.4-5.2-18.9h83.4
		c-3.3,5.5-5.2,12-5.2,18.9c0,20.7,16.9,37.5,37.5,37.5s37.5-16.9,37.5-37.5s-16.6-37.4-37.3-37.4H185.4c-10.7,0-19.4-8.7-19.4-19.4
		v-25.2C171.7,278,178.4,280,185.4,280z M231.6,356.7c0,10.5-8.6,18.9-18.9,18.9s-18.9-8.6-18.9-18.9c0-10.3,8.6-18.9,18.9-18.9
		S231.6,346.2,231.6,356.7z M379.8,356.7c0,10.5-8.6,18.9-18.9,18.9c-10.3,0-18.9-8.6-18.9-18.9c0-10.3,8.6-18.9,18.9-18.9
		C371.2,337.8,379.8,346.2,379.8,356.7z M369.7,261.4H185.4c-10.7,0-19.4-8.7-19.4-19.4v-45.7v-51.1v-3.5l223.1,30.7v69.5
		C389.2,252.7,380.5,261.4,369.7,261.4z"/>
</g>
</svg>
