<?xml version="1.0" encoding="utf-8"?>
<!-- Generator: Adobe Illustrator 19.0.0, SVG Export Plug-In . SVG Version: 6.00 Build 0)  -->
<svg version="1.1" id="Layer_1" xmlns="http://www.w3.org/2000/svg" xmlns:xlink="http://www.w3.org/1999/xlink" x="0px" y="0px"
	 viewBox="-28 -57.4 566.9 566.9" style="enable-background:new -28 -57.4 566.9 566.9;" xml:space="preserve">
<style type="text/css">
	.st0{fill:#6691CC;}
	.st1{fill:#FFFFFF;}
</style>
<rect id="XMLID_1_" x="-28" y="-57.4" class="st0" width="566.9" height="566.9"/>
<g>
	<path class="st1" d="M199.5,250.6h128.7c14.6,0,26.5-11.9,26.5-26.5V170c0-0.1,0-0.1,0-0.2c0-0.1,0-0.2,0-0.3s0-0.2-0.1-0.3
		c0-0.1-0.1-0.2-0.1-0.3s-0.1-0.2-0.1-0.3c-0.1-0.1-0.1-0.2-0.1-0.3c-0.1-0.1-0.1-0.2-0.1-0.3c-0.1-0.1-0.1-0.2-0.1-0.3
		c-0.1-0.1-0.1-0.2-0.1-0.3c-0.1-0.1-0.1-0.2-0.1-0.2c-0.1-0.1-0.1-0.2-0.1-0.3c-0.1-0.1-0.1-0.1-0.1-0.2c0-0.1-0.1-0.2-0.2-0.3
		c-0.1-0.1-0.1-0.1-0.2-0.2c-0.1-0.1-0.1-0.1-0.2-0.2c-0.1-0.1-0.1-0.1-0.2-0.2c-0.1-0.1-0.1-0.1-0.2-0.2c-0.1-0.1-0.1-0.1-0.2-0.2
		c-0.1-0.1-0.1-0.1-0.2-0.2c-0.1-0.1-0.2-0.1-0.3-0.2c-0.1-0.1-0.1-0.1-0.2-0.1c-0.1,0-0.2-0.1-0.3-0.2c-0.1-0.1-0.2-0.1-0.3-0.1
		c-0.1,0-0.2-0.1-0.3-0.1c-0.1,0-0.2-0.1-0.3-0.1c-0.1,0-0.2-0.1-0.3-0.1c-0.1-0.1-0.2-0.1-0.3-0.1c-0.1,0-0.2-0.1-0.2-0.1
		c-0.1-0.1-0.2-0.1-0.3-0.1c-0.1,0-0.1-0.1-0.2-0.1L186,140.9v-22.8c0-0.2,0-0.5-0.1-0.7c0-0.1,0-0.1-0.1-0.2c0-0.1-0.1-0.3-0.1-0.4
		c-0.1-0.1-0.1-0.2-0.1-0.3c0-0.1-0.1-0.1-0.1-0.2c-0.1-0.1-0.1-0.3-0.1-0.4c0-0.1-0.1-0.1-0.1-0.2c-0.1-0.1-0.1-0.2-0.2-0.3
		c-0.1-0.1-0.1-0.1-0.1-0.2c-0.1-0.1-0.1-0.2-0.2-0.3c-0.1-0.1-0.1-0.1-0.1-0.2c-0.1-0.1-0.1-0.1-0.1-0.2c-0.1-0.1-0.1-0.2-0.2-0.3
		c-0.1-0.1-0.1-0.1-0.1-0.1c-0.1-0.1-0.2-0.2-0.3-0.3c-0.1-0.1-0.1-0.1-0.1-0.1c-0.1-0.1-0.2-0.2-0.3-0.3c-0.1-0.1-0.1-0.1-0.2-0.1
		c-0.1-0.1-0.2-0.1-0.3-0.2c-0.1-0.1-0.3-0.2-0.3-0.2s-0.1-0.1-0.1-0.1c-0.2-0.1-0.4-0.2-0.6-0.3l-35.4-14.9
		c-3.4-1.4-7.1,0.1-8.5,3.4c-1.4,3.4,0.1,7.1,3.4,8.5l31.4,13.3V152v4.7v35.7v31.9v40.3c0,13.4,10.1,24.6,23.1,26.2
		c-2.4,3.9-3.8,8.5-3.8,13.4c0,14.5,11.8,26.2,26.2,26.2s26.2-11.8,26.2-26.2c0-4.7-1.3-9.4-3.6-13.2H299c-2.3,3.8-3.6,8.4-3.6,13.2
		c0,14.5,11.8,26.2,26.2,26.2c14.4,0,26.2-11.8,26.2-26.2c0-14.4-11.6-26.1-26-26.1H199.5c-7.5,0-13.5-6.1-13.5-13.5V247
		C190,249.3,194.6,250.6,199.5,250.6z M231.8,304.2c0,7.3-6,13.2-13.2,13.2s-13.2-6-13.2-13.2c0-7.2,6-13.2,13.2-13.2
		S231.8,296.9,231.8,304.2z M335.2,304.2c0,7.3-6,13.2-13.2,13.2s-13.2-6-13.2-13.2c0-7.2,6-13.2,13.2-13.2
		C329.2,291,335.2,296.9,335.2,304.2z M328.2,237.7H199.5c-7.5,0-13.5-6.1-13.5-13.5v-31.9v-35.7v-2.4l155.7,21.4v48.5
		C341.8,231.6,335.7,237.7,328.2,237.7z"/>
</g>
</svg>
