<?xml version="1.0" encoding="utf-8"?>
<!-- Generator: Adobe Illustrator 19.0.0, SVG Export Plug-In . SVG Version: 6.00 Build 0)  -->
<svg version="1.1" id="Layer_1" xmlns="http://www.w3.org/2000/svg" xmlns:xlink="http://www.w3.org/1999/xlink" x="0px" y="0px"
	 viewBox="0 0 566.9 566.9" style="enable-background:new 0 0 566.9 566.9;" xml:space="preserve">
<style type="text/css">
	.st0{fill:#6691CC;}
	.st1{fill:#FFFFFF;}
</style>
<rect id="XMLID_1_" y="0" class="st0" width="566.9" height="566.9"/>
<g>
	<path class="st1" d="M207,345.6h213c24.2,0,43.9-19.7,43.9-43.9v-89.6c0-0.1,0-0.2,0-0.3c0-0.2,0-0.4,0-0.6c0-0.2,0-0.3-0.1-0.5
		c0-0.2-0.1-0.4-0.1-0.6c0-0.2-0.1-0.3-0.1-0.5c-0.1-0.2-0.1-0.3-0.2-0.6c-0.1-0.2-0.1-0.3-0.2-0.5s-0.1-0.3-0.2-0.5
		c-0.1-0.2-0.2-0.3-0.2-0.6c-0.1-0.2-0.2-0.3-0.2-0.4c-0.1-0.2-0.2-0.3-0.2-0.5c-0.1-0.2-0.2-0.2-0.2-0.4s-0.2-0.3-0.3-0.5
		c-0.1-0.2-0.2-0.2-0.3-0.4c-0.1-0.2-0.2-0.2-0.3-0.4c-0.1-0.2-0.2-0.2-0.3-0.4c-0.1-0.2-0.2-0.2-0.3-0.3c-0.2-0.2-0.2-0.2-0.4-0.4
		c-0.2-0.1-0.2-0.2-0.4-0.3s-0.3-0.2-0.5-0.3c-0.2-0.1-0.2-0.2-0.4-0.2s-0.3-0.2-0.5-0.3c-0.2-0.1-0.3-0.2-0.5-0.2s-0.3-0.2-0.5-0.2
		s-0.3-0.2-0.5-0.2s-0.3-0.1-0.5-0.2c-0.2-0.1-0.4-0.2-0.6-0.2s-0.3-0.1-0.4-0.1c-0.2-0.1-0.4-0.1-0.6-0.1c-0.1,0-0.2-0.1-0.3-0.1
		l-270-37.3v-37.7c0-0.4,0-0.8-0.1-1.1c0-0.1,0-0.2-0.1-0.3c0-0.2-0.1-0.5-0.1-0.7c-0.1-0.2-0.1-0.4-0.2-0.6c0-0.2-0.1-0.2-0.1-0.4
		c-0.1-0.2-0.2-0.5-0.2-0.7c0-0.1-0.1-0.2-0.1-0.3c-0.1-0.2-0.2-0.4-0.3-0.6c-0.1-0.1-0.1-0.2-0.2-0.3c-0.1-0.2-0.2-0.3-0.3-0.5
		c-0.1-0.2-0.2-0.2-0.2-0.4c-0.1-0.2-0.2-0.2-0.2-0.4c-0.1-0.2-0.2-0.3-0.3-0.5c-0.1-0.1-0.2-0.2-0.2-0.2c-0.2-0.2-0.3-0.3-0.5-0.5
		c-0.1-0.1-0.2-0.2-0.2-0.2c-0.2-0.2-0.3-0.3-0.6-0.5c-0.1-0.1-0.2-0.2-0.3-0.2c-0.2-0.2-0.3-0.2-0.5-0.4c-0.2-0.2-0.5-0.3-0.6-0.4
		c-0.1-0.1-0.2-0.1-0.2-0.2c-0.3-0.2-0.7-0.3-1-0.5l-58.6-24.6c-5.5-2.3-11.8,0.2-14.1,5.7c-2.3,5.5,0.2,11.8,5.7,14.1l52,21.9v48.6
		v7.7V249v52.8v66.7c0,22.2,16.7,40.7,38.2,43.5c-3.9,6.5-6.2,14.1-6.2,22.2c0,23.9,19.5,43.3,43.3,43.3s43.3-19.5,43.3-43.3
		c0-7.9-2.1-15.5-6-21.8h96.4c-3.8,6.4-6,13.9-6,21.8c0,23.9,19.5,43.3,43.3,43.3s43.3-19.5,43.3-43.3S433.5,391,409.6,391H207
		c-12.4,0-22.4-10.1-22.4-22.4v-29.1C191.2,343.3,198.9,345.6,207,345.6z M260.4,434.2c0,12.1-9.9,21.8-21.8,21.8
		s-21.8-9.9-21.8-21.8s9.9-21.8,21.8-21.8S260.4,422.1,260.4,434.2z M431.6,434.2c0,12.1-9.9,21.8-21.8,21.8s-21.8-9.9-21.8-21.8
		s9.9-21.8,21.8-21.8S431.6,422.1,431.6,434.2z M420,324.1H207c-12.4,0-22.4-10.1-22.4-22.4v-52.8v-59.1v-4l257.8,35.5v80.3
		C442.5,314.1,432.4,324.1,420,324.1z"/>
</g>
</svg>
