<?xml version="1.0" encoding="utf-8"?>
<!-- Generator: Adobe Illustrator 19.0.0, SVG Export Plug-In . SVG Version: 6.00 Build 0)  -->
<svg version="1.1" id="Layer_1" xmlns="http://www.w3.org/2000/svg" xmlns:xlink="http://www.w3.org/1999/xlink" x="0px" y="0px"
	 viewBox="-28 -57.4 566.9 566.9" style="enable-background:new -28 -57.4 566.9 566.9;" xml:space="preserve">
<style type="text/css">
	.st0{fill:#6691CC;}
	.st1{fill:#FFFFFF;stroke:#FFFFFF;stroke-width:4;stroke-miterlimit:10;}
</style>
<rect id="XMLID_1_" x="-28" y="-57.4" class="st0" width="566.9" height="566.9"/>
<g>
	<path class="st1" d="M193.7,205.5c-5.2,5.2-13.7,5.2-19.1,0c-1.1-1.1-2.8-1.1-3.8,0c-1.1,1.1-1.1,2.8,0,3.8
		c3.7,3.7,8.5,5.5,13.4,5.5s9.7-1.9,13.4-5.5c1.1-1.1,1.1-2.8,0-3.8C196.6,204.4,194.9,204.4,193.7,205.5z"/>
	<path class="st1" d="M246.4,232.7c-6.5-7.1-6.7-25.3-5.9-44c2.8-2.6,4.5-6.4,4.5-10.5c0-3.6-1.3-7-3.6-9.5c1-19.1,1.4-32-4.6-43.8
		c-4.2-8.1-11-14.8-20-20c-10.5-6.1-22.7-9.1-34.9-8.6c-10.8,0.4-20.7,5.5-27.7,13.8c-9,0.4-17,5.4-21.5,12.9
		c-0.4,0.7-0.7,1.3-1.1,1.9c-6.1,11.8-5.6,24.6-4.7,43.8c-2.2,2.5-3.6,5.8-3.6,9.5c0,4.1,1.8,7.9,4.5,10.5c0.7,18.8,0.4,36.9-5.9,44
		c-0.6,0.7-0.8,1.6-0.7,2.5c0.3,1,0.8,1.6,1.7,1.9c7.3,2.8,14.3,3.7,20.6,3.7c6.7,0,12.4-1.1,17-2.2c8-2.2,13.6-5.2,15.5-6.3
		c2.6,0.4,5.2,0.7,8.1,0.7s5.5-0.3,8.1-0.7c1.9,1.1,7.5,4.1,15.5,6.3c6.1,1.7,11.8,2.2,16.9,2.2c8.5,0,15.6-1.8,20.6-3.7
		c0.8-0.4,1.5-1,1.7-1.9C247.3,234.4,247.1,233.4,246.4,232.7z M233.4,183.9v-13.6v-0.1v-0.4c3.6,1.2,6.2,4.5,6.2,8.4
		c0,4-2.7,7.4-6.3,8.5C233.4,185.7,233.4,184.8,233.4,183.9z M136.5,127.3c0.4-0.6,0.6-1.2,1-1.8c3.6-6.2,10.5-10.2,18.1-10.2l0,0
		c0.8,0,1.6-0.4,2.1-1.1c5.9-7.7,14.8-12.3,24.4-12.7c11.2-0.4,22.3,2.3,32,8c8.1,4.7,14.1,10.7,17.8,17.8
		c4.9,9.5,5.1,19.8,4.2,37.5c-1-0.4-1.9-0.7-2.8-0.8v-2.8c0-1.5-1.2-2.8-2.8-2.8s-2.8,1.2-2.8,2.8v6.3
		c-37.8,0.4-58.4-17.8-63.8-23.6c-0.7-0.7-1.6-1-2.5-0.8c-1,0.1-1.7,0.7-1.9,1.7c-4,9.7-11,14.8-22,16c-1.4,0.1-2.5,1.3-2.5,2.8v0.4
		c-1,0.1-1.9,0.4-2.8,0.8C131.6,147.1,131.7,136.8,136.5,127.3z M135.3,186.7c-3.6-1.2-6.3-4.5-6.3-8.5c0-4,2.6-7.4,6.2-8.4v14.1
		C135.1,184.8,135.3,185.7,135.3,186.7z M128.5,233.2c4.9-8.4,5.8-22.3,5.1-41.2c0.7,0.3,1.5,0.4,2.2,0.4
		c3.1,17.6,15.7,32,32.2,37.8C160.2,233.6,145.1,238.1,128.5,233.2z M184.3,227.4c-24,0-43.7-19.6-43.7-43.7v-17.9
		c10.3-1.7,17.6-6.7,22.3-15.4c4,3.6,10.4,8.5,19.4,12.9c13.6,6.6,28.9,9.7,45.6,9.6v10.9C228,207.9,208.3,227.4,184.3,227.4z
		 M209.4,233.3c-3.5-1-6.6-2.1-9-3.1c16.5-5.8,29.1-20.2,32.2-37.8c0.7-0.1,1.5-0.3,2.2-0.4c-0.6,19.1,0.3,32.9,5.1,41.3
		C230.4,236.2,220.1,236.3,209.4,233.3z"/>
	<path class="st1" d="M151.5,175.6c-1.1,1.1-1.1,2.8,0,3.8c1.1,1.1,2.8,1.1,3.8,0c1.8-1.8,4.6-1.8,6.4,0c0.4,0.4,1.2,0.8,1.9,0.8
		c0.7,0,1.4-0.3,1.9-0.8c1.1-1.1,1.1-2.8,0-3.8C161.7,171.8,155.3,171.8,151.5,175.6z"/>
	<path class="st1" d="M217.1,179.6c1.1-1.1,1.1-2.8,0-3.8c-4-4-10.2-4-14.1,0c-1.1,1.1-1.1,2.8,0,3.8c1.1,1.1,2.8,1.1,3.8,0
		c1.8-1.8,4.6-1.8,6.4,0c0.4,0.4,1.2,0.8,1.9,0.8C215.9,180.3,216.6,180.1,217.1,179.6z"/>
</g>
<g>
	<path class="st1" d="M285.5,301.5c1.3,0,2.5,0.4,3.4,1.4c0.4,0.4,1.2,0.7,1.9,0.7c0.7,0,1.3-0.3,1.9-0.7c1-1,1-2.8,0-3.7
		c-1.9-1.9-4.5-3-7.3-3s-5.2,1.1-7.3,3c-1,1-1,2.8,0,3.7c1,1,2.8,1,3.7,0C282.9,302.1,284.1,301.5,285.5,301.5z"/>
	<path class="st1" d="M333.5,299.2c-1,1-1,2.8,0,3.7c1,1,2.8,1,3.7,0c1.9-1.9,5.1-1.9,6.9,0c0.4,0.4,1.2,0.7,1.9,0.7
		c0.7,0,1.3-0.3,1.9-0.7c1-1,1-2.8,0-3.7C344,295.2,337.5,295.2,333.5,299.2z"/>
	<path class="st1" d="M340.7,325.6c-15.2,15.2-40.1,15.2-55.3,0c-1-1-2.8-1-3.7,0c-1,1-1,2.8,0,3.7c8.6,8.6,20,12.9,31.4,12.9
		s22.8-4.3,31.4-12.9c1-1,1-2.8,0-3.7C343.5,324.5,341.8,324.5,340.7,325.6z"/>
	<path class="st1" d="M376.1,304.4c0-7.3-5.2-13.3-12.1-14.6v-44.8c0-5.8-2.8-11.1-7.7-14.4c-4.5-3-10.2-3.7-15.2-1.9l-16.7-5.7
		c-12.9-4.3-26.5-4.9-39.3-1.3c-16.7,4.6-26.2,14.4-27.8,28.3c-1.3,1.8-2.3,3.7-3.1,5.8l-1.3,3.8c-0.7,2.1,0.1,4.3,1.9,5.5
		c1.9,1.2,4.1,1,5.7-0.6c0.4-0.4,1.1-1,1.8-1.3v26.6c-6.9,1.2-12.1,7.3-12.1,14.6c0,7.5,5.7,13.8,12.9,14.7
		c1.9,10.2,6.7,19.5,14,26.9c9.6,9.8,22.4,15.2,36,15.2l0,0c13.6,0,26.4-5.2,36-15c7.5-7.5,12.4-16.9,14.1-27.2
		C370.6,318.2,376.1,311.9,376.1,304.4z M353.3,235.3c3.4,2.2,5.4,5.8,5.4,9.9v34.9c-8.3-1.2-14.7-8.4-14.7-17l-0.3-29.4
		C347,232.7,350.4,233.3,353.3,235.3z M258.7,259.1l0.4-1.5c1.3-4,4.3-7.3,8.3-9c4-1.7,8.4-1.6,12.2,0.1c8.1,3.7,17.8,1.8,23.8-4.9
		l0.7-0.7c1-1.1,0.8-2.8-0.3-3.7c-1.1-1-2.8-0.8-3.7,0.3l-0.7,0.7c-4.3,4.9-11.5,6.5-17.5,3.7c-5.2-2.5-11.3-2.5-16.6-0.3
		c-0.4,0.1-1,0.4-1.4,0.7c3.1-8.3,10.6-14.1,22.4-17.3c11.7-3.3,24.2-2.8,36.1,1.2l15.9,5.4l0.1,13.8c-7.1,9.6-17.4,16.2-29.2,18.4
		c-12.1,2.2-24.4-0.1-34.6-6.9C269.8,255.8,263.5,255.8,258.7,259.1z M255.3,304.4c0-4.3,2.8-8,6.7-9v14.4c0,1.2,0.1,2.5,0.1,3.7
		C258.3,312.4,255.3,308.8,255.3,304.4z M345.4,342.6c-8.6,8.6-20,13.3-32.2,13.3l0,0c-12.1,0-23.6-4.8-32.3-13.6
		c-8.6-8.7-13.3-20.3-13.3-32.5V262c1.5,0.1,3,0.6,4.3,1.5c11.4,7.4,25.1,10.2,38.6,7.6c10.9-2.1,20.6-7.4,28.3-15.3v7.3
		c0,11.5,8.8,21.2,20,22.5v24.7C358.7,322.5,353.9,333.9,345.4,342.6z M363.9,313.5c0.1-1.1,0.1-2.2,0.1-3.2v-15
		c4,1.2,6.7,4.8,6.7,9C370.8,308.8,367.9,312.4,363.9,313.5z"/>
</g>
</svg>
