<?xml version="1.0" encoding="utf-8"?>
<!-- Generator: Adobe Illustrator 19.0.0, SVG Export Plug-In . SVG Version: 6.00 Build 0)  -->
<svg version="1.1" id="Layer_1" xmlns="http://www.w3.org/2000/svg" xmlns:xlink="http://www.w3.org/1999/xlink" x="0px" y="0px"
	 viewBox="-28 -57.4 566.9 566.9" style="enable-background:new -28 -57.4 566.9 566.9;" xml:space="preserve">
<style type="text/css">
	.st0{fill:#6691CC;}
	.st1{fill:#FFFFFF;stroke:#FFFFFF;stroke-width:6;stroke-miterlimit:10;}
</style>
<rect id="XMLID_1_" x="-28" y="-57.4" class="st0" width="566.9" height="566.9"/>
<g>
	<path class="st1" d="M175.2,197.6c-7,7-18.3,7-25.5,0c-1.5-1.5-3.8-1.5-5.1,0c-1.5,1.5-1.5,3.8,0,5.1c4.9,4.9,11.4,7.4,17.9,7.4
		c6.5,0,13-2.5,17.9-7.4c1.5-1.5,1.5-3.8,0-5.1C179,196.2,176.7,196.2,175.2,197.6z"/>
	<path class="st1" d="M245.7,234.1c-8.7-9.5-8.9-33.9-7.9-58.9c3.7-3.5,6-8.5,6-14.1c0-4.8-1.8-9.3-4.8-12.7
		c1.3-25.6,1.9-42.8-6.2-58.6C227.2,79,218.1,70,206.1,63c-14.1-8.2-30.4-12.2-46.7-11.5c-14.4,0.5-27.7,7.3-37,18.5
		c-12,0.6-22.8,7.2-28.7,17.2c-0.5,0.9-1,1.8-1.5,2.6c-8.2,15.8-7.5,32.9-6.3,58.6c-3,3.4-4.8,7.8-4.8,12.7c0,5.5,2.4,10.5,6,14
		c1,25.1,0.6,49.4-7.9,58.9c-0.8,0.9-1.1,2.1-0.9,3.4c0.4,1.3,1.1,2.1,2.3,2.6c9.8,3.7,19.1,4.9,27.6,4.9c8.9,0,16.6-1.5,22.7-3
		c10.7-2.9,18.2-6.9,20.7-8.4c3.5,0.5,7,0.9,10.8,0.9s7.3-0.4,10.8-0.9c2.6,1.5,10,5.5,20.7,8.4c8.2,2.3,15.8,3,22.6,3
		c11.4,0,20.8-2.4,27.6-4.9c1.1-0.5,2-1.4,2.3-2.6C246.8,236.3,246.6,235,245.7,234.1z M228.2,168.8v-18.2v-0.1v-0.5
		c4.8,1.6,8.3,6,8.3,11.3c0,5.4-3.6,9.9-8.4,11.4C228.2,171.2,228.2,170,228.2,168.8z M98.7,93.1c0.5-0.8,0.8-1.6,1.3-2.4
		c4.8-8.3,14.1-13.6,24.2-13.7l0,0c1.1,0,2.1-0.5,2.8-1.5c7.9-10.3,19.8-16.5,32.6-17c15-0.5,29.8,3.1,42.8,10.7
		c10.9,6.3,18.9,14.3,23.8,23.8c6.5,12.7,6.8,26.5,5.6,50.2c-1.3-0.5-2.5-0.9-3.7-1.1v-3.7c0-2-1.6-3.7-3.7-3.7
		c-2.1,0-3.7,1.6-3.7,3.7v8.4c-50.6,0.5-78.1-23.8-85.3-31.5c-0.9-0.9-2.1-1.4-3.4-1.1c-1.3,0.2-2.3,1-2.6,2.3
		c-5.4,13-14.7,19.8-29.4,21.4c-1.9,0.2-3.3,1.8-3.3,3.7v0.6c-1.3,0.2-2.6,0.6-3.7,1.1C92.1,119.6,92.2,105.8,98.7,93.1z M97,172.5
		c-4.8-1.6-8.4-6-8.4-11.4c0-5.3,3.5-9.9,8.3-11.3v18.9C96.8,170,97,171.2,97,172.5z M87.9,234.7c6.6-11.2,7.8-29.8,6.8-55.1
		c1,0.4,2,0.5,3,0.6c4.1,23.5,21,42.8,43,50.5C130.3,235.3,110.1,241.3,87.9,234.7z M162.6,227c-32.1,0-58.4-26.2-58.4-58.4v-23.9
		c13.8-2.3,23.6-9,29.8-20.6c5.3,4.8,13.9,11.4,25.9,17.2c18.2,8.8,38.7,13,61,12.8v14.6C221,200.9,194.7,227,162.6,227z
		 M196.1,234.9c-4.7-1.3-8.8-2.8-12-4.1c22.1-7.8,38.9-27,43-50.5c1-0.1,2-0.4,3-0.6c-0.8,25.5,0.4,44,6.8,55.2
		C224.2,238.7,210.4,238.8,196.1,234.9z"/>
	<path class="st1" d="M118.7,157.7c-1.5,1.5-1.5,3.8,0,5.1c1.5,1.5,3.8,1.5,5.1,0c2.4-2.4,6.2-2.4,8.5,0c0.6,0.6,1.6,1.1,2.6,1.1
		c0.9,0,1.9-0.4,2.6-1.1c1.5-1.5,1.5-3.8,0-5.1C132.3,152.6,123.8,152.6,118.7,157.7z"/>
	<path class="st1" d="M206.5,163c1.5-1.5,1.5-3.8,0-5.1c-5.3-5.3-13.7-5.3-18.9,0c-1.5,1.5-1.5,3.8,0,5.1c1.5,1.5,3.8,1.5,5.1,0
		c2.4-2.4,6.2-2.4,8.5,0c0.6,0.6,1.6,1.1,2.6,1.1C204.8,164,205.8,163.7,206.5,163z"/>
</g>
<g>
	<path class="st1" d="M297.9,326.1c1.8,0,3.4,0.6,4.6,1.9c0.6,0.6,1.6,1,2.6,1c0.9,0,1.8-0.4,2.6-1c1.4-1.4,1.4-3.7,0-5
		c-2.6-2.6-6-4-9.7-4s-7,1.5-9.7,4c-1.4,1.4-1.4,3.7,0,5s3.7,1.4,5,0C294.5,326.8,296.1,326.1,297.9,326.1z"/>
	<path class="st1" d="M362.1,323c-1.4,1.4-1.4,3.7,0,5s3.7,1.4,5,0c2.6-2.6,6.8-2.6,9.2,0c0.6,0.6,1.6,1,2.6,1c0.9,0,1.8-0.4,2.6-1
		c1.4-1.4,1.4-3.7,0-5C376.2,317.7,367.5,317.7,362.1,323z"/>
	<path class="st1" d="M371.8,358.3c-20.3,20.3-53.6,20.3-73.9,0c-1.4-1.4-3.7-1.4-5,0c-1.4,1.4-1.4,3.7,0,5
		c11.5,11.5,26.7,17.3,42,17.3s30.5-5.8,42-17.3c1.4-1.4,1.4-3.7,0-5C375.5,356.8,373.2,356.8,371.8,358.3z"/>
	<path class="st1" d="M419.1,330c0-9.8-7-17.8-16.2-19.5v-59.9c0-7.8-3.8-14.9-10.3-19.3c-6-4-13.6-4.9-20.3-2.6l-22.4-7.6
		c-17.2-5.8-35.4-6.5-52.5-1.8c-22.4,6.2-35.1,19.3-37.2,37.8c-1.8,2.4-3.1,4.9-4.1,7.8l-1.8,5.1c-0.9,2.8,0.1,5.7,2.6,7.3
		c2.5,1.6,5.5,1.3,7.6-0.8c0.6-0.6,1.5-1.3,2.4-1.8v35.6c-9.2,1.6-16.2,9.8-16.2,19.5c0,10,7.6,18.5,17.3,19.6
		c2.5,13.6,8.9,26.1,18.7,36c12.9,13.1,30,20.3,48.2,20.3l0,0c18.2,0,35.3-7,48.2-20c10-10,16.6-22.6,18.9-36.4
		C411.7,348.4,419.1,340,419.1,330z M388.6,237.5c4.5,3,7.2,7.8,7.2,13.3v46.7c-11.1-1.6-19.6-11.3-19.6-22.8l-0.4-39.3
		C380.2,234.1,384.7,234.9,388.6,237.5z M262.1,269.4l0.6-2c1.8-5.4,5.8-9.8,11.1-12c5.3-2.3,11.2-2.1,16.3,0.2
		c10.9,5,23.8,2.4,31.8-6.6l0.9-1c1.4-1.5,1.1-3.7-0.4-5c-1.5-1.4-3.7-1.1-5,0.4l-0.9,1c-5.8,6.6-15.4,8.7-23.4,4.9
		c-6.9-3.3-15.1-3.4-22.2-0.4c-0.6,0.2-1.3,0.5-1.9,0.9c4.1-11.1,14.2-18.8,30-23.2c15.7-4.4,32.4-3.8,48.3,1.6l21.3,7.2l0.2,18.5
		c-9.5,12.9-23.3,21.6-39,24.6c-16.2,3-32.6-0.2-46.3-9.2C276.9,264.9,268.5,265,262.1,269.4z M257.6,330c0-5.7,3.8-10.7,9-12.1
		v19.3c0,1.6,0.1,3.4,0.2,5C261.6,340.7,257.6,335.8,257.6,330z M378,381c-11.5,11.5-26.7,17.8-43,17.8l0,0
		c-16.2,0-31.6-6.4-43.2-18.2c-11.5-11.7-17.8-27.1-17.8-43.4v-64c2,0.1,4,0.8,5.8,2c15.3,9.9,33.6,13.6,51.6,10.2
		c14.6-2.8,27.6-9.9,37.8-20.5v9.8c0,15.4,11.8,28.4,26.7,30.1v33.1C395.8,354.1,389.4,369.4,378,381z M402.8,342.1
		c0.1-1.5,0.1-2.9,0.1-4.3v-20.1c5.3,1.6,9,6.4,9,12.1C412,335.8,408.1,340.7,402.8,342.1z"/>
</g>
</svg>
