<?xml version="1.0" encoding="utf-8"?>
<!-- Generator: Adobe Illustrator 19.0.0, SVG Export Plug-In . SVG Version: 6.00 Build 0)  -->
<svg version="1.1" id="Layer_1" xmlns="http://www.w3.org/2000/svg" xmlns:xlink="http://www.w3.org/1999/xlink" x="0px" y="0px"
	 viewBox="0 0 566.9 566.9" style="enable-background:new 0 0 566.9 566.9;" xml:space="preserve">
<style type="text/css">
	.st0{fill:#6691CC;}
	.st1{fill:#FFFFFF;}
</style>
<rect id="XMLID_1_" y="0" class="st0" width="566.9" height="566.9"/>
<g>
	<path class="st1" d="M196.2,252c-7.7,7.7-20.1,7.7-27.9,0c-1.6-1.6-4.2-1.6-5.6,0c-1.6,1.6-1.6,4.2,0,5.6
		c5.4,5.4,12.5,8.1,19.6,8.1s14.2-2.7,19.6-8.1c1.6-1.6,1.6-4.2,0-5.6C200.3,250.4,197.8,250.4,196.2,252z"/>
	<path class="st1" d="M273.4,292c-9.5-10.4-9.8-37.1-8.7-64.6c4.1-3.8,6.6-9.3,6.6-15.5c0-5.3-2-10.2-5.3-13.9
		c1.4-28.1,2.1-46.9-6.8-64.2c-6.1-11.8-16-21.7-29.2-29.3c-15.5-9-33.3-13.4-51.2-12.6c-15.8,0.6-30.4,8-40.6,20.3
		c-13.1,0.7-25,7.9-31.4,18.9c-0.5,1-1.1,2-1.6,2.9c-9,17.3-8.2,36.1-6.9,64.2c-3.3,3.7-5.3,8.6-5.3,13.9c0,6,2.6,11.5,6.6,15.3
		c1.1,27.5,0.7,54.1-8.7,64.6c-0.9,1-1.2,2.3-1,3.7c0.4,1.4,1.2,2.3,2.5,2.8c10.7,4.1,20.9,5.4,30.2,5.4c9.7,0,18.2-1.6,24.9-3.3
		c11.7-3.2,19.9-7.6,22.7-9.2c3.8,0.6,7.7,1,11.8,1c4.1,0,8-0.4,11.8-1c2.8,1.6,11,6,22.7,9.2c9,2.5,17.3,3.3,24.8,3.3
		c12.5,0,22.8-2.6,30.3-5.4c1.2-0.5,2.2-1.5,2.5-2.8C274.6,294.4,274.4,293,273.4,292z M254.2,220.4v-20v-0.1v-0.6
		c5.3,1.7,9.1,6.6,9.1,12.4c0,5.9-3.9,10.8-9.2,12.5C254.2,223.1,254.2,221.7,254.2,220.4z M112.3,137.5c0.5-0.9,0.9-1.7,1.4-2.6
		c5.3-9.1,15.5-14.9,26.5-15l0,0c1.2,0,2.3-0.6,3.1-1.6C152,107,165,100.2,179,99.7c16.4-0.6,32.7,3.4,46.9,11.7
		c11.9,6.9,20.7,15.7,26.1,26.1c7.1,13.9,7.4,29,6.1,55c-1.4-0.5-2.7-1-4.1-1.2v-4.1c0-2.2-1.8-4.1-4.1-4.1s-4.1,1.8-4.1,4.1v9.2
		c-55.5,0.6-85.6-26.1-93.5-34.5c-1-1-2.3-1.5-3.7-1.2c-1.4,0.2-2.5,1.1-2.9,2.5c-5.9,14.2-16.1,21.7-32.2,23.4
		c-2.1,0.2-3.6,2-3.6,4.1v0.7c-1.4,0.2-2.8,0.7-4.1,1.2C105.1,166.5,105.2,151.4,112.3,137.5z M110.4,224.5
		c-5.3-1.7-9.2-6.6-9.2-12.5c0-5.8,3.8-10.8,9.1-12.4v20.7C110.2,221.7,110.4,223.1,110.4,224.5z M100.5,292.7
		c7.2-12.3,8.5-32.7,7.5-60.4c1.1,0.4,2.2,0.6,3.3,0.7c4.5,25.8,23,46.9,47.1,55.4C146.9,293.3,124.8,299.9,100.5,292.7z
		 M182.3,284.2c-35.2,0-64-28.7-64-64V194c15.1-2.5,25.9-9.9,32.7-22.6c5.8,5.3,15.2,12.5,28.4,18.9c19.9,9.6,42.4,14.2,66.8,14v16
		C246.3,255.6,217.5,284.2,182.3,284.2z M219.1,292.9c-5.2-1.4-9.6-3.1-13.1-4.5c24.2-8.5,42.6-29.6,47.1-55.4
		c1.1-0.1,2.2-0.4,3.3-0.7c-0.9,27.9,0.4,48.2,7.5,60.5C249.8,297,234.7,297.1,219.1,292.9z"/>
	<path class="st1" d="M134.2,208.3c-1.6,1.6-1.6,4.2,0,5.6c1.6,1.6,4.2,1.6,5.6,0c2.6-2.6,6.8-2.6,9.3,0c0.7,0.7,1.8,1.2,2.8,1.2
		c1,0,2.1-0.4,2.8-1.2c1.6-1.6,1.6-4.2,0-5.6C149.1,202.7,139.8,202.7,134.2,208.3z"/>
	<path class="st1" d="M230.4,214.1c1.6-1.6,1.6-4.2,0-5.6c-5.8-5.8-15-5.8-20.7,0c-1.6,1.6-1.6,4.2,0,5.6c1.6,1.6,4.2,1.6,5.6,0
		c2.6-2.6,6.8-2.6,9.3,0c0.7,0.7,1.8,1.2,2.8,1.2C228.6,215.2,229.7,214.8,230.4,214.1z"/>
</g>
<g>
	<path class="st1" d="M330.6,392.8c2,0,3.7,0.7,5,2.1c0.7,0.7,1.7,1.1,2.8,1.1c1,0,2-0.4,2.8-1.1c1.5-1.5,1.5-4.1,0-5.5
		c-2.8-2.8-6.6-4.4-10.6-4.4s-7.7,1.6-10.6,4.4c-1.5,1.5-1.5,4.1,0,5.5s4.1,1.5,5.5,0C326.9,393.6,328.6,392.8,330.6,392.8z"/>
	<path class="st1" d="M401,389.4c-1.5,1.5-1.5,4.1,0,5.5s4.1,1.5,5.5,0c2.8-2.8,7.4-2.8,10.1,0c0.7,0.7,1.7,1.1,2.8,1.1
		c1,0,2-0.4,2.8-1.1c1.5-1.5,1.5-4.1,0-5.5C416.4,383.6,406.9,383.6,401,389.4z"/>
	<path class="st1" d="M411.6,428.1c-22.3,22.3-58.7,22.3-81,0c-1.5-1.5-4.1-1.5-5.5,0c-1.5,1.5-1.5,4.1,0,5.5
		c12.6,12.6,29.3,19,46,19c16.7,0,33.4-6.4,46-19c1.5-1.5,1.5-4.1,0-5.5C415.7,426.5,413.2,426.5,411.6,428.1z"/>
	<path class="st1" d="M463.5,397.1c0-10.7-7.7-19.5-17.8-21.4v-65.6c0-8.5-4.2-16.3-11.3-21.1c-6.6-4.4-14.9-5.4-22.3-2.8l-24.6-8.3
		c-18.9-6.4-38.8-7.1-57.5-2c-24.6,6.8-38.5,21.1-40.8,41.4c-2,2.6-3.4,5.4-4.5,8.5l-2,5.6c-1,3.1,0.1,6.3,2.8,8
		c2.7,1.7,6,1.4,8.3-0.9c0.7-0.7,1.6-1.4,2.6-2v39c-10.1,1.8-17.8,10.7-17.8,21.4c0,11,8.3,20.3,19,21.5
		c2.7,14.9,9.7,28.6,20.5,39.5c14.1,14.4,32.9,22.2,52.8,22.2l0,0c19.9,0,38.7-7.7,52.8-21.9c11-11,18.2-24.8,20.7-39.9
		C455.3,417.3,463.5,408,463.5,397.1z M430,295.7c4.9,3.3,7.9,8.6,7.9,14.6v51.2c-12.2-1.8-21.5-12.4-21.5-25l-0.4-43.1
		C420.8,292,425.8,292.9,430,295.7z M291.4,330.7l0.7-2.2c2-5.9,6.4-10.7,12.2-13.1c5.8-2.5,12.3-2.3,17.9,0.2
		c11.9,5.5,26.1,2.6,34.9-7.2l1-1.1c1.5-1.6,1.2-4.1-0.4-5.5c-1.6-1.5-4.1-1.2-5.5,0.4l-1,1.1c-6.4,7.2-16.9,9.5-25.7,5.4
		c-7.6-3.6-16.6-3.7-24.3-0.4c-0.7,0.2-1.4,0.6-2.1,1c4.5-12.2,15.6-20.6,32.9-25.4c17.2-4.8,35.5-4.2,52.9,1.7l23.3,7.9l0.2,20.3
		c-10.4,14.1-25.5,23.7-42.7,27c-17.7,3.3-35.7-0.2-50.7-10.1C307.6,325.7,298.4,325.9,291.4,330.7z M286.5,397.1
		c0-6.3,4.2-11.7,9.9-13.3v21.2c0,1.8,0.1,3.7,0.2,5.5C290.8,408.8,286.5,403.5,286.5,397.1z M418.4,453
		c-12.6,12.6-29.3,19.5-47.1,19.5l0,0c-17.8,0-34.6-7-47.3-19.9c-12.6-12.8-19.5-29.7-19.5-47.6v-70.1c2.2,0.1,4.4,0.9,6.4,2.2
		c16.8,10.9,36.8,14.9,56.5,11.2c16-3.1,30.3-10.9,41.4-22.5v10.7c0,16.9,12.9,31.1,29.3,33v36.3C437.9,423.5,430.9,440.3,418.4,453
		z M445.6,410.4c0.1-1.6,0.1-3.2,0.1-4.7v-22c5.8,1.7,9.9,7,9.9,13.3C455.7,403.4,451.4,408.8,445.6,410.4z"/>
</g>
</svg>
