<?xml version="1.0" encoding="utf-8"?>
<!-- Generator: Adobe Illustrator 19.0.0, SVG Export Plug-In . SVG Version: 6.00 Build 0)  -->
<svg version="1.1" id="Layer_1" xmlns="http://www.w3.org/2000/svg" xmlns:xlink="http://www.w3.org/1999/xlink" x="0px" y="0px"
	 viewBox="-28 -57.4 566.9 566.9" style="enable-background:new -28 -57.4 566.9 566.9;" xml:space="preserve">
<style type="text/css">
	.st0{fill:#6691CC;}
	.st1{fill:#FFFFFF;}
</style>
<rect id="XMLID_1_" x="-28" y="-57.4" class="st0" width="566.9" height="566.9"/>
<g id="XMLID_2_">
	<g id="XMLID_3_">
		<path id="XMLID_5_" class="st1" d="M379.9,100.8H131.1c-22.2,0-40.3,18-40.3,40.3v170.1c0,22.2,18,40.3,40.3,40.3h248.7
			c22.2,0,40.3-18,40.3-40.3v-170C420.2,119,402.1,100.8,379.9,100.8z M401.8,311.2c0,12.1-9.8,21.8-21.8,21.8H131.1
			c-12.1,0-21.8-9.8-21.8-21.8v-170c0-12.1,9.8-21.8,21.8-21.8h248.7c12.1,0,21.8,9.8,21.8,21.8L401.8,311.2L401.8,311.2z"/>
		<path id="XMLID_4_" class="st1" d="M298.5,224l80.5-72.3c3.7-3.4,4.1-9.2,0.7-13c-3.4-3.7-9.2-4.1-13-0.7l-111,99.7L234,218.4
			c-0.1-0.1-0.2-0.2-0.2-0.2c-0.5-0.5-0.9-0.9-1.5-1.3L144.2,138c-3.8-3.4-9.6-3.1-13,0.8c-3.4,3.8-3.1,9.6,0.8,13l81.5,72.8
			l-81.2,76c-3.7,3.5-3.9,9.3-0.4,13c1.9,1.9,4.3,2.9,6.7,2.9c2.2,0,4.5-0.9,6.3-2.5l82.3-77.1l22.4,20c1.8,1.5,3.9,2.3,6.1,2.3
			c2.2,0,4.4-0.9,6.1-2.4l22.9-20.6l81.9,77.8c1.8,1.7,4.1,2.6,6.3,2.6c2.5,0,4.8-0.9,6.7-2.9c3.5-3.7,3.3-9.5-0.3-13L298.5,224z"/>
	</g>
</g>
</svg>
