<?xml version="1.0" encoding="utf-8"?>
<!-- Generator: Adobe Illustrator 19.0.0, SVG Export Plug-In . SVG Version: 6.00 Build 0)  -->
<svg version="1.1" id="Layer_1" xmlns="http://www.w3.org/2000/svg" xmlns:xlink="http://www.w3.org/1999/xlink" x="0px" y="0px"
	 viewBox="-28 -57.4 566.9 566.9" style="enable-background:new -28 -57.4 566.9 566.9;" xml:space="preserve">
<style type="text/css">
	.st0{fill:#6691CC;}
	.st1{fill:#FFFFFF;}
</style>
<rect id="XMLID_1_" x="-28" y="-57.4" class="st0" width="566.9" height="566.9"/>
<g id="XMLID_2_">
	<g id="XMLID_3_">
		<path id="XMLID_5_" class="st1" d="M345.2,135.8H165.8c-16,0-29,13-29,29v122.6c0,16,13,29,29,29h179.3c16,0,29-13,29-29V165
			C374.2,149,361.2,135.8,345.2,135.8z M360.9,287.5c0,8.7-7.1,15.7-15.7,15.7H165.8c-8.7,0-15.7-7.1-15.7-15.7V165
			c0-8.7,7.1-15.7,15.7-15.7h179.3c8.7,0,15.7,7.1,15.7,15.7L360.9,287.5L360.9,287.5z"/>
		<path id="XMLID_4_" class="st1" d="M286.5,224.6l58-52.1c2.7-2.5,3-6.6,0.5-9.4c-2.5-2.7-6.6-3-9.4-0.5l-80,71.9L240,220.6
			c-0.1-0.1-0.1-0.1-0.1-0.1c-0.4-0.4-0.6-0.6-1.1-0.9l-63.5-56.9c-2.7-2.5-6.9-2.2-9.4,0.6c-2.5,2.7-2.2,6.9,0.6,9.4l58.7,52.5
			l-58.5,54.8c-2.7,2.5-2.8,6.7-0.3,9.4c1.4,1.4,3.1,2.1,4.8,2.1c1.6,0,3.2-0.6,4.5-1.8l59.3-55.6l16.1,14.4
			c1.3,1.1,2.8,1.7,4.4,1.7c1.6,0,3.2-0.6,4.4-1.7l16.5-14.8l59,56.1c1.3,1.2,3,1.9,4.5,1.9c1.8,0,3.5-0.6,4.8-2.1
			c2.5-2.7,2.4-6.8-0.2-9.4L286.5,224.6z"/>
	</g>
</g>
</svg>
