<?xml version="1.0" encoding="utf-8"?>
<!-- Generator: Adobe Illustrator 19.0.0, SVG Export Plug-In . SVG Version: 6.00 Build 0)  -->
<svg version="1.1" id="Layer_1" xmlns="http://www.w3.org/2000/svg" xmlns:xlink="http://www.w3.org/1999/xlink" x="0px" y="0px"
	 viewBox="0 0 566.9 566.9" style="enable-background:new 0 0 566.9 566.9;" xml:space="preserve">
<style type="text/css">
	.st0{fill:#6691CC;}
	.st1{fill:#FFFFFF;}
</style>
<rect id="XMLID_1_" class="st0" width="566.9" height="566.9"/>
<g id="XMLID_2_">
	<g id="XMLID_3_">
		<path id="XMLID_5_" class="st1" d="M444.2,121.7H122.9c-28.7,0-52,23.3-52,52v219.6c0,28.7,23.3,52,52,52h321.2
			c28.7,0,52-23.3,52-52V173.8C496.2,145.1,472.8,121.7,444.2,121.7z M472.4,393.3c0,15.6-12.7,28.2-28.2,28.2H122.9
			c-15.6,0-28.2-12.7-28.2-28.2V173.8c0-15.6,12.7-28.2,28.2-28.2h321.2c15.6,0,28.2,12.7,28.2,28.2L472.4,393.3L472.4,393.3z"/>
		<path id="XMLID_4_" class="st1" d="M339,280.7l104-93.3c4.8-4.4,5.3-11.9,0.9-16.8c-4.4-4.8-11.9-5.3-16.8-0.9L283.7,298.5l-28-25
			c-0.1-0.1-0.2-0.2-0.2-0.3c-0.6-0.6-1.2-1.1-1.9-1.7L139.8,169.7c-4.9-4.4-12.4-4-16.8,1c-4.4,4.9-4,12.4,1,16.8l105.2,94
			l-104.8,98.1c-4.8,4.5-5,12-0.5,16.8c2.4,2.5,5.5,3.8,8.7,3.8c2.9,0,5.8-1.1,8.1-3.2L247,297.5l28.9,25.8c2.3,2,5.1,3,7.9,3
			c2.8,0,5.7-1.1,7.9-3.1l29.6-26.6l105.7,100.5c2.3,2.2,5.3,3.3,8.2,3.3c3.2,0,6.2-1.2,8.6-3.7c4.5-4.8,4.3-12.3-0.4-16.8
			L339,280.7z"/>
	</g>
</g>
</svg>
