<?xml version="1.0" encoding="utf-8"?>
<!-- Generator: Adobe Illustrator 19.0.0, SVG Export Plug-In . SVG Version: 6.00 Build 0)  -->
<svg version="1.1" id="Layer_1" xmlns="http://www.w3.org/2000/svg" xmlns:xlink="http://www.w3.org/1999/xlink" x="0px" y="0px"
	 viewBox="-28 -57.4 566.9 566.9" style="enable-background:new -28 -57.4 566.9 566.9;" xml:space="preserve">
<style type="text/css">
	.st0{fill:#6691CC;}
	.st1{fill:#FFFFFF;}
</style>
<rect id="XMLID_1_" x="-28" y="-57.4" class="st0" width="566.9" height="566.9"/>
<g id="XMLID_2_">
	<g>
		<g>
			<path class="st1" d="M377.3,150.3c-1.9-3.7-5.2-6.4-9.1-7.7l-85.8-27.2c-0.1,0-0.1,0-0.1,0l-0.4-0.9c-2.6-8.1-11.3-12.7-19.5-10
				l-120.6,38.2c-3.9,1.2-7.2,3.9-9.1,7.7c-1.9,3.7-2.3,7.9-1,11.8L188.3,341c2.1,6.6,8.2,10.8,14.8,10.8c1.6,0,3.1-0.3,4.7-0.7
				l47.2-14.9l47.2,14.9c1.6,0.5,3.1,0.7,4.7,0.7c6.5,0,12.8-4.2,14.8-10.8l9.2-29c0-0.1,0-0.1,0.1-0.1c2.9-1.4,5.2-3.8,6.7-6.7
				c1.9-3.7,2.3-7.9,1-11.8l-1-3.1l40.5-128.2C379.5,158.1,379.2,154,377.3,150.3z M311.8,337.9c-0.9,2.7-3.8,4.2-6.5,3.4
				l-33.2-10.5l46.6-14.8L311.8,337.9z M328.4,300.4c-0.6,1.2-1.7,2.2-3.1,2.5l-71.8,22.7c-0.1,0-0.2,0.1-0.4,0.1l-48.6,15.4
				c-2.7,0.9-5.7-0.6-6.5-3.4l-56.6-178.9c-0.4-1.3-0.4-2.7,0.4-3.9c0.6-1.2,1.7-2.2,3.1-2.5l120.7-38.3l0,0
				c2.7-0.9,5.7,0.6,6.5,3.4l56.6,178.9C329.2,297.8,329,299.1,328.4,300.4z M295.4,157.1l42.7,13.5l-19.1,60.5L295.4,157.1z
				 M368.4,159l-36.2,114.2l-8-24.9l23.7-74.6c0.9-2.7,0.6-5.4-0.6-7.9c-1.2-2.4-3.4-4.3-6-5.1l-48.5-15.4c-0.4-0.1-0.6-0.2-1-0.2
				l-5.5-17.5l78.9,25c1.3,0.4,2.4,1.3,3.1,2.5C368.8,156.3,368.8,157.7,368.4,159z"/>
			<path class="st1" d="M236.4,192.9c-4.2,1.3-7.7,4-10.1,7.6c-4-1.6-8.5-1.7-12.7-0.4c-4.9,1.6-8.8,4.9-11.2,9.4
				c-2.4,4.5-2.8,9.7-1.2,14.6c1.6,5.1,5.4,9.2,10.3,11.2l21.4,8.7c1.3,0.5,2.7,0.8,4,0.8c1.1,0,2.2-0.2,3.2-0.5
				c2.4-0.8,4.4-2.4,5.8-4.4l12.5-19.5c2.9-4.4,3.6-10,2-15.1c-1.6-4.9-4.9-8.8-9.4-11.2C246.4,191.8,241.2,191.3,236.4,192.9z
				 M249.6,214.8l-12.5,19.5c-0.1,0.1-0.1,0.1-0.2,0.1c-0.1,0-0.1,0-0.2,0l-21.4-8.7c-2.1-0.9-3.7-2.6-4.4-4.7
				c-0.7-2.2-0.5-4.6,0.6-6.7c1.1-2.1,2.9-3.7,5.2-4.3c0.9-0.3,1.7-0.4,2.7-0.4c2.1,0,4.2,0.8,5.8,2.2c1.4,1.1,3.2,1.6,5,1
				c1.7-0.5,3.1-1.9,3.4-3.7c0.7-3,2.9-5.4,5.9-6.3c2.2-0.7,4.6-0.5,6.7,0.6c2.1,1.1,3.7,2.9,4.3,5.2
				C251.1,210.5,250.8,212.9,249.6,214.8z"/>
			<path class="st1" d="M263.9,141.5c-1.7-5.4-7.5-8.5-13-6.7l-82.2,26c-2.7,0.9-4.8,2.7-6,5.1c-1.3,2.4-1.5,5.2-0.6,7.9l38.3,120.9
				c1.4,4.4,5.4,7.2,9.9,7.2c1,0,2.1-0.1,3.1-0.4l82.2-26.2c2.7-0.9,4.8-2.7,6-5.1c1.3-2.4,1.5-5.2,0.6-7.9L263.9,141.5z
				 M210.2,291.5l-38.3-120.9l44.3-14.1l37.9-12l38.3,120.9L210.2,291.5z"/>
		</g>
	</g>
</g>
</svg>
