<?xml version="1.0" encoding="utf-8"?>
<!-- Generator: Adobe Illustrator 19.0.0, SVG Export Plug-In . SVG Version: 6.00 Build 0)  -->
<svg version="1.1" id="Layer_1" xmlns="http://www.w3.org/2000/svg" xmlns:xlink="http://www.w3.org/1999/xlink" x="0px" y="0px"
	 viewBox="0 0 566.9 566.9" style="enable-background:new 0 0 566.9 566.9;" xml:space="preserve">
<style type="text/css">
	.st0{fill:#6691CC;}
	.st1{fill:#FFFFFF;}
</style>
<rect id="XMLID_1_" y="0" class="st0" width="566.9" height="566.9"/>
<g id="XMLID_2_">
	<g>
		<g>
			<path class="st1" d="M471.3,165.8c-2.9-5.7-7.9-9.8-14-11.8l-132.1-41.9c-0.1,0-0.1,0-0.2,0l-0.5-1.4c-4-12.5-17.4-19.5-30-15.5
				L108.7,154c-6.1,1.9-11,6.1-14,11.8c-2.9,5.7-3.5,12.1-1.6,18.2l87.2,275.4c3.2,10.2,12.6,16.7,22.8,16.7c2.4,0,4.8-0.4,7.2-1.1
				l72.7-23l72.7,23c2.4,0.8,4.8,1.1,7.2,1.1c10.1,0,19.6-6.5,22.8-16.7l14.1-44.6c0-0.1,0-0.1,0.1-0.2c4.5-2.2,8.1-5.8,10.4-10.3
				c2.9-5.7,3.5-12.1,1.6-18.2l-1.5-4.7L472.9,184C474.8,177.9,474.2,171.5,471.3,165.8z M370.5,454.6c-1.3,4.2-5.8,6.5-10,5.2
				l-51.1-16.2l71.8-22.7L370.5,454.6z M396.1,396.9c-1,1.9-2.6,3.3-4.7,3.9l-110.6,35c-0.2,0-0.3,0.1-0.5,0.2l-74.8,23.7
				c-4.2,1.3-8.7-1-10-5.2l-87.2-275.4c-0.6-2-0.5-4.2,0.5-6.1c1-1.9,2.6-3.3,4.7-3.9l185.9-58.9h0c4.2-1.3,8.7,1,10,5.2l87.2,275.4
				C397.3,392.9,397.1,395,396.1,396.9z M345.3,176.3l65.7,20.8l-29.5,93.2L345.3,176.3z M457.7,179.2L402,355.1l-12.2-38.4
				l36.4-114.8c1.3-4.1,0.9-8.4-1-12.1s-5.3-6.6-9.3-7.8l-74.7-23.7c-0.5-0.2-1-0.3-1.6-0.3l-8.6-27.2l121.6,38.5
				c2,0.6,3.7,2,4.7,3.9C458.2,175,458.3,177.2,457.7,179.2z"/>
			<path class="st1" d="M254.3,231.4c-6.4,2-11.9,6.2-15.6,11.7c-6.2-2.4-13-2.7-19.5-0.6c-7.5,2.4-13.6,7.5-17.2,14.5
				s-4.3,14.9-1.9,22.4c2.5,7.8,8.3,14.1,15.9,17.2l32.9,13.5c2,0.8,4.1,1.2,6.2,1.2c1.7,0,3.3-0.3,5-0.8c3.7-1.2,6.8-3.6,8.9-6.8
				l19.2-30c4.4-6.9,5.5-15.4,3.1-23.2c-2.4-7.5-7.5-13.6-14.5-17.2C269.7,229.7,261.8,229,254.3,231.4z M274.7,265.1l-19.2,30
				c-0.1,0.1-0.2,0.2-0.3,0.2c-0.1,0-0.2,0-0.3,0L222,281.9c-3.2-1.3-5.7-4-6.7-7.3c-1.1-3.4-0.8-7.1,0.9-10.3
				c1.7-3.2,4.5-5.6,7.9-6.6c1.4-0.4,2.7-0.6,4.1-0.6c3.2,0,6.4,1.2,8.9,3.4c2.1,1.8,5,2.5,7.7,1.6c2.7-0.8,4.7-3,5.3-5.7
				c1.1-4.6,4.5-8.3,9-9.7c3.4-1.1,7.1-0.8,10.3,0.9c3.2,1.7,5.6,4.5,6.6,7.9C277,258.6,276.6,262.2,274.7,265.1z"/>
			<path class="st1" d="M296.7,152.2c-2.7-8.4-11.6-13-20-10.4l-126.5,40.1c-4.1,1.3-7.4,4.1-9.3,7.8c-2,3.8-2.3,8.1-1,12.1
				l59,186.1c2.1,6.8,8.4,11.1,15.2,11.1c1.6,0,3.2-0.2,4.8-0.7l126.5-40.1c4.1-1.3,7.4-4.1,9.3-7.8c2-3.8,2.3-8.1,1-12.1
				L296.7,152.2z M214,383.2l-59-186.1l68.2-21.6l58.3-18.5l59,186.1L214,383.2z"/>
		</g>
	</g>
</g>
</svg>
