<?xml version="1.0" encoding="utf-8"?>
<!-- Generator: Adobe Illustrator 19.0.0, SVG Export Plug-In . SVG Version: 6.00 Build 0)  -->
<svg version="1.1" id="Layer_1" xmlns="http://www.w3.org/2000/svg" xmlns:xlink="http://www.w3.org/1999/xlink" x="0px" y="0px"
	 viewBox="-28 -57.4 566.9 566.9" style="enable-background:new -28 -57.4 566.9 566.9;" xml:space="preserve">
<style type="text/css">
	.st0{fill:#6691CC;}
	.st1{fill:#FFFFFF;}
</style>
<rect id="XMLID_1_" x="-28" y="-57.4" class="st0" width="566.9" height="566.9"/>
<g id="XMLID_2_">
	<g>
		<g>
			<path class="st1" d="M425.6,119.7c-2.6-5.2-7.2-8.9-12.7-10.7L293.2,71c-0.1,0-0.1,0-0.2,0l-0.5-1.3c-3.6-11.3-15.8-17.7-27.2-14
				L97.1,109c-5.5,1.7-10,5.5-12.7,10.7c-2.6,5.2-3.2,11-1.4,16.5l79,249.5c2.9,9.2,11.4,15.1,20.7,15.1c2.2,0,4.3-0.4,6.5-1
				l65.9-20.8l65.9,20.8c2.2,0.7,4.3,1,6.5,1c9.1,0,17.8-5.9,20.7-15.1l12.8-40.4c0-0.1,0-0.1,0.1-0.2c4.1-2,7.3-5.3,9.4-9.3
				c2.6-5.2,3.2-11,1.4-16.5l-1.4-4.3L427,136.2C428.7,130.6,428.2,124.8,425.6,119.7z M334.3,381.3c-1.2,3.8-5.3,5.9-9.1,4.7
				l-46.3-14.7l65-20.6L334.3,381.3z M357.4,329c-0.9,1.7-2.4,3-4.3,3.5L253,364.2c-0.2,0-0.3,0.1-0.5,0.2l-67.8,21.5
				c-3.8,1.2-7.9-0.9-9.1-4.7l-79-249.5c-0.5-1.8-0.5-3.8,0.5-5.5c0.9-1.7,2.4-3,4.3-3.5l168.4-53.4l0,0c3.8-1.2,7.9,0.9,9.1,4.7
				l79,249.5C358.5,325.4,358.3,327.3,357.4,329z M311.4,129.2l59.5,18.8l-26.7,84.4L311.4,129.2z M413.2,131.8l-50.5,159.3
				l-11.1-34.8l33-104c1.2-3.7,0.8-7.6-0.9-11c-1.7-3.4-4.8-6-8.4-7.1l-67.7-21.5c-0.5-0.2-0.9-0.3-1.4-0.3L298.5,88l110.1,34.9
				c1.8,0.5,3.4,1.8,4.3,3.5C413.7,128,413.8,130,413.2,131.8z"/>
			<path class="st1" d="M229,179.1c-5.8,1.8-10.8,5.6-14.1,10.6c-5.6-2.2-11.8-2.4-17.7-0.5c-6.8,2.2-12.3,6.8-15.6,13.1
				c-3.3,6.3-3.9,13.5-1.7,20.3c2.3,7.1,7.5,12.8,14.4,15.6l29.8,12.2c1.8,0.7,3.7,1.1,5.6,1.1c1.5,0,3-0.3,4.5-0.7
				c3.4-1.1,6.2-3.3,8.1-6.2l17.4-27.2c4-6.2,5-13.9,2.8-21c-2.2-6.8-6.8-12.3-13.1-15.6C243,177.6,235.8,176.9,229,179.1z
				 M247.5,209.6l-17.4,27.2c-0.1,0.1-0.2,0.2-0.3,0.2c-0.1,0-0.2,0-0.3,0l-29.8-12.1c-2.9-1.2-5.2-3.6-6.1-6.6
				c-1-3.1-0.7-6.4,0.8-9.3c1.5-2.9,4.1-5.1,7.2-6c1.3-0.4,2.4-0.5,3.7-0.5c2.9,0,5.8,1.1,8.1,3.1c1.9,1.6,4.5,2.3,7,1.4
				c2.4-0.7,4.3-2.7,4.8-5.2c1-4.2,4.1-7.5,8.2-8.8c3.1-1,6.4-0.7,9.3,0.8c2.9,1.5,5.1,4.1,6,7.2C249.6,203.7,249.2,207,247.5,209.6
				z"/>
			<path class="st1" d="M267.4,107.4c-2.4-7.6-10.5-11.8-18.1-9.4l-114.6,36.3c-3.7,1.2-6.7,3.7-8.4,7.1c-1.8,3.4-2.1,7.3-0.9,11
				l53.4,168.6c1.9,6.2,7.6,10.1,13.8,10.1c1.4,0,2.9-0.2,4.3-0.6L311.5,294c3.7-1.2,6.7-3.7,8.4-7.1c1.8-3.4,2.1-7.3,0.9-11
				L267.4,107.4z M192.5,316.6L139.1,148l61.8-19.6l52.8-16.8l53.4,168.6L192.5,316.6z"/>
		</g>
	</g>
</g>
</svg>
