<?xml version="1.0" encoding="utf-8"?>
<!-- Generator: Adobe Illustrator 19.0.0, SVG Export Plug-In . SVG Version: 6.00 Build 0)  -->
<svg version="1.1" id="Layer_1" xmlns="http://www.w3.org/2000/svg" xmlns:xlink="http://www.w3.org/1999/xlink" x="0px" y="0px"
	 viewBox="-28 -57.4 566.9 566.9" style="enable-background:new -28 -57.4 566.9 566.9;" xml:space="preserve">
<style type="text/css">
	.st0{fill:#6691CC;}
	.st1{fill:#FFFFFF;}
</style>
<rect id="XMLID_1_" x="-28" y="-57.4" class="st0" width="566.9" height="566.9"/>
<g>
	<path class="st1" d="M303.1,262.2c-14.8,0-28,7.1-36.4,17.9l-70.7-39.5c1.7-4.8,2.6-9.9,2.6-15.2s-0.9-10.4-2.6-15.3l70.7-39.5
		c8.4,10.9,21.7,18.1,36.5,18.1c25.4,0,46-20.7,46-46s-20.7-46-46.1-46s-46,20.7-46,46c0,5.3,0.9,10.5,2.6,15.3L189,197.4
		c-8.4-11-21.7-18.1-36.5-18.1c-25.4,0-46,20.7-46,46s20.7,46,46.1,46c14.8,0,28.2-7.1,36.6-18.2l70.7,39.5
		c-1.7,4.8-2.7,10-2.7,15.3c0,25.4,20.7,46,46,46c25.4,0,46-20.7,46-46C349.3,282.8,328.5,262.2,303.1,262.2z M303.1,111.2
		c17.4,0,31.6,14.2,31.6,31.6s-14.2,31.6-31.6,31.6s-31.6-14.2-31.6-31.6S285.7,111.2,303.1,111.2z M152.5,257
		c-17.4,0-31.6-14.2-31.6-31.6s14.2-31.6,31.6-31.6s31.6,14.2,31.6,31.6C184.1,242.9,169.9,257,152.5,257z M303.1,339.7
		c-17.4,0-31.6-14.2-31.6-31.6c0-17.4,14.2-31.6,31.6-31.6c17.4,0,31.6,14.2,31.6,31.6C334.7,325.5,320.6,339.7,303.1,339.7z"/>
</g>
</svg>
