<?xml version="1.0" encoding="utf-8"?>
<!-- Generator: Adobe Illustrator 19.0.0, SVG Export Plug-In . SVG Version: 6.00 Build 0)  -->
<svg version="1.1" id="Layer_1" xmlns="http://www.w3.org/2000/svg" xmlns:xlink="http://www.w3.org/1999/xlink" x="0px" y="0px"
	 viewBox="-28 -57.4 566.9 566.9" style="enable-background:new -28 -57.4 566.9 566.9;" xml:space="preserve">
<style type="text/css">
	.st0{fill:#6691CC;}
	.st1{fill:#FFFFFF;}
</style>
<rect id="XMLID_1_" x="-28" y="-57.4" class="st0" width="566.9" height="566.9"/>
<g>
	<path class="st1" d="M332.3,276.4c-20.6,0-38.9,9.8-50.6,24.9l-98.2-54.9c2.3-6.6,3.6-13.7,3.6-21.1s-1.3-14.5-3.6-21.2l98.2-54.8
		c11.7,15.2,30.1,25.1,50.7,25.1c35.2,0,63.9-28.7,63.9-63.9s-28.8-63.9-64-63.9s-63.9,28.7-63.9,63.9c0,7.4,1.3,14.6,3.6,21.2
		l-98.1,54.8c-11.7-15.3-30.1-25.1-50.7-25.1c-35.2,0-63.9,28.7-63.9,63.9s28.7,63.9,64,63.9c20.6,0,39.1-9.9,50.8-25.2l98.2,54.9
		c-2.4,6.7-3.7,13.9-3.7,21.3c0,35.2,28.7,63.9,63.9,63.9s63.9-28.7,63.9-63.9S367.6,276.4,332.3,276.4z M332.3,66.8
		c24.2,0,43.9,19.7,43.9,43.9s-19.7,43.9-43.9,43.9c-24.2,0-43.9-19.7-43.9-43.9S308.2,66.8,332.3,66.8z M123.3,269.2
		c-24.2,0-43.9-19.7-43.9-43.9c0-24.2,19.7-43.9,43.9-43.9s43.9,19.7,43.9,43.9C167.1,249.6,147.4,269.2,123.3,269.2z M332.3,384.1
		c-24.2,0-43.9-19.7-43.9-43.9c0-24.2,19.7-43.9,43.9-43.9c24.2,0,43.9,19.7,43.9,43.9C376.2,364.4,356.6,384.1,332.3,384.1z"/>
</g>
</svg>
