<?xml version="1.0" encoding="utf-8"?>
<!-- Generator: Adobe Illustrator 19.0.0, SVG Export Plug-In . SVG Version: 6.00 Build 0)  -->
<svg version="1.1" id="Layer_1" xmlns="http://www.w3.org/2000/svg" xmlns:xlink="http://www.w3.org/1999/xlink" x="0px" y="0px"
	 viewBox="0 0 566.9 566.9" style="enable-background:new 0 0 566.9 566.9;" xml:space="preserve">
<style type="text/css">
	.st0{fill:#6691CC;}
	.st1{fill:#FFFFFF;}
</style>
<rect id="XMLID_1_" y="0" class="st0" width="566.9" height="566.9"/>
<g>
	<path class="st1" d="M388.3,333.8c-20.6,0-38.9,9.8-50.6,24.9l-98.2-54.9c2.3-6.6,3.6-13.7,3.6-21.1c0-7.4-1.3-14.5-3.6-21.2
		l98.2-54.8c11.7,15.2,30.1,25.1,50.7,25.1c35.2,0,63.9-28.7,63.9-63.9S423.5,104,388.3,104s-63.9,28.7-63.9,63.9
		c0,7.4,1.3,14.6,3.6,21.2l-98.1,54.8c-11.7-15.3-30.1-25.1-50.7-25.1c-35.2,0-63.9,28.7-63.9,63.9s28.7,63.9,64,63.9
		c20.6,0,39.1-9.9,50.8-25.2l98.2,54.9c-2.4,6.7-3.7,13.9-3.7,21.3c0,35.2,28.7,63.9,63.9,63.9s63.9-28.7,63.9-63.9
		S423.6,333.8,388.3,333.8z M388.3,124.2c24.2,0,43.9,19.7,43.9,43.9s-19.7,43.9-43.9,43.9c-24.2,0-43.9-19.7-43.9-43.9
		S364.2,124.2,388.3,124.2z M179.3,326.6c-24.2,0-43.9-19.7-43.9-43.9c0-24.2,19.7-43.9,43.9-43.9s43.9,19.7,43.9,43.9
		C223.1,307,203.4,326.6,179.3,326.6z M388.3,441.5c-24.2,0-43.9-19.7-43.9-43.9c0-24.2,19.7-43.9,43.9-43.9
		c24.2,0,43.9,19.7,43.9,43.9C432.2,421.8,412.6,441.5,388.3,441.5z"/>
</g>
</svg>
