<svg id="Layer_1" data-name="Layer 1" xmlns="http://www.w3.org/2000/svg" viewBox="0 0 1000 1000"><defs><style>.cls-1{fill:#74a3e9;}.cls-2{fill:#fff;}</style></defs><title>autogenerate-all-icon</title><rect class="cls-1" width="1000" height="1000"/><path class="cls-2" d="M693.39,275.19H354.52a9.27,9.27,0,1,0,0,18.3H693.39a9.27,9.27,0,1,0,0-18.3Z"/><path class="cls-2" d="M693.39,311.79H354.52a9.27,9.27,0,0,0,0,18.3H693.39a9.27,9.27,0,1,0,0-18.3Z"/><path class="cls-2" d="M702.19,348.38H354.52a45.87,45.87,0,1,1,0-91.49H702.19a9.27,9.27,0,0,0,0-18.3H354.52a64.4,64.4,0,0,0-63,49.43,8.56,8.56,0,0,0-2.14,4.75v402.8a65.59,65.59,0,0,0,65.11,65.83H647.29a63.93,63.93,0,0,0,63.21-64.63h0V357.41a7.84,7.84,0,0,0-8.32-9Zm-10,347.2a45.63,45.63,0,0,1-43.68,47.49l-1.23,0H354.52A47.53,47.53,0,0,1,307,695.58V346.72a71.29,71.29,0,0,0,47.53,20H692.21Z"/><path class="cls-2" d="M373,641.74a7,7,0,0,1,5,2,3.78,3.78,0,0,0,2.7,1.14,3.68,3.68,0,0,0,2.7-1.14,3.88,3.88,0,0,0,0-5.46,14.79,14.79,0,0,0-20.9,0,3.86,3.86,0,0,0,5.46,5.46A7.29,7.29,0,0,1,373,641.74Z"/><path class="cls-2" d="M442.37,638.38a3.86,3.86,0,1,0,5.46,5.46,7,7,0,0,1,10,0,3.78,3.78,0,0,0,2.7,1.14,3.68,3.68,0,0,0,2.7-1.14,3.88,3.88,0,0,0,0-5.46A14.72,14.72,0,0,0,442.37,638.38Z"/><path class="cls-2" d="M452.76,676.33a56.47,56.47,0,0,1-79.75,0,3.86,3.86,0,1,0-5.46,5.46,64.23,64.23,0,0,0,90.68,0,3.86,3.86,0,1,0-5.46-5.46Z"/><path class="cls-2" d="M503.8,645.88a21.4,21.4,0,0,0-17.54-21V560.43a24.9,24.9,0,0,0-33.15-23.48l-24.2-8.23a95.81,95.81,0,0,0-56.57-1.86c-24.14,6.67-38,20.72-40.05,40.72a29.61,29.61,0,0,0-4.38,8.29L326,581.39a6.69,6.69,0,0,0,11,7,15.55,15.55,0,0,1,2.52-1.92v38.37a21.36,21.36,0,0,0,1.2,42.22A73.87,73.87,0,0,0,361,705.88a72.55,72.55,0,0,0,51.95,21.86h0A73.46,73.46,0,0,0,485.24,667,21.34,21.34,0,0,0,503.8,645.88Zm-32.91-99.75a17,17,0,0,1,7.69,14.29v50.38a25.06,25.06,0,0,1-21.14-24.68l-.3-42.34A16.75,16.75,0,0,1,470.89,546.14ZM334.45,580.61l.72-2.22a21.55,21.55,0,0,1,29.55-12.61A29.45,29.45,0,0,0,399,558.63l1-1.08a3.87,3.87,0,1,0-5.83-5.1l-1,1.08a21.82,21.82,0,0,1-25.28,5.28,29.34,29.34,0,0,0-23.9-.36c-.72.3-1.38.66-2,1,4.5-12,15.31-20.36,32.37-25a88.14,88.14,0,0,1,52.07,1.74l22.94,7.81.3,19.88a68.11,68.11,0,0,1-92,16.63A20.65,20.65,0,0,0,334.45,580.61Zm-4.74,65.28a13.69,13.69,0,0,1,9.79-13.09v20.9q0,2.7.18,5.4A13.87,13.87,0,0,1,329.71,645.88Zm129.65,54.95A65.13,65.13,0,0,1,412.94,720h0a65.07,65.07,0,0,1-46.48-19.52,66.36,66.36,0,0,1-19.22-46.84v-69a13.22,13.22,0,0,1,6.31,2.16,75.78,75.78,0,0,0,96.2-11.11v10.45a32.68,32.68,0,0,0,28.83,32.43v35.79A65.38,65.38,0,0,1,459.36,700.83ZM486.14,659c.12-1.56.12-3.06.12-4.62V632.79a13.67,13.67,0,0,1-.12,26.24Z"/><path class="cls-2" d="M604.51,534.72a18.76,18.76,0,0,1-26.47,0,3.81,3.81,0,0,0-5.39,5.39,26.45,26.45,0,0,0,37.31,0,3.83,3.83,0,0,0-5.45-5.39Z"/><path class="cls-2" d="M677.82,572.62c-8.94-9.89-9.36-35.18-8.29-61.35a20,20,0,0,0,1.36-27.83c1.3-26.65,2-44.47-6.45-60.93-5.74-11.25-15.1-20.61-27.77-27.89a90.64,90.64,0,0,0-48.62-12,52.15,52.15,0,0,0-38.55,19.25,37,37,0,0,0-29.85,17.88c-.53.89-1,1.84-1.48,2.72-8.47,16.46-7.76,34.29-6.45,61a20,20,0,0,0,1.36,27.83c1.07,26.17.65,51.4-8.29,61.35a3.87,3.87,0,0,0-.89,3.43,3.72,3.72,0,0,0,2.37,2.66,81,81,0,0,0,28.66,5.15,90.77,90.77,0,0,0,23.63-3.2,93.61,93.61,0,0,0,21.56-8.76,70.21,70.21,0,0,0,22.27,0,93.61,93.61,0,0,0,21.56,8.76,89.62,89.62,0,0,0,23.51,3.2,81.84,81.84,0,0,0,28.78-5.15,3.83,3.83,0,0,0,2.37-2.66A3.65,3.65,0,0,0,677.82,572.62Zm-18.18-68V484.86a12.44,12.44,0,0,1-.12,23.69C659.59,507.18,659.64,505.88,659.64,504.58ZM525,426c.41-.83.83-1.6,1.3-2.37a29.42,29.42,0,0,1,25.11-14.21h.06a3.82,3.82,0,0,0,3-1.48,44.65,44.65,0,0,1,33.93-17.71,83.55,83.55,0,0,1,44.53,11c11.37,6.51,19.66,14.86,24.75,24.75,6.75,13.21,7,27.54,5.86,52.17a22.22,22.22,0,0,0-3.85-1.18v-3.91a3.85,3.85,0,1,0-7.7,0v8.7c-52.64.53-81.19-24.81-88.77-32.75a3.82,3.82,0,0,0-3.49-1.13,4,4,0,0,0-2.84,2.31c-5.57,13.5-15.28,20.61-30.56,22.27a3.84,3.84,0,0,0-3.43,3.79V477a17.07,17.07,0,0,0-3.85,1.18C518,453.53,518.17,439.14,525,426Zm-1.89,82.55a12.44,12.44,0,0,1-.12-23.69v19.72C523,505.88,523,507.18,523.09,508.54Zm-9.36,64.67c6.81-11.61,8-31,7.11-57.38a26.87,26.87,0,0,0,3.14.71,68.58,68.58,0,0,0,44.77,52.53C557.73,573.86,536.77,580.14,513.73,573.21Zm77.57-8a60.78,60.78,0,0,1-60.7-60.7V479.59c14.33-2.37,24.52-9.42,31-21.44a111.93,111.93,0,0,0,26.94,17.94c18.89,9.06,40.15,13.56,63.42,13.32v15.16A60.73,60.73,0,0,1,591.31,565.21Zm34.94,8.17a94.21,94.21,0,0,1-12.49-4.32,68.58,68.58,0,0,0,44.77-52.53,18.56,18.56,0,0,0,3.14-.71c-.89,26.41.3,45.72,7.11,57.38C655.32,577.3,641.05,577.35,626.25,573.39Z"/><path class="cls-2" d="M545.59,493.21A3.81,3.81,0,0,0,551,498.6a6.33,6.33,0,0,1,8.88,0,3.86,3.86,0,0,0,5.45,0,3.82,3.82,0,0,0,0-5.39A14,14,0,0,0,545.59,493.21Z"/><path class="cls-2" d="M637,498.65a3.82,3.82,0,0,0,0-5.39,13.94,13.94,0,0,0-19.72,0,3.81,3.81,0,0,0,5.39,5.39,6.33,6.33,0,0,1,8.88,0,3.76,3.76,0,0,0,2.72,1.13A3.91,3.91,0,0,0,637,498.65Z"/></svg>