<svg id="Layer_1" data-name="Layer 1" xmlns="http://www.w3.org/2000/svg" viewBox="0 0 1000 1000"><defs><style>.cls-1{fill:#74a3e9;}.cls-2{fill:#fff;}</style></defs><title>autogenerate-one-child-icon</title><rect class="cls-1" width="1000" height="1000"/><path class="cls-2" d="M693.39,275.19H354.52a9.27,9.27,0,1,0,0,18.3H693.39a9.27,9.27,0,1,0,0-18.3Z"/><path class="cls-2" d="M693.39,311.79H354.52a9.27,9.27,0,0,0,0,18.3H693.39a9.27,9.27,0,1,0,0-18.3Z"/><path class="cls-2" d="M702.19,348.38H354.52a45.87,45.87,0,1,1,0-91.49H702.19a9.27,9.27,0,0,0,0-18.3H354.52a64.4,64.4,0,0,0-63,49.43,8.56,8.56,0,0,0-2.14,4.75v402.8a65.59,65.59,0,0,0,65.11,65.83H647.29a63.93,63.93,0,0,0,63.21-64.63h0V357.41a7.84,7.84,0,0,0-8.32-9Zm-10,347.2a45.63,45.63,0,0,1-43.68,47.49l-1.23,0H354.52A47.53,47.53,0,0,1,307,695.58V346.72a71.29,71.29,0,0,0,47.53,20H692.21Z"/><path class="cls-2" d="M447.42,579.85a10,10,0,0,1,7.08,2.9,5.37,5.37,0,0,0,3.84,1.62,5.23,5.23,0,0,0,3.84-1.62,5.51,5.51,0,0,0,0-7.76,21,21,0,0,0-29.68,0,5.49,5.49,0,1,0,7.76,7.76A10.35,10.35,0,0,1,447.42,579.85Z"/><path class="cls-2" d="M545.94,575.07a5.49,5.49,0,0,0,7.76,7.76,10,10,0,0,1,14.16,0,5.37,5.37,0,0,0,3.84,1.62,5.23,5.23,0,0,0,3.84-1.62,5.51,5.51,0,0,0,0-7.76A20.9,20.9,0,0,0,545.94,575.07Z"/><path class="cls-2" d="M560.7,629a80.21,80.21,0,0,1-113.28,0,5.49,5.49,0,0,0-7.76,7.76,91.23,91.23,0,0,0,128.81,0A5.49,5.49,0,1,0,560.7,629Z"/><path class="cls-2" d="M633.21,585.73a30.4,30.4,0,0,0-24.91-29.86V464.35A35.37,35.37,0,0,0,561.21,431l-34.38-11.69a136.09,136.09,0,0,0-80.35-2.64c-34.29,9.47-53.91,29.43-56.9,57.83a42.05,42.05,0,0,0-6.23,11.77l-2.64,7.85A9.51,9.51,0,0,0,396.33,504a22.09,22.09,0,0,1,3.58-2.73v54.51a30.34,30.34,0,0,0,1.71,60A104.93,104.93,0,0,0,430.36,671a103.06,103.06,0,0,0,73.79,31h0a104.34,104.34,0,0,0,102.7-86.24A30.31,30.31,0,0,0,633.21,585.73ZM586.46,444a24.11,24.11,0,0,1,10.92,20.3v71.57a35.59,35.59,0,0,1-30-35.06l-.43-60.14A23.79,23.79,0,0,1,586.46,444ZM392.66,493l1-3.16a30.61,30.61,0,0,1,42-17.91,41.84,41.84,0,0,0,48.71-10.15l1.36-1.54a5.5,5.5,0,1,0-8.27-7.25l-1.36,1.54A31,31,0,0,1,440.17,462a41.67,41.67,0,0,0-34-.51c-1,.43-2,.94-2.9,1.36,6.4-17,21.75-28.92,46-35.57a125.2,125.2,0,0,1,74,2.47l32.59,11.09.43,28.23a96.75,96.75,0,0,1-130.68,23.63A29.34,29.34,0,0,0,392.66,493Zm-6.74,92.72a19.45,19.45,0,0,1,13.9-18.6v29.68q0,3.84.26,7.68A19.7,19.7,0,0,1,385.92,585.73Zm184.17,78.05a92.52,92.52,0,0,1-65.94,27.3h0a92.42,92.42,0,0,1-66-27.72,94.26,94.26,0,0,1-27.3-66.54v-98a18.78,18.78,0,0,1,9,3.07A107.64,107.64,0,0,0,556.44,486.1v14.84A46.42,46.42,0,0,0,597.38,547v50.84A92.87,92.87,0,0,1,570.08,663.78Zm38-59.37c.17-2.22.17-4.35.17-6.57V567.14a19.41,19.41,0,0,1-.17,37.28Z"/></svg>