<svg id="Layer_1" data-name="Layer 1" xmlns="http://www.w3.org/2000/svg" viewBox="0 0 1000 1000"><defs><style>.cls-1{fill:#74a3e9;}.cls-2{fill:#fff;}</style></defs><title>start-blank-book-icon</title><rect class="cls-1" width="1000" height="1000"/><path class="cls-2" d="M693.39,275.19H354.52a9.27,9.27,0,1,0,0,18.3H693.39a9.27,9.27,0,1,0,0-18.3Z"/><path class="cls-2" d="M693.39,311.79H354.52a9.27,9.27,0,0,0,0,18.3H693.39a9.27,9.27,0,1,0,0-18.3Z"/><path class="cls-2" d="M702.19,348.38H354.52a45.87,45.87,0,1,1,0-91.49H702.19a9.27,9.27,0,0,0,0-18.3H354.52a64.4,64.4,0,0,0-63,49.43,8.56,8.56,0,0,0-2.14,4.75v402.8a65.59,65.59,0,0,0,65.11,65.83H647.29a63.93,63.93,0,0,0,63.21-64.63h0V357.41a7.84,7.84,0,0,0-8.32-9Zm-10,347.2a45.63,45.63,0,0,1-43.68,47.49l-1.23,0H354.52A47.53,47.53,0,0,1,307,695.58V346.72a71.29,71.29,0,0,0,47.53,20H692.21Z"/><path class="cls-2" d="M357.78,566.1q-6.93-7-6.93-19.78a33,33,0,0,1,2.63-13.25,22.53,22.53,0,0,1,8.09-9.81A23.25,23.25,0,0,1,375,519.52,23.54,23.54,0,0,1,388,523a22.58,22.58,0,0,1,8.29,9.31,28.63,28.63,0,0,1,2.83,12.7,4.42,4.42,0,0,1-4.65,4.55H360.16q.81,7.08,5.26,11t12.44,3.95a30.33,30.33,0,0,0,7.44-.81,30.83,30.83,0,0,0,6.22-2.33,4.21,4.21,0,0,1,4.65.71,3.68,3.68,0,0,1,1.21,2.83q0,2.23-2.63,3.74a31.6,31.6,0,0,1-17.7,4.45Q364.71,573.13,357.78,566.1Zm32.22-24a16.21,16.21,0,0,0-2.58-8.29,13.94,13.94,0,0,0-5.61-4.91,15.44,15.44,0,0,0-13.56,0,13.59,13.59,0,0,0-5.56,4.91,16.51,16.51,0,0,0-2.53,8.29Z"/><path class="cls-2" d="M412.56,571.31a4.39,4.39,0,0,1-1.31-3.24v-43.4a4.57,4.57,0,0,1,1.31-3.29A4.31,4.31,0,0,1,415.8,520a4.66,4.66,0,0,1,4.65,4.65v4.15a25.22,25.22,0,0,1,6.83-6.68q4-2.63,10.37-2.63a15.73,15.73,0,0,1,9.71,3,17,17,0,0,1,5.77,7.38q6.27-10.42,18.61-10.42a15.38,15.38,0,0,1,9.46,2.83,16.9,16.9,0,0,1,5.61,7.28,24.35,24.35,0,0,1,1.82,9.31v29.13a4.31,4.31,0,0,1-1.37,3.24,4.58,4.58,0,0,1-3.29,1.32,4.49,4.49,0,0,1-4.55-4.55V540.76q0-6.57-2.33-9.66t-8-3.08a13.36,13.36,0,0,0-8.55,2.68,25.93,25.93,0,0,0-6,7v30.35a4.31,4.31,0,0,1-1.37,3.24,4.57,4.57,0,0,1-3.29,1.32,4.49,4.49,0,0,1-4.55-4.55V540.76q0-6.57-2.33-9.66T435,528a13.36,13.36,0,0,0-8.55,2.68,25.93,25.93,0,0,0-6,7v30.35a4.31,4.31,0,0,1-1.37,3.24,4.57,4.57,0,0,1-3.29,1.32A4.4,4.4,0,0,1,412.56,571.31Z"/><path class="cls-2" d="M505.42,594.53a4.57,4.57,0,0,1-1.32-3.29V524.58a4.49,4.49,0,0,1,4.55-4.55,4.58,4.58,0,0,1,3.29,1.31,4.32,4.32,0,0,1,1.37,3.24v2.63q7.38-7.69,17.3-7.69a23.72,23.72,0,0,1,11.89,3.19,24.19,24.19,0,0,1,9.1,9.31,31.1,31.1,0,0,1,0,28.63,24.17,24.17,0,0,1-9.1,9.31,23.72,23.72,0,0,1-11.89,3.19q-9.92,0-17.3-7.69v25.8a4.5,4.5,0,0,1-4.65,4.65A4.32,4.32,0,0,1,505.42,594.53Zm35.91-34.75q4.55-4.75,4.55-13.45t-4.55-13.45q-4.55-4.75-12-4.75a19.12,19.12,0,0,0-8.75,2.07,25,25,0,0,0-7.23,5.51v21.24a24.94,24.94,0,0,0,7.23,5.51,19.1,19.1,0,0,0,8.75,2.07Q536.78,564.54,541.33,559.78Z"/><path class="cls-2" d="M570.57,559.78V528.42h-7.18a1.9,1.9,0,0,1-1.92-1.92,2.12,2.12,0,0,1,.91-1.72l13.76-13.45a2.55,2.55,0,0,1,1.72-.91,1.78,1.78,0,0,1,1.37.61,2,2,0,0,1,.56,1.42v8.09H591.2a3.81,3.81,0,0,1,3.95,3.94,3.88,3.88,0,0,1-1.11,2.78,3.75,3.75,0,0,1-2.83,1.16H579.77V559q0,3.94,1.87,5a9.43,9.43,0,0,0,4.7,1.06,14,14,0,0,0,4-.61l.86-.2a5.58,5.58,0,0,1,1.16-.1,3.57,3.57,0,0,1,2.53,1.06,3.44,3.44,0,0,1,1.11,2.58,3.82,3.82,0,0,1-2.33,3.54,19.8,19.8,0,0,1-8.4,1.82Q570.57,573.13,570.57,559.78Z"/><path class="cls-2" d="M614.12,594.58a4.36,4.36,0,0,1-1.26-3.14,4.56,4.56,0,0,1,.3-1.62l6.58-16.89-19-46.33a5.16,5.16,0,0,1-.41-1.92,4.57,4.57,0,0,1,1.32-3.29,4.31,4.31,0,0,1,3.24-1.37,4.42,4.42,0,0,1,2.58.81,4.61,4.61,0,0,1,1.67,2l15.58,38.64,15.88-38.44a4.42,4.42,0,0,1,4.25-3,4.32,4.32,0,0,1,3.24,1.37,4.58,4.58,0,0,1,1.31,3.29,4.84,4.84,0,0,1-.3,1.72l-27.62,66.36q-1.42,3.13-4.25,3.14A4.12,4.12,0,0,1,614.12,594.58Z"/></svg>